<?xml version="1.0" encoding="utf-8" standalone="no"?>
<!DOCTYPE svg PUBLIC "-//W3C//DTD SVG 1.1//EN"
  "http://www.w3.org/Graphics/SVG/1.1/DTD/svg11.dtd">
<svg xmlns:xlink="http://www.w3.org/1999/xlink" width="931.290313pt" height="361.465pt" viewBox="0 0 931.290313 361.465" xmlns="http://www.w3.org/2000/svg" version="1.1">
 <metadata>
  <rdf:RDF xmlns:dc="http://purl.org/dc/elements/1.1/" xmlns:cc="http://creativecommons.org/ns#" xmlns:rdf="http://www.w3.org/1999/02/22-rdf-syntax-ns#">
   <cc:Work>
    <dc:type rdf:resource="http://purl.org/dc/dcmitype/StillImage"/>
    <dc:date>2026-05-29T04:42:51.504663</dc:date>
    <dc:format>image/svg+xml</dc:format>
    <dc:creator>
     <cc:Agent>
      <dc:title>Matplotlib v3.10.9, https://matplotlib.org/</dc:title>
     </cc:Agent>
    </dc:creator>
   </cc:Work>
  </rdf:RDF>
 </metadata>
 <defs>
  <style type="text/css">*{stroke-linejoin: round; stroke-linecap: butt}</style>
 </defs>
 <g id="figure_1">
  <g id="patch_1">
   <path d="M 0 361.465 
L 931.290313 361.465 
L 931.290313 -0 
L 0 -0 
z
" style="fill: #ffffff"/>
  </g>
  <g id="axes_1">
   <g id="patch_2">
    <path d="M 55.970313 319.19875 
L 458.970312 319.19875 
L 458.970312 53.80125 
L 55.970313 53.80125 
z
" style="fill: #ffffff"/>
   </g>
   <g id="patch_3">
    <path d="M 74.288494 319.19875 
L 82.083465 319.19875 
L 82.083465 319.19875 
L 74.288494 319.19875 
z
" clip-path="url(#p19b27e4083)" style="fill: #37474f; opacity: 0.75"/>
   </g>
   <g id="patch_4">
    <path d="M 105.468378 319.19875 
L 113.263349 319.19875 
L 113.263349 319.19875 
L 105.468378 319.19875 
z
" clip-path="url(#p19b27e4083)" style="fill: #37474f; opacity: 0.75"/>
   </g>
   <g id="patch_5">
    <path d="M 136.648262 319.19875 
L 144.443233 319.19875 
L 144.443233 319.19875 
L 136.648262 319.19875 
z
" clip-path="url(#p19b27e4083)" style="fill: #37474f; opacity: 0.75"/>
   </g>
   <g id="patch_6">
    <path d="M 167.828146 319.19875 
L 175.623117 319.19875 
L 175.623117 319.19875 
L 167.828146 319.19875 
z
" clip-path="url(#p19b27e4083)" style="fill: #37474f; opacity: 0.75"/>
   </g>
   <g id="patch_7">
    <path d="M 199.00803 319.19875 
L 206.803001 319.19875 
L 206.803001 206.490254 
L 199.00803 206.490254 
z
" clip-path="url(#p19b27e4083)" style="fill: #37474f; opacity: 0.75"/>
   </g>
   <g id="patch_8">
    <path d="M 230.187914 319.19875 
L 237.982885 319.19875 
L 237.982885 319.19875 
L 230.187914 319.19875 
z
" clip-path="url(#p19b27e4083)" style="fill: #37474f; opacity: 0.75"/>
   </g>
   <g id="patch_9">
    <path d="M 261.367798 319.19875 
L 269.162769 319.19875 
L 269.162769 319.19875 
L 261.367798 319.19875 
z
" clip-path="url(#p19b27e4083)" style="fill: #37474f; opacity: 0.75"/>
   </g>
   <g id="patch_10">
    <path d="M 292.547682 319.19875 
L 300.342653 319.19875 
L 300.342653 319.19875 
L 292.547682 319.19875 
z
" clip-path="url(#p19b27e4083)" style="fill: #37474f; opacity: 0.75"/>
   </g>
   <g id="patch_11">
    <path d="M 323.727566 319.19875 
L 331.522537 319.19875 
L 331.522537 319.19875 
L 323.727566 319.19875 
z
" clip-path="url(#p19b27e4083)" style="fill: #37474f; opacity: 0.75"/>
   </g>
   <g id="patch_12">
    <path d="M 354.90745 319.19875 
L 362.702421 319.19875 
L 362.702421 319.19875 
L 354.90745 319.19875 
z
" clip-path="url(#p19b27e4083)" style="fill: #37474f; opacity: 0.75"/>
   </g>
   <g id="patch_13">
    <path d="M 386.087334 319.19875 
L 393.882305 319.19875 
L 393.882305 319.19875 
L 386.087334 319.19875 
z
" clip-path="url(#p19b27e4083)" style="fill: #37474f; opacity: 0.75"/>
   </g>
   <g id="patch_14">
    <path d="M 417.267218 319.19875 
L 425.062189 319.19875 
L 425.062189 319.19875 
L 417.267218 319.19875 
z
" clip-path="url(#p19b27e4083)" style="fill: #37474f; opacity: 0.75"/>
   </g>
   <g id="patch_15">
    <path d="M 82.083465 319.19875 
L 89.878436 319.19875 
L 89.878436 319.19875 
L 82.083465 319.19875 
z
" clip-path="url(#p19b27e4083)" style="fill: #1565c0; opacity: 0.75"/>
   </g>
   <g id="patch_16">
    <path d="M 113.263349 319.19875 
L 121.05832 319.19875 
L 121.05832 319.19875 
L 113.263349 319.19875 
z
" clip-path="url(#p19b27e4083)" style="fill: #1565c0; opacity: 0.75"/>
   </g>
   <g id="patch_17">
    <path d="M 144.443233 319.19875 
L 152.238204 319.19875 
L 152.238204 319.19875 
L 144.443233 319.19875 
z
" clip-path="url(#p19b27e4083)" style="fill: #1565c0; opacity: 0.75"/>
   </g>
   <g id="patch_18">
    <path d="M 175.623117 319.19875 
L 183.418088 319.19875 
L 183.418088 319.19875 
L 175.623117 319.19875 
z
" clip-path="url(#p19b27e4083)" style="fill: #1565c0; opacity: 0.75"/>
   </g>
   <g id="patch_19">
    <path d="M 206.803001 319.19875 
L 214.597972 319.19875 
L 214.597972 319.19875 
L 206.803001 319.19875 
z
" clip-path="url(#p19b27e4083)" style="fill: #1565c0; opacity: 0.75"/>
   </g>
   <g id="patch_20">
    <path d="M 237.982885 319.19875 
L 245.777856 319.19875 
L 245.777856 244.383513 
L 237.982885 244.383513 
z
" clip-path="url(#p19b27e4083)" style="fill: #1565c0; opacity: 0.75"/>
   </g>
   <g id="patch_21">
    <path d="M 269.162769 319.19875 
L 276.95774 319.19875 
L 276.95774 319.19875 
L 269.162769 319.19875 
z
" clip-path="url(#p19b27e4083)" style="fill: #1565c0; opacity: 0.75"/>
   </g>
   <g id="patch_22">
    <path d="M 300.342653 319.19875 
L 308.137624 319.19875 
L 308.137624 236.699703 
L 300.342653 236.699703 
z
" clip-path="url(#p19b27e4083)" style="fill: #1565c0; opacity: 0.75"/>
   </g>
   <g id="patch_23">
    <path d="M 331.522537 319.19875 
L 339.317508 319.19875 
L 339.317508 233.638418 
L 331.522537 233.638418 
z
" clip-path="url(#p19b27e4083)" style="fill: #1565c0; opacity: 0.75"/>
   </g>
   <g id="patch_24">
    <path d="M 362.702421 319.19875 
L 370.497392 319.19875 
L 370.497392 319.19875 
L 362.702421 319.19875 
z
" clip-path="url(#p19b27e4083)" style="fill: #1565c0; opacity: 0.75"/>
   </g>
   <g id="patch_25">
    <path d="M 393.882305 319.19875 
L 401.677276 319.19875 
L 401.677276 319.19875 
L 393.882305 319.19875 
z
" clip-path="url(#p19b27e4083)" style="fill: #1565c0; opacity: 0.75"/>
   </g>
   <g id="patch_26">
    <path d="M 425.062189 319.19875 
L 432.85716 319.19875 
L 432.85716 319.19875 
L 425.062189 319.19875 
z
" clip-path="url(#p19b27e4083)" style="fill: #1565c0; opacity: 0.75"/>
   </g>
   <g id="patch_27">
    <path d="M 89.878436 319.19875 
L 97.673407 319.19875 
L 97.673407 319.19875 
L 89.878436 319.19875 
z
" clip-path="url(#p19b27e4083)" style="fill: #e65100; opacity: 0.75"/>
   </g>
   <g id="patch_28">
    <path d="M 121.05832 319.19875 
L 128.853291 319.19875 
L 128.853291 319.19875 
L 121.05832 319.19875 
z
" clip-path="url(#p19b27e4083)" style="fill: #e65100; opacity: 0.75"/>
   </g>
   <g id="patch_29">
    <path d="M 152.238204 319.19875 
L 160.033175 319.19875 
L 160.033175 319.19875 
L 152.238204 319.19875 
z
" clip-path="url(#p19b27e4083)" style="fill: #e65100; opacity: 0.75"/>
   </g>
   <g id="patch_30">
    <path d="M 183.418088 319.19875 
L 191.213059 319.19875 
L 191.213059 319.19875 
L 183.418088 319.19875 
z
" clip-path="url(#p19b27e4083)" style="fill: #e65100; opacity: 0.75"/>
   </g>
   <g id="patch_31">
    <path d="M 214.597972 319.19875 
L 222.392943 319.19875 
L 222.392943 319.19875 
L 214.597972 319.19875 
z
" clip-path="url(#p19b27e4083)" style="fill: #e65100; opacity: 0.75"/>
   </g>
   <g id="patch_32">
    <path d="M 245.777856 319.19875 
L 253.572827 319.19875 
L 253.572827 319.19875 
L 245.777856 319.19875 
z
" clip-path="url(#p19b27e4083)" style="fill: #e65100; opacity: 0.75"/>
   </g>
   <g id="patch_33">
    <path d="M 276.95774 319.19875 
L 284.752711 319.19875 
L 284.752711 236.681173 
L 276.95774 236.681173 
z
" clip-path="url(#p19b27e4083)" style="fill: #e65100; opacity: 0.75"/>
   </g>
   <g id="patch_34">
    <path d="M 308.137624 319.19875 
L 315.932595 319.19875 
L 315.932595 319.19875 
L 308.137624 319.19875 
z
" clip-path="url(#p19b27e4083)" style="fill: #e65100; opacity: 0.75"/>
   </g>
   <g id="patch_35">
    <path d="M 339.317508 319.19875 
L 347.112479 319.19875 
L 347.112479 66.439226 
L 339.317508 66.439226 
z
" clip-path="url(#p19b27e4083)" style="fill: #e65100; opacity: 0.75"/>
   </g>
   <g id="patch_36">
    <path d="M 370.497392 319.19875 
L 378.292363 319.19875 
L 378.292363 319.19875 
L 370.497392 319.19875 
z
" clip-path="url(#p19b27e4083)" style="fill: #e65100; opacity: 0.75"/>
   </g>
   <g id="patch_37">
    <path d="M 401.677276 319.19875 
L 409.472247 319.19875 
L 409.472247 319.19875 
L 401.677276 319.19875 
z
" clip-path="url(#p19b27e4083)" style="fill: #e65100; opacity: 0.75"/>
   </g>
   <g id="patch_38">
    <path d="M 432.85716 319.19875 
L 440.652131 319.19875 
L 440.652131 319.19875 
L 432.85716 319.19875 
z
" clip-path="url(#p19b27e4083)" style="fill: #e65100; opacity: 0.75"/>
   </g>
   <g id="matplotlib.axis_1">
    <g id="xtick_1">
     <g id="line2d_1">
      <path d="M 85.980951 319.19875 
L 85.980951 53.80125 
" clip-path="url(#p19b27e4083)" style="fill: none; stroke-dasharray: 1.48,0.64; stroke-dashoffset: 0; stroke: #b0bec5; stroke-opacity: 0.4; stroke-width: 0.4"/>
     </g>
     <g id="line2d_2">
      <defs>
       <path id="m61095b4965" d="M 0 0 
L 0 3.5 
" style="stroke: #000000; stroke-width: 0.8"/>
      </defs>
      <g>
       <use xlink:href="#m61095b4965" x="85.980951" y="319.19875" style="stroke: #000000; stroke-width: 0.8"/>
      </g>
     </g>
     <g id="text_1">
      <!-- S1 -->
      <g transform="translate(78.411704 336.499639) rotate(-45) scale(0.07 -0.07)">
       <defs>
        <path id="DejaVuSerif-53" d="M 594 225 
L 594 1288 
L 953 1284 
Q 969 753 1261 498 
Q 1553 244 2150 244 
Q 2706 244 2998 464 
Q 3291 684 3291 1106 
Q 3291 1444 3114 1625 
Q 2938 1806 2369 1978 
L 1753 2163 
Q 1084 2366 811 2669 
Q 538 2972 538 3500 
Q 538 4094 959 4422 
Q 1381 4750 2144 4750 
Q 2469 4750 2856 4679 
Q 3244 4609 3681 4475 
L 3681 3481 
L 3328 3481 
Q 3275 3975 2998 4195 
Q 2722 4416 2156 4416 
Q 1663 4416 1405 4214 
Q 1147 4013 1147 3628 
Q 1147 3294 1340 3103 
Q 1534 2913 2163 2725 
L 2741 2553 
Q 3375 2363 3645 2067 
Q 3916 1772 3916 1275 
Q 3916 597 3481 253 
Q 3047 -91 2188 -91 
Q 1803 -91 1404 -12 
Q 1006 66 594 225 
z
" transform="scale(0.015625)"/>
        <path id="DejaVuSerif-31" d="M 909 0 
L 909 331 
L 1722 331 
L 1722 4213 
L 781 3603 
L 781 4013 
L 1919 4750 
L 2350 4750 
L 2350 331 
L 3163 331 
L 3163 0 
L 909 0 
z
" transform="scale(0.015625)"/>
       </defs>
       <use xlink:href="#DejaVuSerif-53"/>
       <use xlink:href="#DejaVuSerif-31" transform="translate(68.505859 0)"/>
      </g>
     </g>
    </g>
    <g id="xtick_2">
     <g id="line2d_3">
      <path d="M 117.160835 319.19875 
L 117.160835 53.80125 
" clip-path="url(#p19b27e4083)" style="fill: none; stroke-dasharray: 1.48,0.64; stroke-dashoffset: 0; stroke: #b0bec5; stroke-opacity: 0.4; stroke-width: 0.4"/>
     </g>
     <g id="line2d_4">
      <g>
       <use xlink:href="#m61095b4965" x="117.160835" y="319.19875" style="stroke: #000000; stroke-width: 0.8"/>
      </g>
     </g>
     <g id="text_2">
      <!-- S2 -->
      <g transform="translate(109.591588 336.499639) rotate(-45) scale(0.07 -0.07)">
       <defs>
        <path id="DejaVuSerif-32" d="M 819 3553 
L 469 3553 
L 469 4384 
Q 803 4563 1142 4656 
Q 1481 4750 1806 4750 
Q 2534 4750 2956 4397 
Q 3378 4044 3378 3438 
Q 3378 2753 2422 1800 
Q 2347 1728 2309 1691 
L 1131 513 
L 3078 513 
L 3078 1088 
L 3444 1088 
L 3444 0 
L 434 0 
L 434 341 
L 1850 1753 
Q 2319 2222 2519 2614 
Q 2719 3006 2719 3438 
Q 2719 3909 2473 4175 
Q 2228 4441 1797 4441 
Q 1350 4441 1106 4219 
Q 863 3997 819 3553 
z
" transform="scale(0.015625)"/>
       </defs>
       <use xlink:href="#DejaVuSerif-53"/>
       <use xlink:href="#DejaVuSerif-32" transform="translate(68.505859 0)"/>
      </g>
     </g>
    </g>
    <g id="xtick_3">
     <g id="line2d_5">
      <path d="M 148.340719 319.19875 
L 148.340719 53.80125 
" clip-path="url(#p19b27e4083)" style="fill: none; stroke-dasharray: 1.48,0.64; stroke-dashoffset: 0; stroke: #b0bec5; stroke-opacity: 0.4; stroke-width: 0.4"/>
     </g>
     <g id="line2d_6">
      <g>
       <use xlink:href="#m61095b4965" x="148.340719" y="319.19875" style="stroke: #000000; stroke-width: 0.8"/>
      </g>
     </g>
     <g id="text_3">
      <!-- S3 -->
      <g transform="translate(140.771472 336.499639) rotate(-45) scale(0.07 -0.07)">
       <defs>
        <path id="DejaVuSerif-33" d="M 622 4469 
Q 988 4606 1323 4678 
Q 1659 4750 1953 4750 
Q 2638 4750 3022 4454 
Q 3406 4159 3406 3634 
Q 3406 3213 3140 2930 
Q 2875 2647 2388 2547 
Q 2963 2466 3280 2130 
Q 3597 1794 3597 1259 
Q 3597 606 3158 257 
Q 2719 -91 1894 -91 
Q 1528 -91 1179 -12 
Q 831 66 488 225 
L 488 1131 
L 838 1131 
Q 869 681 1141 450 
Q 1413 219 1906 219 
Q 2384 219 2661 495 
Q 2938 772 2938 1253 
Q 2938 1803 2653 2086 
Q 2369 2369 1819 2369 
L 1522 2369 
L 1522 2688 
L 1678 2688 
Q 2225 2688 2498 2914 
Q 2772 3141 2772 3597 
Q 2772 4006 2547 4223 
Q 2322 4441 1900 4441 
Q 1478 4441 1245 4241 
Q 1013 4041 972 3647 
L 622 3647 
L 622 4469 
z
" transform="scale(0.015625)"/>
       </defs>
       <use xlink:href="#DejaVuSerif-53"/>
       <use xlink:href="#DejaVuSerif-33" transform="translate(68.505859 0)"/>
      </g>
     </g>
    </g>
    <g id="xtick_4">
     <g id="line2d_7">
      <path d="M 179.520603 319.19875 
L 179.520603 53.80125 
" clip-path="url(#p19b27e4083)" style="fill: none; stroke-dasharray: 1.48,0.64; stroke-dashoffset: 0; stroke: #b0bec5; stroke-opacity: 0.4; stroke-width: 0.4"/>
     </g>
     <g id="line2d_8">
      <g>
       <use xlink:href="#m61095b4965" x="179.520603" y="319.19875" style="stroke: #000000; stroke-width: 0.8"/>
      </g>
     </g>
     <g id="text_4">
      <!-- S4 -->
      <g transform="translate(171.951356 336.499639) rotate(-45) scale(0.07 -0.07)">
       <defs>
        <path id="DejaVuSerif-34" d="M 2234 1581 
L 2234 4063 
L 641 1581 
L 2234 1581 
z
M 3609 0 
L 1484 0 
L 1484 331 
L 2234 331 
L 2234 1247 
L 197 1247 
L 197 1588 
L 2241 4750 
L 2859 4750 
L 2859 1581 
L 3750 1581 
L 3750 1247 
L 2859 1247 
L 2859 331 
L 3609 331 
L 3609 0 
z
" transform="scale(0.015625)"/>
       </defs>
       <use xlink:href="#DejaVuSerif-53"/>
       <use xlink:href="#DejaVuSerif-34" transform="translate(68.505859 0)"/>
      </g>
     </g>
    </g>
    <g id="xtick_5">
     <g id="line2d_9">
      <path d="M 210.700487 319.19875 
L 210.700487 53.80125 
" clip-path="url(#p19b27e4083)" style="fill: none; stroke-dasharray: 1.48,0.64; stroke-dashoffset: 0; stroke: #b0bec5; stroke-opacity: 0.4; stroke-width: 0.4"/>
     </g>
     <g id="line2d_10">
      <g>
       <use xlink:href="#m61095b4965" x="210.700487" y="319.19875" style="stroke: #000000; stroke-width: 0.8"/>
      </g>
     </g>
     <g id="text_5">
      <!-- S5 -->
      <g transform="translate(203.13124 336.499639) rotate(-45) scale(0.07 -0.07)">
       <defs>
        <path id="DejaVuSerif-35" d="M 3219 4666 
L 3219 4153 
L 1081 4153 
L 1081 2816 
Q 1244 2928 1461 2984 
Q 1678 3041 1947 3041 
Q 2703 3041 3140 2622 
Q 3578 2203 3578 1478 
Q 3578 738 3136 323 
Q 2694 -91 1894 -91 
Q 1572 -91 1234 -12 
Q 897 66 544 225 
L 544 1131 
L 897 1131 
Q 925 688 1179 453 
Q 1434 219 1894 219 
Q 2388 219 2653 544 
Q 2919 869 2919 1478 
Q 2919 2084 2655 2407 
Q 2391 2731 1894 2731 
Q 1613 2731 1398 2631 
Q 1184 2531 1019 2322 
L 750 2322 
L 750 4666 
L 3219 4666 
z
" transform="scale(0.015625)"/>
       </defs>
       <use xlink:href="#DejaVuSerif-53"/>
       <use xlink:href="#DejaVuSerif-35" transform="translate(68.505859 0)"/>
      </g>
     </g>
    </g>
    <g id="xtick_6">
     <g id="line2d_11">
      <path d="M 241.880371 319.19875 
L 241.880371 53.80125 
" clip-path="url(#p19b27e4083)" style="fill: none; stroke-dasharray: 1.48,0.64; stroke-dashoffset: 0; stroke: #b0bec5; stroke-opacity: 0.4; stroke-width: 0.4"/>
     </g>
     <g id="line2d_12">
      <g>
       <use xlink:href="#m61095b4965" x="241.880371" y="319.19875" style="stroke: #000000; stroke-width: 0.8"/>
      </g>
     </g>
     <g id="text_6">
      <!-- S6 -->
      <g transform="translate(234.311124 336.499639) rotate(-45) scale(0.07 -0.07)">
       <defs>
        <path id="DejaVuSerif-36" d="M 2094 219 
Q 2534 219 2771 542 
Q 3009 866 3009 1472 
Q 3009 2078 2771 2401 
Q 2534 2725 2094 2725 
Q 1647 2725 1412 2412 
Q 1178 2100 1178 1509 
Q 1178 888 1415 553 
Q 1653 219 2094 219 
z
M 1075 2569 
Q 1288 2803 1556 2918 
Q 1825 3034 2163 3034 
Q 2859 3034 3264 2615 
Q 3669 2197 3669 1472 
Q 3669 763 3233 336 
Q 2797 -91 2069 -91 
Q 1278 -91 853 498 
Q 428 1088 428 2181 
Q 428 3406 931 4078 
Q 1434 4750 2350 4750 
Q 2597 4750 2869 4703 
Q 3141 4656 3425 4563 
L 3425 3794 
L 3072 3794 
Q 3034 4109 2831 4275 
Q 2628 4441 2284 4441 
Q 1678 4441 1381 3981 
Q 1084 3522 1075 2569 
z
" transform="scale(0.015625)"/>
       </defs>
       <use xlink:href="#DejaVuSerif-53"/>
       <use xlink:href="#DejaVuSerif-36" transform="translate(68.505859 0)"/>
      </g>
     </g>
    </g>
    <g id="xtick_7">
     <g id="line2d_13">
      <path d="M 273.060254 319.19875 
L 273.060254 53.80125 
" clip-path="url(#p19b27e4083)" style="fill: none; stroke-dasharray: 1.48,0.64; stroke-dashoffset: 0; stroke: #b0bec5; stroke-opacity: 0.4; stroke-width: 0.4"/>
     </g>
     <g id="line2d_14">
      <g>
       <use xlink:href="#m61095b4965" x="273.060254" y="319.19875" style="stroke: #000000; stroke-width: 0.8"/>
      </g>
     </g>
     <g id="text_7">
      <!-- S7 -->
      <g transform="translate(265.491008 336.499639) rotate(-45) scale(0.07 -0.07)">
       <defs>
        <path id="DejaVuSerif-37" d="M 3609 4347 
L 1784 0 
L 1319 0 
L 3059 4153 
L 903 4153 
L 903 3578 
L 538 3578 
L 538 4666 
L 3609 4666 
L 3609 4347 
z
" transform="scale(0.015625)"/>
       </defs>
       <use xlink:href="#DejaVuSerif-53"/>
       <use xlink:href="#DejaVuSerif-37" transform="translate(68.505859 0)"/>
      </g>
     </g>
    </g>
    <g id="xtick_8">
     <g id="line2d_15">
      <path d="M 304.240138 319.19875 
L 304.240138 53.80125 
" clip-path="url(#p19b27e4083)" style="fill: none; stroke-dasharray: 1.48,0.64; stroke-dashoffset: 0; stroke: #b0bec5; stroke-opacity: 0.4; stroke-width: 0.4"/>
     </g>
     <g id="line2d_16">
      <g>
       <use xlink:href="#m61095b4965" x="304.240138" y="319.19875" style="stroke: #000000; stroke-width: 0.8"/>
      </g>
     </g>
     <g id="text_8">
      <!-- S8 -->
      <g transform="translate(296.670892 336.499639) rotate(-45) scale(0.07 -0.07)">
       <defs>
        <path id="DejaVuSerif-38" d="M 2981 1275 
Q 2981 1775 2732 2051 
Q 2484 2328 2034 2328 
Q 1584 2328 1336 2051 
Q 1088 1775 1088 1275 
Q 1088 772 1336 495 
Q 1584 219 2034 219 
Q 2484 219 2732 495 
Q 2981 772 2981 1275 
z
M 2853 3541 
Q 2853 3966 2637 4203 
Q 2422 4441 2034 4441 
Q 1650 4441 1433 4203 
Q 1216 3966 1216 3541 
Q 1216 3113 1433 2875 
Q 1650 2638 2034 2638 
Q 2422 2638 2637 2875 
Q 2853 3113 2853 3541 
z
M 2516 2484 
Q 3047 2413 3344 2092 
Q 3641 1772 3641 1275 
Q 3641 619 3225 264 
Q 2809 -91 2034 -91 
Q 1263 -91 845 264 
Q 428 619 428 1275 
Q 428 1772 725 2092 
Q 1022 2413 1556 2484 
Q 1084 2569 832 2842 
Q 581 3116 581 3541 
Q 581 4103 968 4426 
Q 1356 4750 2034 4750 
Q 2713 4750 3100 4426 
Q 3488 4103 3488 3541 
Q 3488 3116 3236 2842 
Q 2984 2569 2516 2484 
z
" transform="scale(0.015625)"/>
       </defs>
       <use xlink:href="#DejaVuSerif-53"/>
       <use xlink:href="#DejaVuSerif-38" transform="translate(68.505859 0)"/>
      </g>
     </g>
    </g>
    <g id="xtick_9">
     <g id="line2d_17">
      <path d="M 335.420022 319.19875 
L 335.420022 53.80125 
" clip-path="url(#p19b27e4083)" style="fill: none; stroke-dasharray: 1.48,0.64; stroke-dashoffset: 0; stroke: #b0bec5; stroke-opacity: 0.4; stroke-width: 0.4"/>
     </g>
     <g id="line2d_18">
      <g>
       <use xlink:href="#m61095b4965" x="335.420022" y="319.19875" style="stroke: #000000; stroke-width: 0.8"/>
      </g>
     </g>
     <g id="text_9">
      <!-- S9 -->
      <g transform="translate(327.850776 336.499639) rotate(-45) scale(0.07 -0.07)">
       <defs>
        <path id="DejaVuSerif-39" d="M 2994 2091 
Q 2784 1856 2512 1740 
Q 2241 1625 1900 1625 
Q 1206 1625 804 2044 
Q 403 2463 403 3188 
Q 403 3897 839 4323 
Q 1275 4750 2003 4750 
Q 2794 4750 3217 4161 
Q 3641 3572 3641 2478 
Q 3641 1253 3137 581 
Q 2634 -91 1722 -91 
Q 1475 -91 1203 -44 
Q 931 3 647 97 
L 647 872 
L 997 872 
Q 1038 556 1241 387 
Q 1444 219 1784 219 
Q 2391 219 2687 676 
Q 2984 1134 2994 2091 
z
M 1978 4441 
Q 1534 4441 1298 4117 
Q 1063 3794 1063 3188 
Q 1063 2581 1298 2256 
Q 1534 1931 1978 1931 
Q 2422 1931 2658 2245 
Q 2894 2559 2894 3150 
Q 2894 3772 2656 4106 
Q 2419 4441 1978 4441 
z
" transform="scale(0.015625)"/>
       </defs>
       <use xlink:href="#DejaVuSerif-53"/>
       <use xlink:href="#DejaVuSerif-39" transform="translate(68.505859 0)"/>
      </g>
     </g>
    </g>
    <g id="xtick_10">
     <g id="line2d_19">
      <path d="M 366.599906 319.19875 
L 366.599906 53.80125 
" clip-path="url(#p19b27e4083)" style="fill: none; stroke-dasharray: 1.48,0.64; stroke-dashoffset: 0; stroke: #b0bec5; stroke-opacity: 0.4; stroke-width: 0.4"/>
     </g>
     <g id="line2d_20">
      <g>
       <use xlink:href="#m61095b4965" x="366.599906" y="319.19875" style="stroke: #000000; stroke-width: 0.8"/>
      </g>
     </g>
     <g id="text_10">
      <!-- S10 -->
      <g transform="translate(355.881383 339.648915) rotate(-45) scale(0.07 -0.07)">
       <defs>
        <path id="DejaVuSerif-30" d="M 2034 219 
Q 2513 219 2750 744 
Q 2988 1269 2988 2328 
Q 2988 3391 2750 3916 
Q 2513 4441 2034 4441 
Q 1556 4441 1318 3916 
Q 1081 3391 1081 2328 
Q 1081 1269 1318 744 
Q 1556 219 2034 219 
z
M 2034 -91 
Q 1275 -91 848 546 
Q 422 1184 422 2328 
Q 422 3475 848 4112 
Q 1275 4750 2034 4750 
Q 2797 4750 3222 4112 
Q 3647 3475 3647 2328 
Q 3647 1184 3222 546 
Q 2797 -91 2034 -91 
z
" transform="scale(0.015625)"/>
       </defs>
       <use xlink:href="#DejaVuSerif-53"/>
       <use xlink:href="#DejaVuSerif-31" transform="translate(68.505859 0)"/>
       <use xlink:href="#DejaVuSerif-30" transform="translate(132.128906 0)"/>
      </g>
     </g>
    </g>
    <g id="xtick_11">
     <g id="line2d_21">
      <path d="M 397.77979 319.19875 
L 397.77979 53.80125 
" clip-path="url(#p19b27e4083)" style="fill: none; stroke-dasharray: 1.48,0.64; stroke-dashoffset: 0; stroke: #b0bec5; stroke-opacity: 0.4; stroke-width: 0.4"/>
     </g>
     <g id="line2d_22">
      <g>
       <use xlink:href="#m61095b4965" x="397.77979" y="319.19875" style="stroke: #000000; stroke-width: 0.8"/>
      </g>
     </g>
     <g id="text_11">
      <!-- S11 -->
      <g transform="translate(387.061267 339.648915) rotate(-45) scale(0.07 -0.07)">
       <use xlink:href="#DejaVuSerif-53"/>
       <use xlink:href="#DejaVuSerif-31" transform="translate(68.505859 0)"/>
       <use xlink:href="#DejaVuSerif-31" transform="translate(132.128906 0)"/>
      </g>
     </g>
    </g>
    <g id="xtick_12">
     <g id="line2d_23">
      <path d="M 428.959674 319.19875 
L 428.959674 53.80125 
" clip-path="url(#p19b27e4083)" style="fill: none; stroke-dasharray: 1.48,0.64; stroke-dashoffset: 0; stroke: #b0bec5; stroke-opacity: 0.4; stroke-width: 0.4"/>
     </g>
     <g id="line2d_24">
      <g>
       <use xlink:href="#m61095b4965" x="428.959674" y="319.19875" style="stroke: #000000; stroke-width: 0.8"/>
      </g>
     </g>
     <g id="text_12">
      <!-- S12 -->
      <g transform="translate(418.241151 339.648915) rotate(-45) scale(0.07 -0.07)">
       <use xlink:href="#DejaVuSerif-53"/>
       <use xlink:href="#DejaVuSerif-31" transform="translate(68.505859 0)"/>
       <use xlink:href="#DejaVuSerif-32" transform="translate(132.128906 0)"/>
      </g>
     </g>
    </g>
   </g>
   <g id="matplotlib.axis_2">
    <g id="ytick_1">
     <g id="line2d_25">
      <path d="M 55.970313 319.19875 
L 458.970312 319.19875 
" clip-path="url(#p19b27e4083)" style="fill: none; stroke-dasharray: 1.48,0.64; stroke-dashoffset: 0; stroke: #b0bec5; stroke-opacity: 0.4; stroke-width: 0.4"/>
     </g>
     <g id="line2d_26">
      <defs>
       <path id="mb8d358cdfe" d="M 0 0 
L -3.5 0 
" style="stroke: #000000; stroke-width: 0.8"/>
      </defs>
      <g>
       <use xlink:href="#mb8d358cdfe" x="55.970313" y="319.19875" style="stroke: #000000; stroke-width: 0.8"/>
      </g>
     </g>
     <g id="text_13">
      <!-- 1.00 -->
      <g transform="translate(24.478125 323.377891) scale(0.11 -0.11)">
       <defs>
        <path id="DejaVuSerif-2e" d="M 603 325 
Q 603 500 722 622 
Q 841 744 1019 744 
Q 1191 744 1312 622 
Q 1434 500 1434 325 
Q 1434 153 1312 31 
Q 1191 -91 1019 -91 
Q 841 -91 722 29 
Q 603 150 603 325 
z
" transform="scale(0.015625)"/>
       </defs>
       <use xlink:href="#DejaVuSerif-31"/>
       <use xlink:href="#DejaVuSerif-2e" transform="translate(63.623047 0)"/>
       <use xlink:href="#DejaVuSerif-30" transform="translate(95.410156 0)"/>
       <use xlink:href="#DejaVuSerif-30" transform="translate(159.033203 0)"/>
      </g>
     </g>
    </g>
    <g id="ytick_2">
     <g id="line2d_27">
      <path d="M 55.970313 267.828651 
L 458.970312 267.828651 
" clip-path="url(#p19b27e4083)" style="fill: none; stroke-dasharray: 1.48,0.64; stroke-dashoffset: 0; stroke: #b0bec5; stroke-opacity: 0.4; stroke-width: 0.4"/>
     </g>
     <g id="line2d_28">
      <g>
       <use xlink:href="#mb8d358cdfe" x="55.970313" y="267.828651" style="stroke: #000000; stroke-width: 0.8"/>
      </g>
     </g>
     <g id="text_14">
      <!-- 1.02 -->
      <g transform="translate(24.478125 272.007792) scale(0.11 -0.11)">
       <use xlink:href="#DejaVuSerif-31"/>
       <use xlink:href="#DejaVuSerif-2e" transform="translate(63.623047 0)"/>
       <use xlink:href="#DejaVuSerif-30" transform="translate(95.410156 0)"/>
       <use xlink:href="#DejaVuSerif-32" transform="translate(159.033203 0)"/>
      </g>
     </g>
    </g>
    <g id="ytick_3">
     <g id="line2d_29">
      <path d="M 55.970313 216.458552 
L 458.970312 216.458552 
" clip-path="url(#p19b27e4083)" style="fill: none; stroke-dasharray: 1.48,0.64; stroke-dashoffset: 0; stroke: #b0bec5; stroke-opacity: 0.4; stroke-width: 0.4"/>
     </g>
     <g id="line2d_30">
      <g>
       <use xlink:href="#mb8d358cdfe" x="55.970313" y="216.458552" style="stroke: #000000; stroke-width: 0.8"/>
      </g>
     </g>
     <g id="text_15">
      <!-- 1.04 -->
      <g transform="translate(24.478125 220.637693) scale(0.11 -0.11)">
       <use xlink:href="#DejaVuSerif-31"/>
       <use xlink:href="#DejaVuSerif-2e" transform="translate(63.623047 0)"/>
       <use xlink:href="#DejaVuSerif-30" transform="translate(95.410156 0)"/>
       <use xlink:href="#DejaVuSerif-34" transform="translate(159.033203 0)"/>
      </g>
     </g>
    </g>
    <g id="ytick_4">
     <g id="line2d_31">
      <path d="M 55.970313 165.088453 
L 458.970312 165.088453 
" clip-path="url(#p19b27e4083)" style="fill: none; stroke-dasharray: 1.48,0.64; stroke-dashoffset: 0; stroke: #b0bec5; stroke-opacity: 0.4; stroke-width: 0.4"/>
     </g>
     <g id="line2d_32">
      <g>
       <use xlink:href="#mb8d358cdfe" x="55.970313" y="165.088453" style="stroke: #000000; stroke-width: 0.8"/>
      </g>
     </g>
     <g id="text_16">
      <!-- 1.06 -->
      <g transform="translate(24.478125 169.267593) scale(0.11 -0.11)">
       <use xlink:href="#DejaVuSerif-31"/>
       <use xlink:href="#DejaVuSerif-2e" transform="translate(63.623047 0)"/>
       <use xlink:href="#DejaVuSerif-30" transform="translate(95.410156 0)"/>
       <use xlink:href="#DejaVuSerif-36" transform="translate(159.033203 0)"/>
      </g>
     </g>
    </g>
    <g id="ytick_5">
     <g id="line2d_33">
      <path d="M 55.970313 113.718354 
L 458.970312 113.718354 
" clip-path="url(#p19b27e4083)" style="fill: none; stroke-dasharray: 1.48,0.64; stroke-dashoffset: 0; stroke: #b0bec5; stroke-opacity: 0.4; stroke-width: 0.4"/>
     </g>
     <g id="line2d_34">
      <g>
       <use xlink:href="#mb8d358cdfe" x="55.970313" y="113.718354" style="stroke: #000000; stroke-width: 0.8"/>
      </g>
     </g>
     <g id="text_17">
      <!-- 1.08 -->
      <g transform="translate(24.478125 117.897494) scale(0.11 -0.11)">
       <use xlink:href="#DejaVuSerif-31"/>
       <use xlink:href="#DejaVuSerif-2e" transform="translate(63.623047 0)"/>
       <use xlink:href="#DejaVuSerif-30" transform="translate(95.410156 0)"/>
       <use xlink:href="#DejaVuSerif-38" transform="translate(159.033203 0)"/>
      </g>
     </g>
    </g>
    <g id="ytick_6">
     <g id="line2d_35">
      <path d="M 55.970313 62.348255 
L 458.970312 62.348255 
" clip-path="url(#p19b27e4083)" style="fill: none; stroke-dasharray: 1.48,0.64; stroke-dashoffset: 0; stroke: #b0bec5; stroke-opacity: 0.4; stroke-width: 0.4"/>
     </g>
     <g id="line2d_36">
      <g>
       <use xlink:href="#mb8d358cdfe" x="55.970313" y="62.348255" style="stroke: #000000; stroke-width: 0.8"/>
      </g>
     </g>
     <g id="text_18">
      <!-- 1.10 -->
      <g transform="translate(24.478125 66.527395) scale(0.11 -0.11)">
       <use xlink:href="#DejaVuSerif-31"/>
       <use xlink:href="#DejaVuSerif-2e" transform="translate(63.623047 0)"/>
       <use xlink:href="#DejaVuSerif-31" transform="translate(95.410156 0)"/>
       <use xlink:href="#DejaVuSerif-30" transform="translate(159.033203 0)"/>
      </g>
     </g>
    </g>
    <g id="text_19">
     <!-- Correction Factor (Var*/Var) -->
     <g transform="translate(18.398438 258.352344) rotate(-90) scale(0.1 -0.1)">
      <defs>
       <path id="DejaVuSerif-43" d="M 4513 1234 
Q 4306 581 3820 245 
Q 3334 -91 2591 -91 
Q 2134 -91 1743 65 
Q 1353 222 1050 525 
Q 700 875 529 1320 
Q 359 1766 359 2328 
Q 359 3416 987 4083 
Q 1616 4750 2644 4750 
Q 3025 4750 3456 4650 
Q 3888 4550 4384 4347 
L 4384 3272 
L 4031 3272 
Q 3916 3859 3567 4137 
Q 3219 4416 2591 4416 
Q 1844 4416 1459 3886 
Q 1075 3356 1075 2328 
Q 1075 1303 1459 773 
Q 1844 244 2591 244 
Q 3113 244 3450 492 
Q 3788 741 3938 1234 
L 4513 1234 
z
" transform="scale(0.015625)"/>
       <path id="DejaVuSerif-6f" d="M 1925 219 
Q 2388 219 2623 584 
Q 2859 950 2859 1663 
Q 2859 2375 2623 2739 
Q 2388 3103 1925 3103 
Q 1463 3103 1227 2739 
Q 991 2375 991 1663 
Q 991 950 1228 584 
Q 1466 219 1925 219 
z
M 1925 -91 
Q 1200 -91 759 389 
Q 319 869 319 1663 
Q 319 2456 758 2934 
Q 1197 3413 1925 3413 
Q 2653 3413 3092 2934 
Q 3531 2456 3531 1663 
Q 3531 869 3092 389 
Q 2653 -91 1925 -91 
z
" transform="scale(0.015625)"/>
       <path id="DejaVuSerif-72" d="M 3059 3328 
L 3059 2497 
L 2728 2497 
Q 2713 2744 2591 2866 
Q 2469 2988 2234 2988 
Q 1809 2988 1582 2694 
Q 1356 2400 1356 1850 
L 1356 331 
L 2022 331 
L 2022 0 
L 263 0 
L 263 331 
L 781 331 
L 781 2994 
L 231 2994 
L 231 3322 
L 1356 3322 
L 1356 2731 
Q 1525 3078 1790 3245 
Q 2056 3413 2438 3413 
Q 2578 3413 2733 3391 
Q 2888 3369 3059 3328 
z
" transform="scale(0.015625)"/>
       <path id="DejaVuSerif-65" d="M 3469 1600 
L 991 1600 
L 991 1575 
Q 991 903 1244 561 
Q 1497 219 1991 219 
Q 2369 219 2611 417 
Q 2853 616 2950 1006 
L 3413 1006 
Q 3275 459 2904 184 
Q 2534 -91 1931 -91 
Q 1203 -91 761 389 
Q 319 869 319 1663 
Q 319 2450 753 2931 
Q 1188 3413 1894 3413 
Q 2647 3413 3050 2948 
Q 3453 2484 3469 1600 
z
M 2791 1931 
Q 2772 2513 2545 2808 
Q 2319 3103 1894 3103 
Q 1497 3103 1269 2806 
Q 1041 2509 991 1931 
L 2791 1931 
z
" transform="scale(0.015625)"/>
       <path id="DejaVuSerif-63" d="M 3291 997 
Q 3169 466 2822 187 
Q 2475 -91 1925 -91 
Q 1200 -91 759 389 
Q 319 869 319 1663 
Q 319 2459 759 2936 
Q 1200 3413 1925 3413 
Q 2241 3413 2553 3339 
Q 2866 3266 3181 3116 
L 3181 2266 
L 2847 2266 
Q 2781 2703 2561 2903 
Q 2341 3103 1931 3103 
Q 1466 3103 1228 2742 
Q 991 2381 991 1663 
Q 991 944 1227 581 
Q 1463 219 1931 219 
Q 2303 219 2525 412 
Q 2747 606 2828 997 
L 3291 997 
z
" transform="scale(0.015625)"/>
       <path id="DejaVuSerif-74" d="M 691 2988 
L 184 2988 
L 184 3322 
L 691 3322 
L 691 4353 
L 1269 4353 
L 1269 3322 
L 2350 3322 
L 2350 2988 
L 1269 2988 
L 1269 878 
Q 1269 456 1350 337 
Q 1431 219 1650 219 
Q 1875 219 1978 351 
Q 2081 484 2088 781 
L 2522 781 
Q 2497 328 2275 118 
Q 2053 -91 1600 -91 
Q 1103 -91 897 129 
Q 691 350 691 878 
L 691 2988 
z
" transform="scale(0.015625)"/>
       <path id="DejaVuSerif-69" d="M 622 4353 
Q 622 4497 726 4603 
Q 831 4709 978 4709 
Q 1122 4709 1226 4603 
Q 1331 4497 1331 4353 
Q 1331 4206 1228 4103 
Q 1125 4000 978 4000 
Q 831 4000 726 4103 
Q 622 4206 622 4353 
z
M 1356 331 
L 1900 331 
L 1900 0 
L 231 0 
L 231 331 
L 781 331 
L 781 2988 
L 231 2988 
L 231 3322 
L 1356 3322 
L 1356 331 
z
" transform="scale(0.015625)"/>
       <path id="DejaVuSerif-6e" d="M 263 0 
L 263 331 
L 781 331 
L 781 2988 
L 231 2988 
L 231 3322 
L 1356 3322 
L 1356 2731 
Q 1516 3069 1770 3241 
Q 2025 3413 2363 3413 
Q 2913 3413 3172 3097 
Q 3431 2781 3431 2113 
L 3431 331 
L 3944 331 
L 3944 0 
L 2356 0 
L 2356 331 
L 2853 331 
L 2853 1931 
Q 2853 2541 2703 2767 
Q 2553 2994 2175 2994 
Q 1775 2994 1565 2701 
Q 1356 2409 1356 1850 
L 1356 331 
L 1856 331 
L 1856 0 
L 263 0 
z
" transform="scale(0.015625)"/>
       <path id="DejaVuSerif-20" transform="scale(0.015625)"/>
       <path id="DejaVuSerif-46" d="M 353 0 
L 353 331 
L 947 331 
L 947 4331 
L 353 4331 
L 353 4666 
L 4172 4666 
L 4172 3628 
L 3788 3628 
L 3788 4281 
L 1581 4281 
L 1581 2719 
L 3175 2719 
L 3175 3303 
L 3559 3303 
L 3559 1753 
L 3175 1753 
L 3175 2338 
L 1581 2338 
L 1581 331 
L 2328 331 
L 2328 0 
L 353 0 
z
" transform="scale(0.015625)"/>
       <path id="DejaVuSerif-61" d="M 2547 1044 
L 2547 1747 
L 1806 1747 
Q 1378 1747 1168 1562 
Q 959 1378 959 997 
Q 959 650 1171 447 
Q 1384 244 1747 244 
Q 2106 244 2326 466 
Q 2547 688 2547 1044 
z
M 3122 2075 
L 3122 331 
L 3634 331 
L 3634 0 
L 2547 0 
L 2547 359 
Q 2356 128 2106 18 
Q 1856 -91 1522 -91 
Q 969 -91 644 203 
Q 319 497 319 997 
Q 319 1513 691 1797 
Q 1063 2081 1741 2081 
L 2547 2081 
L 2547 2309 
Q 2547 2688 2317 2895 
Q 2088 3103 1672 3103 
Q 1328 3103 1125 2947 
Q 922 2791 872 2484 
L 575 2484 
L 575 3156 
Q 875 3284 1158 3348 
Q 1441 3413 1709 3413 
Q 2400 3413 2761 3070 
Q 3122 2728 3122 2075 
z
" transform="scale(0.015625)"/>
       <path id="DejaVuSerif-28" d="M 2041 -997 
Q 1281 -656 893 83 
Q 506 822 506 1931 
Q 506 3044 893 3783 
Q 1281 4522 2041 4863 
L 2041 4556 
Q 1559 4225 1350 3623 
Q 1141 3022 1141 1931 
Q 1141 844 1350 242 
Q 1559 -359 2041 -691 
L 2041 -997 
z
" transform="scale(0.015625)"/>
       <path id="DejaVuSerif-56" d="M 1119 4331 
L 2497 750 
L 3872 4331 
L 3347 4331 
L 3347 4666 
L 4716 4666 
L 4716 4331 
L 4263 4331 
L 2597 0 
L 2059 0 
L 403 4331 
L -63 4331 
L -63 4666 
L 1638 4666 
L 1638 4331 
L 1119 4331 
z
" transform="scale(0.015625)"/>
       <path id="DejaVuSerif-2a" d="M 3097 3866 
L 1875 3297 
L 3097 2719 
L 2859 2350 
L 1772 3028 
L 1813 1838 
L 1388 1838 
L 1428 3028 
L 341 2350 
L 103 2719 
L 1325 3291 
L 103 3866 
L 341 4238 
L 1428 3559 
L 1388 4750 
L 1813 4750 
L 1772 3559 
L 2859 4238 
L 3097 3866 
z
" transform="scale(0.015625)"/>
       <path id="DejaVuSerif-2f" d="M 1656 4666 
L 2156 4666 
L 500 -594 
L 0 -594 
L 1656 4666 
z
" transform="scale(0.015625)"/>
       <path id="DejaVuSerif-29" d="M 453 -997 
L 453 -691 
Q 934 -359 1145 242 
Q 1356 844 1356 1931 
Q 1356 3022 1145 3623 
Q 934 4225 453 4556 
L 453 4863 
Q 1216 4522 1603 3783 
Q 1991 3044 1991 1931 
Q 1991 822 1603 83 
Q 1216 -656 453 -997 
z
" transform="scale(0.015625)"/>
      </defs>
      <use xlink:href="#DejaVuSerif-43"/>
      <use xlink:href="#DejaVuSerif-6f" transform="translate(76.513672 0)"/>
      <use xlink:href="#DejaVuSerif-72" transform="translate(136.71875 0)"/>
      <use xlink:href="#DejaVuSerif-72" transform="translate(184.521484 0)"/>
      <use xlink:href="#DejaVuSerif-65" transform="translate(232.324219 0)"/>
      <use xlink:href="#DejaVuSerif-63" transform="translate(291.503906 0)"/>
      <use xlink:href="#DejaVuSerif-74" transform="translate(347.509766 0)"/>
      <use xlink:href="#DejaVuSerif-69" transform="translate(387.695312 0)"/>
      <use xlink:href="#DejaVuSerif-6f" transform="translate(419.677734 0)"/>
      <use xlink:href="#DejaVuSerif-6e" transform="translate(479.882812 0)"/>
      <use xlink:href="#DejaVuSerif-20" transform="translate(544.287109 0)"/>
      <use xlink:href="#DejaVuSerif-46" transform="translate(576.074219 0)"/>
      <use xlink:href="#DejaVuSerif-61" transform="translate(638.708984 0)"/>
      <use xlink:href="#DejaVuSerif-63" transform="translate(698.328125 0)"/>
      <use xlink:href="#DejaVuSerif-74" transform="translate(754.333984 0)"/>
      <use xlink:href="#DejaVuSerif-6f" transform="translate(794.519531 0)"/>
      <use xlink:href="#DejaVuSerif-72" transform="translate(854.724609 0)"/>
      <use xlink:href="#DejaVuSerif-20" transform="translate(902.527344 0)"/>
      <use xlink:href="#DejaVuSerif-28" transform="translate(934.314453 0)"/>
      <use xlink:href="#DejaVuSerif-56" transform="translate(973.328125 0)"/>
      <use xlink:href="#DejaVuSerif-61" transform="translate(1036.419922 0)"/>
      <use xlink:href="#DejaVuSerif-72" transform="translate(1096.039062 0)"/>
      <use xlink:href="#DejaVuSerif-2a" transform="translate(1143.841797 0)"/>
      <use xlink:href="#DejaVuSerif-2f" transform="translate(1193.841797 0)"/>
      <use xlink:href="#DejaVuSerif-56" transform="translate(1227.533203 0)"/>
      <use xlink:href="#DejaVuSerif-61" transform="translate(1290.625 0)"/>
      <use xlink:href="#DejaVuSerif-72" transform="translate(1350.244141 0)"/>
      <use xlink:href="#DejaVuSerif-29" transform="translate(1398.046875 0)"/>
     </g>
    </g>
   </g>
   <g id="line2d_37">
    <path d="M 55.970313 319.19875 
L 458.970312 319.19875 
" clip-path="url(#p19b27e4083)" style="fill: none; stroke: #000000; stroke-width: 1.2; stroke-linecap: square"/>
   </g>
   <g id="patch_39">
    <path d="M 55.970313 319.19875 
L 55.970313 53.80125 
" style="fill: none; stroke: #000000; stroke-linejoin: miter; stroke-linecap: square"/>
   </g>
   <g id="patch_40">
    <path d="M 55.970313 319.19875 
L 458.970312 319.19875 
" style="fill: none; stroke: #000000; stroke-linejoin: miter; stroke-linecap: square"/>
   </g>
   <g id="text_20">
    <!-- (a) CF per Station × Scale -->
    <g transform="translate(190.5875 47.80125) scale(0.1 -0.1)">
     <defs>
      <path id="DejaVuSerif-70" d="M 1313 1825 
L 1313 1497 
Q 1313 897 1542 583 
Q 1772 269 2209 269 
Q 2650 269 2876 622 
Q 3103 975 3103 1663 
Q 3103 2353 2876 2703 
Q 2650 3053 2209 3053 
Q 1772 3053 1542 2737 
Q 1313 2422 1313 1825 
z
M 738 2988 
L 184 2988 
L 184 3322 
L 1313 3322 
L 1313 2803 
Q 1481 3116 1742 3264 
Q 2003 3413 2388 3413 
Q 3000 3413 3387 2928 
Q 3775 2444 3775 1663 
Q 3775 881 3387 395 
Q 3000 -91 2388 -91 
Q 2003 -91 1742 57 
Q 1481 206 1313 519 
L 1313 -997 
L 1856 -997 
L 1856 -1331 
L 184 -1331 
L 184 -997 
L 738 -997 
L 738 2988 
z
" transform="scale(0.015625)"/>
      <path id="DejaVuSerif-d7" d="M 4481 3450 
L 3034 2003 
L 4481 563 
L 4122 213 
L 2681 1650 
L 1241 213 
L 884 563 
L 2322 2003 
L 884 3450 
L 1241 3803 
L 2681 2363 
L 4122 3803 
L 4481 3450 
z
" transform="scale(0.015625)"/>
      <path id="DejaVuSerif-6c" d="M 1313 331 
L 1856 331 
L 1856 0 
L 184 0 
L 184 331 
L 738 331 
L 738 4531 
L 184 4531 
L 184 4863 
L 1313 4863 
L 1313 331 
z
" transform="scale(0.015625)"/>
     </defs>
     <use xlink:href="#DejaVuSerif-28"/>
     <use xlink:href="#DejaVuSerif-61" transform="translate(39.013672 0)"/>
     <use xlink:href="#DejaVuSerif-29" transform="translate(98.632812 0)"/>
     <use xlink:href="#DejaVuSerif-20" transform="translate(137.646484 0)"/>
     <use xlink:href="#DejaVuSerif-43" transform="translate(169.433594 0)"/>
     <use xlink:href="#DejaVuSerif-46" transform="translate(245.947266 0)"/>
     <use xlink:href="#DejaVuSerif-20" transform="translate(315.332031 0)"/>
     <use xlink:href="#DejaVuSerif-70" transform="translate(347.119141 0)"/>
     <use xlink:href="#DejaVuSerif-65" transform="translate(411.132812 0)"/>
     <use xlink:href="#DejaVuSerif-72" transform="translate(470.3125 0)"/>
     <use xlink:href="#DejaVuSerif-20" transform="translate(518.115234 0)"/>
     <use xlink:href="#DejaVuSerif-53" transform="translate(549.902344 0)"/>
     <use xlink:href="#DejaVuSerif-74" transform="translate(618.408203 0)"/>
     <use xlink:href="#DejaVuSerif-61" transform="translate(658.59375 0)"/>
     <use xlink:href="#DejaVuSerif-74" transform="translate(718.212891 0)"/>
     <use xlink:href="#DejaVuSerif-69" transform="translate(758.398438 0)"/>
     <use xlink:href="#DejaVuSerif-6f" transform="translate(790.380859 0)"/>
     <use xlink:href="#DejaVuSerif-6e" transform="translate(850.585938 0)"/>
     <use xlink:href="#DejaVuSerif-20" transform="translate(914.990234 0)"/>
     <use xlink:href="#DejaVuSerif-d7" transform="translate(946.777344 0)"/>
     <use xlink:href="#DejaVuSerif-20" transform="translate(1030.566406 0)"/>
     <use xlink:href="#DejaVuSerif-53" transform="translate(1062.353516 0)"/>
     <use xlink:href="#DejaVuSerif-63" transform="translate(1130.859375 0)"/>
     <use xlink:href="#DejaVuSerif-61" transform="translate(1186.865234 0)"/>
     <use xlink:href="#DejaVuSerif-6c" transform="translate(1246.484375 0)"/>
     <use xlink:href="#DejaVuSerif-65" transform="translate(1278.466797 0)"/>
    </g>
   </g>
   <g id="legend_1">
    <g id="patch_41">
     <path d="M 399.206563 95.5425 
L 453.370312 95.5425 
Q 454.970312 95.5425 454.970312 93.9425 
L 454.970312 59.40125 
Q 454.970312 57.80125 453.370312 57.80125 
L 399.206563 57.80125 
Q 397.606562 57.80125 397.606562 59.40125 
L 397.606562 93.9425 
Q 397.606562 95.5425 399.206563 95.5425 
z
" style="fill: #ffffff; opacity: 0.9; stroke: #cccccc; stroke-linejoin: miter"/>
    </g>
    <g id="patch_42">
     <path d="M 400.806562 67.08 
L 416.806562 67.08 
L 416.806562 61.48 
L 400.806562 61.48 
z
" style="fill: #37474f; opacity: 0.75"/>
    </g>
    <g id="text_21">
     <!-- Annual -->
     <g transform="translate(423.206562 67.08) scale(0.08 -0.08)">
      <defs>
       <path id="DejaVuSerif-41" d="M 1281 1691 
L 2994 1691 
L 2138 3909 
L 1281 1691 
z
M -38 0 
L -38 331 
L 372 331 
L 2034 4666 
L 2559 4666 
L 4225 331 
L 4684 331 
L 4684 0 
L 2988 0 
L 2988 331 
L 3506 331 
L 3116 1356 
L 1153 1356 
L 763 331 
L 1275 331 
L 1275 0 
L -38 0 
z
" transform="scale(0.015625)"/>
       <path id="DejaVuSerif-75" d="M 2266 3322 
L 3341 3322 
L 3341 331 
L 3884 331 
L 3884 0 
L 2766 0 
L 2766 588 
Q 2606 256 2353 82 
Q 2100 -91 1766 -91 
Q 1213 -91 952 223 
Q 691 538 691 1209 
L 691 2988 
L 172 2988 
L 172 3322 
L 1269 3322 
L 1269 1388 
Q 1269 781 1417 556 
Q 1566 331 1947 331 
Q 2347 331 2556 625 
Q 2766 919 2766 1478 
L 2766 2988 
L 2266 2988 
L 2266 3322 
z
" transform="scale(0.015625)"/>
      </defs>
      <use xlink:href="#DejaVuSerif-41"/>
      <use xlink:href="#DejaVuSerif-6e" transform="translate(72.216797 0)"/>
      <use xlink:href="#DejaVuSerif-6e" transform="translate(136.621094 0)"/>
      <use xlink:href="#DejaVuSerif-75" transform="translate(201.025391 0)"/>
      <use xlink:href="#DejaVuSerif-61" transform="translate(265.429688 0)"/>
      <use xlink:href="#DejaVuSerif-6c" transform="translate(325.048828 0)"/>
     </g>
    </g>
    <g id="patch_43">
     <path d="M 400.806562 78.8225 
L 416.806562 78.8225 
L 416.806562 73.2225 
L 400.806562 73.2225 
z
" style="fill: #1565c0; opacity: 0.75"/>
    </g>
    <g id="text_22">
     <!-- Wet -->
     <g transform="translate(423.206562 78.8225) scale(0.08 -0.08)">
      <defs>
       <path id="DejaVuSerif-57" d="M 4878 0 
L 4366 0 
L 3297 3794 
L 2228 0 
L 1716 0 
L 494 4331 
L 31 4331 
L 31 4666 
L 1734 4666 
L 1734 4331 
L 1153 4331 
L 2125 884 
L 3188 4666 
L 3694 4666 
L 4775 844 
L 5753 4331 
L 5216 4331 
L 5216 4666 
L 6559 4666 
L 6559 4331 
L 6100 4331 
L 4878 0 
z
" transform="scale(0.015625)"/>
      </defs>
      <use xlink:href="#DejaVuSerif-57"/>
      <use xlink:href="#DejaVuSerif-65" transform="translate(94.658203 0)"/>
      <use xlink:href="#DejaVuSerif-74" transform="translate(153.837891 0)"/>
     </g>
    </g>
    <g id="patch_44">
     <path d="M 400.806562 90.565 
L 416.806562 90.565 
L 416.806562 84.965 
L 400.806562 84.965 
z
" style="fill: #e65100; opacity: 0.75"/>
    </g>
    <g id="text_23">
     <!-- Dry -->
     <g transform="translate(423.206562 90.565) scale(0.08 -0.08)">
      <defs>
       <path id="DejaVuSerif-44" d="M 1581 331 
L 2163 331 
Q 3072 331 3558 850 
Q 4044 1369 4044 2338 
Q 4044 3306 3559 3818 
Q 3075 4331 2163 4331 
L 1581 4331 
L 1581 331 
z
M 353 0 
L 353 331 
L 947 331 
L 947 4331 
L 353 4331 
L 353 4666 
L 2209 4666 
Q 3416 4666 4089 4050 
Q 4763 3434 4763 2338 
Q 4763 1238 4088 619 
Q 3413 0 2209 0 
L 353 0 
z
" transform="scale(0.015625)"/>
       <path id="DejaVuSerif-79" d="M 1381 -609 
L 1600 -56 
L 359 2988 
L -19 2988 
L -19 3322 
L 1509 3322 
L 1509 2988 
L 978 2988 
L 1913 703 
L 2847 2988 
L 2350 2988 
L 2350 3322 
L 3597 3322 
L 3597 2988 
L 3225 2988 
L 1703 -750 
Q 1547 -1138 1356 -1280 
Q 1166 -1422 819 -1422 
Q 672 -1422 517 -1397 
Q 363 -1372 206 -1325 
L 206 -691 
L 500 -691 
Q 519 -903 608 -995 
Q 697 -1088 884 -1088 
Q 1056 -1088 1161 -992 
Q 1266 -897 1381 -609 
z
" transform="scale(0.015625)"/>
      </defs>
      <use xlink:href="#DejaVuSerif-44"/>
      <use xlink:href="#DejaVuSerif-72" transform="translate(80.175781 0)"/>
      <use xlink:href="#DejaVuSerif-79" transform="translate(127.978516 0)"/>
     </g>
    </g>
   </g>
  </g>
  <g id="axes_2">
   <g id="patch_45">
    <path d="M 517.490312 319.19875 
L 920.490312 319.19875 
L 920.490312 53.80125 
L 517.490312 53.80125 
z
" style="fill: #ffffff"/>
   </g>
   <g id="PathCollection_1">
    <defs>
     <path id="m5cafcd596d" d="M 0 3.354102 
C 0.889518 3.354102 1.742724 3.000693 2.371708 2.371708 
C 3.000693 1.742724 3.354102 0.889518 3.354102 0 
C 3.354102 -0.889518 3.000693 -1.742724 2.371708 -2.371708 
C 1.742724 -3.000693 0.889518 -3.354102 0 -3.354102 
C -0.889518 -3.354102 -1.742724 -3.000693 -2.371708 -2.371708 
C -3.000693 -1.742724 -3.354102 -0.889518 -3.354102 0 
C -3.354102 0.889518 -3.000693 1.742724 -2.371708 2.371708 
C -1.742724 3.000693 -0.889518 3.354102 0 3.354102 
z
" style="stroke: #90a4ae; stroke-opacity: 0.7"/>
    </defs>
    <g clip-path="url(#p482a361469)">
     <use xlink:href="#m5cafcd596d" x="777.528179" y="307.135227" style="fill: #90a4ae; fill-opacity: 0.7; stroke: #90a4ae; stroke-opacity: 0.7"/>
     <use xlink:href="#m5cafcd596d" x="687.172897" y="199.549845" style="fill: #90a4ae; fill-opacity: 0.7; stroke: #90a4ae; stroke-opacity: 0.7"/>
     <use xlink:href="#m5cafcd596d" x="758.375948" y="307.135227" style="fill: #90a4ae; fill-opacity: 0.7; stroke: #90a4ae; stroke-opacity: 0.7"/>
     <use xlink:href="#m5cafcd596d" x="747.448365" y="307.135227" style="fill: #90a4ae; fill-opacity: 0.7; stroke: #90a4ae; stroke-opacity: 0.7"/>
     <use xlink:href="#m5cafcd596d" x="736.134648" y="307.135227" style="fill: #90a4ae; fill-opacity: 0.7; stroke: #90a4ae; stroke-opacity: 0.7"/>
     <use xlink:href="#m5cafcd596d" x="682.61652" y="307.135227" style="fill: #90a4ae; fill-opacity: 0.7; stroke: #90a4ae; stroke-opacity: 0.7"/>
     <use xlink:href="#m5cafcd596d" x="747.216685" y="307.135227" style="fill: #90a4ae; fill-opacity: 0.7; stroke: #90a4ae; stroke-opacity: 0.7"/>
     <use xlink:href="#m5cafcd596d" x="701.961817" y="307.135227" style="fill: #90a4ae; fill-opacity: 0.7; stroke: #90a4ae; stroke-opacity: 0.7"/>
     <use xlink:href="#m5cafcd596d" x="636.164638" y="307.135227" style="fill: #90a4ae; fill-opacity: 0.7; stroke: #90a4ae; stroke-opacity: 0.7"/>
     <use xlink:href="#m5cafcd596d" x="749.91962" y="307.135227" style="fill: #90a4ae; fill-opacity: 0.7; stroke: #90a4ae; stroke-opacity: 0.7"/>
     <use xlink:href="#m5cafcd596d" x="680.376944" y="307.135227" style="fill: #90a4ae; fill-opacity: 0.7; stroke: #90a4ae; stroke-opacity: 0.7"/>
     <use xlink:href="#m5cafcd596d" x="791.930965" y="307.135227" style="fill: #90a4ae; fill-opacity: 0.7; stroke: #90a4ae; stroke-opacity: 0.7"/>
     <use xlink:href="#m5cafcd596d" x="732.350538" y="307.135227" style="fill: #90a4ae; fill-opacity: 0.7; stroke: #90a4ae; stroke-opacity: 0.7"/>
     <use xlink:href="#m5cafcd596d" x="595.350308" y="307.135227" style="fill: #90a4ae; fill-opacity: 0.7; stroke: #90a4ae; stroke-opacity: 0.7"/>
     <use xlink:href="#m5cafcd596d" x="675.936407" y="307.135227" style="fill: #90a4ae; fill-opacity: 0.7; stroke: #90a4ae; stroke-opacity: 0.7"/>
     <use xlink:href="#m5cafcd596d" x="615.699553" y="307.135227" style="fill: #90a4ae; fill-opacity: 0.7; stroke: #90a4ae; stroke-opacity: 0.7"/>
     <use xlink:href="#m5cafcd596d" x="593.496866" y="307.135227" style="fill: #90a4ae; fill-opacity: 0.7; stroke: #90a4ae; stroke-opacity: 0.7"/>
     <use xlink:href="#m5cafcd596d" x="687.559031" y="307.135227" style="fill: #90a4ae; fill-opacity: 0.7; stroke: #90a4ae; stroke-opacity: 0.7"/>
     <use xlink:href="#m5cafcd596d" x="631.608261" y="307.135227" style="fill: #90a4ae; fill-opacity: 0.7; stroke: #90a4ae; stroke-opacity: 0.7"/>
     <use xlink:href="#m5cafcd596d" x="761.387791" y="307.135227" style="fill: #90a4ae; fill-opacity: 0.7; stroke: #90a4ae; stroke-opacity: 0.7"/>
     <use xlink:href="#m5cafcd596d" x="693.428263" y="307.135227" style="fill: #90a4ae; fill-opacity: 0.7; stroke: #90a4ae; stroke-opacity: 0.7"/>
     <use xlink:href="#m5cafcd596d" x="590.137503" y="307.135227" style="fill: #90a4ae; fill-opacity: 0.7; stroke: #90a4ae; stroke-opacity: 0.7"/>
     <use xlink:href="#m5cafcd596d" x="605.930371" y="307.135227" style="fill: #90a4ae; fill-opacity: 0.7; stroke: #90a4ae; stroke-opacity: 0.7"/>
     <use xlink:href="#m5cafcd596d" x="692.655995" y="307.135227" style="fill: #90a4ae; fill-opacity: 0.7; stroke: #90a4ae; stroke-opacity: 0.7"/>
     <use xlink:href="#m5cafcd596d" x="663.155382" y="307.135227" style="fill: #90a4ae; fill-opacity: 0.7; stroke: #90a4ae; stroke-opacity: 0.7"/>
     <use xlink:href="#m5cafcd596d" x="593.960227" y="307.135227" style="fill: #90a4ae; fill-opacity: 0.7; stroke: #90a4ae; stroke-opacity: 0.7"/>
    </g>
   </g>
   <g id="PathCollection_2">
    <defs>
     <path id="m7483baacc7" d="M 0 3.354102 
C 0.889518 3.354102 1.742724 3.000693 2.371708 2.371708 
C 3.000693 1.742724 3.354102 0.889518 3.354102 0 
C 3.354102 -0.889518 3.000693 -1.742724 2.371708 -2.371708 
C 1.742724 -3.000693 0.889518 -3.354102 0 -3.354102 
C -0.889518 -3.354102 -1.742724 -3.000693 -2.371708 -2.371708 
C -3.000693 -1.742724 -3.354102 -0.889518 -3.354102 0 
C -3.354102 0.889518 -3.000693 1.742724 -2.371708 2.371708 
C -1.742724 3.000693 -0.889518 3.354102 0 3.354102 
z
" style="stroke: #0277bd; stroke-opacity: 0.7"/>
    </defs>
    <g clip-path="url(#p482a361469)">
     <use xlink:href="#m7483baacc7" x="860.160786" y="307.135227" style="fill: #0277bd; fill-opacity: 0.7; stroke: #0277bd; stroke-opacity: 0.7"/>
     <use xlink:href="#m7483baacc7" x="836.645245" y="307.135227" style="fill: #0277bd; fill-opacity: 0.7; stroke: #0277bd; stroke-opacity: 0.7"/>
     <use xlink:href="#m7483baacc7" x="541.059912" y="307.135227" style="fill: #0277bd; fill-opacity: 0.7; stroke: #0277bd; stroke-opacity: 0.7"/>
     <use xlink:href="#m7483baacc7" x="902.172131" y="235.720683" style="fill: #0277bd; fill-opacity: 0.7; stroke: #0277bd; stroke-opacity: 0.7"/>
     <use xlink:href="#m7483baacc7" x="853.055926" y="228.386137" style="fill: #0277bd; fill-opacity: 0.7; stroke: #0277bd; stroke-opacity: 0.7"/>
     <use xlink:href="#m7483baacc7" x="888.696065" y="225.464002" style="fill: #0277bd; fill-opacity: 0.7; stroke: #0277bd; stroke-opacity: 0.7"/>
     <use xlink:href="#m7483baacc7" x="535.808494" y="307.135227" style="fill: #0277bd; fill-opacity: 0.7; stroke: #0277bd; stroke-opacity: 0.7"/>
     <use xlink:href="#m7483baacc7" x="829.077025" y="307.135227" style="fill: #0277bd; fill-opacity: 0.7; stroke: #0277bd; stroke-opacity: 0.7"/>
     <use xlink:href="#m7483baacc7" x="813.708904" y="228.368449" style="fill: #0277bd; fill-opacity: 0.7; stroke: #0277bd; stroke-opacity: 0.7"/>
     <use xlink:href="#m7483baacc7" x="817.801921" y="65.864773" style="fill: #0277bd; fill-opacity: 0.7; stroke: #0277bd; stroke-opacity: 0.7"/>
    </g>
   </g>
   <g id="matplotlib.axis_3">
    <g id="xtick_13">
     <g id="line2d_38">
      <path d="M 522.718563 319.19875 
L 522.718563 53.80125 
" clip-path="url(#p482a361469)" style="fill: none; stroke-dasharray: 1.48,0.64; stroke-dashoffset: 0; stroke: #b0bec5; stroke-opacity: 0.4; stroke-width: 0.4"/>
     </g>
     <g id="line2d_39">
      <g>
       <use xlink:href="#m61095b4965" x="522.718563" y="319.19875" style="stroke: #000000; stroke-width: 0.8"/>
      </g>
     </g>
     <g id="text_24">
      <!-- −0.4 -->
      <g transform="translate(509.363016 334.557031) scale(0.11 -0.11)">
       <defs>
        <path id="DejaVuSerif-2212" d="M 678 2259 
L 4684 2259 
L 4684 1753 
L 678 1753 
L 678 2259 
z
" transform="scale(0.015625)"/>
       </defs>
       <use xlink:href="#DejaVuSerif-2212"/>
       <use xlink:href="#DejaVuSerif-30" transform="translate(83.789062 0)"/>
       <use xlink:href="#DejaVuSerif-2e" transform="translate(147.412109 0)"/>
       <use xlink:href="#DejaVuSerif-34" transform="translate(179.199219 0)"/>
      </g>
     </g>
    </g>
    <g id="xtick_14">
     <g id="line2d_40">
      <path d="M 599.945299 319.19875 
L 599.945299 53.80125 
" clip-path="url(#p482a361469)" style="fill: none; stroke-dasharray: 1.48,0.64; stroke-dashoffset: 0; stroke: #b0bec5; stroke-opacity: 0.4; stroke-width: 0.4"/>
     </g>
     <g id="line2d_41">
      <g>
       <use xlink:href="#m61095b4965" x="599.945299" y="319.19875" style="stroke: #000000; stroke-width: 0.8"/>
      </g>
     </g>
     <g id="text_25">
      <!-- −0.2 -->
      <g transform="translate(586.589752 334.557031) scale(0.11 -0.11)">
       <use xlink:href="#DejaVuSerif-2212"/>
       <use xlink:href="#DejaVuSerif-30" transform="translate(83.789062 0)"/>
       <use xlink:href="#DejaVuSerif-2e" transform="translate(147.412109 0)"/>
       <use xlink:href="#DejaVuSerif-32" transform="translate(179.199219 0)"/>
      </g>
     </g>
    </g>
    <g id="xtick_15">
     <g id="line2d_42">
      <path d="M 677.172035 319.19875 
L 677.172035 53.80125 
" clip-path="url(#p482a361469)" style="fill: none; stroke-dasharray: 1.48,0.64; stroke-dashoffset: 0; stroke: #b0bec5; stroke-opacity: 0.4; stroke-width: 0.4"/>
     </g>
     <g id="line2d_43">
      <g>
       <use xlink:href="#m61095b4965" x="677.172035" y="319.19875" style="stroke: #000000; stroke-width: 0.8"/>
      </g>
     </g>
     <g id="text_26">
      <!-- 0.0 -->
      <g transform="translate(668.425316 334.557031) scale(0.11 -0.11)">
       <use xlink:href="#DejaVuSerif-30"/>
       <use xlink:href="#DejaVuSerif-2e" transform="translate(63.623047 0)"/>
       <use xlink:href="#DejaVuSerif-30" transform="translate(95.410156 0)"/>
      </g>
     </g>
    </g>
    <g id="xtick_16">
     <g id="line2d_44">
      <path d="M 754.398771 319.19875 
L 754.398771 53.80125 
" clip-path="url(#p482a361469)" style="fill: none; stroke-dasharray: 1.48,0.64; stroke-dashoffset: 0; stroke: #b0bec5; stroke-opacity: 0.4; stroke-width: 0.4"/>
     </g>
     <g id="line2d_45">
      <g>
       <use xlink:href="#m61095b4965" x="754.398771" y="319.19875" style="stroke: #000000; stroke-width: 0.8"/>
      </g>
     </g>
     <g id="text_27">
      <!-- 0.2 -->
      <g transform="translate(745.652052 334.557031) scale(0.11 -0.11)">
       <use xlink:href="#DejaVuSerif-30"/>
       <use xlink:href="#DejaVuSerif-2e" transform="translate(63.623047 0)"/>
       <use xlink:href="#DejaVuSerif-32" transform="translate(95.410156 0)"/>
      </g>
     </g>
    </g>
    <g id="xtick_17">
     <g id="line2d_46">
      <path d="M 831.625507 319.19875 
L 831.625507 53.80125 
" clip-path="url(#p482a361469)" style="fill: none; stroke-dasharray: 1.48,0.64; stroke-dashoffset: 0; stroke: #b0bec5; stroke-opacity: 0.4; stroke-width: 0.4"/>
     </g>
     <g id="line2d_47">
      <g>
       <use xlink:href="#m61095b4965" x="831.625507" y="319.19875" style="stroke: #000000; stroke-width: 0.8"/>
      </g>
     </g>
     <g id="text_28">
      <!-- 0.4 -->
      <g transform="translate(822.878788 334.557031) scale(0.11 -0.11)">
       <use xlink:href="#DejaVuSerif-30"/>
       <use xlink:href="#DejaVuSerif-2e" transform="translate(63.623047 0)"/>
       <use xlink:href="#DejaVuSerif-34" transform="translate(95.410156 0)"/>
      </g>
     </g>
    </g>
    <g id="xtick_18">
     <g id="line2d_48">
      <path d="M 908.852243 319.19875 
L 908.852243 53.80125 
" clip-path="url(#p482a361469)" style="fill: none; stroke-dasharray: 1.48,0.64; stroke-dashoffset: 0; stroke: #b0bec5; stroke-opacity: 0.4; stroke-width: 0.4"/>
     </g>
     <g id="line2d_49">
      <g>
       <use xlink:href="#m61095b4965" x="908.852243" y="319.19875" style="stroke: #000000; stroke-width: 0.8"/>
      </g>
     </g>
     <g id="text_29">
      <!-- 0.6 -->
      <g transform="translate(900.105525 334.557031) scale(0.11 -0.11)">
       <use xlink:href="#DejaVuSerif-30"/>
       <use xlink:href="#DejaVuSerif-2e" transform="translate(63.623047 0)"/>
       <use xlink:href="#DejaVuSerif-36" transform="translate(95.410156 0)"/>
      </g>
     </g>
    </g>
    <g id="text_30">
     <!-- ρ₁ (Lag-1 Autocorrelation) -->
     <g transform="translate(652.773125 348.443125) scale(0.1 -0.1)">
      <defs>
       <path id="DejaVuSerif-3c1" d="M 978 1825 
L 978 1497 
Q 978 897 1208 583 
Q 1438 269 1875 269 
Q 2316 269 2542 622 
Q 2769 975 2769 1663 
Q 2769 2378 2544 2703 
Q 2272 3084 1875 3084 
Q 1459 3084 1206 2738 
Q 978 2422 978 1825 
z
M 978 -1331 
L 403 -1331 
L 403 1638 
Q 403 2422 675 2803 
Q 978 3159 1188 3269 
Q 1463 3413 1866 3413 
Q 2666 3413 3053 2928 
Q 3441 2444 3441 1662 
Q 3441 881 3053 395 
Q 2666 -91 2053 -91 
Q 1669 -91 1408 57 
Q 1147 206 978 519 
L 978 -1331 
z
" transform="scale(0.015625)"/>
       <path id="DejaVuSerif-2081" d="M 550 -24 
L 550 238 
L 1088 238 
L 1088 2219 
L 459 1888 
L 459 2182 
L 1209 2585 
L 1528 2585 
L 1528 238 
L 2069 238 
L 2069 -24 
L 550 -24 
z
" transform="scale(0.015625)"/>
       <path id="DejaVuSerif-4c" d="M 353 0 
L 353 331 
L 947 331 
L 947 4331 
L 353 4331 
L 353 4666 
L 2175 4666 
L 2175 4331 
L 1581 4331 
L 1581 384 
L 3713 384 
L 3713 1166 
L 4097 1166 
L 4097 0 
L 353 0 
z
" transform="scale(0.015625)"/>
       <path id="DejaVuSerif-67" d="M 3359 2988 
L 3359 72 
Q 3359 -644 2965 -1033 
Q 2572 -1422 1844 -1422 
Q 1516 -1422 1216 -1362 
Q 916 -1303 641 -1184 
L 641 -488 
L 941 -488 
Q 997 -813 1206 -963 
Q 1416 -1113 1806 -1113 
Q 2313 -1113 2548 -827 
Q 2784 -541 2784 72 
L 2784 519 
Q 2616 206 2355 57 
Q 2094 -91 1709 -91 
Q 1097 -91 708 395 
Q 319 881 319 1663 
Q 319 2444 706 2928 
Q 1094 3413 1709 3413 
Q 2094 3413 2355 3264 
Q 2616 3116 2784 2803 
L 2784 3322 
L 3909 3322 
L 3909 2988 
L 3359 2988 
z
M 2784 1825 
Q 2784 2422 2554 2737 
Q 2325 3053 1888 3053 
Q 1444 3053 1217 2703 
Q 991 2353 991 1663 
Q 991 975 1217 622 
Q 1444 269 1888 269 
Q 2325 269 2554 583 
Q 2784 897 2784 1497 
L 2784 1825 
z
" transform="scale(0.015625)"/>
       <path id="DejaVuSerif-2d" d="M 281 1959 
L 1881 1959 
L 1881 1472 
L 281 1472 
L 281 1959 
z
" transform="scale(0.015625)"/>
      </defs>
      <use xlink:href="#DejaVuSerif-3c1"/>
      <use xlink:href="#DejaVuSerif-2081" transform="translate(58.789062 0)"/>
      <use xlink:href="#DejaVuSerif-20" transform="translate(98.876953 0)"/>
      <use xlink:href="#DejaVuSerif-28" transform="translate(130.664062 0)"/>
      <use xlink:href="#DejaVuSerif-4c" transform="translate(169.677734 0)"/>
      <use xlink:href="#DejaVuSerif-61" transform="translate(236.083984 0)"/>
      <use xlink:href="#DejaVuSerif-67" transform="translate(295.703125 0)"/>
      <use xlink:href="#DejaVuSerif-2d" transform="translate(359.716797 0)"/>
      <use xlink:href="#DejaVuSerif-31" transform="translate(393.505859 0)"/>
      <use xlink:href="#DejaVuSerif-20" transform="translate(457.128906 0)"/>
      <use xlink:href="#DejaVuSerif-41" transform="translate(488.916016 0)"/>
      <use xlink:href="#DejaVuSerif-75" transform="translate(561.132812 0)"/>
      <use xlink:href="#DejaVuSerif-74" transform="translate(625.537109 0)"/>
      <use xlink:href="#DejaVuSerif-6f" transform="translate(665.722656 0)"/>
      <use xlink:href="#DejaVuSerif-63" transform="translate(725.927734 0)"/>
      <use xlink:href="#DejaVuSerif-6f" transform="translate(781.933594 0)"/>
      <use xlink:href="#DejaVuSerif-72" transform="translate(842.138672 0)"/>
      <use xlink:href="#DejaVuSerif-72" transform="translate(889.941406 0)"/>
      <use xlink:href="#DejaVuSerif-65" transform="translate(937.744141 0)"/>
      <use xlink:href="#DejaVuSerif-6c" transform="translate(996.923828 0)"/>
      <use xlink:href="#DejaVuSerif-61" transform="translate(1028.90625 0)"/>
      <use xlink:href="#DejaVuSerif-74" transform="translate(1088.525391 0)"/>
      <use xlink:href="#DejaVuSerif-69" transform="translate(1128.710938 0)"/>
      <use xlink:href="#DejaVuSerif-6f" transform="translate(1160.693359 0)"/>
      <use xlink:href="#DejaVuSerif-6e" transform="translate(1220.898438 0)"/>
      <use xlink:href="#DejaVuSerif-29" transform="translate(1285.302734 0)"/>
     </g>
    </g>
   </g>
   <g id="matplotlib.axis_4">
    <g id="ytick_7">
     <g id="line2d_50">
      <path d="M 517.490312 307.135227 
L 920.490312 307.135227 
" clip-path="url(#p482a361469)" style="fill: none; stroke-dasharray: 1.48,0.64; stroke-dashoffset: 0; stroke: #b0bec5; stroke-opacity: 0.4; stroke-width: 0.4"/>
     </g>
     <g id="line2d_51">
      <g>
       <use xlink:href="#mb8d358cdfe" x="517.490312" y="307.135227" style="stroke: #000000; stroke-width: 0.8"/>
      </g>
     </g>
     <g id="text_31">
      <!-- 1.00 -->
      <g transform="translate(485.998125 311.314368) scale(0.11 -0.11)">
       <use xlink:href="#DejaVuSerif-31"/>
       <use xlink:href="#DejaVuSerif-2e" transform="translate(63.623047 0)"/>
       <use xlink:href="#DejaVuSerif-30" transform="translate(95.410156 0)"/>
       <use xlink:href="#DejaVuSerif-30" transform="translate(159.033203 0)"/>
      </g>
     </g>
    </g>
    <g id="ytick_8">
     <g id="line2d_52">
      <path d="M 517.490312 258.100133 
L 920.490312 258.100133 
" clip-path="url(#p482a361469)" style="fill: none; stroke-dasharray: 1.48,0.64; stroke-dashoffset: 0; stroke: #b0bec5; stroke-opacity: 0.4; stroke-width: 0.4"/>
     </g>
     <g id="line2d_53">
      <g>
       <use xlink:href="#mb8d358cdfe" x="517.490312" y="258.100133" style="stroke: #000000; stroke-width: 0.8"/>
      </g>
     </g>
     <g id="text_32">
      <!-- 1.02 -->
      <g transform="translate(485.998125 262.279273) scale(0.11 -0.11)">
       <use xlink:href="#DejaVuSerif-31"/>
       <use xlink:href="#DejaVuSerif-2e" transform="translate(63.623047 0)"/>
       <use xlink:href="#DejaVuSerif-30" transform="translate(95.410156 0)"/>
       <use xlink:href="#DejaVuSerif-32" transform="translate(159.033203 0)"/>
      </g>
     </g>
    </g>
    <g id="ytick_9">
     <g id="line2d_54">
      <path d="M 517.490312 209.065038 
L 920.490312 209.065038 
" clip-path="url(#p482a361469)" style="fill: none; stroke-dasharray: 1.48,0.64; stroke-dashoffset: 0; stroke: #b0bec5; stroke-opacity: 0.4; stroke-width: 0.4"/>
     </g>
     <g id="line2d_55">
      <g>
       <use xlink:href="#mb8d358cdfe" x="517.490312" y="209.065038" style="stroke: #000000; stroke-width: 0.8"/>
      </g>
     </g>
     <g id="text_33">
      <!-- 1.04 -->
      <g transform="translate(485.998125 213.244179) scale(0.11 -0.11)">
       <use xlink:href="#DejaVuSerif-31"/>
       <use xlink:href="#DejaVuSerif-2e" transform="translate(63.623047 0)"/>
       <use xlink:href="#DejaVuSerif-30" transform="translate(95.410156 0)"/>
       <use xlink:href="#DejaVuSerif-34" transform="translate(159.033203 0)"/>
      </g>
     </g>
    </g>
    <g id="ytick_10">
     <g id="line2d_56">
      <path d="M 517.490312 160.029944 
L 920.490312 160.029944 
" clip-path="url(#p482a361469)" style="fill: none; stroke-dasharray: 1.48,0.64; stroke-dashoffset: 0; stroke: #b0bec5; stroke-opacity: 0.4; stroke-width: 0.4"/>
     </g>
     <g id="line2d_57">
      <g>
       <use xlink:href="#mb8d358cdfe" x="517.490312" y="160.029944" style="stroke: #000000; stroke-width: 0.8"/>
      </g>
     </g>
     <g id="text_34">
      <!-- 1.06 -->
      <g transform="translate(485.998125 164.209084) scale(0.11 -0.11)">
       <use xlink:href="#DejaVuSerif-31"/>
       <use xlink:href="#DejaVuSerif-2e" transform="translate(63.623047 0)"/>
       <use xlink:href="#DejaVuSerif-30" transform="translate(95.410156 0)"/>
       <use xlink:href="#DejaVuSerif-36" transform="translate(159.033203 0)"/>
      </g>
     </g>
    </g>
    <g id="ytick_11">
     <g id="line2d_58">
      <path d="M 517.490312 110.994849 
L 920.490312 110.994849 
" clip-path="url(#p482a361469)" style="fill: none; stroke-dasharray: 1.48,0.64; stroke-dashoffset: 0; stroke: #b0bec5; stroke-opacity: 0.4; stroke-width: 0.4"/>
     </g>
     <g id="line2d_59">
      <g>
       <use xlink:href="#mb8d358cdfe" x="517.490312" y="110.994849" style="stroke: #000000; stroke-width: 0.8"/>
      </g>
     </g>
     <g id="text_35">
      <!-- 1.08 -->
      <g transform="translate(485.998125 115.17399) scale(0.11 -0.11)">
       <use xlink:href="#DejaVuSerif-31"/>
       <use xlink:href="#DejaVuSerif-2e" transform="translate(63.623047 0)"/>
       <use xlink:href="#DejaVuSerif-30" transform="translate(95.410156 0)"/>
       <use xlink:href="#DejaVuSerif-38" transform="translate(159.033203 0)"/>
      </g>
     </g>
    </g>
    <g id="ytick_12">
     <g id="line2d_60">
      <path d="M 517.490312 61.959755 
L 920.490312 61.959755 
" clip-path="url(#p482a361469)" style="fill: none; stroke-dasharray: 1.48,0.64; stroke-dashoffset: 0; stroke: #b0bec5; stroke-opacity: 0.4; stroke-width: 0.4"/>
     </g>
     <g id="line2d_61">
      <g>
       <use xlink:href="#mb8d358cdfe" x="517.490312" y="61.959755" style="stroke: #000000; stroke-width: 0.8"/>
      </g>
     </g>
     <g id="text_36">
      <!-- 1.10 -->
      <g transform="translate(485.998125 66.138895) scale(0.11 -0.11)">
       <use xlink:href="#DejaVuSerif-31"/>
       <use xlink:href="#DejaVuSerif-2e" transform="translate(63.623047 0)"/>
       <use xlink:href="#DejaVuSerif-31" transform="translate(95.410156 0)"/>
       <use xlink:href="#DejaVuSerif-30" transform="translate(159.033203 0)"/>
      </g>
     </g>
    </g>
    <g id="text_37">
     <!-- Correction Factor -->
     <g transform="translate(479.918437 231.625781) rotate(-90) scale(0.1 -0.1)">
      <use xlink:href="#DejaVuSerif-43"/>
      <use xlink:href="#DejaVuSerif-6f" transform="translate(76.513672 0)"/>
      <use xlink:href="#DejaVuSerif-72" transform="translate(136.71875 0)"/>
      <use xlink:href="#DejaVuSerif-72" transform="translate(184.521484 0)"/>
      <use xlink:href="#DejaVuSerif-65" transform="translate(232.324219 0)"/>
      <use xlink:href="#DejaVuSerif-63" transform="translate(291.503906 0)"/>
      <use xlink:href="#DejaVuSerif-74" transform="translate(347.509766 0)"/>
      <use xlink:href="#DejaVuSerif-69" transform="translate(387.695312 0)"/>
      <use xlink:href="#DejaVuSerif-6f" transform="translate(419.677734 0)"/>
      <use xlink:href="#DejaVuSerif-6e" transform="translate(479.882812 0)"/>
      <use xlink:href="#DejaVuSerif-20" transform="translate(544.287109 0)"/>
      <use xlink:href="#DejaVuSerif-46" transform="translate(576.074219 0)"/>
      <use xlink:href="#DejaVuSerif-61" transform="translate(638.708984 0)"/>
      <use xlink:href="#DejaVuSerif-63" transform="translate(698.328125 0)"/>
      <use xlink:href="#DejaVuSerif-74" transform="translate(754.333984 0)"/>
      <use xlink:href="#DejaVuSerif-6f" transform="translate(794.519531 0)"/>
      <use xlink:href="#DejaVuSerif-72" transform="translate(854.724609 0)"/>
     </g>
    </g>
   </g>
   <g id="line2d_62">
    <path d="M 517.490312 307.135227 
L 920.490312 307.135227 
" clip-path="url(#p482a361469)" style="fill: none; stroke-dasharray: 3.7,1.6; stroke-dashoffset: 0; stroke: #000000; stroke-opacity: 0.5"/>
   </g>
   <g id="patch_46">
    <path d="M 517.490312 319.19875 
L 517.490312 53.80125 
" style="fill: none; stroke: #000000; stroke-linejoin: miter; stroke-linecap: square"/>
   </g>
   <g id="patch_47">
    <path d="M 517.490312 319.19875 
L 920.490312 319.19875 
" style="fill: none; stroke: #000000; stroke-linejoin: miter; stroke-linecap: square"/>
   </g>
   <g id="text_38">
    <!-- (b) CF vs ρ₁ -->
    <g transform="translate(689.490312 47.80125) scale(0.1 -0.1)">
     <defs>
      <path id="DejaVuSerif-62" d="M 738 331 
L 738 4531 
L 184 4531 
L 184 4863 
L 1313 4863 
L 1313 2803 
Q 1481 3116 1742 3264 
Q 2003 3413 2388 3413 
Q 3000 3413 3387 2928 
Q 3775 2444 3775 1663 
Q 3775 881 3387 395 
Q 3000 -91 2388 -91 
Q 2003 -91 1742 57 
Q 1481 206 1313 519 
L 1313 0 
L 184 0 
L 184 331 
L 738 331 
z
M 1313 1497 
Q 1313 897 1542 583 
Q 1772 269 2209 269 
Q 2650 269 2876 622 
Q 3103 975 3103 1663 
Q 3103 2353 2876 2703 
Q 2650 3053 2209 3053 
Q 1772 3053 1542 2737 
Q 1313 2422 1313 1825 
L 1313 1497 
z
" transform="scale(0.015625)"/>
      <path id="DejaVuSerif-76" d="M 1581 0 
L 359 2988 
L -19 2988 
L -19 3322 
L 1509 3322 
L 1509 2988 
L 978 2988 
L 1913 703 
L 2847 2988 
L 2350 2988 
L 2350 3322 
L 3597 3322 
L 3597 2988 
L 3225 2988 
L 2003 0 
L 1581 0 
z
" transform="scale(0.015625)"/>
      <path id="DejaVuSerif-73" d="M 359 184 
L 359 959 
L 691 959 
Q 703 588 923 403 
Q 1144 219 1575 219 
Q 1963 219 2166 364 
Q 2369 509 2369 788 
Q 2369 1006 2220 1140 
Q 2072 1275 1594 1428 
L 1178 1569 
Q 750 1706 558 1912 
Q 366 2119 366 2438 
Q 366 2894 700 3153 
Q 1034 3413 1625 3413 
Q 1888 3413 2178 3344 
Q 2469 3275 2778 3144 
L 2778 2419 
L 2447 2419 
Q 2434 2741 2221 2922 
Q 2009 3103 1644 3103 
Q 1281 3103 1095 2975 
Q 909 2847 909 2591 
Q 909 2381 1050 2254 
Q 1191 2128 1613 1997 
L 2069 1856 
Q 2541 1709 2748 1489 
Q 2956 1269 2956 922 
Q 2956 450 2595 179 
Q 2234 -91 1600 -91 
Q 1278 -91 972 -22 
Q 666 47 359 184 
z
" transform="scale(0.015625)"/>
     </defs>
     <use xlink:href="#DejaVuSerif-28"/>
     <use xlink:href="#DejaVuSerif-62" transform="translate(39.013672 0)"/>
     <use xlink:href="#DejaVuSerif-29" transform="translate(103.027344 0)"/>
     <use xlink:href="#DejaVuSerif-20" transform="translate(142.041016 0)"/>
     <use xlink:href="#DejaVuSerif-43" transform="translate(173.828125 0)"/>
     <use xlink:href="#DejaVuSerif-46" transform="translate(250.341797 0)"/>
     <use xlink:href="#DejaVuSerif-20" transform="translate(319.726562 0)"/>
     <use xlink:href="#DejaVuSerif-76" transform="translate(351.513672 0)"/>
     <use xlink:href="#DejaVuSerif-73" transform="translate(408.007812 0)"/>
     <use xlink:href="#DejaVuSerif-20" transform="translate(459.326172 0)"/>
     <use xlink:href="#DejaVuSerif-3c1" transform="translate(491.113281 0)"/>
     <use xlink:href="#DejaVuSerif-2081" transform="translate(549.902344 0)"/>
    </g>
   </g>
   <g id="legend_2">
    <g id="patch_48">
     <path d="M 819.837969 87.9225 
L 914.190313 87.9225 
Q 915.990313 87.9225 915.990313 86.1225 
L 915.990313 60.10125 
Q 915.990313 58.30125 914.190313 58.30125 
L 819.837969 58.30125 
Q 818.037969 58.30125 818.037969 60.10125 
L 818.037969 86.1225 
Q 818.037969 87.9225 819.837969 87.9225 
z
" style="fill: #ffffff; opacity: 0.8; stroke: #cccccc; stroke-linejoin: miter"/>
    </g>
    <g id="PathCollection_3">
     <g>
      <use xlink:href="#m5cafcd596d" x="830.637969" y="66.377344" style="fill: #90a4ae; fill-opacity: 0.7; stroke: #90a4ae; stroke-opacity: 0.7"/>
     </g>
    </g>
    <g id="text_39">
     <!-- Sig_AC = No -->
     <g transform="translate(846.837969 68.739844) scale(0.09 -0.09)">
      <defs>
       <path id="DejaVuSerif-5f" d="M 3200 -1259 
L 3200 -1509 
L 0 -1509 
L 0 -1259 
L 3200 -1259 
z
" transform="scale(0.015625)"/>
       <path id="DejaVuSerif-3d" d="M 678 2894 
L 4684 2894 
L 4684 2394 
L 678 2394 
L 678 2894 
z
M 678 1619 
L 4684 1619 
L 4684 1119 
L 678 1119 
L 678 1619 
z
" transform="scale(0.015625)"/>
       <path id="DejaVuSerif-4e" d="M 313 0 
L 313 331 
L 941 331 
L 941 4331 
L 313 4331 
L 313 4666 
L 1509 4666 
L 4306 984 
L 4306 4331 
L 3681 4331 
L 3681 4666 
L 5319 4666 
L 5319 4331 
L 4691 4331 
L 4691 -91 
L 4313 -91 
L 1325 3841 
L 1325 331 
L 1953 331 
L 1953 0 
L 313 0 
z
" transform="scale(0.015625)"/>
      </defs>
      <use xlink:href="#DejaVuSerif-53"/>
      <use xlink:href="#DejaVuSerif-69" transform="translate(68.505859 0)"/>
      <use xlink:href="#DejaVuSerif-67" transform="translate(100.488281 0)"/>
      <use xlink:href="#DejaVuSerif-5f" transform="translate(164.501953 0)"/>
      <use xlink:href="#DejaVuSerif-41" transform="translate(214.501953 0)"/>
      <use xlink:href="#DejaVuSerif-43" transform="translate(286.71875 0)"/>
      <use xlink:href="#DejaVuSerif-20" transform="translate(363.232422 0)"/>
      <use xlink:href="#DejaVuSerif-3d" transform="translate(395.019531 0)"/>
      <use xlink:href="#DejaVuSerif-20" transform="translate(478.808594 0)"/>
      <use xlink:href="#DejaVuSerif-4e" transform="translate(510.595703 0)"/>
      <use xlink:href="#DejaVuSerif-6f" transform="translate(598.095703 0)"/>
     </g>
    </g>
    <g id="PathCollection_4">
     <g>
      <use xlink:href="#m7483baacc7" x="830.637969" y="79.837969" style="fill: #0277bd; fill-opacity: 0.7; stroke: #0277bd; stroke-opacity: 0.7"/>
     </g>
    </g>
    <g id="text_40">
     <!-- Sig_AC = Yes* -->
     <g transform="translate(846.837969 82.200469) scale(0.09 -0.09)">
      <defs>
       <path id="DejaVuSerif-59" d="M 1209 0 
L 1209 331 
L 1806 331 
L 1806 2009 
L 366 4331 
L -72 4331 
L -72 4666 
L 1663 4666 
L 1663 4331 
L 1119 4331 
L 2284 2444 
L 3450 4331 
L 2925 4331 
L 2925 4666 
L 4281 4666 
L 4281 4331 
L 3841 4331 
L 2438 2069 
L 2438 331 
L 3034 331 
L 3034 0 
L 1209 0 
z
" transform="scale(0.015625)"/>
      </defs>
      <use xlink:href="#DejaVuSerif-53"/>
      <use xlink:href="#DejaVuSerif-69" transform="translate(68.505859 0)"/>
      <use xlink:href="#DejaVuSerif-67" transform="translate(100.488281 0)"/>
      <use xlink:href="#DejaVuSerif-5f" transform="translate(164.501953 0)"/>
      <use xlink:href="#DejaVuSerif-41" transform="translate(214.501953 0)"/>
      <use xlink:href="#DejaVuSerif-43" transform="translate(286.71875 0)"/>
      <use xlink:href="#DejaVuSerif-20" transform="translate(363.232422 0)"/>
      <use xlink:href="#DejaVuSerif-3d" transform="translate(395.019531 0)"/>
      <use xlink:href="#DejaVuSerif-20" transform="translate(478.808594 0)"/>
      <use xlink:href="#DejaVuSerif-59" transform="translate(510.595703 0)"/>
      <use xlink:href="#DejaVuSerif-65" transform="translate(567.861328 0)"/>
      <use xlink:href="#DejaVuSerif-73" transform="translate(627.041016 0)"/>
      <use xlink:href="#DejaVuSerif-2a" transform="translate(678.359375 0)"/>
     </g>
    </g>
   </g>
  </g>
  <g id="text_41">
   <!-- Figure 6: MMK Autocorrelation Correction Factor -->
   <g transform="translate(311.480391 19.158281) scale(0.11 -0.11)">
    <defs>
     <path id="DejaVuSerif-Bold-46" d="M 300 0 
L 300 378 
L 897 378 
L 897 4288 
L 300 4288 
L 300 4666 
L 4459 4666 
L 4459 3566 
L 4031 3566 
L 4031 4238 
L 2106 4238 
L 2106 2741 
L 3291 2741 
L 3291 3334 
L 3719 3334 
L 3719 1722 
L 3291 1722 
L 3291 2316 
L 2106 2316 
L 2106 378 
L 2841 378 
L 2841 0 
L 300 0 
z
" transform="scale(0.015625)"/>
     <path id="DejaVuSerif-Bold-69" d="M 588 4263 
Q 588 4516 763 4689 
Q 938 4863 1191 4863 
Q 1438 4863 1611 4689 
Q 1784 4516 1784 4263 
Q 1784 4016 1611 3842 
Q 1438 3669 1191 3669 
Q 938 3669 763 3841 
Q 588 4013 588 4263 
z
M 1797 378 
L 2272 378 
L 2272 0 
L 219 0 
L 219 378 
L 691 378 
L 691 2944 
L 219 2944 
L 219 3322 
L 1797 3322 
L 1797 378 
z
" transform="scale(0.015625)"/>
     <path id="DejaVuSerif-Bold-67" d="M 3853 2944 
L 3853 44 
Q 3853 -656 3354 -1039 
Q 2856 -1422 1947 -1422 
Q 1616 -1422 1275 -1370 
Q 934 -1319 575 -1216 
L 575 -422 
L 928 -422 
Q 975 -750 1192 -909 
Q 1409 -1069 1813 -1069 
Q 2325 -1069 2536 -823 
Q 2747 -578 2747 44 
L 2747 422 
Q 2606 163 2367 36 
Q 2128 -91 1778 -91 
Q 1072 -91 667 378 
Q 263 847 263 1663 
Q 263 2481 667 2947 
Q 1072 3413 1778 3413 
Q 2128 3413 2367 3286 
Q 2606 3159 2747 2900 
L 2747 3322 
L 4325 3322 
L 4325 2944 
L 3853 2944 
z
M 2747 1825 
Q 2747 2406 2597 2665 
Q 2447 2925 2119 2925 
Q 1775 2925 1636 2651 
Q 1497 2378 1497 1663 
Q 1497 947 1637 672 
Q 1778 397 2119 397 
Q 2447 397 2597 656 
Q 2747 916 2747 1497 
L 2747 1825 
z
" transform="scale(0.015625)"/>
     <path id="DejaVuSerif-Bold-75" d="M 3963 3322 
L 3963 378 
L 4434 378 
L 4434 0 
L 2853 0 
L 2853 469 
Q 2656 172 2400 40 
Q 2144 -91 1753 -91 
Q 1194 -91 908 239 
Q 622 569 622 1209 
L 622 2944 
L 147 2944 
L 147 3322 
L 1728 3322 
L 1728 1381 
Q 1728 763 1831 595 
Q 1934 428 2209 428 
Q 2544 428 2698 675 
Q 2853 922 2853 1459 
L 2853 2944 
L 2450 2944 
L 2450 3322 
L 3963 3322 
z
" transform="scale(0.015625)"/>
     <path id="DejaVuSerif-Bold-72" d="M 3438 3359 
L 3438 2369 
L 3084 2369 
Q 3066 2634 2941 2764 
Q 2816 2894 2578 2894 
Q 2216 2894 2006 2575 
Q 1797 2256 1797 1691 
L 1797 378 
L 2400 378 
L 2400 0 
L 219 0 
L 219 378 
L 691 378 
L 691 2944 
L 184 2944 
L 184 3322 
L 1797 3322 
L 1797 2731 
Q 1959 3078 2226 3245 
Q 2494 3413 2881 3413 
Q 2978 3413 3117 3398 
Q 3256 3384 3438 3359 
z
" transform="scale(0.015625)"/>
     <path id="DejaVuSerif-Bold-65" d="M 2566 1875 
Q 2566 2531 2444 2795 
Q 2322 3059 2028 3059 
Q 1744 3059 1620 2800 
Q 1497 2541 1497 1931 
L 1497 1875 
L 2566 1875 
z
M 3781 1503 
L 1497 1503 
L 1497 1478 
Q 1497 834 1690 548 
Q 1884 263 2316 263 
Q 2675 263 2897 453 
Q 3119 644 3181 1006 
L 3700 1006 
Q 3566 441 3166 175 
Q 2766 -91 2047 -91 
Q 1184 -91 723 364 
Q 263 819 263 1663 
Q 263 2488 734 2950 
Q 1206 3413 2047 3413 
Q 2872 3413 3312 2927 
Q 3753 2441 3781 1503 
z
" transform="scale(0.015625)"/>
     <path id="DejaVuSerif-Bold-20" transform="scale(0.015625)"/>
     <path id="DejaVuSerif-Bold-36" d="M 1575 2766 
Q 1778 2928 2029 3009 
Q 2281 3091 2578 3091 
Q 3294 3091 3701 2672 
Q 4109 2253 4109 1522 
Q 4109 750 3650 329 
Q 3191 -91 2344 -91 
Q 1388 -91 895 486 
Q 403 1063 403 2181 
Q 403 3453 950 4101 
Q 1497 4750 2572 4750 
Q 2853 4750 3175 4703 
Q 3497 4656 3866 4563 
L 3866 3738 
L 3488 3738 
Q 3409 4056 3192 4220 
Q 2975 4384 2631 4384 
Q 2075 4384 1826 4003 
Q 1578 3622 1575 2766 
z
M 2272 275 
Q 2594 275 2731 548 
Q 2869 822 2869 1497 
Q 2869 2172 2731 2445 
Q 2594 2719 2272 2719 
Q 1950 2719 1814 2445 
Q 1678 2172 1678 1497 
Q 1678 822 1814 548 
Q 1950 275 2272 275 
z
" transform="scale(0.015625)"/>
     <path id="DejaVuSerif-Bold-3a" d="M 588 2541 
Q 588 2788 761 2963 
Q 934 3138 1178 3138 
Q 1422 3138 1597 2961 
Q 1772 2784 1772 2541 
Q 1772 2297 1598 2125 
Q 1425 1953 1178 1953 
Q 931 1953 759 2125 
Q 588 2297 588 2541 
z
M 588 506 
Q 588 750 761 925 
Q 934 1100 1178 1100 
Q 1422 1100 1597 925 
Q 1772 750 1772 506 
Q 1772 259 1597 84 
Q 1422 -91 1178 -91 
Q 934 -91 761 84 
Q 588 259 588 506 
z
" transform="scale(0.015625)"/>
     <path id="DejaVuSerif-Bold-4d" d="M 269 0 
L 269 378 
L 863 378 
L 863 4288 
L 269 4288 
L 269 4666 
L 2194 4666 
L 3525 1672 
L 4863 4666 
L 6784 4666 
L 6784 4288 
L 6188 4288 
L 6188 378 
L 6784 378 
L 6784 0 
L 4384 0 
L 4384 378 
L 4978 378 
L 4978 3938 
L 3531 684 
L 2741 684 
L 1300 3938 
L 1300 378 
L 1894 378 
L 1894 0 
L 269 0 
z
" transform="scale(0.015625)"/>
     <path id="DejaVuSerif-Bold-4b" d="M 300 0 
L 300 378 
L 897 378 
L 897 4288 
L 300 4288 
L 300 4666 
L 2700 4666 
L 2700 4288 
L 2100 4288 
L 2100 2584 
L 4078 4288 
L 3578 4288 
L 3578 4666 
L 5319 4666 
L 5319 4288 
L 4697 4288 
L 3022 2847 
L 5300 378 
L 5759 378 
L 5759 0 
L 4178 0 
L 2100 2266 
L 2100 378 
L 2700 378 
L 2700 0 
L 300 0 
z
" transform="scale(0.015625)"/>
     <path id="DejaVuSerif-Bold-41" d="M -50 0 
L -50 378 
L 331 378 
L 2088 4666 
L 2834 4666 
L 4594 378 
L 5038 378 
L 5038 0 
L 2853 0 
L 2853 378 
L 3309 378 
L 2925 1331 
L 1172 1331 
L 781 378 
L 1338 378 
L 1338 0 
L -50 0 
z
M 1325 1709 
L 2772 1709 
L 2053 3494 
L 1325 1709 
z
" transform="scale(0.015625)"/>
     <path id="DejaVuSerif-Bold-74" d="M 634 2944 
L 153 2944 
L 153 3322 
L 634 3322 
L 634 4353 
L 1741 4353 
L 1741 3322 
L 2663 3322 
L 2663 2944 
L 1741 2944 
L 1741 909 
Q 1741 475 1809 369 
Q 1878 263 2059 263 
Q 2259 263 2356 397 
Q 2453 531 2459 813 
L 2925 813 
Q 2897 313 2651 111 
Q 2406 -91 1806 -91 
Q 1122 -91 878 123 
Q 634 338 634 909 
L 634 2944 
z
" transform="scale(0.015625)"/>
     <path id="DejaVuSerif-Bold-6f" d="M 2138 263 
Q 2488 263 2630 563 
Q 2772 863 2772 1663 
Q 2772 2463 2631 2761 
Q 2491 3059 2138 3059 
Q 1784 3059 1640 2757 
Q 1497 2456 1497 1663 
Q 1497 869 1640 566 
Q 1784 263 2138 263 
z
M 2138 -91 
Q 1259 -91 761 376 
Q 263 844 263 1663 
Q 263 2484 761 2948 
Q 1259 3413 2138 3413 
Q 3019 3413 3516 2948 
Q 4013 2484 4013 1663 
Q 4013 844 3514 376 
Q 3016 -91 2138 -91 
z
" transform="scale(0.015625)"/>
     <path id="DejaVuSerif-Bold-63" d="M 3609 1038 
Q 3491 469 3123 189 
Q 2756 -91 2125 -91 
Q 1238 -91 750 368 
Q 263 828 263 1663 
Q 263 2488 744 2950 
Q 1225 3413 2081 3413 
Q 2428 3413 2781 3347 
Q 3134 3281 3500 3150 
L 3500 2228 
L 3150 2228 
Q 3100 2650 2903 2854 
Q 2706 3059 2350 3059 
Q 1888 3059 1692 2746 
Q 1497 2434 1497 1663 
Q 1497 909 1687 586 
Q 1878 263 2309 263 
Q 2644 263 2845 463 
Q 3047 663 3091 1038 
L 3609 1038 
z
" transform="scale(0.015625)"/>
     <path id="DejaVuSerif-Bold-6c" d="M 1797 378 
L 2272 378 
L 2272 0 
L 219 0 
L 219 378 
L 691 378 
L 691 4488 
L 219 4488 
L 219 4863 
L 1797 4863 
L 1797 378 
z
" transform="scale(0.015625)"/>
     <path id="DejaVuSerif-Bold-61" d="M 3525 2041 
L 3525 378 
L 4000 378 
L 4000 0 
L 2419 0 
L 2419 422 
Q 2200 159 1931 34 
Q 1663 -91 1319 -91 
Q 809 -91 536 182 
Q 263 456 263 966 
Q 263 1525 655 1803 
Q 1047 2081 1838 2081 
L 2419 2081 
L 2419 2278 
Q 2419 2681 2228 2873 
Q 2038 3066 1638 3066 
Q 1306 3066 1126 2930 
Q 947 2794 872 2484 
L 519 2484 
L 519 3200 
Q 816 3306 1134 3359 
Q 1453 3413 1806 3413 
Q 2697 3413 3111 3081 
Q 3525 2750 3525 2041 
z
M 2419 1044 
L 2419 1709 
L 2003 1709 
Q 1694 1709 1528 1540 
Q 1363 1372 1363 1056 
Q 1363 741 1483 584 
Q 1603 428 1850 428 
Q 2106 428 2262 597 
Q 2419 766 2419 1044 
z
" transform="scale(0.015625)"/>
     <path id="DejaVuSerif-Bold-6e" d="M 219 0 
L 219 378 
L 691 378 
L 691 2944 
L 219 2944 
L 219 3322 
L 1797 3322 
L 1797 2853 
Q 1997 3150 2253 3281 
Q 2509 3413 2900 3413 
Q 3459 3413 3745 3083 
Q 4031 2753 4031 2113 
L 4031 378 
L 4506 378 
L 4506 0 
L 2522 0 
L 2522 378 
L 2925 378 
L 2925 2144 
Q 2925 2566 2817 2730 
Q 2709 2894 2444 2894 
Q 2109 2894 1953 2648 
Q 1797 2403 1797 1869 
L 1797 378 
L 2203 378 
L 2203 0 
L 219 0 
z
" transform="scale(0.015625)"/>
     <path id="DejaVuSerif-Bold-43" d="M 4769 1331 
Q 4584 609 4106 259 
Q 3628 -91 2822 -91 
Q 1641 -91 955 561 
Q 269 1213 269 2328 
Q 269 3447 955 4098 
Q 1641 4750 2822 4750 
Q 3238 4750 3688 4650 
Q 4138 4550 4641 4347 
L 4641 3200 
L 4244 3200 
Q 4122 3788 3800 4080 
Q 3478 4372 2950 4372 
Q 2269 4372 1937 3870 
Q 1606 3369 1606 2328 
Q 1606 1288 1937 788 
Q 2269 288 2956 288 
Q 3422 288 3717 547 
Q 4013 806 4147 1331 
L 4769 1331 
z
" transform="scale(0.015625)"/>
    </defs>
    <use xlink:href="#DejaVuSerif-Bold-46"/>
    <use xlink:href="#DejaVuSerif-Bold-69" transform="translate(70.996094 0)"/>
    <use xlink:href="#DejaVuSerif-Bold-67" transform="translate(108.984375 0)"/>
    <use xlink:href="#DejaVuSerif-Bold-75" transform="translate(178.90625 0)"/>
    <use xlink:href="#DejaVuSerif-Bold-72" transform="translate(251.611328 0)"/>
    <use xlink:href="#DejaVuSerif-Bold-65" transform="translate(304.296875 0)"/>
    <use xlink:href="#DejaVuSerif-Bold-20" transform="translate(367.919922 0)"/>
    <use xlink:href="#DejaVuSerif-Bold-36" transform="translate(402.734375 0)"/>
    <use xlink:href="#DejaVuSerif-Bold-3a" transform="translate(472.314453 0)"/>
    <use xlink:href="#DejaVuSerif-Bold-20" transform="translate(509.228516 0)"/>
    <use xlink:href="#DejaVuSerif-Bold-4d" transform="translate(544.042969 0)"/>
    <use xlink:href="#DejaVuSerif-Bold-4d" transform="translate(654.736328 0)"/>
    <use xlink:href="#DejaVuSerif-Bold-4b" transform="translate(765.429688 0)"/>
    <use xlink:href="#DejaVuSerif-Bold-20" transform="translate(852.34375 0)"/>
    <use xlink:href="#DejaVuSerif-Bold-41" transform="translate(887.158203 0)"/>
    <use xlink:href="#DejaVuSerif-Bold-75" transform="translate(964.746094 0)"/>
    <use xlink:href="#DejaVuSerif-Bold-74" transform="translate(1037.451172 0)"/>
    <use xlink:href="#DejaVuSerif-Bold-6f" transform="translate(1083.642578 0)"/>
    <use xlink:href="#DejaVuSerif-Bold-63" transform="translate(1150.341797 0)"/>
    <use xlink:href="#DejaVuSerif-Bold-6f" transform="translate(1211.230469 0)"/>
    <use xlink:href="#DejaVuSerif-Bold-72" transform="translate(1277.929688 0)"/>
    <use xlink:href="#DejaVuSerif-Bold-72" transform="translate(1330.615234 0)"/>
    <use xlink:href="#DejaVuSerif-Bold-65" transform="translate(1383.300781 0)"/>
    <use xlink:href="#DejaVuSerif-Bold-6c" transform="translate(1446.923828 0)"/>
    <use xlink:href="#DejaVuSerif-Bold-61" transform="translate(1484.912109 0)"/>
    <use xlink:href="#DejaVuSerif-Bold-74" transform="translate(1549.707031 0)"/>
    <use xlink:href="#DejaVuSerif-Bold-69" transform="translate(1595.898438 0)"/>
    <use xlink:href="#DejaVuSerif-Bold-6f" transform="translate(1633.886719 0)"/>
    <use xlink:href="#DejaVuSerif-Bold-6e" transform="translate(1700.585938 0)"/>
    <use xlink:href="#DejaVuSerif-Bold-20" transform="translate(1773.291016 0)"/>
    <use xlink:href="#DejaVuSerif-Bold-43" transform="translate(1808.105469 0)"/>
    <use xlink:href="#DejaVuSerif-Bold-6f" transform="translate(1887.695312 0)"/>
    <use xlink:href="#DejaVuSerif-Bold-72" transform="translate(1954.394531 0)"/>
    <use xlink:href="#DejaVuSerif-Bold-72" transform="translate(2007.080078 0)"/>
    <use xlink:href="#DejaVuSerif-Bold-65" transform="translate(2059.765625 0)"/>
    <use xlink:href="#DejaVuSerif-Bold-63" transform="translate(2123.388672 0)"/>
    <use xlink:href="#DejaVuSerif-Bold-74" transform="translate(2184.277344 0)"/>
    <use xlink:href="#DejaVuSerif-Bold-69" transform="translate(2230.46875 0)"/>
    <use xlink:href="#DejaVuSerif-Bold-6f" transform="translate(2268.457031 0)"/>
    <use xlink:href="#DejaVuSerif-Bold-6e" transform="translate(2335.15625 0)"/>
    <use xlink:href="#DejaVuSerif-Bold-20" transform="translate(2407.861328 0)"/>
    <use xlink:href="#DejaVuSerif-Bold-46" transform="translate(2442.675781 0)"/>
    <use xlink:href="#DejaVuSerif-Bold-61" transform="translate(2508.171875 0)"/>
    <use xlink:href="#DejaVuSerif-Bold-63" transform="translate(2572.966797 0)"/>
    <use xlink:href="#DejaVuSerif-Bold-74" transform="translate(2633.855469 0)"/>
    <use xlink:href="#DejaVuSerif-Bold-6f" transform="translate(2680.046875 0)"/>
    <use xlink:href="#DejaVuSerif-Bold-72" transform="translate(2746.746094 0)"/>
   </g>
  </g>
 </g>
 <defs>
  <clipPath id="p19b27e4083">
   <rect x="55.970313" y="53.80125" width="403" height="265.3975"/>
  </clipPath>
  <clipPath id="p482a361469">
   <rect x="517.490312" y="53.80125" width="403" height="265.3975"/>
  </clipPath>
 </defs>
</svg>
