<?xml version="1.0" encoding="utf-8" standalone="no"?>
<!DOCTYPE svg PUBLIC "-//W3C//DTD SVG 1.1//EN"
  "http://www.w3.org/Graphics/SVG/1.1/DTD/svg11.dtd">
<svg xmlns:xlink="http://www.w3.org/1999/xlink" width="500.262344pt" height="500.968906pt" viewBox="0 0 500.262344 500.968906" xmlns="http://www.w3.org/2000/svg" version="1.1">
 <metadata>
  <rdf:RDF xmlns:dc="http://purl.org/dc/elements/1.1/" xmlns:cc="http://creativecommons.org/ns#" xmlns:rdf="http://www.w3.org/1999/02/22-rdf-syntax-ns#">
   <cc:Work>
    <dc:type rdf:resource="http://purl.org/dc/dcmitype/StillImage"/>
    <dc:date>2026-05-29T04:42:43.823440</dc:date>
    <dc:format>image/svg+xml</dc:format>
    <dc:creator>
     <cc:Agent>
      <dc:title>Matplotlib v3.10.9, https://matplotlib.org/</dc:title>
     </cc:Agent>
    </dc:creator>
   </cc:Work>
  </rdf:RDF>
 </metadata>
 <defs>
  <style type="text/css">*{stroke-linejoin: round; stroke-linecap: butt}</style>
 </defs>
 <g id="figure_1">
  <g id="patch_1">
   <path d="M 0 500.968906 
L 500.262344 500.968906 
L 500.262344 0 
L 0 0 
z
" style="fill: #ffffff"/>
  </g>
  <g id="axes_1">
   <g id="patch_2">
    <path d="M 48.662344 457.877031 
L 489.462344 457.877031 
L 489.462344 25.158281 
L 48.662344 25.158281 
z
" style="fill: #ffffff"/>
   </g>
   <g id="matplotlib.axis_1">
    <g id="xtick_1">
     <g id="line2d_1">
      <path d="M 97.322084 457.877031 
L 97.322084 25.158281 
" clip-path="url(#p50b142d352)" style="fill: none; stroke-dasharray: 1.48,0.64; stroke-dashoffset: 0; stroke: #b0bec5; stroke-opacity: 0.4; stroke-width: 0.4"/>
     </g>
     <g id="line2d_2">
      <defs>
       <path id="m3005fb98a3" d="M 0 0 
L 0 3.5 
" style="stroke: #000000; stroke-width: 0.8"/>
      </defs>
      <g>
       <use xlink:href="#m3005fb98a3" x="97.322084" y="457.877031" style="stroke: #000000; stroke-width: 0.8"/>
      </g>
     </g>
     <g id="text_1">
      <!-- −3 -->
      <g transform="translate(89.213881 473.235313) scale(0.11 -0.11)">
       <defs>
        <path id="DejaVuSerif-2212" d="M 678 2259 
L 4684 2259 
L 4684 1753 
L 678 1753 
L 678 2259 
z
" transform="scale(0.015625)"/>
        <path id="DejaVuSerif-33" d="M 622 4469 
Q 988 4606 1323 4678 
Q 1659 4750 1953 4750 
Q 2638 4750 3022 4454 
Q 3406 4159 3406 3634 
Q 3406 3213 3140 2930 
Q 2875 2647 2388 2547 
Q 2963 2466 3280 2130 
Q 3597 1794 3597 1259 
Q 3597 606 3158 257 
Q 2719 -91 1894 -91 
Q 1528 -91 1179 -12 
Q 831 66 488 225 
L 488 1131 
L 838 1131 
Q 869 681 1141 450 
Q 1413 219 1906 219 
Q 2384 219 2661 495 
Q 2938 772 2938 1253 
Q 2938 1803 2653 2086 
Q 2369 2369 1819 2369 
L 1522 2369 
L 1522 2688 
L 1678 2688 
Q 2225 2688 2498 2914 
Q 2772 3141 2772 3597 
Q 2772 4006 2547 4223 
Q 2322 4441 1900 4441 
Q 1478 4441 1245 4241 
Q 1013 4041 972 3647 
L 622 3647 
L 622 4469 
z
" transform="scale(0.015625)"/>
       </defs>
       <use xlink:href="#DejaVuSerif-2212"/>
       <use xlink:href="#DejaVuSerif-33" transform="translate(83.789062 0)"/>
      </g>
     </g>
    </g>
    <g id="xtick_2">
     <g id="line2d_3">
      <path d="M 154.568837 457.877031 
L 154.568837 25.158281 
" clip-path="url(#p50b142d352)" style="fill: none; stroke-dasharray: 1.48,0.64; stroke-dashoffset: 0; stroke: #b0bec5; stroke-opacity: 0.4; stroke-width: 0.4"/>
     </g>
     <g id="line2d_4">
      <g>
       <use xlink:href="#m3005fb98a3" x="154.568837" y="457.877031" style="stroke: #000000; stroke-width: 0.8"/>
      </g>
     </g>
     <g id="text_2">
      <!-- −2 -->
      <g transform="translate(146.460634 473.235313) scale(0.11 -0.11)">
       <defs>
        <path id="DejaVuSerif-32" d="M 819 3553 
L 469 3553 
L 469 4384 
Q 803 4563 1142 4656 
Q 1481 4750 1806 4750 
Q 2534 4750 2956 4397 
Q 3378 4044 3378 3438 
Q 3378 2753 2422 1800 
Q 2347 1728 2309 1691 
L 1131 513 
L 3078 513 
L 3078 1088 
L 3444 1088 
L 3444 0 
L 434 0 
L 434 341 
L 1850 1753 
Q 2319 2222 2519 2614 
Q 2719 3006 2719 3438 
Q 2719 3909 2473 4175 
Q 2228 4441 1797 4441 
Q 1350 4441 1106 4219 
Q 863 3997 819 3553 
z
" transform="scale(0.015625)"/>
       </defs>
       <use xlink:href="#DejaVuSerif-2212"/>
       <use xlink:href="#DejaVuSerif-32" transform="translate(83.789062 0)"/>
      </g>
     </g>
    </g>
    <g id="xtick_3">
     <g id="line2d_5">
      <path d="M 211.815591 457.877031 
L 211.815591 25.158281 
" clip-path="url(#p50b142d352)" style="fill: none; stroke-dasharray: 1.48,0.64; stroke-dashoffset: 0; stroke: #b0bec5; stroke-opacity: 0.4; stroke-width: 0.4"/>
     </g>
     <g id="line2d_6">
      <g>
       <use xlink:href="#m3005fb98a3" x="211.815591" y="457.877031" style="stroke: #000000; stroke-width: 0.8"/>
      </g>
     </g>
     <g id="text_3">
      <!-- −1 -->
      <g transform="translate(203.707387 473.235313) scale(0.11 -0.11)">
       <defs>
        <path id="DejaVuSerif-31" d="M 909 0 
L 909 331 
L 1722 331 
L 1722 4213 
L 781 3603 
L 781 4013 
L 1919 4750 
L 2350 4750 
L 2350 331 
L 3163 331 
L 3163 0 
L 909 0 
z
" transform="scale(0.015625)"/>
       </defs>
       <use xlink:href="#DejaVuSerif-2212"/>
       <use xlink:href="#DejaVuSerif-31" transform="translate(83.789062 0)"/>
      </g>
     </g>
    </g>
    <g id="xtick_4">
     <g id="line2d_7">
      <path d="M 269.062344 457.877031 
L 269.062344 25.158281 
" clip-path="url(#p50b142d352)" style="fill: none; stroke-dasharray: 1.48,0.64; stroke-dashoffset: 0; stroke: #b0bec5; stroke-opacity: 0.4; stroke-width: 0.4"/>
     </g>
     <g id="line2d_8">
      <g>
       <use xlink:href="#m3005fb98a3" x="269.062344" y="457.877031" style="stroke: #000000; stroke-width: 0.8"/>
      </g>
     </g>
     <g id="text_4">
      <!-- 0 -->
      <g transform="translate(265.562969 473.235313) scale(0.11 -0.11)">
       <defs>
        <path id="DejaVuSerif-30" d="M 2034 219 
Q 2513 219 2750 744 
Q 2988 1269 2988 2328 
Q 2988 3391 2750 3916 
Q 2513 4441 2034 4441 
Q 1556 4441 1318 3916 
Q 1081 3391 1081 2328 
Q 1081 1269 1318 744 
Q 1556 219 2034 219 
z
M 2034 -91 
Q 1275 -91 848 546 
Q 422 1184 422 2328 
Q 422 3475 848 4112 
Q 1275 4750 2034 4750 
Q 2797 4750 3222 4112 
Q 3647 3475 3647 2328 
Q 3647 1184 3222 546 
Q 2797 -91 2034 -91 
z
" transform="scale(0.015625)"/>
       </defs>
       <use xlink:href="#DejaVuSerif-30"/>
      </g>
     </g>
    </g>
    <g id="xtick_5">
     <g id="line2d_9">
      <path d="M 326.309097 457.877031 
L 326.309097 25.158281 
" clip-path="url(#p50b142d352)" style="fill: none; stroke-dasharray: 1.48,0.64; stroke-dashoffset: 0; stroke: #b0bec5; stroke-opacity: 0.4; stroke-width: 0.4"/>
     </g>
     <g id="line2d_10">
      <g>
       <use xlink:href="#m3005fb98a3" x="326.309097" y="457.877031" style="stroke: #000000; stroke-width: 0.8"/>
      </g>
     </g>
     <g id="text_5">
      <!-- 1 -->
      <g transform="translate(322.809722 473.235313) scale(0.11 -0.11)">
       <use xlink:href="#DejaVuSerif-31"/>
      </g>
     </g>
    </g>
    <g id="xtick_6">
     <g id="line2d_11">
      <path d="M 383.55585 457.877031 
L 383.55585 25.158281 
" clip-path="url(#p50b142d352)" style="fill: none; stroke-dasharray: 1.48,0.64; stroke-dashoffset: 0; stroke: #b0bec5; stroke-opacity: 0.4; stroke-width: 0.4"/>
     </g>
     <g id="line2d_12">
      <g>
       <use xlink:href="#m3005fb98a3" x="383.55585" y="457.877031" style="stroke: #000000; stroke-width: 0.8"/>
      </g>
     </g>
     <g id="text_6">
      <!-- 2 -->
      <g transform="translate(380.056475 473.235313) scale(0.11 -0.11)">
       <use xlink:href="#DejaVuSerif-32"/>
      </g>
     </g>
    </g>
    <g id="xtick_7">
     <g id="line2d_13">
      <path d="M 440.802603 457.877031 
L 440.802603 25.158281 
" clip-path="url(#p50b142d352)" style="fill: none; stroke-dasharray: 1.48,0.64; stroke-dashoffset: 0; stroke: #b0bec5; stroke-opacity: 0.4; stroke-width: 0.4"/>
     </g>
     <g id="line2d_14">
      <g>
       <use xlink:href="#m3005fb98a3" x="440.802603" y="457.877031" style="stroke: #000000; stroke-width: 0.8"/>
      </g>
     </g>
     <g id="text_7">
      <!-- 3 -->
      <g transform="translate(437.303228 473.235313) scale(0.11 -0.11)">
       <use xlink:href="#DejaVuSerif-33"/>
      </g>
     </g>
    </g>
    <g id="text_8">
     <!-- Standard MK  Z-statistic -->
     <g transform="translate(200.495391 487.88125) scale(0.11 -0.11)">
      <defs>
       <path id="DejaVuSerif-53" d="M 594 225 
L 594 1288 
L 953 1284 
Q 969 753 1261 498 
Q 1553 244 2150 244 
Q 2706 244 2998 464 
Q 3291 684 3291 1106 
Q 3291 1444 3114 1625 
Q 2938 1806 2369 1978 
L 1753 2163 
Q 1084 2366 811 2669 
Q 538 2972 538 3500 
Q 538 4094 959 4422 
Q 1381 4750 2144 4750 
Q 2469 4750 2856 4679 
Q 3244 4609 3681 4475 
L 3681 3481 
L 3328 3481 
Q 3275 3975 2998 4195 
Q 2722 4416 2156 4416 
Q 1663 4416 1405 4214 
Q 1147 4013 1147 3628 
Q 1147 3294 1340 3103 
Q 1534 2913 2163 2725 
L 2741 2553 
Q 3375 2363 3645 2067 
Q 3916 1772 3916 1275 
Q 3916 597 3481 253 
Q 3047 -91 2188 -91 
Q 1803 -91 1404 -12 
Q 1006 66 594 225 
z
" transform="scale(0.015625)"/>
       <path id="DejaVuSerif-74" d="M 691 2988 
L 184 2988 
L 184 3322 
L 691 3322 
L 691 4353 
L 1269 4353 
L 1269 3322 
L 2350 3322 
L 2350 2988 
L 1269 2988 
L 1269 878 
Q 1269 456 1350 337 
Q 1431 219 1650 219 
Q 1875 219 1978 351 
Q 2081 484 2088 781 
L 2522 781 
Q 2497 328 2275 118 
Q 2053 -91 1600 -91 
Q 1103 -91 897 129 
Q 691 350 691 878 
L 691 2988 
z
" transform="scale(0.015625)"/>
       <path id="DejaVuSerif-61" d="M 2547 1044 
L 2547 1747 
L 1806 1747 
Q 1378 1747 1168 1562 
Q 959 1378 959 997 
Q 959 650 1171 447 
Q 1384 244 1747 244 
Q 2106 244 2326 466 
Q 2547 688 2547 1044 
z
M 3122 2075 
L 3122 331 
L 3634 331 
L 3634 0 
L 2547 0 
L 2547 359 
Q 2356 128 2106 18 
Q 1856 -91 1522 -91 
Q 969 -91 644 203 
Q 319 497 319 997 
Q 319 1513 691 1797 
Q 1063 2081 1741 2081 
L 2547 2081 
L 2547 2309 
Q 2547 2688 2317 2895 
Q 2088 3103 1672 3103 
Q 1328 3103 1125 2947 
Q 922 2791 872 2484 
L 575 2484 
L 575 3156 
Q 875 3284 1158 3348 
Q 1441 3413 1709 3413 
Q 2400 3413 2761 3070 
Q 3122 2728 3122 2075 
z
" transform="scale(0.015625)"/>
       <path id="DejaVuSerif-6e" d="M 263 0 
L 263 331 
L 781 331 
L 781 2988 
L 231 2988 
L 231 3322 
L 1356 3322 
L 1356 2731 
Q 1516 3069 1770 3241 
Q 2025 3413 2363 3413 
Q 2913 3413 3172 3097 
Q 3431 2781 3431 2113 
L 3431 331 
L 3944 331 
L 3944 0 
L 2356 0 
L 2356 331 
L 2853 331 
L 2853 1931 
Q 2853 2541 2703 2767 
Q 2553 2994 2175 2994 
Q 1775 2994 1565 2701 
Q 1356 2409 1356 1850 
L 1356 331 
L 1856 331 
L 1856 0 
L 263 0 
z
" transform="scale(0.015625)"/>
       <path id="DejaVuSerif-64" d="M 3359 331 
L 3909 331 
L 3909 0 
L 2784 0 
L 2784 519 
Q 2616 206 2355 57 
Q 2094 -91 1709 -91 
Q 1097 -91 708 395 
Q 319 881 319 1663 
Q 319 2444 706 2928 
Q 1094 3413 1709 3413 
Q 2094 3413 2355 3264 
Q 2616 3116 2784 2803 
L 2784 4531 
L 2241 4531 
L 2241 4863 
L 3359 4863 
L 3359 331 
z
M 2784 1497 
L 2784 1825 
Q 2784 2422 2554 2737 
Q 2325 3053 1888 3053 
Q 1444 3053 1217 2703 
Q 991 2353 991 1663 
Q 991 975 1217 622 
Q 1444 269 1888 269 
Q 2325 269 2554 583 
Q 2784 897 2784 1497 
z
" transform="scale(0.015625)"/>
       <path id="DejaVuSerif-72" d="M 3059 3328 
L 3059 2497 
L 2728 2497 
Q 2713 2744 2591 2866 
Q 2469 2988 2234 2988 
Q 1809 2988 1582 2694 
Q 1356 2400 1356 1850 
L 1356 331 
L 2022 331 
L 2022 0 
L 263 0 
L 263 331 
L 781 331 
L 781 2994 
L 231 2994 
L 231 3322 
L 1356 3322 
L 1356 2731 
Q 1525 3078 1790 3245 
Q 2056 3413 2438 3413 
Q 2578 3413 2733 3391 
Q 2888 3369 3059 3328 
z
" transform="scale(0.015625)"/>
       <path id="DejaVuSerif-20" transform="scale(0.015625)"/>
       <path id="DejaVuSerif-4d" d="M 353 0 
L 353 331 
L 947 331 
L 947 4331 
L 319 4331 
L 319 4666 
L 1678 4666 
L 3316 1344 
L 4953 4666 
L 6228 4666 
L 6228 4331 
L 5606 4331 
L 5606 331 
L 6203 331 
L 6203 0 
L 4378 0 
L 4378 331 
L 4972 331 
L 4972 3938 
L 3372 684 
L 2931 684 
L 1331 3938 
L 1331 331 
L 1925 331 
L 1925 0 
L 353 0 
z
" transform="scale(0.015625)"/>
       <path id="DejaVuSerif-4b" d="M 353 0 
L 353 331 
L 947 331 
L 947 4331 
L 353 4331 
L 353 4666 
L 2175 4666 
L 2175 4331 
L 1581 4331 
L 1581 2566 
L 3591 4331 
L 3084 4331 
L 3084 4666 
L 4634 4666 
L 4634 4331 
L 4109 4331 
L 2106 2572 
L 4347 331 
L 4878 331 
L 4878 0 
L 3794 0 
L 1581 2216 
L 1581 331 
L 2175 331 
L 2175 0 
L 353 0 
z
" transform="scale(0.015625)"/>
       <path id="DejaVuSerif-5a" d="M 288 0 
L 288 225 
L 3194 4281 
L 781 4281 
L 781 3584 
L 397 3584 
L 397 4666 
L 4084 4666 
L 4084 4441 
L 1178 384 
L 3816 384 
L 3816 1038 
L 4197 1038 
L 4197 0 
L 288 0 
z
" transform="scale(0.015625)"/>
       <path id="DejaVuSerif-2d" d="M 281 1959 
L 1881 1959 
L 1881 1472 
L 281 1472 
L 281 1959 
z
" transform="scale(0.015625)"/>
       <path id="DejaVuSerif-73" d="M 359 184 
L 359 959 
L 691 959 
Q 703 588 923 403 
Q 1144 219 1575 219 
Q 1963 219 2166 364 
Q 2369 509 2369 788 
Q 2369 1006 2220 1140 
Q 2072 1275 1594 1428 
L 1178 1569 
Q 750 1706 558 1912 
Q 366 2119 366 2438 
Q 366 2894 700 3153 
Q 1034 3413 1625 3413 
Q 1888 3413 2178 3344 
Q 2469 3275 2778 3144 
L 2778 2419 
L 2447 2419 
Q 2434 2741 2221 2922 
Q 2009 3103 1644 3103 
Q 1281 3103 1095 2975 
Q 909 2847 909 2591 
Q 909 2381 1050 2254 
Q 1191 2128 1613 1997 
L 2069 1856 
Q 2541 1709 2748 1489 
Q 2956 1269 2956 922 
Q 2956 450 2595 179 
Q 2234 -91 1600 -91 
Q 1278 -91 972 -22 
Q 666 47 359 184 
z
" transform="scale(0.015625)"/>
       <path id="DejaVuSerif-69" d="M 622 4353 
Q 622 4497 726 4603 
Q 831 4709 978 4709 
Q 1122 4709 1226 4603 
Q 1331 4497 1331 4353 
Q 1331 4206 1228 4103 
Q 1125 4000 978 4000 
Q 831 4000 726 4103 
Q 622 4206 622 4353 
z
M 1356 331 
L 1900 331 
L 1900 0 
L 231 0 
L 231 331 
L 781 331 
L 781 2988 
L 231 2988 
L 231 3322 
L 1356 3322 
L 1356 331 
z
" transform="scale(0.015625)"/>
       <path id="DejaVuSerif-63" d="M 3291 997 
Q 3169 466 2822 187 
Q 2475 -91 1925 -91 
Q 1200 -91 759 389 
Q 319 869 319 1663 
Q 319 2459 759 2936 
Q 1200 3413 1925 3413 
Q 2241 3413 2553 3339 
Q 2866 3266 3181 3116 
L 3181 2266 
L 2847 2266 
Q 2781 2703 2561 2903 
Q 2341 3103 1931 3103 
Q 1466 3103 1228 2742 
Q 991 2381 991 1663 
Q 991 944 1227 581 
Q 1463 219 1931 219 
Q 2303 219 2525 412 
Q 2747 606 2828 997 
L 3291 997 
z
" transform="scale(0.015625)"/>
      </defs>
      <use xlink:href="#DejaVuSerif-53"/>
      <use xlink:href="#DejaVuSerif-74" transform="translate(68.505859 0)"/>
      <use xlink:href="#DejaVuSerif-61" transform="translate(108.691406 0)"/>
      <use xlink:href="#DejaVuSerif-6e" transform="translate(168.310547 0)"/>
      <use xlink:href="#DejaVuSerif-64" transform="translate(232.714844 0)"/>
      <use xlink:href="#DejaVuSerif-61" transform="translate(296.728516 0)"/>
      <use xlink:href="#DejaVuSerif-72" transform="translate(356.347656 0)"/>
      <use xlink:href="#DejaVuSerif-64" transform="translate(404.150391 0)"/>
      <use xlink:href="#DejaVuSerif-20" transform="translate(468.164062 0)"/>
      <use xlink:href="#DejaVuSerif-4d" transform="translate(499.951172 0)"/>
      <use xlink:href="#DejaVuSerif-4b" transform="translate(602.34375 0)"/>
      <use xlink:href="#DejaVuSerif-20" transform="translate(677.050781 0)"/>
      <use xlink:href="#DejaVuSerif-20" transform="translate(708.837891 0)"/>
      <use xlink:href="#DejaVuSerif-5a" transform="translate(740.625 0)"/>
      <use xlink:href="#DejaVuSerif-2d" transform="translate(810.107422 0)"/>
      <use xlink:href="#DejaVuSerif-73" transform="translate(843.896484 0)"/>
      <use xlink:href="#DejaVuSerif-74" transform="translate(895.214844 0)"/>
      <use xlink:href="#DejaVuSerif-61" transform="translate(935.400391 0)"/>
      <use xlink:href="#DejaVuSerif-74" transform="translate(995.019531 0)"/>
      <use xlink:href="#DejaVuSerif-69" transform="translate(1035.205078 0)"/>
      <use xlink:href="#DejaVuSerif-73" transform="translate(1067.1875 0)"/>
      <use xlink:href="#DejaVuSerif-74" transform="translate(1118.505859 0)"/>
      <use xlink:href="#DejaVuSerif-69" transform="translate(1158.691406 0)"/>
      <use xlink:href="#DejaVuSerif-63" transform="translate(1190.673828 0)"/>
     </g>
    </g>
   </g>
   <g id="matplotlib.axis_2">
    <g id="ytick_1">
     <g id="line2d_15">
      <path d="M 48.662344 410.109377 
L 489.462344 410.109377 
" clip-path="url(#p50b142d352)" style="fill: none; stroke-dasharray: 1.48,0.64; stroke-dashoffset: 0; stroke: #b0bec5; stroke-opacity: 0.4; stroke-width: 0.4"/>
     </g>
     <g id="line2d_16">
      <defs>
       <path id="m8e301082f9" d="M 0 0 
L -3.5 0 
" style="stroke: #000000; stroke-width: 0.8"/>
      </defs>
      <g>
       <use xlink:href="#m8e301082f9" x="48.662344" y="410.109377" style="stroke: #000000; stroke-width: 0.8"/>
      </g>
     </g>
     <g id="text_9">
      <!-- −3 -->
      <g transform="translate(25.445938 414.288518) scale(0.11 -0.11)">
       <use xlink:href="#DejaVuSerif-2212"/>
       <use xlink:href="#DejaVuSerif-33" transform="translate(83.789062 0)"/>
      </g>
     </g>
    </g>
    <g id="ytick_2">
     <g id="line2d_17">
      <path d="M 48.662344 353.912137 
L 489.462344 353.912137 
" clip-path="url(#p50b142d352)" style="fill: none; stroke-dasharray: 1.48,0.64; stroke-dashoffset: 0; stroke: #b0bec5; stroke-opacity: 0.4; stroke-width: 0.4"/>
     </g>
     <g id="line2d_18">
      <g>
       <use xlink:href="#m8e301082f9" x="48.662344" y="353.912137" style="stroke: #000000; stroke-width: 0.8"/>
      </g>
     </g>
     <g id="text_10">
      <!-- −2 -->
      <g transform="translate(25.445938 358.091277) scale(0.11 -0.11)">
       <use xlink:href="#DejaVuSerif-2212"/>
       <use xlink:href="#DejaVuSerif-32" transform="translate(83.789062 0)"/>
      </g>
     </g>
    </g>
    <g id="ytick_3">
     <g id="line2d_19">
      <path d="M 48.662344 297.714897 
L 489.462344 297.714897 
" clip-path="url(#p50b142d352)" style="fill: none; stroke-dasharray: 1.48,0.64; stroke-dashoffset: 0; stroke: #b0bec5; stroke-opacity: 0.4; stroke-width: 0.4"/>
     </g>
     <g id="line2d_20">
      <g>
       <use xlink:href="#m8e301082f9" x="48.662344" y="297.714897" style="stroke: #000000; stroke-width: 0.8"/>
      </g>
     </g>
     <g id="text_11">
      <!-- −1 -->
      <g transform="translate(25.445938 301.894037) scale(0.11 -0.11)">
       <use xlink:href="#DejaVuSerif-2212"/>
       <use xlink:href="#DejaVuSerif-31" transform="translate(83.789062 0)"/>
      </g>
     </g>
    </g>
    <g id="ytick_4">
     <g id="line2d_21">
      <path d="M 48.662344 241.517656 
L 489.462344 241.517656 
" clip-path="url(#p50b142d352)" style="fill: none; stroke-dasharray: 1.48,0.64; stroke-dashoffset: 0; stroke: #b0bec5; stroke-opacity: 0.4; stroke-width: 0.4"/>
     </g>
     <g id="line2d_22">
      <g>
       <use xlink:href="#m8e301082f9" x="48.662344" y="241.517656" style="stroke: #000000; stroke-width: 0.8"/>
      </g>
     </g>
     <g id="text_12">
      <!-- 0 -->
      <g transform="translate(34.663594 245.696797) scale(0.11 -0.11)">
       <use xlink:href="#DejaVuSerif-30"/>
      </g>
     </g>
    </g>
    <g id="ytick_5">
     <g id="line2d_23">
      <path d="M 48.662344 185.320416 
L 489.462344 185.320416 
" clip-path="url(#p50b142d352)" style="fill: none; stroke-dasharray: 1.48,0.64; stroke-dashoffset: 0; stroke: #b0bec5; stroke-opacity: 0.4; stroke-width: 0.4"/>
     </g>
     <g id="line2d_24">
      <g>
       <use xlink:href="#m8e301082f9" x="48.662344" y="185.320416" style="stroke: #000000; stroke-width: 0.8"/>
      </g>
     </g>
     <g id="text_13">
      <!-- 1 -->
      <g transform="translate(34.663594 189.499557) scale(0.11 -0.11)">
       <use xlink:href="#DejaVuSerif-31"/>
      </g>
     </g>
    </g>
    <g id="ytick_6">
     <g id="line2d_25">
      <path d="M 48.662344 129.123176 
L 489.462344 129.123176 
" clip-path="url(#p50b142d352)" style="fill: none; stroke-dasharray: 1.48,0.64; stroke-dashoffset: 0; stroke: #b0bec5; stroke-opacity: 0.4; stroke-width: 0.4"/>
     </g>
     <g id="line2d_26">
      <g>
       <use xlink:href="#m8e301082f9" x="48.662344" y="129.123176" style="stroke: #000000; stroke-width: 0.8"/>
      </g>
     </g>
     <g id="text_14">
      <!-- 2 -->
      <g transform="translate(34.663594 133.302316) scale(0.11 -0.11)">
       <use xlink:href="#DejaVuSerif-32"/>
      </g>
     </g>
    </g>
    <g id="ytick_7">
     <g id="line2d_27">
      <path d="M 48.662344 72.925935 
L 489.462344 72.925935 
" clip-path="url(#p50b142d352)" style="fill: none; stroke-dasharray: 1.48,0.64; stroke-dashoffset: 0; stroke: #b0bec5; stroke-opacity: 0.4; stroke-width: 0.4"/>
     </g>
     <g id="line2d_28">
      <g>
       <use xlink:href="#m8e301082f9" x="48.662344" y="72.925935" style="stroke: #000000; stroke-width: 0.8"/>
      </g>
     </g>
     <g id="text_15">
      <!-- 3 -->
      <g transform="translate(34.663594 77.105076) scale(0.11 -0.11)">
       <use xlink:href="#DejaVuSerif-33"/>
      </g>
     </g>
    </g>
    <g id="text_16">
     <!-- Modified MK (H&amp;R98)  Z-statistic -->
     <g transform="translate(19.158281 336.000781) rotate(-90) scale(0.11 -0.11)">
      <defs>
       <path id="DejaVuSerif-6f" d="M 1925 219 
Q 2388 219 2623 584 
Q 2859 950 2859 1663 
Q 2859 2375 2623 2739 
Q 2388 3103 1925 3103 
Q 1463 3103 1227 2739 
Q 991 2375 991 1663 
Q 991 950 1228 584 
Q 1466 219 1925 219 
z
M 1925 -91 
Q 1200 -91 759 389 
Q 319 869 319 1663 
Q 319 2456 758 2934 
Q 1197 3413 1925 3413 
Q 2653 3413 3092 2934 
Q 3531 2456 3531 1663 
Q 3531 869 3092 389 
Q 2653 -91 1925 -91 
z
" transform="scale(0.015625)"/>
       <path id="DejaVuSerif-66" d="M 2753 4078 
L 2450 4078 
Q 2447 4313 2317 4434 
Q 2188 4556 1941 4556 
Q 1619 4556 1487 4379 
Q 1356 4203 1356 3750 
L 1356 3322 
L 2284 3322 
L 2284 2988 
L 1356 2988 
L 1356 331 
L 2094 331 
L 2094 0 
L 231 0 
L 231 331 
L 781 331 
L 781 2988 
L 231 2988 
L 231 3322 
L 781 3322 
L 781 3738 
Q 781 4294 1070 4578 
Q 1359 4863 1919 4863 
Q 2128 4863 2337 4825 
Q 2547 4788 2753 4709 
L 2753 4078 
z
" transform="scale(0.015625)"/>
       <path id="DejaVuSerif-65" d="M 3469 1600 
L 991 1600 
L 991 1575 
Q 991 903 1244 561 
Q 1497 219 1991 219 
Q 2369 219 2611 417 
Q 2853 616 2950 1006 
L 3413 1006 
Q 3275 459 2904 184 
Q 2534 -91 1931 -91 
Q 1203 -91 761 389 
Q 319 869 319 1663 
Q 319 2450 753 2931 
Q 1188 3413 1894 3413 
Q 2647 3413 3050 2948 
Q 3453 2484 3469 1600 
z
M 2791 1931 
Q 2772 2513 2545 2808 
Q 2319 3103 1894 3103 
Q 1497 3103 1269 2806 
Q 1041 2509 991 1931 
L 2791 1931 
z
" transform="scale(0.015625)"/>
       <path id="DejaVuSerif-28" d="M 2041 -997 
Q 1281 -656 893 83 
Q 506 822 506 1931 
Q 506 3044 893 3783 
Q 1281 4522 2041 4863 
L 2041 4556 
Q 1559 4225 1350 3623 
Q 1141 3022 1141 1931 
Q 1141 844 1350 242 
Q 1559 -359 2041 -691 
L 2041 -997 
z
" transform="scale(0.015625)"/>
       <path id="DejaVuSerif-48" d="M 353 0 
L 353 331 
L 947 331 
L 947 4331 
L 353 4331 
L 353 4666 
L 2175 4666 
L 2175 4331 
L 1581 4331 
L 1581 2719 
L 4000 2719 
L 4000 4331 
L 3406 4331 
L 3406 4666 
L 5228 4666 
L 5228 4331 
L 4634 4331 
L 4634 331 
L 5228 331 
L 5228 0 
L 3406 0 
L 3406 331 
L 4000 331 
L 4000 2338 
L 1581 2338 
L 1581 331 
L 2175 331 
L 2175 0 
L 353 0 
z
" transform="scale(0.015625)"/>
       <path id="DejaVuSerif-26" d="M 3456 722 
L 1638 2638 
Q 1366 2394 1230 2111 
Q 1094 1828 1094 1509 
Q 1094 991 1453 639 
Q 1813 288 2350 288 
Q 2669 288 2951 398 
Q 3234 509 3456 722 
z
M 5394 0 
L 4141 0 
L 3713 453 
Q 3384 178 3012 43 
Q 2641 -91 2209 -91 
Q 1403 -91 931 321 
Q 459 734 459 1441 
Q 459 1856 698 2217 
Q 938 2578 1422 2894 
Q 1263 3084 1188 3273 
Q 1113 3463 1113 3669 
Q 1113 4166 1470 4458 
Q 1828 4750 2444 4750 
Q 2653 4750 2933 4697 
Q 3213 4644 3572 4538 
L 3572 3731 
L 3219 3731 
Q 3175 4066 2975 4241 
Q 2775 4416 2431 4416 
Q 2109 4416 1909 4239 
Q 1709 4063 1709 3781 
Q 1709 3591 1815 3402 
Q 1922 3213 2259 2859 
L 3872 1159 
Q 4088 1409 4211 1698 
Q 4334 1988 4366 2316 
L 3803 2316 
L 3803 2650 
L 5281 2650 
L 5281 2316 
L 4744 2316 
Q 4691 1909 4536 1556 
Q 4381 1203 4122 903 
L 4659 331 
L 5394 331 
L 5394 0 
z
" transform="scale(0.015625)"/>
       <path id="DejaVuSerif-52" d="M 3066 2316 
Q 3284 2256 3442 2114 
Q 3600 1972 3725 1716 
L 4403 331 
L 4972 331 
L 4972 0 
L 3872 0 
L 3144 1484 
Q 2934 1916 2759 2042 
Q 2584 2169 2278 2169 
L 1581 2169 
L 1581 331 
L 2241 331 
L 2241 0 
L 353 0 
L 353 331 
L 947 331 
L 947 4331 
L 353 4331 
L 353 4666 
L 2719 4666 
Q 3400 4666 3770 4341 
Q 4141 4016 4141 3419 
Q 4141 2938 3870 2661 
Q 3600 2384 3066 2316 
z
M 1581 2503 
L 2503 2503 
Q 2975 2503 3200 2726 
Q 3425 2950 3425 3419 
Q 3425 3888 3200 4109 
Q 2975 4331 2503 4331 
L 1581 4331 
L 1581 2503 
z
" transform="scale(0.015625)"/>
       <path id="DejaVuSerif-39" d="M 2994 2091 
Q 2784 1856 2512 1740 
Q 2241 1625 1900 1625 
Q 1206 1625 804 2044 
Q 403 2463 403 3188 
Q 403 3897 839 4323 
Q 1275 4750 2003 4750 
Q 2794 4750 3217 4161 
Q 3641 3572 3641 2478 
Q 3641 1253 3137 581 
Q 2634 -91 1722 -91 
Q 1475 -91 1203 -44 
Q 931 3 647 97 
L 647 872 
L 997 872 
Q 1038 556 1241 387 
Q 1444 219 1784 219 
Q 2391 219 2687 676 
Q 2984 1134 2994 2091 
z
M 1978 4441 
Q 1534 4441 1298 4117 
Q 1063 3794 1063 3188 
Q 1063 2581 1298 2256 
Q 1534 1931 1978 1931 
Q 2422 1931 2658 2245 
Q 2894 2559 2894 3150 
Q 2894 3772 2656 4106 
Q 2419 4441 1978 4441 
z
" transform="scale(0.015625)"/>
       <path id="DejaVuSerif-38" d="M 2981 1275 
Q 2981 1775 2732 2051 
Q 2484 2328 2034 2328 
Q 1584 2328 1336 2051 
Q 1088 1775 1088 1275 
Q 1088 772 1336 495 
Q 1584 219 2034 219 
Q 2484 219 2732 495 
Q 2981 772 2981 1275 
z
M 2853 3541 
Q 2853 3966 2637 4203 
Q 2422 4441 2034 4441 
Q 1650 4441 1433 4203 
Q 1216 3966 1216 3541 
Q 1216 3113 1433 2875 
Q 1650 2638 2034 2638 
Q 2422 2638 2637 2875 
Q 2853 3113 2853 3541 
z
M 2516 2484 
Q 3047 2413 3344 2092 
Q 3641 1772 3641 1275 
Q 3641 619 3225 264 
Q 2809 -91 2034 -91 
Q 1263 -91 845 264 
Q 428 619 428 1275 
Q 428 1772 725 2092 
Q 1022 2413 1556 2484 
Q 1084 2569 832 2842 
Q 581 3116 581 3541 
Q 581 4103 968 4426 
Q 1356 4750 2034 4750 
Q 2713 4750 3100 4426 
Q 3488 4103 3488 3541 
Q 3488 3116 3236 2842 
Q 2984 2569 2516 2484 
z
" transform="scale(0.015625)"/>
       <path id="DejaVuSerif-29" d="M 453 -997 
L 453 -691 
Q 934 -359 1145 242 
Q 1356 844 1356 1931 
Q 1356 3022 1145 3623 
Q 934 4225 453 4556 
L 453 4863 
Q 1216 4522 1603 3783 
Q 1991 3044 1991 1931 
Q 1991 822 1603 83 
Q 1216 -656 453 -997 
z
" transform="scale(0.015625)"/>
      </defs>
      <use xlink:href="#DejaVuSerif-4d"/>
      <use xlink:href="#DejaVuSerif-6f" transform="translate(102.392578 0)"/>
      <use xlink:href="#DejaVuSerif-64" transform="translate(162.597656 0)"/>
      <use xlink:href="#DejaVuSerif-69" transform="translate(226.611328 0)"/>
      <use xlink:href="#DejaVuSerif-66" transform="translate(258.59375 0)"/>
      <use xlink:href="#DejaVuSerif-69" transform="translate(295.605469 0)"/>
      <use xlink:href="#DejaVuSerif-65" transform="translate(327.587891 0)"/>
      <use xlink:href="#DejaVuSerif-64" transform="translate(386.767578 0)"/>
      <use xlink:href="#DejaVuSerif-20" transform="translate(450.78125 0)"/>
      <use xlink:href="#DejaVuSerif-4d" transform="translate(482.568359 0)"/>
      <use xlink:href="#DejaVuSerif-4b" transform="translate(584.960938 0)"/>
      <use xlink:href="#DejaVuSerif-20" transform="translate(659.667969 0)"/>
      <use xlink:href="#DejaVuSerif-28" transform="translate(691.455078 0)"/>
      <use xlink:href="#DejaVuSerif-48" transform="translate(730.46875 0)"/>
      <use xlink:href="#DejaVuSerif-26" transform="translate(817.675781 0)"/>
      <use xlink:href="#DejaVuSerif-52" transform="translate(906.689453 0)"/>
      <use xlink:href="#DejaVuSerif-39" transform="translate(981.982422 0)"/>
      <use xlink:href="#DejaVuSerif-38" transform="translate(1045.605469 0)"/>
      <use xlink:href="#DejaVuSerif-29" transform="translate(1109.228516 0)"/>
      <use xlink:href="#DejaVuSerif-20" transform="translate(1148.242188 0)"/>
      <use xlink:href="#DejaVuSerif-20" transform="translate(1180.029297 0)"/>
      <use xlink:href="#DejaVuSerif-5a" transform="translate(1211.816406 0)"/>
      <use xlink:href="#DejaVuSerif-2d" transform="translate(1281.298828 0)"/>
      <use xlink:href="#DejaVuSerif-73" transform="translate(1315.087891 0)"/>
      <use xlink:href="#DejaVuSerif-74" transform="translate(1366.40625 0)"/>
      <use xlink:href="#DejaVuSerif-61" transform="translate(1406.591797 0)"/>
      <use xlink:href="#DejaVuSerif-74" transform="translate(1466.210938 0)"/>
      <use xlink:href="#DejaVuSerif-69" transform="translate(1506.396484 0)"/>
      <use xlink:href="#DejaVuSerif-73" transform="translate(1538.378906 0)"/>
      <use xlink:href="#DejaVuSerif-74" transform="translate(1589.697266 0)"/>
      <use xlink:href="#DejaVuSerif-69" transform="translate(1629.882812 0)"/>
      <use xlink:href="#DejaVuSerif-63" transform="translate(1661.865234 0)"/>
     </g>
    </g>
   </g>
   <g id="line2d_29">
    <path d="M 381.26598 457.877031 
L 381.26598 25.158281 
" clip-path="url(#p50b142d352)" style="fill: none; stroke-dasharray: 2.59,1.12; stroke-dashoffset: 0; stroke: #808080; stroke-opacity: 0.5; stroke-width: 0.7"/>
   </g>
   <g id="line2d_30">
    <path d="M 156.858707 457.877031 
L 156.858707 25.158281 
" clip-path="url(#p50b142d352)" style="fill: none; stroke-dasharray: 2.59,1.12; stroke-dashoffset: 0; stroke: #808080; stroke-opacity: 0.5; stroke-width: 0.7"/>
   </g>
   <g id="line2d_31">
    <path d="M 48.662344 131.371065 
L 489.462344 131.371065 
" clip-path="url(#p50b142d352)" style="fill: none; stroke-dasharray: 2.59,1.12; stroke-dashoffset: 0; stroke: #808080; stroke-opacity: 0.5; stroke-width: 0.7"/>
   </g>
   <g id="line2d_32">
    <path d="M 48.662344 351.664247 
L 489.462344 351.664247 
" clip-path="url(#p50b142d352)" style="fill: none; stroke-dasharray: 2.59,1.12; stroke-dashoffset: 0; stroke: #808080; stroke-opacity: 0.5; stroke-width: 0.7"/>
   </g>
   <g id="line2d_33">
    <path d="M 416.518531 457.877031 
L 416.518531 25.158281 
" clip-path="url(#p50b142d352)" style="fill: none; stroke-dasharray: 0.7,1.155; stroke-dashoffset: 0; stroke: #808080; stroke-opacity: 0.5; stroke-width: 0.7"/>
   </g>
   <g id="line2d_34">
    <path d="M 121.606157 457.877031 
L 121.606157 25.158281 
" clip-path="url(#p50b142d352)" style="fill: none; stroke-dasharray: 0.7,1.155; stroke-dashoffset: 0; stroke: #808080; stroke-opacity: 0.5; stroke-width: 0.7"/>
   </g>
   <g id="line2d_35">
    <path d="M 48.662344 96.764805 
L 489.462344 96.764805 
" clip-path="url(#p50b142d352)" style="fill: none; stroke-dasharray: 0.7,1.155; stroke-dashoffset: 0; stroke: #808080; stroke-opacity: 0.5; stroke-width: 0.7"/>
   </g>
   <g id="line2d_36">
    <path d="M 48.662344 386.270508 
L 489.462344 386.270508 
" clip-path="url(#p50b142d352)" style="fill: none; stroke-dasharray: 0.7,1.155; stroke-dashoffset: 0; stroke: #808080; stroke-opacity: 0.5; stroke-width: 0.7"/>
   </g>
   <g id="line2d_37">
    <path d="M 48.662344 241.517656 
L 489.462344 241.517656 
" clip-path="url(#p50b142d352)" style="fill: none; stroke: #808080; stroke-opacity: 0.4; stroke-width: 0.5; stroke-linecap: square"/>
   </g>
   <g id="line2d_38">
    <path d="M 269.062344 457.877031 
L 269.062344 25.158281 
" clip-path="url(#p50b142d352)" style="fill: none; stroke: #808080; stroke-opacity: 0.4; stroke-width: 0.5; stroke-linecap: square"/>
   </g>
   <g id="patch_3">
    <path d="M 48.662344 457.877031 
L 48.662344 25.158281 
" style="fill: none; stroke: #000000; stroke-linejoin: miter; stroke-linecap: square"/>
   </g>
   <g id="patch_4">
    <path d="M 48.662344 457.877031 
L 489.462344 457.877031 
" style="fill: none; stroke: #000000; stroke-linejoin: miter; stroke-linecap: square"/>
   </g>
   <g id="line2d_39">
    <path d="M 48.662344 457.877031 
L 489.462344 25.158281 
" clip-path="url(#p50b142d352)" style="fill: none; stroke-dasharray: 3.7,1.6; stroke-dashoffset: 0; stroke: #000000; stroke-opacity: 0.5"/>
   </g>
   <g id="patch_5">
    <path d="M 400.295464 113.68867 
Q 400.057132 113.816377 399.8188 113.944084 
" style="fill: none; stroke: #90a4ae; stroke-width: 0.5; stroke-linecap: round"/>
   </g>
   <g id="text_17">
    <!-- S2 -->
    <g style="fill: #37474f" transform="translate(404.056453 103.609837) scale(0.065 -0.065)">
     <use xlink:href="#DejaVuSerif-53"/>
     <use xlink:href="#DejaVuSerif-32" transform="translate(68.505859 0)"/>
    </g>
    <!-- Annual -->
    <g style="fill: #37474f" transform="translate(404.056453 110.888415) scale(0.065 -0.065)">
     <defs>
      <path id="DejaVuSerif-41" d="M 1281 1691 
L 2994 1691 
L 2138 3909 
L 1281 1691 
z
M -38 0 
L -38 331 
L 372 331 
L 2034 4666 
L 2559 4666 
L 4225 331 
L 4684 331 
L 4684 0 
L 2988 0 
L 2988 331 
L 3506 331 
L 3116 1356 
L 1153 1356 
L 763 331 
L 1275 331 
L 1275 0 
L -38 0 
z
" transform="scale(0.015625)"/>
      <path id="DejaVuSerif-75" d="M 2266 3322 
L 3341 3322 
L 3341 331 
L 3884 331 
L 3884 0 
L 2766 0 
L 2766 588 
Q 2606 256 2353 82 
Q 2100 -91 1766 -91 
Q 1213 -91 952 223 
Q 691 538 691 1209 
L 691 2988 
L 172 2988 
L 172 3322 
L 1269 3322 
L 1269 1388 
Q 1269 781 1417 556 
Q 1566 331 1947 331 
Q 2347 331 2556 625 
Q 2766 919 2766 1478 
L 2766 2988 
L 2266 2988 
L 2266 3322 
z
" transform="scale(0.015625)"/>
      <path id="DejaVuSerif-6c" d="M 1313 331 
L 1856 331 
L 1856 0 
L 184 0 
L 184 331 
L 738 331 
L 738 4531 
L 184 4531 
L 184 4863 
L 1313 4863 
L 1313 331 
z
" transform="scale(0.015625)"/>
     </defs>
     <use xlink:href="#DejaVuSerif-41"/>
     <use xlink:href="#DejaVuSerif-6e" transform="translate(72.216797 0)"/>
     <use xlink:href="#DejaVuSerif-6e" transform="translate(136.621094 0)"/>
     <use xlink:href="#DejaVuSerif-75" transform="translate(201.025391 0)"/>
     <use xlink:href="#DejaVuSerif-61" transform="translate(265.429688 0)"/>
     <use xlink:href="#DejaVuSerif-6c" transform="translate(325.048828 0)"/>
    </g>
   </g>
   <g id="patch_6">
    <path d="M 188.133272 311.154533 
Q 187.89494 311.28224 187.656608 311.409947 
" style="fill: none; stroke: #90a4ae; stroke-width: 0.5; stroke-linecap: round"/>
   </g>
   <g id="text_18">
    <!-- S3 -->
    <g style="fill: #37474f" transform="translate(191.894261 301.075699) scale(0.065 -0.065)">
     <use xlink:href="#DejaVuSerif-53"/>
     <use xlink:href="#DejaVuSerif-33" transform="translate(68.505859 0)"/>
    </g>
    <!-- Annual -->
    <g style="fill: #37474f" transform="translate(191.894261 308.354278) scale(0.065 -0.065)">
     <use xlink:href="#DejaVuSerif-41"/>
     <use xlink:href="#DejaVuSerif-6e" transform="translate(72.216797 0)"/>
     <use xlink:href="#DejaVuSerif-6e" transform="translate(136.621094 0)"/>
     <use xlink:href="#DejaVuSerif-75" transform="translate(201.025391 0)"/>
     <use xlink:href="#DejaVuSerif-61" transform="translate(265.429688 0)"/>
     <use xlink:href="#DejaVuSerif-6c" transform="translate(325.048828 0)"/>
    </g>
   </g>
   <g id="patch_7">
    <path d="M 164.540599 303.257915 
Q 164.130002 303.572649 163.719404 303.887382 
" style="fill: none; stroke: #90a4ae; stroke-width: 0.5; stroke-linecap: round"/>
   </g>
   <g id="text_19">
    <!-- S3 -->
    <g style="fill: #37474f" transform="translate(168.131133 293.826255) scale(0.065 -0.065)">
     <use xlink:href="#DejaVuSerif-53"/>
     <use xlink:href="#DejaVuSerif-33" transform="translate(68.505859 0)"/>
    </g>
    <!-- Wet -->
    <g style="fill: #37474f" transform="translate(168.131133 301.104834) scale(0.065 -0.065)">
     <defs>
      <path id="DejaVuSerif-57" d="M 4878 0 
L 4366 0 
L 3297 3794 
L 2228 0 
L 1716 0 
L 494 4331 
L 31 4331 
L 31 4666 
L 1734 4666 
L 1734 4331 
L 1153 4331 
L 2125 884 
L 3188 4666 
L 3694 4666 
L 4775 844 
L 5753 4331 
L 5216 4331 
L 5216 4666 
L 6559 4666 
L 6559 4331 
L 6100 4331 
L 4878 0 
z
" transform="scale(0.015625)"/>
     </defs>
     <use xlink:href="#DejaVuSerif-57"/>
     <use xlink:href="#DejaVuSerif-65" transform="translate(94.658203 0)"/>
     <use xlink:href="#DejaVuSerif-74" transform="translate(153.837891 0)"/>
    </g>
   </g>
   <g id="patch_8">
    <path d="M 150.961669 331.013732 
Q 150.551072 331.328466 150.140474 331.643199 
" style="fill: none; stroke: #90a4ae; stroke-width: 0.5; stroke-linecap: round"/>
   </g>
   <g id="text_20">
    <!-- S5 -->
    <g style="fill: #37474f" transform="translate(154.552203 321.582072) scale(0.065 -0.065)">
     <defs>
      <path id="DejaVuSerif-35" d="M 3219 4666 
L 3219 4153 
L 1081 4153 
L 1081 2816 
Q 1244 2928 1461 2984 
Q 1678 3041 1947 3041 
Q 2703 3041 3140 2622 
Q 3578 2203 3578 1478 
Q 3578 738 3136 323 
Q 2694 -91 1894 -91 
Q 1572 -91 1234 -12 
Q 897 66 544 225 
L 544 1131 
L 897 1131 
Q 925 688 1179 453 
Q 1434 219 1894 219 
Q 2388 219 2653 544 
Q 2919 869 2919 1478 
Q 2919 2084 2655 2407 
Q 2391 2731 1894 2731 
Q 1613 2731 1398 2631 
Q 1184 2531 1019 2322 
L 750 2322 
L 750 4666 
L 3219 4666 
z
" transform="scale(0.015625)"/>
     </defs>
     <use xlink:href="#DejaVuSerif-53"/>
     <use xlink:href="#DejaVuSerif-35" transform="translate(68.505859 0)"/>
    </g>
    <!-- Wet -->
    <g style="fill: #37474f" transform="translate(154.552203 328.860651) scale(0.065 -0.065)">
     <use xlink:href="#DejaVuSerif-57"/>
     <use xlink:href="#DejaVuSerif-65" transform="translate(94.658203 0)"/>
     <use xlink:href="#DejaVuSerif-74" transform="translate(153.837891 0)"/>
    </g>
   </g>
   <g id="patch_9">
    <path d="M 147.566937 332.767086 
Q 147.156339 333.08182 146.745742 333.396553 
" style="fill: none; stroke: #90a4ae; stroke-width: 0.5; stroke-linecap: round"/>
   </g>
   <g id="text_21">
    <!-- S6 -->
    <g style="fill: #37474f" transform="translate(151.157471 323.335426) scale(0.065 -0.065)">
     <defs>
      <path id="DejaVuSerif-36" d="M 2094 219 
Q 2534 219 2771 542 
Q 3009 866 3009 1472 
Q 3009 2078 2771 2401 
Q 2534 2725 2094 2725 
Q 1647 2725 1412 2412 
Q 1178 2100 1178 1509 
Q 1178 888 1415 553 
Q 1653 219 2094 219 
z
M 1075 2569 
Q 1288 2803 1556 2918 
Q 1825 3034 2163 3034 
Q 2859 3034 3264 2615 
Q 3669 2197 3669 1472 
Q 3669 763 3233 336 
Q 2797 -91 2069 -91 
Q 1278 -91 853 498 
Q 428 1088 428 2181 
Q 428 3406 931 4078 
Q 1434 4750 2350 4750 
Q 2597 4750 2869 4703 
Q 3141 4656 3425 4563 
L 3425 3794 
L 3072 3794 
Q 3034 4109 2831 4275 
Q 2628 4441 2284 4441 
Q 1678 4441 1381 3981 
Q 1084 3522 1075 2569 
z
" transform="scale(0.015625)"/>
     </defs>
     <use xlink:href="#DejaVuSerif-53"/>
     <use xlink:href="#DejaVuSerif-36" transform="translate(68.505859 0)"/>
    </g>
    <!-- Wet -->
    <g style="fill: #37474f" transform="translate(151.157471 330.614004) scale(0.065 -0.065)">
     <use xlink:href="#DejaVuSerif-57"/>
     <use xlink:href="#DejaVuSerif-65" transform="translate(94.658203 0)"/>
     <use xlink:href="#DejaVuSerif-74" transform="translate(153.837891 0)"/>
    </g>
   </g>
   <g id="patch_10">
    <path d="M 430.26044 83.757573 
Q 429.83549 84.09011 429.41054 84.422647 
" style="fill: none; stroke: #90a4ae; stroke-width: 0.5; stroke-linecap: round"/>
   </g>
   <g id="text_22">
    <!-- S2 -->
    <g style="fill: #37474f" transform="translate(433.836214 74.376032) scale(0.065 -0.065)">
     <use xlink:href="#DejaVuSerif-53"/>
     <use xlink:href="#DejaVuSerif-32" transform="translate(68.505859 0)"/>
    </g>
    <!-- Dry -->
    <g style="fill: #37474f" transform="translate(433.836214 81.65461) scale(0.065 -0.065)">
     <defs>
      <path id="DejaVuSerif-44" d="M 1581 331 
L 2163 331 
Q 3072 331 3558 850 
Q 4044 1369 4044 2338 
Q 4044 3306 3559 3818 
Q 3075 4331 2163 4331 
L 1581 4331 
L 1581 331 
z
M 353 0 
L 353 331 
L 947 331 
L 947 4331 
L 353 4331 
L 353 4666 
L 2209 4666 
Q 3416 4666 4089 4050 
Q 4763 3434 4763 2338 
Q 4763 1238 4088 619 
Q 3413 0 2209 0 
L 353 0 
z
" transform="scale(0.015625)"/>
      <path id="DejaVuSerif-79" d="M 1381 -609 
L 1600 -56 
L 359 2988 
L -19 2988 
L -19 3322 
L 1509 3322 
L 1509 2988 
L 978 2988 
L 1913 703 
L 2847 2988 
L 2350 2988 
L 2350 3322 
L 3597 3322 
L 3597 2988 
L 3225 2988 
L 1703 -750 
Q 1547 -1138 1356 -1280 
Q 1166 -1422 819 -1422 
Q 672 -1422 517 -1397 
Q 363 -1372 206 -1325 
L 206 -691 
L 500 -691 
Q 519 -903 608 -995 
Q 697 -1088 884 -1088 
Q 1056 -1088 1161 -992 
Q 1266 -897 1381 -609 
z
" transform="scale(0.015625)"/>
     </defs>
     <use xlink:href="#DejaVuSerif-44"/>
     <use xlink:href="#DejaVuSerif-72" transform="translate(80.175781 0)"/>
     <use xlink:href="#DejaVuSerif-79" transform="translate(127.978516 0)"/>
    </g>
   </g>
   <g id="patch_11">
    <path d="M 394.778902 118.588622 
Q 394.353952 118.921159 393.929003 119.253697 
" style="fill: none; stroke: #90a4ae; stroke-width: 0.5; stroke-linecap: round"/>
   </g>
   <g id="text_23">
    <!-- S4 -->
    <g style="fill: #37474f" transform="translate(398.354676 109.207082) scale(0.065 -0.065)">
     <defs>
      <path id="DejaVuSerif-34" d="M 2234 1581 
L 2234 4063 
L 641 1581 
L 2234 1581 
z
M 3609 0 
L 1484 0 
L 1484 331 
L 2234 331 
L 2234 1247 
L 197 1247 
L 197 1588 
L 2241 4750 
L 2859 4750 
L 2859 1581 
L 3750 1581 
L 3750 1247 
L 2859 1247 
L 2859 331 
L 3609 331 
L 3609 0 
z
" transform="scale(0.015625)"/>
     </defs>
     <use xlink:href="#DejaVuSerif-53"/>
     <use xlink:href="#DejaVuSerif-34" transform="translate(68.505859 0)"/>
    </g>
    <!-- Dry -->
    <g style="fill: #37474f" transform="translate(398.354676 116.48566) scale(0.065 -0.065)">
     <use xlink:href="#DejaVuSerif-44"/>
     <use xlink:href="#DejaVuSerif-72" transform="translate(80.175781 0)"/>
     <use xlink:href="#DejaVuSerif-79" transform="translate(127.978516 0)"/>
    </g>
   </g>
   <g id="patch_12">
    <path d="M 448.001209 104.977651 
Q 447.576259 105.310188 447.151309 105.642725 
" style="fill: none; stroke: #90a4ae; stroke-width: 0.5; stroke-linecap: round"/>
   </g>
   <g id="text_24">
    <!-- S6 -->
    <g style="fill: #37474f" transform="translate(451.576983 95.59611) scale(0.065 -0.065)">
     <use xlink:href="#DejaVuSerif-53"/>
     <use xlink:href="#DejaVuSerif-36" transform="translate(68.505859 0)"/>
    </g>
    <!-- Dry -->
    <g style="fill: #37474f" transform="translate(451.576983 102.874688) scale(0.065 -0.065)">
     <use xlink:href="#DejaVuSerif-44"/>
     <use xlink:href="#DejaVuSerif-72" transform="translate(80.175781 0)"/>
     <use xlink:href="#DejaVuSerif-79" transform="translate(127.978516 0)"/>
    </g>
   </g>
   <g id="text_25">
    <!-- Figure 2: Standard MK vs Modified MK (H&amp;R98) — Z-statistic -->
    <g transform="translate(77.695 19.158281) scale(0.11 -0.11)">
     <defs>
      <path id="DejaVuSerif-Bold-46" d="M 300 0 
L 300 378 
L 897 378 
L 897 4288 
L 300 4288 
L 300 4666 
L 4459 4666 
L 4459 3566 
L 4031 3566 
L 4031 4238 
L 2106 4238 
L 2106 2741 
L 3291 2741 
L 3291 3334 
L 3719 3334 
L 3719 1722 
L 3291 1722 
L 3291 2316 
L 2106 2316 
L 2106 378 
L 2841 378 
L 2841 0 
L 300 0 
z
" transform="scale(0.015625)"/>
      <path id="DejaVuSerif-Bold-69" d="M 588 4263 
Q 588 4516 763 4689 
Q 938 4863 1191 4863 
Q 1438 4863 1611 4689 
Q 1784 4516 1784 4263 
Q 1784 4016 1611 3842 
Q 1438 3669 1191 3669 
Q 938 3669 763 3841 
Q 588 4013 588 4263 
z
M 1797 378 
L 2272 378 
L 2272 0 
L 219 0 
L 219 378 
L 691 378 
L 691 2944 
L 219 2944 
L 219 3322 
L 1797 3322 
L 1797 378 
z
" transform="scale(0.015625)"/>
      <path id="DejaVuSerif-Bold-67" d="M 3853 2944 
L 3853 44 
Q 3853 -656 3354 -1039 
Q 2856 -1422 1947 -1422 
Q 1616 -1422 1275 -1370 
Q 934 -1319 575 -1216 
L 575 -422 
L 928 -422 
Q 975 -750 1192 -909 
Q 1409 -1069 1813 -1069 
Q 2325 -1069 2536 -823 
Q 2747 -578 2747 44 
L 2747 422 
Q 2606 163 2367 36 
Q 2128 -91 1778 -91 
Q 1072 -91 667 378 
Q 263 847 263 1663 
Q 263 2481 667 2947 
Q 1072 3413 1778 3413 
Q 2128 3413 2367 3286 
Q 2606 3159 2747 2900 
L 2747 3322 
L 4325 3322 
L 4325 2944 
L 3853 2944 
z
M 2747 1825 
Q 2747 2406 2597 2665 
Q 2447 2925 2119 2925 
Q 1775 2925 1636 2651 
Q 1497 2378 1497 1663 
Q 1497 947 1637 672 
Q 1778 397 2119 397 
Q 2447 397 2597 656 
Q 2747 916 2747 1497 
L 2747 1825 
z
" transform="scale(0.015625)"/>
      <path id="DejaVuSerif-Bold-75" d="M 3963 3322 
L 3963 378 
L 4434 378 
L 4434 0 
L 2853 0 
L 2853 469 
Q 2656 172 2400 40 
Q 2144 -91 1753 -91 
Q 1194 -91 908 239 
Q 622 569 622 1209 
L 622 2944 
L 147 2944 
L 147 3322 
L 1728 3322 
L 1728 1381 
Q 1728 763 1831 595 
Q 1934 428 2209 428 
Q 2544 428 2698 675 
Q 2853 922 2853 1459 
L 2853 2944 
L 2450 2944 
L 2450 3322 
L 3963 3322 
z
" transform="scale(0.015625)"/>
      <path id="DejaVuSerif-Bold-72" d="M 3438 3359 
L 3438 2369 
L 3084 2369 
Q 3066 2634 2941 2764 
Q 2816 2894 2578 2894 
Q 2216 2894 2006 2575 
Q 1797 2256 1797 1691 
L 1797 378 
L 2400 378 
L 2400 0 
L 219 0 
L 219 378 
L 691 378 
L 691 2944 
L 184 2944 
L 184 3322 
L 1797 3322 
L 1797 2731 
Q 1959 3078 2226 3245 
Q 2494 3413 2881 3413 
Q 2978 3413 3117 3398 
Q 3256 3384 3438 3359 
z
" transform="scale(0.015625)"/>
      <path id="DejaVuSerif-Bold-65" d="M 2566 1875 
Q 2566 2531 2444 2795 
Q 2322 3059 2028 3059 
Q 1744 3059 1620 2800 
Q 1497 2541 1497 1931 
L 1497 1875 
L 2566 1875 
z
M 3781 1503 
L 1497 1503 
L 1497 1478 
Q 1497 834 1690 548 
Q 1884 263 2316 263 
Q 2675 263 2897 453 
Q 3119 644 3181 1006 
L 3700 1006 
Q 3566 441 3166 175 
Q 2766 -91 2047 -91 
Q 1184 -91 723 364 
Q 263 819 263 1663 
Q 263 2488 734 2950 
Q 1206 3413 2047 3413 
Q 2872 3413 3312 2927 
Q 3753 2441 3781 1503 
z
" transform="scale(0.015625)"/>
      <path id="DejaVuSerif-Bold-20" transform="scale(0.015625)"/>
      <path id="DejaVuSerif-Bold-32" d="M 844 3513 
L 469 3513 
L 469 4519 
Q 850 4634 1223 4692 
Q 1597 4750 1978 4750 
Q 2869 4750 3367 4386 
Q 3866 4022 3866 3372 
Q 3866 2909 3591 2542 
Q 3316 2175 2541 1672 
L 1241 819 
L 3450 819 
L 3450 1369 
L 3878 1369 
L 3878 0 
L 428 0 
L 428 763 
L 1119 1241 
Q 2003 1850 2297 2278 
Q 2591 2706 2591 3278 
Q 2591 3819 2367 4101 
Q 2144 4384 1716 4384 
Q 1347 4384 1125 4161 
Q 903 3938 844 3513 
z
" transform="scale(0.015625)"/>
      <path id="DejaVuSerif-Bold-3a" d="M 588 2541 
Q 588 2788 761 2963 
Q 934 3138 1178 3138 
Q 1422 3138 1597 2961 
Q 1772 2784 1772 2541 
Q 1772 2297 1598 2125 
Q 1425 1953 1178 1953 
Q 931 1953 759 2125 
Q 588 2297 588 2541 
z
M 588 506 
Q 588 750 761 925 
Q 934 1100 1178 1100 
Q 1422 1100 1597 925 
Q 1772 750 1772 506 
Q 1772 259 1597 84 
Q 1422 -91 1178 -91 
Q 934 -91 761 84 
Q 588 259 588 506 
z
" transform="scale(0.015625)"/>
      <path id="DejaVuSerif-Bold-53" d="M 494 225 
L 494 1331 
L 891 1331 
Q 981 806 1318 547 
Q 1656 288 2253 288 
Q 2738 288 2991 472 
Q 3244 656 3244 1013 
Q 3244 1294 3072 1450 
Q 2900 1606 2363 1741 
L 1663 1913 
Q 978 2088 700 2398 
Q 422 2709 422 3284 
Q 422 3978 883 4364 
Q 1344 4750 2175 4750 
Q 2584 4750 3026 4681 
Q 3469 4613 3944 4475 
L 3944 3444 
L 3547 3444 
Q 3456 3925 3150 4148 
Q 2844 4372 2278 4372 
Q 1816 4372 1580 4211 
Q 1344 4050 1344 3731 
Q 1344 3441 1506 3289 
Q 1669 3138 2303 2975 
L 3003 2803 
Q 3653 2641 3945 2297 
Q 4238 1953 4238 1350 
Q 4238 644 3750 276 
Q 3263 -91 2316 -91 
Q 1859 -91 1409 -12 
Q 959 66 494 225 
z
" transform="scale(0.015625)"/>
      <path id="DejaVuSerif-Bold-74" d="M 634 2944 
L 153 2944 
L 153 3322 
L 634 3322 
L 634 4353 
L 1741 4353 
L 1741 3322 
L 2663 3322 
L 2663 2944 
L 1741 2944 
L 1741 909 
Q 1741 475 1809 369 
Q 1878 263 2059 263 
Q 2259 263 2356 397 
Q 2453 531 2459 813 
L 2925 813 
Q 2897 313 2651 111 
Q 2406 -91 1806 -91 
Q 1122 -91 878 123 
Q 634 338 634 909 
L 634 2944 
z
" transform="scale(0.015625)"/>
      <path id="DejaVuSerif-Bold-61" d="M 3525 2041 
L 3525 378 
L 4000 378 
L 4000 0 
L 2419 0 
L 2419 422 
Q 2200 159 1931 34 
Q 1663 -91 1319 -91 
Q 809 -91 536 182 
Q 263 456 263 966 
Q 263 1525 655 1803 
Q 1047 2081 1838 2081 
L 2419 2081 
L 2419 2278 
Q 2419 2681 2228 2873 
Q 2038 3066 1638 3066 
Q 1306 3066 1126 2930 
Q 947 2794 872 2484 
L 519 2484 
L 519 3200 
Q 816 3306 1134 3359 
Q 1453 3413 1806 3413 
Q 2697 3413 3111 3081 
Q 3525 2750 3525 2041 
z
M 2419 1044 
L 2419 1709 
L 2003 1709 
Q 1694 1709 1528 1540 
Q 1363 1372 1363 1056 
Q 1363 741 1483 584 
Q 1603 428 1850 428 
Q 2106 428 2262 597 
Q 2419 766 2419 1044 
z
" transform="scale(0.015625)"/>
      <path id="DejaVuSerif-Bold-6e" d="M 219 0 
L 219 378 
L 691 378 
L 691 2944 
L 219 2944 
L 219 3322 
L 1797 3322 
L 1797 2853 
Q 1997 3150 2253 3281 
Q 2509 3413 2900 3413 
Q 3459 3413 3745 3083 
Q 4031 2753 4031 2113 
L 4031 378 
L 4506 378 
L 4506 0 
L 2522 0 
L 2522 378 
L 2925 378 
L 2925 2144 
Q 2925 2566 2817 2730 
Q 2709 2894 2444 2894 
Q 2109 2894 1953 2648 
Q 1797 2403 1797 1869 
L 1797 378 
L 2203 378 
L 2203 0 
L 219 0 
z
" transform="scale(0.015625)"/>
      <path id="DejaVuSerif-Bold-64" d="M 2747 1497 
L 2747 1825 
Q 2747 2406 2597 2665 
Q 2447 2925 2119 2925 
Q 1775 2925 1636 2651 
Q 1497 2378 1497 1663 
Q 1497 947 1637 672 
Q 1778 397 2119 397 
Q 2447 397 2597 656 
Q 2747 916 2747 1497 
z
M 3853 378 
L 4325 378 
L 4325 0 
L 2747 0 
L 2747 422 
Q 2606 163 2367 36 
Q 2128 -91 1778 -91 
Q 1072 -91 667 378 
Q 263 847 263 1663 
Q 263 2481 667 2947 
Q 1072 3413 1778 3413 
Q 2128 3413 2367 3286 
Q 2606 3159 2747 2900 
L 2747 4488 
L 2272 4488 
L 2272 4863 
L 3853 4863 
L 3853 378 
z
" transform="scale(0.015625)"/>
      <path id="DejaVuSerif-Bold-4d" d="M 269 0 
L 269 378 
L 863 378 
L 863 4288 
L 269 4288 
L 269 4666 
L 2194 4666 
L 3525 1672 
L 4863 4666 
L 6784 4666 
L 6784 4288 
L 6188 4288 
L 6188 378 
L 6784 378 
L 6784 0 
L 4384 0 
L 4384 378 
L 4978 378 
L 4978 3938 
L 3531 684 
L 2741 684 
L 1300 3938 
L 1300 378 
L 1894 378 
L 1894 0 
L 269 0 
z
" transform="scale(0.015625)"/>
      <path id="DejaVuSerif-Bold-4b" d="M 300 0 
L 300 378 
L 897 378 
L 897 4288 
L 300 4288 
L 300 4666 
L 2700 4666 
L 2700 4288 
L 2100 4288 
L 2100 2584 
L 4078 4288 
L 3578 4288 
L 3578 4666 
L 5319 4666 
L 5319 4288 
L 4697 4288 
L 3022 2847 
L 5300 378 
L 5759 378 
L 5759 0 
L 4178 0 
L 2100 2266 
L 2100 378 
L 2700 378 
L 2700 0 
L 300 0 
z
" transform="scale(0.015625)"/>
      <path id="DejaVuSerif-Bold-76" d="M 1428 0 
L 250 2944 
L -116 2944 
L -116 3322 
L 1791 3322 
L 1791 2944 
L 1388 2944 
L 2228 844 
L 3066 2944 
L 2631 2944 
L 2631 3322 
L 3878 3322 
L 3878 2944 
L 3494 2944 
L 2316 0 
L 1428 0 
z
" transform="scale(0.015625)"/>
      <path id="DejaVuSerif-Bold-73" d="M 300 97 
L 300 1025 
L 653 1025 
Q 697 653 931 458 
Q 1166 263 1569 263 
Q 1906 263 2086 380 
Q 2266 497 2266 716 
Q 2266 916 2152 1025 
Q 2038 1134 1709 1216 
L 1253 1331 
Q 738 1459 506 1698 
Q 275 1938 275 2344 
Q 275 2884 650 3148 
Q 1025 3413 1806 3413 
Q 2100 3413 2433 3364 
Q 2766 3316 3169 3213 
L 3169 2375 
L 2816 2375 
Q 2788 2716 2573 2887 
Q 2359 3059 1959 3059 
Q 1622 3059 1448 2951 
Q 1275 2844 1275 2638 
Q 1275 2469 1375 2372 
Q 1475 2275 1734 2209 
L 2188 2094 
Q 2841 1928 3091 1684 
Q 3341 1441 3341 1006 
Q 3341 444 2939 176 
Q 2538 -91 1691 -91 
Q 1381 -91 1034 -44 
Q 688 3 300 97 
z
" transform="scale(0.015625)"/>
      <path id="DejaVuSerif-Bold-6f" d="M 2138 263 
Q 2488 263 2630 563 
Q 2772 863 2772 1663 
Q 2772 2463 2631 2761 
Q 2491 3059 2138 3059 
Q 1784 3059 1640 2757 
Q 1497 2456 1497 1663 
Q 1497 869 1640 566 
Q 1784 263 2138 263 
z
M 2138 -91 
Q 1259 -91 761 376 
Q 263 844 263 1663 
Q 263 2484 761 2948 
Q 1259 3413 2138 3413 
Q 3019 3413 3516 2948 
Q 4013 2484 4013 1663 
Q 4013 844 3514 376 
Q 3016 -91 2138 -91 
z
" transform="scale(0.015625)"/>
      <path id="DejaVuSerif-Bold-66" d="M 3097 4031 
L 2747 4031 
Q 2722 4275 2605 4394 
Q 2488 4513 2272 4513 
Q 2022 4513 1909 4333 
Q 1797 4153 1797 3750 
L 1797 3322 
L 2631 3322 
L 2631 2944 
L 1797 2944 
L 1797 378 
L 2438 378 
L 2438 0 
L 219 0 
L 219 378 
L 691 378 
L 691 2944 
L 197 2944 
L 197 3322 
L 691 3322 
L 691 3738 
Q 691 4291 1044 4577 
Q 1397 4863 2081 4863 
Q 2347 4863 2600 4833 
Q 2853 4803 3097 4744 
L 3097 4031 
z
" transform="scale(0.015625)"/>
      <path id="DejaVuSerif-Bold-28" d="M 2694 -997 
Q 1641 -606 1122 122 
Q 603 850 603 1931 
Q 603 3013 1115 3731 
Q 1628 4450 2694 4863 
L 2694 4488 
Q 2200 4188 1983 3598 
Q 1766 3009 1766 1931 
Q 1766 856 1983 267 
Q 2200 -322 2694 -622 
L 2694 -997 
z
" transform="scale(0.015625)"/>
      <path id="DejaVuSerif-Bold-48" d="M 300 0 
L 300 378 
L 897 378 
L 897 4288 
L 300 4288 
L 300 4666 
L 2700 4666 
L 2700 4288 
L 2100 4288 
L 2100 2719 
L 3956 2719 
L 3956 4288 
L 3359 4288 
L 3359 4666 
L 5759 4666 
L 5759 4288 
L 5159 4288 
L 5159 378 
L 5759 378 
L 5759 0 
L 3359 0 
L 3359 378 
L 3956 378 
L 3956 2291 
L 2100 2291 
L 2100 378 
L 2700 378 
L 2700 0 
L 300 0 
z
" transform="scale(0.015625)"/>
      <path id="DejaVuSerif-Bold-26" d="M 5663 0 
L 4166 0 
L 3769 409 
Q 3456 159 3078 34 
Q 2700 -91 2253 -91 
Q 1316 -91 786 309 
Q 256 709 256 1409 
Q 256 1919 526 2280 
Q 797 2641 1375 2900 
Q 1216 3109 1136 3300 
Q 1056 3491 1056 3669 
Q 1056 4181 1486 4465 
Q 1916 4750 2694 4750 
Q 2925 4750 3233 4712 
Q 3541 4675 3928 4603 
L 3928 3628 
L 3525 3628 
Q 3469 4016 3287 4194 
Q 3106 4372 2772 4372 
Q 2456 4372 2275 4222 
Q 2094 4072 2094 3816 
Q 2094 3528 2653 2959 
Q 2716 2897 2747 2869 
L 4184 1363 
Q 4372 1575 4478 1853 
Q 4584 2131 4613 2484 
L 4044 2484 
L 4044 2859 
L 5606 2859 
L 5606 2484 
L 5056 2484 
Q 5003 2028 4861 1675 
Q 4719 1322 4488 1050 
L 5131 378 
L 5663 378 
L 5663 0 
z
M 3475 716 
L 1709 2553 
Q 1538 2344 1450 2108 
Q 1363 1872 1363 1613 
Q 1363 1084 1695 743 
Q 2028 403 2541 403 
Q 2784 403 3014 479 
Q 3244 556 3475 716 
z
" transform="scale(0.015625)"/>
      <path id="DejaVuSerif-Bold-52" d="M 3397 2278 
Q 3675 2238 3865 2094 
Q 4056 1950 4197 1678 
L 4878 378 
L 5356 378 
L 5356 0 
L 3822 0 
L 3078 1409 
Q 2863 1847 2711 1967 
Q 2559 2088 2291 2088 
L 2100 2088 
L 2100 378 
L 2700 378 
L 2700 0 
L 300 0 
L 300 378 
L 897 378 
L 897 4288 
L 300 4288 
L 300 4666 
L 2963 4666 
Q 3775 4666 4217 4339 
Q 4659 4013 4659 3413 
Q 4659 2925 4345 2642 
Q 4031 2359 3397 2278 
z
M 2100 2463 
L 2509 2463 
Q 2947 2463 3183 2700 
Q 3419 2938 3419 3378 
Q 3419 3819 3183 4053 
Q 2947 4288 2509 4288 
L 2100 4288 
L 2100 2463 
z
" transform="scale(0.015625)"/>
      <path id="DejaVuSerif-Bold-39" d="M 2181 4384 
Q 1859 4384 1723 4111 
Q 1588 3838 1588 3163 
Q 1588 2488 1723 2214 
Q 1859 1941 2181 1941 
Q 2503 1941 2640 2214 
Q 2778 2488 2778 3163 
Q 2778 3838 2640 4111 
Q 2503 4384 2181 4384 
z
M 2878 1900 
Q 2672 1734 2420 1651 
Q 2169 1569 1875 1569 
Q 1163 1569 755 1986 
Q 347 2403 347 3138 
Q 347 3913 803 4331 
Q 1259 4750 2106 4750 
Q 3063 4750 3556 4172 
Q 4050 3594 4050 2478 
Q 4050 1206 3503 557 
Q 2956 -91 1881 -91 
Q 1600 -91 1278 -44 
Q 956 3 588 97 
L 588 922 
L 966 922 
Q 1044 603 1261 439 
Q 1478 275 1825 275 
Q 2375 275 2625 658 
Q 2875 1041 2878 1900 
z
" transform="scale(0.015625)"/>
      <path id="DejaVuSerif-Bold-38" d="M 2975 2484 
Q 3531 2394 3820 2075 
Q 4109 1756 4109 1241 
Q 4109 597 3623 253 
Q 3138 -91 2222 -91 
Q 1306 -91 818 253 
Q 331 597 331 1241 
Q 331 1756 622 2075 
Q 913 2394 1466 2484 
Q 975 2597 731 2861 
Q 488 3125 488 3531 
Q 488 4125 931 4437 
Q 1375 4750 2222 4750 
Q 3066 4750 3511 4437 
Q 3956 4125 3956 3531 
Q 3956 3125 3711 2861 
Q 3466 2597 2975 2484 
z
M 2747 3519 
Q 2747 4013 2628 4198 
Q 2509 4384 2222 4384 
Q 1931 4384 1814 4198 
Q 1697 4013 1697 3519 
Q 1697 3028 1814 2845 
Q 1931 2663 2222 2663 
Q 2513 2663 2630 2845 
Q 2747 3028 2747 3519 
z
M 2869 1294 
Q 2869 1866 2723 2081 
Q 2578 2297 2222 2297 
Q 1863 2297 1719 2081 
Q 1575 1866 1575 1294 
Q 1575 716 1720 495 
Q 1866 275 2222 275 
Q 2575 275 2722 495 
Q 2869 716 2869 1294 
z
" transform="scale(0.015625)"/>
      <path id="DejaVuSerif-Bold-29" d="M 325 -997 
L 325 -622 
Q 819 -322 1036 267 
Q 1253 856 1253 1931 
Q 1253 3009 1036 3598 
Q 819 4188 325 4488 
L 325 4863 
Q 1391 4450 1905 3731 
Q 2419 3013 2419 1931 
Q 2419 850 1898 122 
Q 1378 -606 325 -997 
z
" transform="scale(0.015625)"/>
      <path id="DejaVuSerif-Bold-2014" d="M 344 2075 
L 6056 2075 
L 6056 1325 
L 344 1325 
L 344 2075 
z
" transform="scale(0.015625)"/>
      <path id="DejaVuSerif-Bold-5a" d="M 238 0 
L 238 441 
L 3022 4238 
L 788 4238 
L 788 3541 
L 359 3541 
L 359 4666 
L 4409 4666 
L 4409 4225 
L 1656 428 
L 4013 428 
L 4013 1081 
L 4441 1081 
L 4441 0 
L 238 0 
z
" transform="scale(0.015625)"/>
      <path id="DejaVuSerif-Bold-2d" d="M 347 2138 
L 2309 2138 
L 2309 1294 
L 347 1294 
L 347 2138 
z
" transform="scale(0.015625)"/>
      <path id="DejaVuSerif-Bold-63" d="M 3609 1038 
Q 3491 469 3123 189 
Q 2756 -91 2125 -91 
Q 1238 -91 750 368 
Q 263 828 263 1663 
Q 263 2488 744 2950 
Q 1225 3413 2081 3413 
Q 2428 3413 2781 3347 
Q 3134 3281 3500 3150 
L 3500 2228 
L 3150 2228 
Q 3100 2650 2903 2854 
Q 2706 3059 2350 3059 
Q 1888 3059 1692 2746 
Q 1497 2434 1497 1663 
Q 1497 909 1687 586 
Q 1878 263 2309 263 
Q 2644 263 2845 463 
Q 3047 663 3091 1038 
L 3609 1038 
z
" transform="scale(0.015625)"/>
     </defs>
     <use xlink:href="#DejaVuSerif-Bold-46"/>
     <use xlink:href="#DejaVuSerif-Bold-69" transform="translate(70.996094 0)"/>
     <use xlink:href="#DejaVuSerif-Bold-67" transform="translate(108.984375 0)"/>
     <use xlink:href="#DejaVuSerif-Bold-75" transform="translate(178.90625 0)"/>
     <use xlink:href="#DejaVuSerif-Bold-72" transform="translate(251.611328 0)"/>
     <use xlink:href="#DejaVuSerif-Bold-65" transform="translate(304.296875 0)"/>
     <use xlink:href="#DejaVuSerif-Bold-20" transform="translate(367.919922 0)"/>
     <use xlink:href="#DejaVuSerif-Bold-32" transform="translate(402.734375 0)"/>
     <use xlink:href="#DejaVuSerif-Bold-3a" transform="translate(472.314453 0)"/>
     <use xlink:href="#DejaVuSerif-Bold-20" transform="translate(509.228516 0)"/>
     <use xlink:href="#DejaVuSerif-Bold-53" transform="translate(544.042969 0)"/>
     <use xlink:href="#DejaVuSerif-Bold-74" transform="translate(616.259766 0)"/>
     <use xlink:href="#DejaVuSerif-Bold-61" transform="translate(662.451172 0)"/>
     <use xlink:href="#DejaVuSerif-Bold-6e" transform="translate(727.246094 0)"/>
     <use xlink:href="#DejaVuSerif-Bold-64" transform="translate(799.951172 0)"/>
     <use xlink:href="#DejaVuSerif-Bold-61" transform="translate(869.873047 0)"/>
     <use xlink:href="#DejaVuSerif-Bold-72" transform="translate(934.667969 0)"/>
     <use xlink:href="#DejaVuSerif-Bold-64" transform="translate(987.353516 0)"/>
     <use xlink:href="#DejaVuSerif-Bold-20" transform="translate(1057.275391 0)"/>
     <use xlink:href="#DejaVuSerif-Bold-4d" transform="translate(1092.089844 0)"/>
     <use xlink:href="#DejaVuSerif-Bold-4b" transform="translate(1202.783203 0)"/>
     <use xlink:href="#DejaVuSerif-Bold-20" transform="translate(1289.697266 0)"/>
     <use xlink:href="#DejaVuSerif-Bold-76" transform="translate(1324.511719 0)"/>
     <use xlink:href="#DejaVuSerif-Bold-73" transform="translate(1382.617188 0)"/>
     <use xlink:href="#DejaVuSerif-Bold-20" transform="translate(1438.916016 0)"/>
     <use xlink:href="#DejaVuSerif-Bold-4d" transform="translate(1473.730469 0)"/>
     <use xlink:href="#DejaVuSerif-Bold-6f" transform="translate(1584.423828 0)"/>
     <use xlink:href="#DejaVuSerif-Bold-64" transform="translate(1651.123047 0)"/>
     <use xlink:href="#DejaVuSerif-Bold-69" transform="translate(1721.044922 0)"/>
     <use xlink:href="#DejaVuSerif-Bold-66" transform="translate(1759.033203 0)"/>
     <use xlink:href="#DejaVuSerif-Bold-69" transform="translate(1802.050781 0)"/>
     <use xlink:href="#DejaVuSerif-Bold-65" transform="translate(1840.039062 0)"/>
     <use xlink:href="#DejaVuSerif-Bold-64" transform="translate(1903.662109 0)"/>
     <use xlink:href="#DejaVuSerif-Bold-20" transform="translate(1973.583984 0)"/>
     <use xlink:href="#DejaVuSerif-Bold-4d" transform="translate(2008.398438 0)"/>
     <use xlink:href="#DejaVuSerif-Bold-4b" transform="translate(2119.091797 0)"/>
     <use xlink:href="#DejaVuSerif-Bold-20" transform="translate(2206.005859 0)"/>
     <use xlink:href="#DejaVuSerif-Bold-28" transform="translate(2240.820312 0)"/>
     <use xlink:href="#DejaVuSerif-Bold-48" transform="translate(2288.134766 0)"/>
     <use xlink:href="#DejaVuSerif-Bold-26" transform="translate(2382.617188 0)"/>
     <use xlink:href="#DejaVuSerif-Bold-52" transform="translate(2472.900391 0)"/>
     <use xlink:href="#DejaVuSerif-Bold-39" transform="translate(2556.005859 0)"/>
     <use xlink:href="#DejaVuSerif-Bold-38" transform="translate(2625.585938 0)"/>
     <use xlink:href="#DejaVuSerif-Bold-29" transform="translate(2695.166016 0)"/>
     <use xlink:href="#DejaVuSerif-Bold-20" transform="translate(2742.480469 0)"/>
     <use xlink:href="#DejaVuSerif-Bold-2014" transform="translate(2777.294922 0)"/>
     <use xlink:href="#DejaVuSerif-Bold-20" transform="translate(2877.294922 0)"/>
     <use xlink:href="#DejaVuSerif-Bold-5a" transform="translate(2912.109375 0)"/>
     <use xlink:href="#DejaVuSerif-Bold-2d" transform="translate(2985.107422 0)"/>
     <use xlink:href="#DejaVuSerif-Bold-73" transform="translate(3026.611328 0)"/>
     <use xlink:href="#DejaVuSerif-Bold-74" transform="translate(3082.910156 0)"/>
     <use xlink:href="#DejaVuSerif-Bold-61" transform="translate(3129.101562 0)"/>
     <use xlink:href="#DejaVuSerif-Bold-74" transform="translate(3193.896484 0)"/>
     <use xlink:href="#DejaVuSerif-Bold-69" transform="translate(3240.087891 0)"/>
     <use xlink:href="#DejaVuSerif-Bold-73" transform="translate(3278.076172 0)"/>
     <use xlink:href="#DejaVuSerif-Bold-74" transform="translate(3334.375 0)"/>
     <use xlink:href="#DejaVuSerif-Bold-69" transform="translate(3380.566406 0)"/>
     <use xlink:href="#DejaVuSerif-Bold-63" transform="translate(3418.554688 0)"/>
    </g>
   </g>
   <g id="PathCollection_1">
    <defs>
     <path id="m8026463f7b" d="M 0 4.1833 
C 1.109424 4.1833 2.173559 3.742521 2.95804 2.95804 
C 3.742521 2.173559 4.1833 1.109424 4.1833 0 
C 4.1833 -1.109424 3.742521 -2.173559 2.95804 -2.95804 
C 2.173559 -3.742521 1.109424 -4.1833 0 -4.1833 
C -1.109424 -4.1833 -2.173559 -3.742521 -2.95804 -2.95804 
C -3.742521 -2.173559 -4.1833 -1.109424 -4.1833 0 
C -4.1833 1.109424 -3.742521 2.173559 -2.95804 2.95804 
C -2.173559 3.742521 -1.109424 4.1833 0 4.1833 
z
" style="stroke: #ffffff; stroke-width: 0.4"/>
    </defs>
    <g clip-path="url(#p50b142d352)">
     <use xlink:href="#m8026463f7b" x="398.056453" y="114.888415" style="fill: #1b5e20; stroke: #ffffff; stroke-width: 0.4"/>
    </g>
   </g>
   <g id="PathCollection_2">
    <defs>
     <path id="mce6ae25953" d="M 0 4.1833 
C 1.109424 4.1833 2.173559 3.742521 2.95804 2.95804 
C 3.742521 2.173559 4.1833 1.109424 4.1833 0 
C 4.1833 -1.109424 3.742521 -2.173559 2.95804 -2.95804 
C 2.173559 -3.742521 1.109424 -4.1833 0 -4.1833 
C -1.109424 -4.1833 -2.173559 -3.742521 -2.95804 -2.95804 
C -3.742521 -2.173559 -4.1833 -1.109424 -4.1833 0 
C -4.1833 1.109424 -3.742521 2.173559 -2.95804 2.95804 
C -2.173559 3.742521 -1.109424 4.1833 0 4.1833 
z
" style="stroke: #ffffff; stroke-width: 0.4"/>
    </defs>
    <g clip-path="url(#p50b142d352)">
     <use xlink:href="#mce6ae25953" x="334.415237" y="177.362887" style="fill: #90a4ae; stroke: #ffffff; stroke-width: 0.4"/>
     <use xlink:href="#mce6ae25953" x="299.614936" y="211.525189" style="fill: #90a4ae; stroke: #ffffff; stroke-width: 0.4"/>
     <use xlink:href="#mce6ae25953" x="255.483414" y="254.847642" style="fill: #90a4ae; stroke: #ffffff; stroke-width: 0.4"/>
     <use xlink:href="#mce6ae25953" x="299.614936" y="211.525189" style="fill: #90a4ae; stroke: #ffffff; stroke-width: 0.4"/>
     <use xlink:href="#mce6ae25953" x="221.536089" y="288.172605" style="fill: #90a4ae; stroke: #ffffff; stroke-width: 0.4"/>
     <use xlink:href="#mce6ae25953" x="253.78891" y="256.51108" style="fill: #90a4ae; stroke: #ffffff; stroke-width: 0.4"/>
     <use xlink:href="#mce6ae25953" x="295.372952" y="215.689405" style="fill: #90a4ae; stroke: #ffffff; stroke-width: 0.4"/>
     <use xlink:href="#mce6ae25953" x="304.704172" y="206.529254" style="fill: #90a4ae; stroke: #ffffff; stroke-width: 0.4"/>
     <use xlink:href="#mce6ae25953" x="202.867923" y="306.498525" style="fill: #90a4ae; stroke: #ffffff; stroke-width: 0.4"/>
     <use xlink:href="#mce6ae25953" x="252.088681" y="258.180138" style="fill: #90a4ae; stroke: #ffffff; stroke-width: 0.4"/>
    </g>
   </g>
   <g id="PathCollection_3">
    <defs>
     <path id="mef6dda1e65" d="M 0 4.1833 
C 1.109424 4.1833 2.173559 3.742521 2.95804 2.95804 
C 3.742521 2.173559 4.1833 1.109424 4.1833 0 
C 4.1833 -1.109424 3.742521 -2.173559 2.95804 -2.95804 
C 2.173559 -3.742521 1.109424 -4.1833 0 -4.1833 
C -1.109424 -4.1833 -2.173559 -3.742521 -2.95804 -2.95804 
C -3.742521 -2.173559 -4.1833 -1.109424 -4.1833 0 
C -4.1833 1.109424 -3.742521 2.173559 -2.95804 2.95804 
C -2.173559 3.742521 -1.109424 4.1833 0 4.1833 
z
" style="stroke: #ffffff; stroke-width: 0.4"/>
    </defs>
    <g clip-path="url(#p50b142d352)">
     <use xlink:href="#mef6dda1e65" x="185.894261" y="312.354278" style="fill: #546e7a; stroke: #ffffff; stroke-width: 0.4"/>
    </g>
   </g>
   <g id="PathCollection_4">
    <defs>
     <path id="m52795f88a6" d="M 0 -4.1833 
L -4.1833 4.1833 
L 4.1833 4.1833 
z
" style="stroke: #ffffff; stroke-width: 0.4"/>
    </defs>
    <g clip-path="url(#p50b142d352)">
     <use xlink:href="#m52795f88a6" x="297.914707" y="213.194247" style="fill: #90a4ae; stroke: #ffffff; stroke-width: 0.4"/>
     <use xlink:href="#m52795f88a6" x="286.036006" y="224.855175" style="fill: #90a4ae; stroke: #ffffff; stroke-width: 0.4"/>
     <use xlink:href="#m52795f88a6" x="216.446853" y="293.16854" style="fill: #90a4ae; stroke: #ffffff; stroke-width: 0.4"/>
     <use xlink:href="#m52795f88a6" x="175.710063" y="333.158496" style="fill: #90a4ae; stroke: #ffffff; stroke-width: 0.4"/>
     <use xlink:href="#m52795f88a6" x="257.183642" y="253.178584" style="fill: #90a4ae; stroke: #ffffff; stroke-width: 0.4"/>
     <use xlink:href="#m52795f88a6" x="255.483414" y="254.847642" style="fill: #90a4ae; stroke: #ffffff; stroke-width: 0.4"/>
     <use xlink:href="#m52795f88a6" x="319.983331" y="191.530211" style="fill: #90a4ae; stroke: #ffffff; stroke-width: 0.4"/>
     <use xlink:href="#m52795f88a6" x="248.693949" y="261.512634" style="fill: #90a4ae; stroke: #ffffff; stroke-width: 0.4"/>
     <use xlink:href="#m52795f88a6" x="280.941045" y="229.856729" style="fill: #90a4ae; stroke: #ffffff; stroke-width: 0.4"/>
    </g>
   </g>
   <g id="PathCollection_5">
    <defs>
     <path id="m4063a8cb77" d="M 0 -4.1833 
L -4.1833 4.1833 
L 4.1833 4.1833 
z
" style="stroke: #ffffff; stroke-width: 0.4"/>
    </defs>
    <g clip-path="url(#p50b142d352)">
     <use xlink:href="#m4063a8cb77" x="148.552203" y="332.860651" style="fill: #7b1fa2; stroke: #ffffff; stroke-width: 0.4"/>
     <use xlink:href="#m4063a8cb77" x="145.157471" y="334.614004" style="fill: #7b1fa2; stroke: #ffffff; stroke-width: 0.4"/>
    </g>
   </g>
   <g id="PathCollection_6">
    <defs>
     <path id="m287a14a0df" d="M 0 -4.1833 
L -4.1833 4.1833 
L 4.1833 4.1833 
z
" style="stroke: #ffffff; stroke-width: 0.4"/>
    </defs>
    <g clip-path="url(#p50b142d352)">
     <use xlink:href="#m287a14a0df" x="162.131133" y="305.104834" style="fill: #546e7a; stroke: #ffffff; stroke-width: 0.4"/>
    </g>
   </g>
   <g id="PathCollection_7">
    <defs>
     <path id="m791d6732f2" d="M -0 5.91608 
L 5.91608 0 
L 0 -5.91608 
L -5.91608 -0 
z
" style="stroke: #ffffff; stroke-width: 0.4"/>
    </defs>
    <g clip-path="url(#p50b142d352)">
     <use xlink:href="#m791d6732f2" x="427.836214" y="85.65461" style="fill: #1b5e20; stroke: #ffffff; stroke-width: 0.4"/>
     <use xlink:href="#m791d6732f2" x="392.354676" y="120.48566" style="fill: #1b5e20; stroke: #ffffff; stroke-width: 0.4"/>
     <use xlink:href="#m791d6732f2" x="445.576983" y="106.874688" style="fill: #1b5e20; stroke: #ffffff; stroke-width: 0.4"/>
    </g>
   </g>
   <g id="PathCollection_8">
    <defs>
     <path id="m8a0e3073d5" d="M -0 5.91608 
L 5.91608 0 
L 0 -5.91608 
L -5.91608 -0 
z
" style="stroke: #ffffff; stroke-width: 0.4"/>
    </defs>
    <g clip-path="url(#p50b142d352)">
     <use xlink:href="#m8a0e3073d5" x="358.647788" y="153.574595" style="fill: #90a4ae; stroke: #ffffff; stroke-width: 0.4"/>
     <use xlink:href="#m8a0e3073d5" x="282.366489" y="228.457418" style="fill: #90a4ae; stroke: #ffffff; stroke-width: 0.4"/>
     <use xlink:href="#m8a0e3073d5" x="319.622676" y="191.884254" style="fill: #90a4ae; stroke: #ffffff; stroke-width: 0.4"/>
     <use xlink:href="#m8a0e3073d5" x="323.171975" y="188.400025" style="fill: #90a4ae; stroke: #ffffff; stroke-width: 0.4"/>
     <use xlink:href="#m8a0e3073d5" x="277.042541" y="233.683761" style="fill: #90a4ae; stroke: #ffffff; stroke-width: 0.4"/>
     <use xlink:href="#m8a0e3073d5" x="319.622676" y="191.884254" style="fill: #90a4ae; stroke: #ffffff; stroke-width: 0.4"/>
     <use xlink:href="#m8a0e3073d5" x="293.008661" y="218.010351" style="fill: #90a4ae; stroke: #ffffff; stroke-width: 0.4"/>
     <use xlink:href="#m8a0e3073d5" x="223.825959" y="285.924716" style="fill: #90a4ae; stroke: #ffffff; stroke-width: 0.4"/>
     <use xlink:href="#m8a0e3073d5" x="250.43425" y="259.804238" style="fill: #90a4ae; stroke: #ffffff; stroke-width: 0.4"/>
    </g>
   </g>
   <g id="legend_1">
    <g id="patch_13">
     <path d="M 54.262344 78.755781 
L 156.332344 78.755781 
Q 157.932344 78.755781 157.932344 77.155781 
L 157.932344 30.758281 
Q 157.932344 29.158281 156.332344 29.158281 
L 54.262344 29.158281 
Q 52.662344 29.158281 52.662344 30.758281 
L 52.662344 77.155781 
Q 52.662344 78.755781 54.262344 78.755781 
z
" style="fill: #ffffff; opacity: 0.9; stroke: #cccccc; stroke-linejoin: miter"/>
    </g>
    <g id="patch_14">
     <path d="M 55.862344 38.437031 
L 71.862344 38.437031 
L 71.862344 32.837031 
L 55.862344 32.837031 
z
" style="fill: #1b5e20; stroke: #1b5e20; stroke-linejoin: miter"/>
    </g>
    <g id="text_26">
     <!-- Stable Significant -->
     <g transform="translate(78.262344 38.437031) scale(0.08 -0.08)">
      <defs>
       <path id="DejaVuSerif-62" d="M 738 331 
L 738 4531 
L 184 4531 
L 184 4863 
L 1313 4863 
L 1313 2803 
Q 1481 3116 1742 3264 
Q 2003 3413 2388 3413 
Q 3000 3413 3387 2928 
Q 3775 2444 3775 1663 
Q 3775 881 3387 395 
Q 3000 -91 2388 -91 
Q 2003 -91 1742 57 
Q 1481 206 1313 519 
L 1313 0 
L 184 0 
L 184 331 
L 738 331 
z
M 1313 1497 
Q 1313 897 1542 583 
Q 1772 269 2209 269 
Q 2650 269 2876 622 
Q 3103 975 3103 1663 
Q 3103 2353 2876 2703 
Q 2650 3053 2209 3053 
Q 1772 3053 1542 2737 
Q 1313 2422 1313 1825 
L 1313 1497 
z
" transform="scale(0.015625)"/>
       <path id="DejaVuSerif-67" d="M 3359 2988 
L 3359 72 
Q 3359 -644 2965 -1033 
Q 2572 -1422 1844 -1422 
Q 1516 -1422 1216 -1362 
Q 916 -1303 641 -1184 
L 641 -488 
L 941 -488 
Q 997 -813 1206 -963 
Q 1416 -1113 1806 -1113 
Q 2313 -1113 2548 -827 
Q 2784 -541 2784 72 
L 2784 519 
Q 2616 206 2355 57 
Q 2094 -91 1709 -91 
Q 1097 -91 708 395 
Q 319 881 319 1663 
Q 319 2444 706 2928 
Q 1094 3413 1709 3413 
Q 2094 3413 2355 3264 
Q 2616 3116 2784 2803 
L 2784 3322 
L 3909 3322 
L 3909 2988 
L 3359 2988 
z
M 2784 1825 
Q 2784 2422 2554 2737 
Q 2325 3053 1888 3053 
Q 1444 3053 1217 2703 
Q 991 2353 991 1663 
Q 991 975 1217 622 
Q 1444 269 1888 269 
Q 2325 269 2554 583 
Q 2784 897 2784 1497 
L 2784 1825 
z
" transform="scale(0.015625)"/>
      </defs>
      <use xlink:href="#DejaVuSerif-53"/>
      <use xlink:href="#DejaVuSerif-74" transform="translate(68.505859 0)"/>
      <use xlink:href="#DejaVuSerif-61" transform="translate(108.691406 0)"/>
      <use xlink:href="#DejaVuSerif-62" transform="translate(168.310547 0)"/>
      <use xlink:href="#DejaVuSerif-6c" transform="translate(232.324219 0)"/>
      <use xlink:href="#DejaVuSerif-65" transform="translate(264.306641 0)"/>
      <use xlink:href="#DejaVuSerif-20" transform="translate(323.486328 0)"/>
      <use xlink:href="#DejaVuSerif-53" transform="translate(355.273438 0)"/>
      <use xlink:href="#DejaVuSerif-69" transform="translate(423.779297 0)"/>
      <use xlink:href="#DejaVuSerif-67" transform="translate(455.761719 0)"/>
      <use xlink:href="#DejaVuSerif-6e" transform="translate(519.775391 0)"/>
      <use xlink:href="#DejaVuSerif-69" transform="translate(584.179688 0)"/>
      <use xlink:href="#DejaVuSerif-66" transform="translate(616.162109 0)"/>
      <use xlink:href="#DejaVuSerif-69" transform="translate(653.173828 0)"/>
      <use xlink:href="#DejaVuSerif-63" transform="translate(685.15625 0)"/>
      <use xlink:href="#DejaVuSerif-61" transform="translate(741.162109 0)"/>
      <use xlink:href="#DejaVuSerif-6e" transform="translate(800.78125 0)"/>
      <use xlink:href="#DejaVuSerif-74" transform="translate(865.185547 0)"/>
     </g>
    </g>
    <g id="patch_15">
     <path d="M 55.862344 50.293281 
L 71.862344 50.293281 
L 71.862344 44.693281 
L 55.862344 44.693281 
z
" style="fill: #90a4ae; stroke: #90a4ae; stroke-linejoin: miter"/>
    </g>
    <g id="text_27">
     <!-- Stable NS -->
     <g transform="translate(78.262344 50.293281) scale(0.08 -0.08)">
      <defs>
       <path id="DejaVuSerif-4e" d="M 313 0 
L 313 331 
L 941 331 
L 941 4331 
L 313 4331 
L 313 4666 
L 1509 4666 
L 4306 984 
L 4306 4331 
L 3681 4331 
L 3681 4666 
L 5319 4666 
L 5319 4331 
L 4691 4331 
L 4691 -91 
L 4313 -91 
L 1325 3841 
L 1325 331 
L 1953 331 
L 1953 0 
L 313 0 
z
" transform="scale(0.015625)"/>
      </defs>
      <use xlink:href="#DejaVuSerif-53"/>
      <use xlink:href="#DejaVuSerif-74" transform="translate(68.505859 0)"/>
      <use xlink:href="#DejaVuSerif-61" transform="translate(108.691406 0)"/>
      <use xlink:href="#DejaVuSerif-62" transform="translate(168.310547 0)"/>
      <use xlink:href="#DejaVuSerif-6c" transform="translate(232.324219 0)"/>
      <use xlink:href="#DejaVuSerif-65" transform="translate(264.306641 0)"/>
      <use xlink:href="#DejaVuSerif-20" transform="translate(323.486328 0)"/>
      <use xlink:href="#DejaVuSerif-4e" transform="translate(355.273438 0)"/>
      <use xlink:href="#DejaVuSerif-53" transform="translate(442.773438 0)"/>
     </g>
    </g>
    <g id="patch_16">
     <path d="M 55.862344 62.035781 
L 71.862344 62.035781 
L 71.862344 56.435781 
L 55.862344 56.435781 
z
" style="fill: #7b1fa2; stroke: #7b1fa2; stroke-linejoin: miter"/>
    </g>
    <g id="text_28">
     <!-- Direction Changed -->
     <g transform="translate(78.262344 62.035781) scale(0.08 -0.08)">
      <defs>
       <path id="DejaVuSerif-43" d="M 4513 1234 
Q 4306 581 3820 245 
Q 3334 -91 2591 -91 
Q 2134 -91 1743 65 
Q 1353 222 1050 525 
Q 700 875 529 1320 
Q 359 1766 359 2328 
Q 359 3416 987 4083 
Q 1616 4750 2644 4750 
Q 3025 4750 3456 4650 
Q 3888 4550 4384 4347 
L 4384 3272 
L 4031 3272 
Q 3916 3859 3567 4137 
Q 3219 4416 2591 4416 
Q 1844 4416 1459 3886 
Q 1075 3356 1075 2328 
Q 1075 1303 1459 773 
Q 1844 244 2591 244 
Q 3113 244 3450 492 
Q 3788 741 3938 1234 
L 4513 1234 
z
" transform="scale(0.015625)"/>
       <path id="DejaVuSerif-68" d="M 263 0 
L 263 331 
L 781 331 
L 781 4531 
L 231 4531 
L 231 4863 
L 1356 4863 
L 1356 2731 
Q 1516 3069 1770 3241 
Q 2025 3413 2363 3413 
Q 2913 3413 3172 3097 
Q 3431 2781 3431 2113 
L 3431 331 
L 3944 331 
L 3944 0 
L 2356 0 
L 2356 331 
L 2853 331 
L 2853 1931 
Q 2853 2541 2704 2764 
Q 2556 2988 2175 2988 
Q 1775 2988 1565 2697 
Q 1356 2406 1356 1850 
L 1356 331 
L 1856 331 
L 1856 0 
L 263 0 
z
" transform="scale(0.015625)"/>
      </defs>
      <use xlink:href="#DejaVuSerif-44"/>
      <use xlink:href="#DejaVuSerif-69" transform="translate(80.175781 0)"/>
      <use xlink:href="#DejaVuSerif-72" transform="translate(112.158203 0)"/>
      <use xlink:href="#DejaVuSerif-65" transform="translate(159.960938 0)"/>
      <use xlink:href="#DejaVuSerif-63" transform="translate(219.140625 0)"/>
      <use xlink:href="#DejaVuSerif-74" transform="translate(275.146484 0)"/>
      <use xlink:href="#DejaVuSerif-69" transform="translate(315.332031 0)"/>
      <use xlink:href="#DejaVuSerif-6f" transform="translate(347.314453 0)"/>
      <use xlink:href="#DejaVuSerif-6e" transform="translate(407.519531 0)"/>
      <use xlink:href="#DejaVuSerif-20" transform="translate(471.923828 0)"/>
      <use xlink:href="#DejaVuSerif-43" transform="translate(503.710938 0)"/>
      <use xlink:href="#DejaVuSerif-68" transform="translate(580.224609 0)"/>
      <use xlink:href="#DejaVuSerif-61" transform="translate(644.628906 0)"/>
      <use xlink:href="#DejaVuSerif-6e" transform="translate(704.248047 0)"/>
      <use xlink:href="#DejaVuSerif-67" transform="translate(768.652344 0)"/>
      <use xlink:href="#DejaVuSerif-65" transform="translate(832.666016 0)"/>
      <use xlink:href="#DejaVuSerif-64" transform="translate(891.845703 0)"/>
     </g>
    </g>
    <g id="patch_17">
     <path d="M 55.862344 73.892031 
L 71.862344 73.892031 
L 71.862344 68.292031 
L 55.862344 68.292031 
z
" style="fill: #546e7a; stroke: #546e7a; stroke-linejoin: miter"/>
    </g>
    <g id="text_29">
     <!-- Weakened -->
     <g transform="translate(78.262344 73.892031) scale(0.08 -0.08)">
      <defs>
       <path id="DejaVuSerif-6b" d="M 1831 0 
L 219 0 
L 219 331 
L 738 331 
L 738 4531 
L 184 4531 
L 184 4863 
L 1313 4863 
L 1313 1697 
L 2713 2988 
L 2234 2988 
L 2234 3322 
L 3738 3322 
L 3738 2988 
L 3169 2988 
L 2181 2075 
L 3444 331 
L 3922 331 
L 3922 0 
L 2284 0 
L 2284 331 
L 2759 331 
L 1766 1697 
L 1313 1275 
L 1313 331 
L 1831 331 
L 1831 0 
z
" transform="scale(0.015625)"/>
      </defs>
      <use xlink:href="#DejaVuSerif-57"/>
      <use xlink:href="#DejaVuSerif-65" transform="translate(94.658203 0)"/>
      <use xlink:href="#DejaVuSerif-61" transform="translate(153.837891 0)"/>
      <use xlink:href="#DejaVuSerif-6b" transform="translate(213.457031 0)"/>
      <use xlink:href="#DejaVuSerif-65" transform="translate(274.052734 0)"/>
      <use xlink:href="#DejaVuSerif-6e" transform="translate(333.232422 0)"/>
      <use xlink:href="#DejaVuSerif-65" transform="translate(397.636719 0)"/>
      <use xlink:href="#DejaVuSerif-64" transform="translate(456.816406 0)"/>
     </g>
    </g>
   </g>
  </g>
 </g>
 <defs>
  <clipPath id="p50b142d352">
   <rect x="48.662344" y="25.158281" width="440.8" height="432.71875"/>
  </clipPath>
 </defs>
</svg>
