<?xml version="1.0" encoding="utf-8" standalone="no"?>
<!DOCTYPE svg PUBLIC "-//W3C//DTD SVG 1.1//EN"
  "http://www.w3.org/Graphics/SVG/1.1/DTD/svg11.dtd">
<svg xmlns:xlink="http://www.w3.org/1999/xlink" width="500.262344pt" height="501.250156pt" viewBox="0 0 500.262344 501.250156" xmlns="http://www.w3.org/2000/svg" version="1.1">
 <metadata>
  <rdf:RDF xmlns:dc="http://purl.org/dc/elements/1.1/" xmlns:cc="http://creativecommons.org/ns#" xmlns:rdf="http://www.w3.org/1999/02/22-rdf-syntax-ns#">
   <cc:Work>
    <dc:type rdf:resource="http://purl.org/dc/dcmitype/StillImage"/>
    <dc:date>2026-05-29T04:42:45.745833</dc:date>
    <dc:format>image/svg+xml</dc:format>
    <dc:creator>
     <cc:Agent>
      <dc:title>Matplotlib v3.10.9, https://matplotlib.org/</dc:title>
     </cc:Agent>
    </dc:creator>
   </cc:Work>
  </rdf:RDF>
 </metadata>
 <defs>
  <style type="text/css">*{stroke-linejoin: round; stroke-linecap: butt}</style>
 </defs>
 <g id="figure_1">
  <g id="patch_1">
   <path d="M 0 501.250156 
L 500.262344 501.250156 
L 500.262344 0 
L 0 0 
z
" style="fill: #ffffff"/>
  </g>
  <g id="axes_1">
   <g id="patch_2">
    <path d="M 48.662344 458.158281 
L 489.462344 458.158281 
L 489.462344 25.158281 
L 48.662344 25.158281 
z
" style="fill: #ffffff"/>
   </g>
   <g id="matplotlib.axis_1">
    <g id="xtick_1">
     <g id="line2d_1">
      <path d="M 97.322084 458.158281 
L 97.322084 25.158281 
" clip-path="url(#p9c50cbb779)" style="fill: none; stroke-dasharray: 1.48,0.64; stroke-dashoffset: 0; stroke: #b0bec5; stroke-opacity: 0.4; stroke-width: 0.4"/>
     </g>
     <g id="line2d_2">
      <defs>
       <path id="m11ff7942c7" d="M 0 0 
L 0 3.5 
" style="stroke: #000000; stroke-width: 0.8"/>
      </defs>
      <g>
       <use xlink:href="#m11ff7942c7" x="97.322084" y="458.158281" style="stroke: #000000; stroke-width: 0.8"/>
      </g>
     </g>
     <g id="text_1">
      <!-- −3 -->
      <g transform="translate(89.213881 473.516563) scale(0.11 -0.11)">
       <defs>
        <path id="DejaVuSerif-2212" d="M 678 2259 
L 4684 2259 
L 4684 1753 
L 678 1753 
L 678 2259 
z
" transform="scale(0.015625)"/>
        <path id="DejaVuSerif-33" d="M 622 4469 
Q 988 4606 1323 4678 
Q 1659 4750 1953 4750 
Q 2638 4750 3022 4454 
Q 3406 4159 3406 3634 
Q 3406 3213 3140 2930 
Q 2875 2647 2388 2547 
Q 2963 2466 3280 2130 
Q 3597 1794 3597 1259 
Q 3597 606 3158 257 
Q 2719 -91 1894 -91 
Q 1528 -91 1179 -12 
Q 831 66 488 225 
L 488 1131 
L 838 1131 
Q 869 681 1141 450 
Q 1413 219 1906 219 
Q 2384 219 2661 495 
Q 2938 772 2938 1253 
Q 2938 1803 2653 2086 
Q 2369 2369 1819 2369 
L 1522 2369 
L 1522 2688 
L 1678 2688 
Q 2225 2688 2498 2914 
Q 2772 3141 2772 3597 
Q 2772 4006 2547 4223 
Q 2322 4441 1900 4441 
Q 1478 4441 1245 4241 
Q 1013 4041 972 3647 
L 622 3647 
L 622 4469 
z
" transform="scale(0.015625)"/>
       </defs>
       <use xlink:href="#DejaVuSerif-2212"/>
       <use xlink:href="#DejaVuSerif-33" transform="translate(83.789062 0)"/>
      </g>
     </g>
    </g>
    <g id="xtick_2">
     <g id="line2d_3">
      <path d="M 154.568837 458.158281 
L 154.568837 25.158281 
" clip-path="url(#p9c50cbb779)" style="fill: none; stroke-dasharray: 1.48,0.64; stroke-dashoffset: 0; stroke: #b0bec5; stroke-opacity: 0.4; stroke-width: 0.4"/>
     </g>
     <g id="line2d_4">
      <g>
       <use xlink:href="#m11ff7942c7" x="154.568837" y="458.158281" style="stroke: #000000; stroke-width: 0.8"/>
      </g>
     </g>
     <g id="text_2">
      <!-- −2 -->
      <g transform="translate(146.460634 473.516563) scale(0.11 -0.11)">
       <defs>
        <path id="DejaVuSerif-32" d="M 819 3553 
L 469 3553 
L 469 4384 
Q 803 4563 1142 4656 
Q 1481 4750 1806 4750 
Q 2534 4750 2956 4397 
Q 3378 4044 3378 3438 
Q 3378 2753 2422 1800 
Q 2347 1728 2309 1691 
L 1131 513 
L 3078 513 
L 3078 1088 
L 3444 1088 
L 3444 0 
L 434 0 
L 434 341 
L 1850 1753 
Q 2319 2222 2519 2614 
Q 2719 3006 2719 3438 
Q 2719 3909 2473 4175 
Q 2228 4441 1797 4441 
Q 1350 4441 1106 4219 
Q 863 3997 819 3553 
z
" transform="scale(0.015625)"/>
       </defs>
       <use xlink:href="#DejaVuSerif-2212"/>
       <use xlink:href="#DejaVuSerif-32" transform="translate(83.789062 0)"/>
      </g>
     </g>
    </g>
    <g id="xtick_3">
     <g id="line2d_5">
      <path d="M 211.815591 458.158281 
L 211.815591 25.158281 
" clip-path="url(#p9c50cbb779)" style="fill: none; stroke-dasharray: 1.48,0.64; stroke-dashoffset: 0; stroke: #b0bec5; stroke-opacity: 0.4; stroke-width: 0.4"/>
     </g>
     <g id="line2d_6">
      <g>
       <use xlink:href="#m11ff7942c7" x="211.815591" y="458.158281" style="stroke: #000000; stroke-width: 0.8"/>
      </g>
     </g>
     <g id="text_3">
      <!-- −1 -->
      <g transform="translate(203.707387 473.516563) scale(0.11 -0.11)">
       <defs>
        <path id="DejaVuSerif-31" d="M 909 0 
L 909 331 
L 1722 331 
L 1722 4213 
L 781 3603 
L 781 4013 
L 1919 4750 
L 2350 4750 
L 2350 331 
L 3163 331 
L 3163 0 
L 909 0 
z
" transform="scale(0.015625)"/>
       </defs>
       <use xlink:href="#DejaVuSerif-2212"/>
       <use xlink:href="#DejaVuSerif-31" transform="translate(83.789062 0)"/>
      </g>
     </g>
    </g>
    <g id="xtick_4">
     <g id="line2d_7">
      <path d="M 269.062344 458.158281 
L 269.062344 25.158281 
" clip-path="url(#p9c50cbb779)" style="fill: none; stroke-dasharray: 1.48,0.64; stroke-dashoffset: 0; stroke: #b0bec5; stroke-opacity: 0.4; stroke-width: 0.4"/>
     </g>
     <g id="line2d_8">
      <g>
       <use xlink:href="#m11ff7942c7" x="269.062344" y="458.158281" style="stroke: #000000; stroke-width: 0.8"/>
      </g>
     </g>
     <g id="text_4">
      <!-- 0 -->
      <g transform="translate(265.562969 473.516563) scale(0.11 -0.11)">
       <defs>
        <path id="DejaVuSerif-30" d="M 2034 219 
Q 2513 219 2750 744 
Q 2988 1269 2988 2328 
Q 2988 3391 2750 3916 
Q 2513 4441 2034 4441 
Q 1556 4441 1318 3916 
Q 1081 3391 1081 2328 
Q 1081 1269 1318 744 
Q 1556 219 2034 219 
z
M 2034 -91 
Q 1275 -91 848 546 
Q 422 1184 422 2328 
Q 422 3475 848 4112 
Q 1275 4750 2034 4750 
Q 2797 4750 3222 4112 
Q 3647 3475 3647 2328 
Q 3647 1184 3222 546 
Q 2797 -91 2034 -91 
z
" transform="scale(0.015625)"/>
       </defs>
       <use xlink:href="#DejaVuSerif-30"/>
      </g>
     </g>
    </g>
    <g id="xtick_5">
     <g id="line2d_9">
      <path d="M 326.309097 458.158281 
L 326.309097 25.158281 
" clip-path="url(#p9c50cbb779)" style="fill: none; stroke-dasharray: 1.48,0.64; stroke-dashoffset: 0; stroke: #b0bec5; stroke-opacity: 0.4; stroke-width: 0.4"/>
     </g>
     <g id="line2d_10">
      <g>
       <use xlink:href="#m11ff7942c7" x="326.309097" y="458.158281" style="stroke: #000000; stroke-width: 0.8"/>
      </g>
     </g>
     <g id="text_5">
      <!-- 1 -->
      <g transform="translate(322.809722 473.516563) scale(0.11 -0.11)">
       <use xlink:href="#DejaVuSerif-31"/>
      </g>
     </g>
    </g>
    <g id="xtick_6">
     <g id="line2d_11">
      <path d="M 383.55585 458.158281 
L 383.55585 25.158281 
" clip-path="url(#p9c50cbb779)" style="fill: none; stroke-dasharray: 1.48,0.64; stroke-dashoffset: 0; stroke: #b0bec5; stroke-opacity: 0.4; stroke-width: 0.4"/>
     </g>
     <g id="line2d_12">
      <g>
       <use xlink:href="#m11ff7942c7" x="383.55585" y="458.158281" style="stroke: #000000; stroke-width: 0.8"/>
      </g>
     </g>
     <g id="text_6">
      <!-- 2 -->
      <g transform="translate(380.056475 473.516563) scale(0.11 -0.11)">
       <use xlink:href="#DejaVuSerif-32"/>
      </g>
     </g>
    </g>
    <g id="xtick_7">
     <g id="line2d_13">
      <path d="M 440.802603 458.158281 
L 440.802603 25.158281 
" clip-path="url(#p9c50cbb779)" style="fill: none; stroke-dasharray: 1.48,0.64; stroke-dashoffset: 0; stroke: #b0bec5; stroke-opacity: 0.4; stroke-width: 0.4"/>
     </g>
     <g id="line2d_14">
      <g>
       <use xlink:href="#m11ff7942c7" x="440.802603" y="458.158281" style="stroke: #000000; stroke-width: 0.8"/>
      </g>
     </g>
     <g id="text_7">
      <!-- 3 -->
      <g transform="translate(437.303228 473.516563) scale(0.11 -0.11)">
       <use xlink:href="#DejaVuSerif-33"/>
      </g>
     </g>
    </g>
    <g id="text_8">
     <!-- Standard MK  Z-statistic -->
     <g transform="translate(200.495391 488.1625) scale(0.11 -0.11)">
      <defs>
       <path id="DejaVuSerif-53" d="M 594 225 
L 594 1288 
L 953 1284 
Q 969 753 1261 498 
Q 1553 244 2150 244 
Q 2706 244 2998 464 
Q 3291 684 3291 1106 
Q 3291 1444 3114 1625 
Q 2938 1806 2369 1978 
L 1753 2163 
Q 1084 2366 811 2669 
Q 538 2972 538 3500 
Q 538 4094 959 4422 
Q 1381 4750 2144 4750 
Q 2469 4750 2856 4679 
Q 3244 4609 3681 4475 
L 3681 3481 
L 3328 3481 
Q 3275 3975 2998 4195 
Q 2722 4416 2156 4416 
Q 1663 4416 1405 4214 
Q 1147 4013 1147 3628 
Q 1147 3294 1340 3103 
Q 1534 2913 2163 2725 
L 2741 2553 
Q 3375 2363 3645 2067 
Q 3916 1772 3916 1275 
Q 3916 597 3481 253 
Q 3047 -91 2188 -91 
Q 1803 -91 1404 -12 
Q 1006 66 594 225 
z
" transform="scale(0.015625)"/>
       <path id="DejaVuSerif-74" d="M 691 2988 
L 184 2988 
L 184 3322 
L 691 3322 
L 691 4353 
L 1269 4353 
L 1269 3322 
L 2350 3322 
L 2350 2988 
L 1269 2988 
L 1269 878 
Q 1269 456 1350 337 
Q 1431 219 1650 219 
Q 1875 219 1978 351 
Q 2081 484 2088 781 
L 2522 781 
Q 2497 328 2275 118 
Q 2053 -91 1600 -91 
Q 1103 -91 897 129 
Q 691 350 691 878 
L 691 2988 
z
" transform="scale(0.015625)"/>
       <path id="DejaVuSerif-61" d="M 2547 1044 
L 2547 1747 
L 1806 1747 
Q 1378 1747 1168 1562 
Q 959 1378 959 997 
Q 959 650 1171 447 
Q 1384 244 1747 244 
Q 2106 244 2326 466 
Q 2547 688 2547 1044 
z
M 3122 2075 
L 3122 331 
L 3634 331 
L 3634 0 
L 2547 0 
L 2547 359 
Q 2356 128 2106 18 
Q 1856 -91 1522 -91 
Q 969 -91 644 203 
Q 319 497 319 997 
Q 319 1513 691 1797 
Q 1063 2081 1741 2081 
L 2547 2081 
L 2547 2309 
Q 2547 2688 2317 2895 
Q 2088 3103 1672 3103 
Q 1328 3103 1125 2947 
Q 922 2791 872 2484 
L 575 2484 
L 575 3156 
Q 875 3284 1158 3348 
Q 1441 3413 1709 3413 
Q 2400 3413 2761 3070 
Q 3122 2728 3122 2075 
z
" transform="scale(0.015625)"/>
       <path id="DejaVuSerif-6e" d="M 263 0 
L 263 331 
L 781 331 
L 781 2988 
L 231 2988 
L 231 3322 
L 1356 3322 
L 1356 2731 
Q 1516 3069 1770 3241 
Q 2025 3413 2363 3413 
Q 2913 3413 3172 3097 
Q 3431 2781 3431 2113 
L 3431 331 
L 3944 331 
L 3944 0 
L 2356 0 
L 2356 331 
L 2853 331 
L 2853 1931 
Q 2853 2541 2703 2767 
Q 2553 2994 2175 2994 
Q 1775 2994 1565 2701 
Q 1356 2409 1356 1850 
L 1356 331 
L 1856 331 
L 1856 0 
L 263 0 
z
" transform="scale(0.015625)"/>
       <path id="DejaVuSerif-64" d="M 3359 331 
L 3909 331 
L 3909 0 
L 2784 0 
L 2784 519 
Q 2616 206 2355 57 
Q 2094 -91 1709 -91 
Q 1097 -91 708 395 
Q 319 881 319 1663 
Q 319 2444 706 2928 
Q 1094 3413 1709 3413 
Q 2094 3413 2355 3264 
Q 2616 3116 2784 2803 
L 2784 4531 
L 2241 4531 
L 2241 4863 
L 3359 4863 
L 3359 331 
z
M 2784 1497 
L 2784 1825 
Q 2784 2422 2554 2737 
Q 2325 3053 1888 3053 
Q 1444 3053 1217 2703 
Q 991 2353 991 1663 
Q 991 975 1217 622 
Q 1444 269 1888 269 
Q 2325 269 2554 583 
Q 2784 897 2784 1497 
z
" transform="scale(0.015625)"/>
       <path id="DejaVuSerif-72" d="M 3059 3328 
L 3059 2497 
L 2728 2497 
Q 2713 2744 2591 2866 
Q 2469 2988 2234 2988 
Q 1809 2988 1582 2694 
Q 1356 2400 1356 1850 
L 1356 331 
L 2022 331 
L 2022 0 
L 263 0 
L 263 331 
L 781 331 
L 781 2994 
L 231 2994 
L 231 3322 
L 1356 3322 
L 1356 2731 
Q 1525 3078 1790 3245 
Q 2056 3413 2438 3413 
Q 2578 3413 2733 3391 
Q 2888 3369 3059 3328 
z
" transform="scale(0.015625)"/>
       <path id="DejaVuSerif-20" transform="scale(0.015625)"/>
       <path id="DejaVuSerif-4d" d="M 353 0 
L 353 331 
L 947 331 
L 947 4331 
L 319 4331 
L 319 4666 
L 1678 4666 
L 3316 1344 
L 4953 4666 
L 6228 4666 
L 6228 4331 
L 5606 4331 
L 5606 331 
L 6203 331 
L 6203 0 
L 4378 0 
L 4378 331 
L 4972 331 
L 4972 3938 
L 3372 684 
L 2931 684 
L 1331 3938 
L 1331 331 
L 1925 331 
L 1925 0 
L 353 0 
z
" transform="scale(0.015625)"/>
       <path id="DejaVuSerif-4b" d="M 353 0 
L 353 331 
L 947 331 
L 947 4331 
L 353 4331 
L 353 4666 
L 2175 4666 
L 2175 4331 
L 1581 4331 
L 1581 2566 
L 3591 4331 
L 3084 4331 
L 3084 4666 
L 4634 4666 
L 4634 4331 
L 4109 4331 
L 2106 2572 
L 4347 331 
L 4878 331 
L 4878 0 
L 3794 0 
L 1581 2216 
L 1581 331 
L 2175 331 
L 2175 0 
L 353 0 
z
" transform="scale(0.015625)"/>
       <path id="DejaVuSerif-5a" d="M 288 0 
L 288 225 
L 3194 4281 
L 781 4281 
L 781 3584 
L 397 3584 
L 397 4666 
L 4084 4666 
L 4084 4441 
L 1178 384 
L 3816 384 
L 3816 1038 
L 4197 1038 
L 4197 0 
L 288 0 
z
" transform="scale(0.015625)"/>
       <path id="DejaVuSerif-2d" d="M 281 1959 
L 1881 1959 
L 1881 1472 
L 281 1472 
L 281 1959 
z
" transform="scale(0.015625)"/>
       <path id="DejaVuSerif-73" d="M 359 184 
L 359 959 
L 691 959 
Q 703 588 923 403 
Q 1144 219 1575 219 
Q 1963 219 2166 364 
Q 2369 509 2369 788 
Q 2369 1006 2220 1140 
Q 2072 1275 1594 1428 
L 1178 1569 
Q 750 1706 558 1912 
Q 366 2119 366 2438 
Q 366 2894 700 3153 
Q 1034 3413 1625 3413 
Q 1888 3413 2178 3344 
Q 2469 3275 2778 3144 
L 2778 2419 
L 2447 2419 
Q 2434 2741 2221 2922 
Q 2009 3103 1644 3103 
Q 1281 3103 1095 2975 
Q 909 2847 909 2591 
Q 909 2381 1050 2254 
Q 1191 2128 1613 1997 
L 2069 1856 
Q 2541 1709 2748 1489 
Q 2956 1269 2956 922 
Q 2956 450 2595 179 
Q 2234 -91 1600 -91 
Q 1278 -91 972 -22 
Q 666 47 359 184 
z
" transform="scale(0.015625)"/>
       <path id="DejaVuSerif-69" d="M 622 4353 
Q 622 4497 726 4603 
Q 831 4709 978 4709 
Q 1122 4709 1226 4603 
Q 1331 4497 1331 4353 
Q 1331 4206 1228 4103 
Q 1125 4000 978 4000 
Q 831 4000 726 4103 
Q 622 4206 622 4353 
z
M 1356 331 
L 1900 331 
L 1900 0 
L 231 0 
L 231 331 
L 781 331 
L 781 2988 
L 231 2988 
L 231 3322 
L 1356 3322 
L 1356 331 
z
" transform="scale(0.015625)"/>
       <path id="DejaVuSerif-63" d="M 3291 997 
Q 3169 466 2822 187 
Q 2475 -91 1925 -91 
Q 1200 -91 759 389 
Q 319 869 319 1663 
Q 319 2459 759 2936 
Q 1200 3413 1925 3413 
Q 2241 3413 2553 3339 
Q 2866 3266 3181 3116 
L 3181 2266 
L 2847 2266 
Q 2781 2703 2561 2903 
Q 2341 3103 1931 3103 
Q 1466 3103 1228 2742 
Q 991 2381 991 1663 
Q 991 944 1227 581 
Q 1463 219 1931 219 
Q 2303 219 2525 412 
Q 2747 606 2828 997 
L 3291 997 
z
" transform="scale(0.015625)"/>
      </defs>
      <use xlink:href="#DejaVuSerif-53"/>
      <use xlink:href="#DejaVuSerif-74" transform="translate(68.505859 0)"/>
      <use xlink:href="#DejaVuSerif-61" transform="translate(108.691406 0)"/>
      <use xlink:href="#DejaVuSerif-6e" transform="translate(168.310547 0)"/>
      <use xlink:href="#DejaVuSerif-64" transform="translate(232.714844 0)"/>
      <use xlink:href="#DejaVuSerif-61" transform="translate(296.728516 0)"/>
      <use xlink:href="#DejaVuSerif-72" transform="translate(356.347656 0)"/>
      <use xlink:href="#DejaVuSerif-64" transform="translate(404.150391 0)"/>
      <use xlink:href="#DejaVuSerif-20" transform="translate(468.164062 0)"/>
      <use xlink:href="#DejaVuSerif-4d" transform="translate(499.951172 0)"/>
      <use xlink:href="#DejaVuSerif-4b" transform="translate(602.34375 0)"/>
      <use xlink:href="#DejaVuSerif-20" transform="translate(677.050781 0)"/>
      <use xlink:href="#DejaVuSerif-20" transform="translate(708.837891 0)"/>
      <use xlink:href="#DejaVuSerif-5a" transform="translate(740.625 0)"/>
      <use xlink:href="#DejaVuSerif-2d" transform="translate(810.107422 0)"/>
      <use xlink:href="#DejaVuSerif-73" transform="translate(843.896484 0)"/>
      <use xlink:href="#DejaVuSerif-74" transform="translate(895.214844 0)"/>
      <use xlink:href="#DejaVuSerif-61" transform="translate(935.400391 0)"/>
      <use xlink:href="#DejaVuSerif-74" transform="translate(995.019531 0)"/>
      <use xlink:href="#DejaVuSerif-69" transform="translate(1035.205078 0)"/>
      <use xlink:href="#DejaVuSerif-73" transform="translate(1067.1875 0)"/>
      <use xlink:href="#DejaVuSerif-74" transform="translate(1118.505859 0)"/>
      <use xlink:href="#DejaVuSerif-69" transform="translate(1158.691406 0)"/>
      <use xlink:href="#DejaVuSerif-63" transform="translate(1190.673828 0)"/>
     </g>
    </g>
   </g>
   <g id="matplotlib.axis_2">
    <g id="ytick_1">
     <g id="line2d_15">
      <path d="M 48.662344 410.35958 
L 489.462344 410.35958 
" clip-path="url(#p9c50cbb779)" style="fill: none; stroke-dasharray: 1.48,0.64; stroke-dashoffset: 0; stroke: #b0bec5; stroke-opacity: 0.4; stroke-width: 0.4"/>
     </g>
     <g id="line2d_16">
      <defs>
       <path id="me8e1632761" d="M 0 0 
L -3.5 0 
" style="stroke: #000000; stroke-width: 0.8"/>
      </defs>
      <g>
       <use xlink:href="#me8e1632761" x="48.662344" y="410.35958" style="stroke: #000000; stroke-width: 0.8"/>
      </g>
     </g>
     <g id="text_9">
      <!-- −3 -->
      <g transform="translate(25.445938 414.538721) scale(0.11 -0.11)">
       <use xlink:href="#DejaVuSerif-2212"/>
       <use xlink:href="#DejaVuSerif-33" transform="translate(83.789062 0)"/>
      </g>
     </g>
    </g>
    <g id="ytick_2">
     <g id="line2d_17">
      <path d="M 48.662344 354.125814 
L 489.462344 354.125814 
" clip-path="url(#p9c50cbb779)" style="fill: none; stroke-dasharray: 1.48,0.64; stroke-dashoffset: 0; stroke: #b0bec5; stroke-opacity: 0.4; stroke-width: 0.4"/>
     </g>
     <g id="line2d_18">
      <g>
       <use xlink:href="#me8e1632761" x="48.662344" y="354.125814" style="stroke: #000000; stroke-width: 0.8"/>
      </g>
     </g>
     <g id="text_10">
      <!-- −2 -->
      <g transform="translate(25.445938 358.304954) scale(0.11 -0.11)">
       <use xlink:href="#DejaVuSerif-2212"/>
       <use xlink:href="#DejaVuSerif-32" transform="translate(83.789062 0)"/>
      </g>
     </g>
    </g>
    <g id="ytick_3">
     <g id="line2d_19">
      <path d="M 48.662344 297.892047 
L 489.462344 297.892047 
" clip-path="url(#p9c50cbb779)" style="fill: none; stroke-dasharray: 1.48,0.64; stroke-dashoffset: 0; stroke: #b0bec5; stroke-opacity: 0.4; stroke-width: 0.4"/>
     </g>
     <g id="line2d_20">
      <g>
       <use xlink:href="#me8e1632761" x="48.662344" y="297.892047" style="stroke: #000000; stroke-width: 0.8"/>
      </g>
     </g>
     <g id="text_11">
      <!-- −1 -->
      <g transform="translate(25.445938 302.071188) scale(0.11 -0.11)">
       <use xlink:href="#DejaVuSerif-2212"/>
       <use xlink:href="#DejaVuSerif-31" transform="translate(83.789062 0)"/>
      </g>
     </g>
    </g>
    <g id="ytick_4">
     <g id="line2d_21">
      <path d="M 48.662344 241.658281 
L 489.462344 241.658281 
" clip-path="url(#p9c50cbb779)" style="fill: none; stroke-dasharray: 1.48,0.64; stroke-dashoffset: 0; stroke: #b0bec5; stroke-opacity: 0.4; stroke-width: 0.4"/>
     </g>
     <g id="line2d_22">
      <g>
       <use xlink:href="#me8e1632761" x="48.662344" y="241.658281" style="stroke: #000000; stroke-width: 0.8"/>
      </g>
     </g>
     <g id="text_12">
      <!-- 0 -->
      <g transform="translate(34.663594 245.837422) scale(0.11 -0.11)">
       <use xlink:href="#DejaVuSerif-30"/>
      </g>
     </g>
    </g>
    <g id="ytick_5">
     <g id="line2d_23">
      <path d="M 48.662344 185.424515 
L 489.462344 185.424515 
" clip-path="url(#p9c50cbb779)" style="fill: none; stroke-dasharray: 1.48,0.64; stroke-dashoffset: 0; stroke: #b0bec5; stroke-opacity: 0.4; stroke-width: 0.4"/>
     </g>
     <g id="line2d_24">
      <g>
       <use xlink:href="#me8e1632761" x="48.662344" y="185.424515" style="stroke: #000000; stroke-width: 0.8"/>
      </g>
     </g>
     <g id="text_13">
      <!-- 1 -->
      <g transform="translate(34.663594 189.603656) scale(0.11 -0.11)">
       <use xlink:href="#DejaVuSerif-31"/>
      </g>
     </g>
    </g>
    <g id="ytick_6">
     <g id="line2d_25">
      <path d="M 48.662344 129.190749 
L 489.462344 129.190749 
" clip-path="url(#p9c50cbb779)" style="fill: none; stroke-dasharray: 1.48,0.64; stroke-dashoffset: 0; stroke: #b0bec5; stroke-opacity: 0.4; stroke-width: 0.4"/>
     </g>
     <g id="line2d_26">
      <g>
       <use xlink:href="#me8e1632761" x="48.662344" y="129.190749" style="stroke: #000000; stroke-width: 0.8"/>
      </g>
     </g>
     <g id="text_14">
      <!-- 2 -->
      <g transform="translate(34.663594 133.369889) scale(0.11 -0.11)">
       <use xlink:href="#DejaVuSerif-32"/>
      </g>
     </g>
    </g>
    <g id="ytick_7">
     <g id="line2d_27">
      <path d="M 48.662344 72.956983 
L 489.462344 72.956983 
" clip-path="url(#p9c50cbb779)" style="fill: none; stroke-dasharray: 1.48,0.64; stroke-dashoffset: 0; stroke: #b0bec5; stroke-opacity: 0.4; stroke-width: 0.4"/>
     </g>
     <g id="line2d_28">
      <g>
       <use xlink:href="#me8e1632761" x="48.662344" y="72.956983" style="stroke: #000000; stroke-width: 0.8"/>
      </g>
     </g>
     <g id="text_15">
      <!-- 3 -->
      <g transform="translate(34.663594 77.136123) scale(0.11 -0.11)">
       <use xlink:href="#DejaVuSerif-33"/>
      </g>
     </g>
    </g>
    <g id="text_16">
     <!-- PW-MK  Z-statistic -->
     <g transform="translate(19.158281 293.541328) rotate(-90) scale(0.11 -0.11)">
      <defs>
       <path id="DejaVuSerif-50" d="M 1581 2375 
L 2406 2375 
Q 2872 2375 3115 2626 
Q 3359 2878 3359 3353 
Q 3359 3831 3115 4081 
Q 2872 4331 2406 4331 
L 1581 4331 
L 1581 2375 
z
M 353 0 
L 353 331 
L 947 331 
L 947 4331 
L 353 4331 
L 353 4666 
L 2559 4666 
Q 3259 4666 3668 4311 
Q 4078 3956 4078 3353 
Q 4078 2753 3668 2397 
Q 3259 2041 2559 2041 
L 1581 2041 
L 1581 331 
L 2303 331 
L 2303 0 
L 353 0 
z
" transform="scale(0.015625)"/>
       <path id="DejaVuSerif-57" d="M 4878 0 
L 4366 0 
L 3297 3794 
L 2228 0 
L 1716 0 
L 494 4331 
L 31 4331 
L 31 4666 
L 1734 4666 
L 1734 4331 
L 1153 4331 
L 2125 884 
L 3188 4666 
L 3694 4666 
L 4775 844 
L 5753 4331 
L 5216 4331 
L 5216 4666 
L 6559 4666 
L 6559 4331 
L 6100 4331 
L 4878 0 
z
" transform="scale(0.015625)"/>
      </defs>
      <use xlink:href="#DejaVuSerif-50"/>
      <use xlink:href="#DejaVuSerif-57" transform="translate(67.285156 0)"/>
      <use xlink:href="#DejaVuSerif-2d" transform="translate(162.818359 0)"/>
      <use xlink:href="#DejaVuSerif-4d" transform="translate(196.607422 0)"/>
      <use xlink:href="#DejaVuSerif-4b" transform="translate(299 0)"/>
      <use xlink:href="#DejaVuSerif-20" transform="translate(373.707031 0)"/>
      <use xlink:href="#DejaVuSerif-20" transform="translate(405.494141 0)"/>
      <use xlink:href="#DejaVuSerif-5a" transform="translate(437.28125 0)"/>
      <use xlink:href="#DejaVuSerif-2d" transform="translate(506.763672 0)"/>
      <use xlink:href="#DejaVuSerif-73" transform="translate(540.552734 0)"/>
      <use xlink:href="#DejaVuSerif-74" transform="translate(591.871094 0)"/>
      <use xlink:href="#DejaVuSerif-61" transform="translate(632.056641 0)"/>
      <use xlink:href="#DejaVuSerif-74" transform="translate(691.675781 0)"/>
      <use xlink:href="#DejaVuSerif-69" transform="translate(731.861328 0)"/>
      <use xlink:href="#DejaVuSerif-73" transform="translate(763.84375 0)"/>
      <use xlink:href="#DejaVuSerif-74" transform="translate(815.162109 0)"/>
      <use xlink:href="#DejaVuSerif-69" transform="translate(855.347656 0)"/>
      <use xlink:href="#DejaVuSerif-63" transform="translate(887.330078 0)"/>
     </g>
    </g>
   </g>
   <g id="line2d_29">
    <path d="M 381.26598 458.158281 
L 381.26598 25.158281 
" clip-path="url(#p9c50cbb779)" style="fill: none; stroke-dasharray: 2.59,1.12; stroke-dashoffset: 0; stroke: #808080; stroke-opacity: 0.5; stroke-width: 0.7"/>
   </g>
   <g id="line2d_30">
    <path d="M 156.858707 458.158281 
L 156.858707 25.158281 
" clip-path="url(#p9c50cbb779)" style="fill: none; stroke-dasharray: 2.59,1.12; stroke-dashoffset: 0; stroke: #808080; stroke-opacity: 0.5; stroke-width: 0.7"/>
   </g>
   <g id="line2d_31">
    <path d="M 48.662344 131.440099 
L 489.462344 131.440099 
" clip-path="url(#p9c50cbb779)" style="fill: none; stroke-dasharray: 2.59,1.12; stroke-dashoffset: 0; stroke: #808080; stroke-opacity: 0.5; stroke-width: 0.7"/>
   </g>
   <g id="line2d_32">
    <path d="M 48.662344 351.876463 
L 489.462344 351.876463 
" clip-path="url(#p9c50cbb779)" style="fill: none; stroke-dasharray: 2.59,1.12; stroke-dashoffset: 0; stroke: #808080; stroke-opacity: 0.5; stroke-width: 0.7"/>
   </g>
   <g id="line2d_33">
    <path d="M 416.518531 458.158281 
L 416.518531 25.158281 
" clip-path="url(#p9c50cbb779)" style="fill: none; stroke-dasharray: 0.7,1.155; stroke-dashoffset: 0; stroke: #808080; stroke-opacity: 0.5; stroke-width: 0.7"/>
   </g>
   <g id="line2d_34">
    <path d="M 121.606157 458.158281 
L 121.606157 25.158281 
" clip-path="url(#p9c50cbb779)" style="fill: none; stroke-dasharray: 0.7,1.155; stroke-dashoffset: 0; stroke: #808080; stroke-opacity: 0.5; stroke-width: 0.7"/>
   </g>
   <g id="line2d_35">
    <path d="M 48.662344 96.811346 
L 489.462344 96.811346 
" clip-path="url(#p9c50cbb779)" style="fill: none; stroke-dasharray: 0.7,1.155; stroke-dashoffset: 0; stroke: #808080; stroke-opacity: 0.5; stroke-width: 0.7"/>
   </g>
   <g id="line2d_36">
    <path d="M 48.662344 386.505216 
L 489.462344 386.505216 
" clip-path="url(#p9c50cbb779)" style="fill: none; stroke-dasharray: 0.7,1.155; stroke-dashoffset: 0; stroke: #808080; stroke-opacity: 0.5; stroke-width: 0.7"/>
   </g>
   <g id="line2d_37">
    <path d="M 48.662344 241.658281 
L 489.462344 241.658281 
" clip-path="url(#p9c50cbb779)" style="fill: none; stroke: #808080; stroke-opacity: 0.4; stroke-width: 0.5; stroke-linecap: square"/>
   </g>
   <g id="line2d_38">
    <path d="M 269.062344 458.158281 
L 269.062344 25.158281 
" clip-path="url(#p9c50cbb779)" style="fill: none; stroke: #808080; stroke-opacity: 0.4; stroke-width: 0.5; stroke-linecap: square"/>
   </g>
   <g id="patch_3">
    <path d="M 48.662344 458.158281 
L 48.662344 25.158281 
" style="fill: none; stroke: #000000; stroke-linejoin: miter; stroke-linecap: square"/>
   </g>
   <g id="patch_4">
    <path d="M 48.662344 458.158281 
L 489.462344 458.158281 
" style="fill: none; stroke: #000000; stroke-linejoin: miter; stroke-linecap: square"/>
   </g>
   <g id="line2d_39">
    <path d="M 48.662344 458.158281 
L 489.462344 25.158281 
" clip-path="url(#p9c50cbb779)" style="fill: none; stroke-dasharray: 3.7,1.6; stroke-dashoffset: 0; stroke: #000000; stroke-opacity: 0.5"/>
   </g>
   <g id="patch_5">
    <path d="M 400.295464 113.746991 
Q 400.057132 113.874698 399.8188 114.002406 
" style="fill: none; stroke: #90a4ae; stroke-width: 0.5; stroke-linecap: round"/>
   </g>
   <g id="text_17">
    <!-- S2 -->
    <g style="fill: #37474f" transform="translate(404.056453 103.668158) scale(0.065 -0.065)">
     <use xlink:href="#DejaVuSerif-53"/>
     <use xlink:href="#DejaVuSerif-32" transform="translate(68.505859 0)"/>
    </g>
    <!-- Annual -->
    <g style="fill: #37474f" transform="translate(404.056453 110.946736) scale(0.065 -0.065)">
     <defs>
      <path id="DejaVuSerif-41" d="M 1281 1691 
L 2994 1691 
L 2138 3909 
L 1281 1691 
z
M -38 0 
L -38 331 
L 372 331 
L 2034 4666 
L 2559 4666 
L 4225 331 
L 4684 331 
L 4684 0 
L 2988 0 
L 2988 331 
L 3506 331 
L 3116 1356 
L 1153 1356 
L 763 331 
L 1275 331 
L 1275 0 
L -38 0 
z
" transform="scale(0.015625)"/>
      <path id="DejaVuSerif-75" d="M 2266 3322 
L 3341 3322 
L 3341 331 
L 3884 331 
L 3884 0 
L 2766 0 
L 2766 588 
Q 2606 256 2353 82 
Q 2100 -91 1766 -91 
Q 1213 -91 952 223 
Q 691 538 691 1209 
L 691 2988 
L 172 2988 
L 172 3322 
L 1269 3322 
L 1269 1388 
Q 1269 781 1417 556 
Q 1566 331 1947 331 
Q 2347 331 2556 625 
Q 2766 919 2766 1478 
L 2766 2988 
L 2266 2988 
L 2266 3322 
z
" transform="scale(0.015625)"/>
      <path id="DejaVuSerif-6c" d="M 1313 331 
L 1856 331 
L 1856 0 
L 184 0 
L 184 331 
L 738 331 
L 738 4531 
L 184 4531 
L 184 4863 
L 1313 4863 
L 1313 331 
z
" transform="scale(0.015625)"/>
     </defs>
     <use xlink:href="#DejaVuSerif-41"/>
     <use xlink:href="#DejaVuSerif-6e" transform="translate(72.216797 0)"/>
     <use xlink:href="#DejaVuSerif-6e" transform="translate(136.621094 0)"/>
     <use xlink:href="#DejaVuSerif-75" transform="translate(201.025391 0)"/>
     <use xlink:href="#DejaVuSerif-61" transform="translate(265.429688 0)"/>
     <use xlink:href="#DejaVuSerif-6c" transform="translate(325.048828 0)"/>
    </g>
   </g>
   <g id="patch_6">
    <path d="M 188.133272 284.894459 
Q 187.89494 285.022166 187.656608 285.149873 
" style="fill: none; stroke: #90a4ae; stroke-width: 0.5; stroke-linecap: round"/>
   </g>
   <g id="text_18">
    <!-- S3 -->
    <g style="fill: #37474f" transform="translate(191.894261 274.815625) scale(0.065 -0.065)">
     <use xlink:href="#DejaVuSerif-53"/>
     <use xlink:href="#DejaVuSerif-33" transform="translate(68.505859 0)"/>
    </g>
    <!-- Annual -->
    <g style="fill: #37474f" transform="translate(191.894261 282.094203) scale(0.065 -0.065)">
     <use xlink:href="#DejaVuSerif-41"/>
     <use xlink:href="#DejaVuSerif-6e" transform="translate(72.216797 0)"/>
     <use xlink:href="#DejaVuSerif-6e" transform="translate(136.621094 0)"/>
     <use xlink:href="#DejaVuSerif-75" transform="translate(201.025391 0)"/>
     <use xlink:href="#DejaVuSerif-61" transform="translate(265.429688 0)"/>
     <use xlink:href="#DejaVuSerif-6c" transform="translate(325.048828 0)"/>
    </g>
   </g>
   <g id="patch_7">
    <path d="M 257.722425 244.816653 
Q 257.484093 244.944361 257.245761 245.072068 
" style="fill: none; stroke: #90a4ae; stroke-width: 0.5; stroke-linecap: round"/>
   </g>
   <g id="text_19">
    <!-- S5 -->
    <g style="fill: #37474f" transform="translate(261.483414 234.73782) scale(0.065 -0.065)">
     <defs>
      <path id="DejaVuSerif-35" d="M 3219 4666 
L 3219 4153 
L 1081 4153 
L 1081 2816 
Q 1244 2928 1461 2984 
Q 1678 3041 1947 3041 
Q 2703 3041 3140 2622 
Q 3578 2203 3578 1478 
Q 3578 738 3136 323 
Q 2694 -91 1894 -91 
Q 1572 -91 1234 -12 
Q 897 66 544 225 
L 544 1131 
L 897 1131 
Q 925 688 1179 453 
Q 1434 219 1894 219 
Q 2388 219 2653 544 
Q 2919 869 2919 1478 
Q 2919 2084 2655 2407 
Q 2391 2731 1894 2731 
Q 1613 2731 1398 2631 
Q 1184 2531 1019 2322 
L 750 2322 
L 750 4666 
L 3219 4666 
z
" transform="scale(0.015625)"/>
     </defs>
     <use xlink:href="#DejaVuSerif-53"/>
     <use xlink:href="#DejaVuSerif-35" transform="translate(68.505859 0)"/>
    </g>
    <!-- Annual -->
    <g style="fill: #37474f" transform="translate(261.483414 242.016398) scale(0.065 -0.065)">
     <use xlink:href="#DejaVuSerif-41"/>
     <use xlink:href="#DejaVuSerif-6e" transform="translate(72.216797 0)"/>
     <use xlink:href="#DejaVuSerif-6e" transform="translate(136.621094 0)"/>
     <use xlink:href="#DejaVuSerif-75" transform="translate(201.025391 0)"/>
     <use xlink:href="#DejaVuSerif-61" transform="translate(265.429688 0)"/>
     <use xlink:href="#DejaVuSerif-6c" transform="translate(325.048828 0)"/>
    </g>
   </g>
   <g id="patch_8">
    <path d="M 205.106935 300.578056 
Q 204.868602 300.705763 204.63027 300.83347 
" style="fill: none; stroke: #90a4ae; stroke-width: 0.5; stroke-linecap: round"/>
   </g>
   <g id="text_20">
    <!-- S11 -->
    <g style="fill: #37474f" transform="translate(208.867923 290.499223) scale(0.065 -0.065)">
     <use xlink:href="#DejaVuSerif-53"/>
     <use xlink:href="#DejaVuSerif-31" transform="translate(68.505859 0)"/>
     <use xlink:href="#DejaVuSerif-31" transform="translate(132.128906 0)"/>
    </g>
    <!-- Annual -->
    <g style="fill: #37474f" transform="translate(208.867923 297.777801) scale(0.065 -0.065)">
     <use xlink:href="#DejaVuSerif-41"/>
     <use xlink:href="#DejaVuSerif-6e" transform="translate(72.216797 0)"/>
     <use xlink:href="#DejaVuSerif-6e" transform="translate(136.621094 0)"/>
     <use xlink:href="#DejaVuSerif-75" transform="translate(201.025391 0)"/>
     <use xlink:href="#DejaVuSerif-61" transform="translate(265.429688 0)"/>
     <use xlink:href="#DejaVuSerif-6c" transform="translate(325.048828 0)"/>
    </g>
   </g>
   <g id="patch_9">
    <path d="M 164.540599 296.444389 
Q 164.130002 296.759122 163.719404 297.073856 
" style="fill: none; stroke: #90a4ae; stroke-width: 0.5; stroke-linecap: round"/>
   </g>
   <g id="text_21">
    <!-- S3 -->
    <g style="fill: #37474f" transform="translate(168.131133 287.012729) scale(0.065 -0.065)">
     <use xlink:href="#DejaVuSerif-53"/>
     <use xlink:href="#DejaVuSerif-33" transform="translate(68.505859 0)"/>
    </g>
    <!-- Wet -->
    <g style="fill: #37474f" transform="translate(168.131133 294.291307) scale(0.065 -0.065)">
     <defs>
      <path id="DejaVuSerif-65" d="M 3469 1600 
L 991 1600 
L 991 1575 
Q 991 903 1244 561 
Q 1497 219 1991 219 
Q 2369 219 2611 417 
Q 2853 616 2950 1006 
L 3413 1006 
Q 3275 459 2904 184 
Q 2534 -91 1931 -91 
Q 1203 -91 761 389 
Q 319 869 319 1663 
Q 319 2450 753 2931 
Q 1188 3413 1894 3413 
Q 2647 3413 3050 2948 
Q 3453 2484 3469 1600 
z
M 2791 1931 
Q 2772 2513 2545 2808 
Q 2319 3103 1894 3103 
Q 1497 3103 1269 2806 
Q 1041 2509 991 1931 
L 2791 1931 
z
" transform="scale(0.015625)"/>
     </defs>
     <use xlink:href="#DejaVuSerif-57"/>
     <use xlink:href="#DejaVuSerif-65" transform="translate(94.658203 0)"/>
     <use xlink:href="#DejaVuSerif-74" transform="translate(153.837891 0)"/>
    </g>
   </g>
   <g id="patch_10">
    <path d="M 150.961669 294.701142 
Q 150.551072 295.015876 150.140474 295.330609 
" style="fill: none; stroke: #90a4ae; stroke-width: 0.5; stroke-linecap: round"/>
   </g>
   <g id="text_22">
    <!-- S5 -->
    <g style="fill: #37474f" transform="translate(154.552203 285.269482) scale(0.065 -0.065)">
     <use xlink:href="#DejaVuSerif-53"/>
     <use xlink:href="#DejaVuSerif-35" transform="translate(68.505859 0)"/>
    </g>
    <!-- Wet -->
    <g style="fill: #37474f" transform="translate(154.552203 292.54806) scale(0.065 -0.065)">
     <use xlink:href="#DejaVuSerif-57"/>
     <use xlink:href="#DejaVuSerif-65" transform="translate(94.658203 0)"/>
     <use xlink:href="#DejaVuSerif-74" transform="translate(153.837891 0)"/>
    </g>
   </g>
   <g id="patch_11">
    <path d="M 147.566937 306.903869 
Q 147.156339 307.218603 146.745742 307.533337 
" style="fill: none; stroke: #90a4ae; stroke-width: 0.5; stroke-linecap: round"/>
   </g>
   <g id="text_23">
    <!-- S6 -->
    <g style="fill: #37474f" transform="translate(151.157471 297.47221) scale(0.065 -0.065)">
     <defs>
      <path id="DejaVuSerif-36" d="M 2094 219 
Q 2534 219 2771 542 
Q 3009 866 3009 1472 
Q 3009 2078 2771 2401 
Q 2534 2725 2094 2725 
Q 1647 2725 1412 2412 
Q 1178 2100 1178 1509 
Q 1178 888 1415 553 
Q 1653 219 2094 219 
z
M 1075 2569 
Q 1288 2803 1556 2918 
Q 1825 3034 2163 3034 
Q 2859 3034 3264 2615 
Q 3669 2197 3669 1472 
Q 3669 763 3233 336 
Q 2797 -91 2069 -91 
Q 1278 -91 853 498 
Q 428 1088 428 2181 
Q 428 3406 931 4078 
Q 1434 4750 2350 4750 
Q 2597 4750 2869 4703 
Q 3141 4656 3425 4563 
L 3425 3794 
L 3072 3794 
Q 3034 4109 2831 4275 
Q 2628 4441 2284 4441 
Q 1678 4441 1381 3981 
Q 1084 3522 1075 2569 
z
" transform="scale(0.015625)"/>
     </defs>
     <use xlink:href="#DejaVuSerif-53"/>
     <use xlink:href="#DejaVuSerif-36" transform="translate(68.505859 0)"/>
    </g>
    <!-- Wet -->
    <g style="fill: #37474f" transform="translate(151.157471 304.750788) scale(0.065 -0.065)">
     <use xlink:href="#DejaVuSerif-57"/>
     <use xlink:href="#DejaVuSerif-65" transform="translate(94.658203 0)"/>
     <use xlink:href="#DejaVuSerif-74" transform="translate(153.837891 0)"/>
    </g>
   </g>
   <g id="patch_12">
    <path d="M 251.103441 244.177805 
Q 250.692839 244.49112 250.282237 244.804435 
" style="fill: none; stroke: #90a4ae; stroke-width: 0.5; stroke-linecap: round"/>
   </g>
   <g id="text_24">
    <!-- S11 -->
    <g style="fill: #37474f" transform="translate(254.693949 234.73782) scale(0.065 -0.065)">
     <use xlink:href="#DejaVuSerif-53"/>
     <use xlink:href="#DejaVuSerif-31" transform="translate(68.505859 0)"/>
     <use xlink:href="#DejaVuSerif-31" transform="translate(132.128906 0)"/>
    </g>
    <!-- Wet -->
    <g style="fill: #37474f" transform="translate(254.693949 242.016398) scale(0.065 -0.065)">
     <use xlink:href="#DejaVuSerif-57"/>
     <use xlink:href="#DejaVuSerif-65" transform="translate(94.658203 0)"/>
     <use xlink:href="#DejaVuSerif-74" transform="translate(153.837891 0)"/>
    </g>
   </g>
   <g id="patch_13">
    <path d="M 430.26044 114.826685 
Q 429.83549 115.159222 429.41054 115.49176 
" style="fill: none; stroke: #90a4ae; stroke-width: 0.5; stroke-linecap: round"/>
   </g>
   <g id="text_25">
    <!-- S2 -->
    <g style="fill: #37474f" transform="translate(433.836214 105.445145) scale(0.065 -0.065)">
     <use xlink:href="#DejaVuSerif-53"/>
     <use xlink:href="#DejaVuSerif-32" transform="translate(68.505859 0)"/>
    </g>
    <!-- Dry -->
    <g style="fill: #37474f" transform="translate(433.836214 112.723723) scale(0.065 -0.065)">
     <defs>
      <path id="DejaVuSerif-44" d="M 1581 331 
L 2163 331 
Q 3072 331 3558 850 
Q 4044 1369 4044 2338 
Q 4044 3306 3559 3818 
Q 3075 4331 2163 4331 
L 1581 4331 
L 1581 331 
z
M 353 0 
L 353 331 
L 947 331 
L 947 4331 
L 353 4331 
L 353 4666 
L 2209 4666 
Q 3416 4666 4089 4050 
Q 4763 3434 4763 2338 
Q 4763 1238 4088 619 
Q 3413 0 2209 0 
L 353 0 
z
" transform="scale(0.015625)"/>
      <path id="DejaVuSerif-79" d="M 1381 -609 
L 1600 -56 
L 359 2988 
L -19 2988 
L -19 3322 
L 1509 3322 
L 1509 2988 
L 978 2988 
L 1913 703 
L 2847 2988 
L 2350 2988 
L 2350 3322 
L 3597 3322 
L 3597 2988 
L 3225 2988 
L 1703 -750 
Q 1547 -1138 1356 -1280 
Q 1166 -1422 819 -1422 
Q 672 -1422 517 -1397 
Q 363 -1372 206 -1325 
L 206 -691 
L 500 -691 
Q 519 -903 608 -995 
Q 697 -1088 884 -1088 
Q 1056 -1088 1161 -992 
Q 1266 -897 1381 -609 
z
" transform="scale(0.015625)"/>
     </defs>
     <use xlink:href="#DejaVuSerif-44"/>
     <use xlink:href="#DejaVuSerif-72" transform="translate(80.175781 0)"/>
     <use xlink:href="#DejaVuSerif-79" transform="translate(127.978516 0)"/>
    </g>
   </g>
   <g id="patch_14">
    <path d="M 394.778902 156.777075 
Q 394.353952 157.109612 393.929003 157.442149 
" style="fill: none; stroke: #90a4ae; stroke-width: 0.5; stroke-linecap: round"/>
   </g>
   <g id="text_26">
    <!-- S4 -->
    <g style="fill: #37474f" transform="translate(398.354676 147.395534) scale(0.065 -0.065)">
     <defs>
      <path id="DejaVuSerif-34" d="M 2234 1581 
L 2234 4063 
L 641 1581 
L 2234 1581 
z
M 3609 0 
L 1484 0 
L 1484 331 
L 2234 331 
L 2234 1247 
L 197 1247 
L 197 1588 
L 2241 4750 
L 2859 4750 
L 2859 1581 
L 3750 1581 
L 3750 1247 
L 2859 1247 
L 2859 331 
L 3609 331 
L 3609 0 
z
" transform="scale(0.015625)"/>
     </defs>
     <use xlink:href="#DejaVuSerif-53"/>
     <use xlink:href="#DejaVuSerif-34" transform="translate(68.505859 0)"/>
    </g>
    <!-- Dry -->
    <g style="fill: #37474f" transform="translate(398.354676 154.674112) scale(0.065 -0.065)">
     <use xlink:href="#DejaVuSerif-44"/>
     <use xlink:href="#DejaVuSerif-72" transform="translate(80.175781 0)"/>
     <use xlink:href="#DejaVuSerif-79" transform="translate(127.978516 0)"/>
    </g>
   </g>
   <g id="patch_15">
    <path d="M 448.001209 114.826685 
Q 447.576259 115.159222 447.151309 115.49176 
" style="fill: none; stroke: #90a4ae; stroke-width: 0.5; stroke-linecap: round"/>
   </g>
   <g id="text_27">
    <!-- S6 -->
    <g style="fill: #37474f" transform="translate(451.576983 105.445145) scale(0.065 -0.065)">
     <use xlink:href="#DejaVuSerif-53"/>
     <use xlink:href="#DejaVuSerif-36" transform="translate(68.505859 0)"/>
    </g>
    <!-- Dry -->
    <g style="fill: #37474f" transform="translate(451.576983 112.723723) scale(0.065 -0.065)">
     <use xlink:href="#DejaVuSerif-44"/>
     <use xlink:href="#DejaVuSerif-72" transform="translate(80.175781 0)"/>
     <use xlink:href="#DejaVuSerif-79" transform="translate(127.978516 0)"/>
    </g>
   </g>
   <g id="text_28">
    <!-- Figure 3: Standard MK vs PW-MK — Z-statistic -->
    <g transform="translate(124.313516 19.158281) scale(0.11 -0.11)">
     <defs>
      <path id="DejaVuSerif-Bold-46" d="M 300 0 
L 300 378 
L 897 378 
L 897 4288 
L 300 4288 
L 300 4666 
L 4459 4666 
L 4459 3566 
L 4031 3566 
L 4031 4238 
L 2106 4238 
L 2106 2741 
L 3291 2741 
L 3291 3334 
L 3719 3334 
L 3719 1722 
L 3291 1722 
L 3291 2316 
L 2106 2316 
L 2106 378 
L 2841 378 
L 2841 0 
L 300 0 
z
" transform="scale(0.015625)"/>
      <path id="DejaVuSerif-Bold-69" d="M 588 4263 
Q 588 4516 763 4689 
Q 938 4863 1191 4863 
Q 1438 4863 1611 4689 
Q 1784 4516 1784 4263 
Q 1784 4016 1611 3842 
Q 1438 3669 1191 3669 
Q 938 3669 763 3841 
Q 588 4013 588 4263 
z
M 1797 378 
L 2272 378 
L 2272 0 
L 219 0 
L 219 378 
L 691 378 
L 691 2944 
L 219 2944 
L 219 3322 
L 1797 3322 
L 1797 378 
z
" transform="scale(0.015625)"/>
      <path id="DejaVuSerif-Bold-67" d="M 3853 2944 
L 3853 44 
Q 3853 -656 3354 -1039 
Q 2856 -1422 1947 -1422 
Q 1616 -1422 1275 -1370 
Q 934 -1319 575 -1216 
L 575 -422 
L 928 -422 
Q 975 -750 1192 -909 
Q 1409 -1069 1813 -1069 
Q 2325 -1069 2536 -823 
Q 2747 -578 2747 44 
L 2747 422 
Q 2606 163 2367 36 
Q 2128 -91 1778 -91 
Q 1072 -91 667 378 
Q 263 847 263 1663 
Q 263 2481 667 2947 
Q 1072 3413 1778 3413 
Q 2128 3413 2367 3286 
Q 2606 3159 2747 2900 
L 2747 3322 
L 4325 3322 
L 4325 2944 
L 3853 2944 
z
M 2747 1825 
Q 2747 2406 2597 2665 
Q 2447 2925 2119 2925 
Q 1775 2925 1636 2651 
Q 1497 2378 1497 1663 
Q 1497 947 1637 672 
Q 1778 397 2119 397 
Q 2447 397 2597 656 
Q 2747 916 2747 1497 
L 2747 1825 
z
" transform="scale(0.015625)"/>
      <path id="DejaVuSerif-Bold-75" d="M 3963 3322 
L 3963 378 
L 4434 378 
L 4434 0 
L 2853 0 
L 2853 469 
Q 2656 172 2400 40 
Q 2144 -91 1753 -91 
Q 1194 -91 908 239 
Q 622 569 622 1209 
L 622 2944 
L 147 2944 
L 147 3322 
L 1728 3322 
L 1728 1381 
Q 1728 763 1831 595 
Q 1934 428 2209 428 
Q 2544 428 2698 675 
Q 2853 922 2853 1459 
L 2853 2944 
L 2450 2944 
L 2450 3322 
L 3963 3322 
z
" transform="scale(0.015625)"/>
      <path id="DejaVuSerif-Bold-72" d="M 3438 3359 
L 3438 2369 
L 3084 2369 
Q 3066 2634 2941 2764 
Q 2816 2894 2578 2894 
Q 2216 2894 2006 2575 
Q 1797 2256 1797 1691 
L 1797 378 
L 2400 378 
L 2400 0 
L 219 0 
L 219 378 
L 691 378 
L 691 2944 
L 184 2944 
L 184 3322 
L 1797 3322 
L 1797 2731 
Q 1959 3078 2226 3245 
Q 2494 3413 2881 3413 
Q 2978 3413 3117 3398 
Q 3256 3384 3438 3359 
z
" transform="scale(0.015625)"/>
      <path id="DejaVuSerif-Bold-65" d="M 2566 1875 
Q 2566 2531 2444 2795 
Q 2322 3059 2028 3059 
Q 1744 3059 1620 2800 
Q 1497 2541 1497 1931 
L 1497 1875 
L 2566 1875 
z
M 3781 1503 
L 1497 1503 
L 1497 1478 
Q 1497 834 1690 548 
Q 1884 263 2316 263 
Q 2675 263 2897 453 
Q 3119 644 3181 1006 
L 3700 1006 
Q 3566 441 3166 175 
Q 2766 -91 2047 -91 
Q 1184 -91 723 364 
Q 263 819 263 1663 
Q 263 2488 734 2950 
Q 1206 3413 2047 3413 
Q 2872 3413 3312 2927 
Q 3753 2441 3781 1503 
z
" transform="scale(0.015625)"/>
      <path id="DejaVuSerif-Bold-20" transform="scale(0.015625)"/>
      <path id="DejaVuSerif-Bold-33" d="M 550 4531 
Q 963 4641 1350 4695 
Q 1738 4750 2106 4750 
Q 2950 4750 3401 4448 
Q 3853 4147 3853 3584 
Q 3853 3163 3593 2900 
Q 3334 2638 2834 2547 
Q 3444 2450 3744 2131 
Q 4044 1813 4044 1259 
Q 4044 606 3526 257 
Q 3009 -91 2028 -91 
Q 1659 -91 1267 -28 
Q 875 34 447 159 
L 447 1184 
L 825 1184 
Q 859 741 1103 508 
Q 1347 275 1778 275 
Q 2253 275 2512 539 
Q 2772 803 2772 1288 
Q 2772 1794 2501 2069 
Q 2231 2344 1734 2344 
L 1528 2344 
L 1528 2719 
L 1691 2719 
Q 2150 2719 2381 2931 
Q 2613 3144 2613 3566 
Q 2613 3963 2395 4173 
Q 2178 4384 1772 4384 
Q 1403 4384 1187 4182 
Q 972 3981 928 3597 
L 550 3597 
L 550 4531 
z
" transform="scale(0.015625)"/>
      <path id="DejaVuSerif-Bold-3a" d="M 588 2541 
Q 588 2788 761 2963 
Q 934 3138 1178 3138 
Q 1422 3138 1597 2961 
Q 1772 2784 1772 2541 
Q 1772 2297 1598 2125 
Q 1425 1953 1178 1953 
Q 931 1953 759 2125 
Q 588 2297 588 2541 
z
M 588 506 
Q 588 750 761 925 
Q 934 1100 1178 1100 
Q 1422 1100 1597 925 
Q 1772 750 1772 506 
Q 1772 259 1597 84 
Q 1422 -91 1178 -91 
Q 934 -91 761 84 
Q 588 259 588 506 
z
" transform="scale(0.015625)"/>
      <path id="DejaVuSerif-Bold-53" d="M 494 225 
L 494 1331 
L 891 1331 
Q 981 806 1318 547 
Q 1656 288 2253 288 
Q 2738 288 2991 472 
Q 3244 656 3244 1013 
Q 3244 1294 3072 1450 
Q 2900 1606 2363 1741 
L 1663 1913 
Q 978 2088 700 2398 
Q 422 2709 422 3284 
Q 422 3978 883 4364 
Q 1344 4750 2175 4750 
Q 2584 4750 3026 4681 
Q 3469 4613 3944 4475 
L 3944 3444 
L 3547 3444 
Q 3456 3925 3150 4148 
Q 2844 4372 2278 4372 
Q 1816 4372 1580 4211 
Q 1344 4050 1344 3731 
Q 1344 3441 1506 3289 
Q 1669 3138 2303 2975 
L 3003 2803 
Q 3653 2641 3945 2297 
Q 4238 1953 4238 1350 
Q 4238 644 3750 276 
Q 3263 -91 2316 -91 
Q 1859 -91 1409 -12 
Q 959 66 494 225 
z
" transform="scale(0.015625)"/>
      <path id="DejaVuSerif-Bold-74" d="M 634 2944 
L 153 2944 
L 153 3322 
L 634 3322 
L 634 4353 
L 1741 4353 
L 1741 3322 
L 2663 3322 
L 2663 2944 
L 1741 2944 
L 1741 909 
Q 1741 475 1809 369 
Q 1878 263 2059 263 
Q 2259 263 2356 397 
Q 2453 531 2459 813 
L 2925 813 
Q 2897 313 2651 111 
Q 2406 -91 1806 -91 
Q 1122 -91 878 123 
Q 634 338 634 909 
L 634 2944 
z
" transform="scale(0.015625)"/>
      <path id="DejaVuSerif-Bold-61" d="M 3525 2041 
L 3525 378 
L 4000 378 
L 4000 0 
L 2419 0 
L 2419 422 
Q 2200 159 1931 34 
Q 1663 -91 1319 -91 
Q 809 -91 536 182 
Q 263 456 263 966 
Q 263 1525 655 1803 
Q 1047 2081 1838 2081 
L 2419 2081 
L 2419 2278 
Q 2419 2681 2228 2873 
Q 2038 3066 1638 3066 
Q 1306 3066 1126 2930 
Q 947 2794 872 2484 
L 519 2484 
L 519 3200 
Q 816 3306 1134 3359 
Q 1453 3413 1806 3413 
Q 2697 3413 3111 3081 
Q 3525 2750 3525 2041 
z
M 2419 1044 
L 2419 1709 
L 2003 1709 
Q 1694 1709 1528 1540 
Q 1363 1372 1363 1056 
Q 1363 741 1483 584 
Q 1603 428 1850 428 
Q 2106 428 2262 597 
Q 2419 766 2419 1044 
z
" transform="scale(0.015625)"/>
      <path id="DejaVuSerif-Bold-6e" d="M 219 0 
L 219 378 
L 691 378 
L 691 2944 
L 219 2944 
L 219 3322 
L 1797 3322 
L 1797 2853 
Q 1997 3150 2253 3281 
Q 2509 3413 2900 3413 
Q 3459 3413 3745 3083 
Q 4031 2753 4031 2113 
L 4031 378 
L 4506 378 
L 4506 0 
L 2522 0 
L 2522 378 
L 2925 378 
L 2925 2144 
Q 2925 2566 2817 2730 
Q 2709 2894 2444 2894 
Q 2109 2894 1953 2648 
Q 1797 2403 1797 1869 
L 1797 378 
L 2203 378 
L 2203 0 
L 219 0 
z
" transform="scale(0.015625)"/>
      <path id="DejaVuSerif-Bold-64" d="M 2747 1497 
L 2747 1825 
Q 2747 2406 2597 2665 
Q 2447 2925 2119 2925 
Q 1775 2925 1636 2651 
Q 1497 2378 1497 1663 
Q 1497 947 1637 672 
Q 1778 397 2119 397 
Q 2447 397 2597 656 
Q 2747 916 2747 1497 
z
M 3853 378 
L 4325 378 
L 4325 0 
L 2747 0 
L 2747 422 
Q 2606 163 2367 36 
Q 2128 -91 1778 -91 
Q 1072 -91 667 378 
Q 263 847 263 1663 
Q 263 2481 667 2947 
Q 1072 3413 1778 3413 
Q 2128 3413 2367 3286 
Q 2606 3159 2747 2900 
L 2747 4488 
L 2272 4488 
L 2272 4863 
L 3853 4863 
L 3853 378 
z
" transform="scale(0.015625)"/>
      <path id="DejaVuSerif-Bold-4d" d="M 269 0 
L 269 378 
L 863 378 
L 863 4288 
L 269 4288 
L 269 4666 
L 2194 4666 
L 3525 1672 
L 4863 4666 
L 6784 4666 
L 6784 4288 
L 6188 4288 
L 6188 378 
L 6784 378 
L 6784 0 
L 4384 0 
L 4384 378 
L 4978 378 
L 4978 3938 
L 3531 684 
L 2741 684 
L 1300 3938 
L 1300 378 
L 1894 378 
L 1894 0 
L 269 0 
z
" transform="scale(0.015625)"/>
      <path id="DejaVuSerif-Bold-4b" d="M 300 0 
L 300 378 
L 897 378 
L 897 4288 
L 300 4288 
L 300 4666 
L 2700 4666 
L 2700 4288 
L 2100 4288 
L 2100 2584 
L 4078 4288 
L 3578 4288 
L 3578 4666 
L 5319 4666 
L 5319 4288 
L 4697 4288 
L 3022 2847 
L 5300 378 
L 5759 378 
L 5759 0 
L 4178 0 
L 2100 2266 
L 2100 378 
L 2700 378 
L 2700 0 
L 300 0 
z
" transform="scale(0.015625)"/>
      <path id="DejaVuSerif-Bold-76" d="M 1428 0 
L 250 2944 
L -116 2944 
L -116 3322 
L 1791 3322 
L 1791 2944 
L 1388 2944 
L 2228 844 
L 3066 2944 
L 2631 2944 
L 2631 3322 
L 3878 3322 
L 3878 2944 
L 3494 2944 
L 2316 0 
L 1428 0 
z
" transform="scale(0.015625)"/>
      <path id="DejaVuSerif-Bold-73" d="M 300 97 
L 300 1025 
L 653 1025 
Q 697 653 931 458 
Q 1166 263 1569 263 
Q 1906 263 2086 380 
Q 2266 497 2266 716 
Q 2266 916 2152 1025 
Q 2038 1134 1709 1216 
L 1253 1331 
Q 738 1459 506 1698 
Q 275 1938 275 2344 
Q 275 2884 650 3148 
Q 1025 3413 1806 3413 
Q 2100 3413 2433 3364 
Q 2766 3316 3169 3213 
L 3169 2375 
L 2816 2375 
Q 2788 2716 2573 2887 
Q 2359 3059 1959 3059 
Q 1622 3059 1448 2951 
Q 1275 2844 1275 2638 
Q 1275 2469 1375 2372 
Q 1475 2275 1734 2209 
L 2188 2094 
Q 2841 1928 3091 1684 
Q 3341 1441 3341 1006 
Q 3341 444 2939 176 
Q 2538 -91 1691 -91 
Q 1381 -91 1034 -44 
Q 688 3 300 97 
z
" transform="scale(0.015625)"/>
      <path id="DejaVuSerif-Bold-50" d="M 300 0 
L 300 378 
L 897 378 
L 897 4288 
L 300 4288 
L 300 4666 
L 2956 4666 
Q 3734 4666 4193 4295 
Q 4653 3925 4653 3303 
Q 4653 2678 4192 2304 
Q 3731 1931 2956 1931 
L 2100 1931 
L 2100 378 
L 2853 378 
L 2853 0 
L 300 0 
z
M 2100 2309 
L 2450 2309 
Q 2856 2309 3098 2579 
Q 3341 2850 3341 3303 
Q 3341 3753 3100 4020 
Q 2859 4288 2450 4288 
L 2100 4288 
L 2100 2309 
z
" transform="scale(0.015625)"/>
      <path id="DejaVuSerif-Bold-57" d="M 5453 0 
L 4647 0 
L 3591 3397 
L 2534 0 
L 1728 0 
L 397 4288 
L -56 4288 
L -56 4666 
L 2156 4666 
L 2156 4288 
L 1656 4288 
L 2547 1422 
L 3553 4666 
L 4441 4666 
L 5466 1369 
L 6375 4288 
L 5819 4288 
L 5819 4666 
L 7263 4666 
L 7263 4288 
L 6784 4288 
L 5453 0 
z
" transform="scale(0.015625)"/>
      <path id="DejaVuSerif-Bold-2d" d="M 347 2138 
L 2309 2138 
L 2309 1294 
L 347 1294 
L 347 2138 
z
" transform="scale(0.015625)"/>
      <path id="DejaVuSerif-Bold-2014" d="M 344 2075 
L 6056 2075 
L 6056 1325 
L 344 1325 
L 344 2075 
z
" transform="scale(0.015625)"/>
      <path id="DejaVuSerif-Bold-5a" d="M 238 0 
L 238 441 
L 3022 4238 
L 788 4238 
L 788 3541 
L 359 3541 
L 359 4666 
L 4409 4666 
L 4409 4225 
L 1656 428 
L 4013 428 
L 4013 1081 
L 4441 1081 
L 4441 0 
L 238 0 
z
" transform="scale(0.015625)"/>
      <path id="DejaVuSerif-Bold-63" d="M 3609 1038 
Q 3491 469 3123 189 
Q 2756 -91 2125 -91 
Q 1238 -91 750 368 
Q 263 828 263 1663 
Q 263 2488 744 2950 
Q 1225 3413 2081 3413 
Q 2428 3413 2781 3347 
Q 3134 3281 3500 3150 
L 3500 2228 
L 3150 2228 
Q 3100 2650 2903 2854 
Q 2706 3059 2350 3059 
Q 1888 3059 1692 2746 
Q 1497 2434 1497 1663 
Q 1497 909 1687 586 
Q 1878 263 2309 263 
Q 2644 263 2845 463 
Q 3047 663 3091 1038 
L 3609 1038 
z
" transform="scale(0.015625)"/>
     </defs>
     <use xlink:href="#DejaVuSerif-Bold-46"/>
     <use xlink:href="#DejaVuSerif-Bold-69" transform="translate(70.996094 0)"/>
     <use xlink:href="#DejaVuSerif-Bold-67" transform="translate(108.984375 0)"/>
     <use xlink:href="#DejaVuSerif-Bold-75" transform="translate(178.90625 0)"/>
     <use xlink:href="#DejaVuSerif-Bold-72" transform="translate(251.611328 0)"/>
     <use xlink:href="#DejaVuSerif-Bold-65" transform="translate(304.296875 0)"/>
     <use xlink:href="#DejaVuSerif-Bold-20" transform="translate(367.919922 0)"/>
     <use xlink:href="#DejaVuSerif-Bold-33" transform="translate(402.734375 0)"/>
     <use xlink:href="#DejaVuSerif-Bold-3a" transform="translate(472.314453 0)"/>
     <use xlink:href="#DejaVuSerif-Bold-20" transform="translate(509.228516 0)"/>
     <use xlink:href="#DejaVuSerif-Bold-53" transform="translate(544.042969 0)"/>
     <use xlink:href="#DejaVuSerif-Bold-74" transform="translate(616.259766 0)"/>
     <use xlink:href="#DejaVuSerif-Bold-61" transform="translate(662.451172 0)"/>
     <use xlink:href="#DejaVuSerif-Bold-6e" transform="translate(727.246094 0)"/>
     <use xlink:href="#DejaVuSerif-Bold-64" transform="translate(799.951172 0)"/>
     <use xlink:href="#DejaVuSerif-Bold-61" transform="translate(869.873047 0)"/>
     <use xlink:href="#DejaVuSerif-Bold-72" transform="translate(934.667969 0)"/>
     <use xlink:href="#DejaVuSerif-Bold-64" transform="translate(987.353516 0)"/>
     <use xlink:href="#DejaVuSerif-Bold-20" transform="translate(1057.275391 0)"/>
     <use xlink:href="#DejaVuSerif-Bold-4d" transform="translate(1092.089844 0)"/>
     <use xlink:href="#DejaVuSerif-Bold-4b" transform="translate(1202.783203 0)"/>
     <use xlink:href="#DejaVuSerif-Bold-20" transform="translate(1289.697266 0)"/>
     <use xlink:href="#DejaVuSerif-Bold-76" transform="translate(1324.511719 0)"/>
     <use xlink:href="#DejaVuSerif-Bold-73" transform="translate(1382.617188 0)"/>
     <use xlink:href="#DejaVuSerif-Bold-20" transform="translate(1438.916016 0)"/>
     <use xlink:href="#DejaVuSerif-Bold-50" transform="translate(1473.730469 0)"/>
     <use xlink:href="#DejaVuSerif-Bold-57" transform="translate(1548.925781 0)"/>
     <use xlink:href="#DejaVuSerif-Bold-2d" transform="translate(1655.730469 0)"/>
     <use xlink:href="#DejaVuSerif-Bold-4d" transform="translate(1697.234375 0)"/>
     <use xlink:href="#DejaVuSerif-Bold-4b" transform="translate(1807.927734 0)"/>
     <use xlink:href="#DejaVuSerif-Bold-20" transform="translate(1894.841797 0)"/>
     <use xlink:href="#DejaVuSerif-Bold-2014" transform="translate(1929.65625 0)"/>
     <use xlink:href="#DejaVuSerif-Bold-20" transform="translate(2029.65625 0)"/>
     <use xlink:href="#DejaVuSerif-Bold-5a" transform="translate(2064.470703 0)"/>
     <use xlink:href="#DejaVuSerif-Bold-2d" transform="translate(2137.46875 0)"/>
     <use xlink:href="#DejaVuSerif-Bold-73" transform="translate(2178.972656 0)"/>
     <use xlink:href="#DejaVuSerif-Bold-74" transform="translate(2235.271484 0)"/>
     <use xlink:href="#DejaVuSerif-Bold-61" transform="translate(2281.462891 0)"/>
     <use xlink:href="#DejaVuSerif-Bold-74" transform="translate(2346.257812 0)"/>
     <use xlink:href="#DejaVuSerif-Bold-69" transform="translate(2392.449219 0)"/>
     <use xlink:href="#DejaVuSerif-Bold-73" transform="translate(2430.4375 0)"/>
     <use xlink:href="#DejaVuSerif-Bold-74" transform="translate(2486.736328 0)"/>
     <use xlink:href="#DejaVuSerif-Bold-69" transform="translate(2532.927734 0)"/>
     <use xlink:href="#DejaVuSerif-Bold-63" transform="translate(2570.916016 0)"/>
    </g>
   </g>
   <g id="PathCollection_1">
    <defs>
     <path id="m2d5166c140" d="M 0 4.1833 
C 1.109424 4.1833 2.173559 3.742521 2.95804 2.95804 
C 3.742521 2.173559 4.1833 1.109424 4.1833 0 
C 4.1833 -1.109424 3.742521 -2.173559 2.95804 -2.95804 
C 2.173559 -3.742521 1.109424 -4.1833 0 -4.1833 
C -1.109424 -4.1833 -2.173559 -3.742521 -2.95804 -2.95804 
C -3.742521 -2.173559 -4.1833 -1.109424 -4.1833 0 
C -4.1833 1.109424 -3.742521 2.173559 -2.95804 2.95804 
C -2.173559 3.742521 -1.109424 4.1833 0 4.1833 
z
" style="stroke: #ffffff; stroke-width: 0.4"/>
    </defs>
    <g clip-path="url(#p9c50cbb779)">
     <use xlink:href="#m2d5166c140" x="398.056453" y="114.946736" style="fill: #1b5e20; stroke: #ffffff; stroke-width: 0.4"/>
    </g>
   </g>
   <g id="PathCollection_2">
    <defs>
     <path id="mdf3fced6e2" d="M 0 4.1833 
C 1.109424 4.1833 2.173559 3.742521 2.95804 2.95804 
C 3.742521 2.173559 4.1833 1.109424 4.1833 0 
C 4.1833 -1.109424 3.742521 -2.173559 2.95804 -2.95804 
C 2.173559 -3.742521 1.109424 -4.1833 0 -4.1833 
C -1.109424 -4.1833 -2.173559 -3.742521 -2.95804 -2.95804 
C -3.742521 -2.173559 -4.1833 -1.109424 -4.1833 0 
C -4.1833 1.109424 -3.742521 2.173559 -2.95804 2.95804 
C -2.173559 3.742521 -1.109424 4.1833 0 4.1833 
z
" style="stroke: #ffffff; stroke-width: 0.4"/>
    </defs>
    <g clip-path="url(#p9c50cbb779)">
     <use xlink:href="#mdf3fced6e2" x="334.415237" y="177.461814" style="fill: #90a4ae; stroke: #ffffff; stroke-width: 0.4"/>
     <use xlink:href="#mdf3fced6e2" x="299.614936" y="211.64632" style="fill: #90a4ae; stroke: #ffffff; stroke-width: 0.4"/>
     <use xlink:href="#mdf3fced6e2" x="299.614936" y="211.64632" style="fill: #90a4ae; stroke: #ffffff; stroke-width: 0.4"/>
     <use xlink:href="#mdf3fced6e2" x="221.536089" y="288.343554" style="fill: #90a4ae; stroke: #ffffff; stroke-width: 0.4"/>
     <use xlink:href="#mdf3fced6e2" x="253.78891" y="256.66145" style="fill: #90a4ae; stroke: #ffffff; stroke-width: 0.4"/>
     <use xlink:href="#mdf3fced6e2" x="295.372952" y="215.813242" style="fill: #90a4ae; stroke: #ffffff; stroke-width: 0.4"/>
     <use xlink:href="#mdf3fced6e2" x="304.704172" y="206.647138" style="fill: #90a4ae; stroke: #ffffff; stroke-width: 0.4"/>
     <use xlink:href="#mdf3fced6e2" x="252.088681" y="258.331593" style="fill: #90a4ae; stroke: #ffffff; stroke-width: 0.4"/>
    </g>
   </g>
   <g id="PathCollection_3">
    <defs>
     <path id="m1b792c10f9" d="M 0 4.1833 
C 1.109424 4.1833 2.173559 3.742521 2.95804 2.95804 
C 3.742521 2.173559 4.1833 1.109424 4.1833 0 
C 4.1833 -1.109424 3.742521 -2.173559 2.95804 -2.95804 
C 2.173559 -3.742521 1.109424 -4.1833 0 -4.1833 
C -1.109424 -4.1833 -2.173559 -3.742521 -2.95804 -2.95804 
C -3.742521 -2.173559 -4.1833 -1.109424 -4.1833 0 
C -4.1833 1.109424 -3.742521 2.173559 -2.95804 2.95804 
C -2.173559 3.742521 -1.109424 4.1833 0 4.1833 
z
" style="stroke: #ffffff; stroke-width: 0.4"/>
    </defs>
    <g clip-path="url(#p9c50cbb779)">
     <use xlink:href="#m1b792c10f9" x="185.894261" y="286.094203" style="fill: #546e7a; stroke: #ffffff; stroke-width: 0.4"/>
     <use xlink:href="#m1b792c10f9" x="255.483414" y="246.016398" style="fill: #546e7a; stroke: #ffffff; stroke-width: 0.4"/>
     <use xlink:href="#m1b792c10f9" x="202.867923" y="301.777801" style="fill: #546e7a; stroke: #ffffff; stroke-width: 0.4"/>
    </g>
   </g>
   <g id="PathCollection_4">
    <defs>
     <path id="mb7278501d7" d="M 0 -4.1833 
L -4.1833 4.1833 
L 4.1833 4.1833 
z
" style="stroke: #ffffff; stroke-width: 0.4"/>
    </defs>
    <g clip-path="url(#p9c50cbb779)">
     <use xlink:href="#mb7278501d7" x="297.914707" y="213.316463" style="fill: #90a4ae; stroke: #ffffff; stroke-width: 0.4"/>
     <use xlink:href="#mb7278501d7" x="286.036006" y="224.98497" style="fill: #90a4ae; stroke: #ffffff; stroke-width: 0.4"/>
     <use xlink:href="#mb7278501d7" x="216.446853" y="293.342736" style="fill: #90a4ae; stroke: #ffffff; stroke-width: 0.4"/>
     <use xlink:href="#mb7278501d7" x="175.710063" y="333.358684" style="fill: #90a4ae; stroke: #ffffff; stroke-width: 0.4"/>
     <use xlink:href="#mb7278501d7" x="257.183642" y="253.326788" style="fill: #90a4ae; stroke: #ffffff; stroke-width: 0.4"/>
     <use xlink:href="#mb7278501d7" x="255.483414" y="254.996931" style="fill: #90a4ae; stroke: #ffffff; stroke-width: 0.4"/>
     <use xlink:href="#mb7278501d7" x="319.983331" y="191.638346" style="fill: #90a4ae; stroke: #ffffff; stroke-width: 0.4"/>
     <use xlink:href="#mb7278501d7" x="280.941045" y="229.989775" style="fill: #90a4ae; stroke: #ffffff; stroke-width: 0.4"/>
    </g>
   </g>
   <g id="PathCollection_5">
    <defs>
     <path id="m7924566147" d="M 0 -4.1833 
L -4.1833 4.1833 
L 4.1833 4.1833 
z
" style="stroke: #ffffff; stroke-width: 0.4"/>
    </defs>
    <g clip-path="url(#p9c50cbb779)">
     <use xlink:href="#m7924566147" x="148.552203" y="296.54806" style="fill: #7b1fa2; stroke: #ffffff; stroke-width: 0.4"/>
     <use xlink:href="#m7924566147" x="145.157471" y="308.750788" style="fill: #7b1fa2; stroke: #ffffff; stroke-width: 0.4"/>
    </g>
   </g>
   <g id="PathCollection_6">
    <defs>
     <path id="mab5e490d1c" d="M 0 -4.1833 
L -4.1833 4.1833 
L 4.1833 4.1833 
z
" style="stroke: #ffffff; stroke-width: 0.4"/>
    </defs>
    <g clip-path="url(#p9c50cbb779)">
     <use xlink:href="#mab5e490d1c" x="162.131133" y="298.291307" style="fill: #546e7a; stroke: #ffffff; stroke-width: 0.4"/>
     <use xlink:href="#mab5e490d1c" x="248.693949" y="246.016398" style="fill: #546e7a; stroke: #ffffff; stroke-width: 0.4"/>
    </g>
   </g>
   <g id="PathCollection_7">
    <defs>
     <path id="medbf4b0836" d="M -0 5.91608 
L 5.91608 0 
L 0 -5.91608 
L -5.91608 -0 
z
" style="stroke: #ffffff; stroke-width: 0.4"/>
    </defs>
    <g clip-path="url(#p9c50cbb779)">
     <use xlink:href="#medbf4b0836" x="427.836214" y="116.723723" style="fill: #1b5e20; stroke: #ffffff; stroke-width: 0.4"/>
     <use xlink:href="#medbf4b0836" x="445.576983" y="116.723723" style="fill: #1b5e20; stroke: #ffffff; stroke-width: 0.4"/>
    </g>
   </g>
   <g id="PathCollection_8">
    <defs>
     <path id="me908554779" d="M -0 5.91608 
L 5.91608 0 
L 0 -5.91608 
L -5.91608 -0 
z
" style="stroke: #ffffff; stroke-width: 0.4"/>
    </defs>
    <g clip-path="url(#p9c50cbb779)">
     <use xlink:href="#me908554779" x="358.647788" y="153.65806" style="fill: #90a4ae; stroke: #ffffff; stroke-width: 0.4"/>
     <use xlink:href="#me908554779" x="282.366489" y="228.589554" style="fill: #90a4ae; stroke: #ffffff; stroke-width: 0.4"/>
     <use xlink:href="#me908554779" x="319.622676" y="191.992619" style="fill: #90a4ae; stroke: #ffffff; stroke-width: 0.4"/>
     <use xlink:href="#me908554779" x="323.171975" y="188.506125" style="fill: #90a4ae; stroke: #ffffff; stroke-width: 0.4"/>
     <use xlink:href="#me908554779" x="277.042541" y="233.819294" style="fill: #90a4ae; stroke: #ffffff; stroke-width: 0.4"/>
     <use xlink:href="#me908554779" x="319.622676" y="191.992619" style="fill: #90a4ae; stroke: #ffffff; stroke-width: 0.4"/>
     <use xlink:href="#me908554779" x="293.008661" y="218.135697" style="fill: #90a4ae; stroke: #ffffff; stroke-width: 0.4"/>
     <use xlink:href="#me908554779" x="223.825959" y="286.094203" style="fill: #90a4ae; stroke: #ffffff; stroke-width: 0.4"/>
     <use xlink:href="#me908554779" x="250.43425" y="259.956749" style="fill: #90a4ae; stroke: #ffffff; stroke-width: 0.4"/>
    </g>
   </g>
   <g id="PathCollection_9">
    <defs>
     <path id="m04317a7666" d="M -0 5.91608 
L 5.91608 0 
L 0 -5.91608 
L -5.91608 -0 
z
" style="stroke: #ffffff; stroke-width: 0.4"/>
    </defs>
    <g clip-path="url(#p9c50cbb779)">
     <use xlink:href="#m04317a7666" x="392.354676" y="158.674112" style="fill: #7b1fa2; stroke: #ffffff; stroke-width: 0.4"/>
    </g>
   </g>
   <g id="legend_1">
    <g id="patch_16">
     <path d="M 54.262344 78.755781 
L 156.332344 78.755781 
Q 157.932344 78.755781 157.932344 77.155781 
L 157.932344 30.758281 
Q 157.932344 29.158281 156.332344 29.158281 
L 54.262344 29.158281 
Q 52.662344 29.158281 52.662344 30.758281 
L 52.662344 77.155781 
Q 52.662344 78.755781 54.262344 78.755781 
z
" style="fill: #ffffff; opacity: 0.9; stroke: #cccccc; stroke-linejoin: miter"/>
    </g>
    <g id="patch_17">
     <path d="M 55.862344 38.437031 
L 71.862344 38.437031 
L 71.862344 32.837031 
L 55.862344 32.837031 
z
" style="fill: #1b5e20; stroke: #1b5e20; stroke-linejoin: miter"/>
    </g>
    <g id="text_29">
     <!-- Stable Significant -->
     <g transform="translate(78.262344 38.437031) scale(0.08 -0.08)">
      <defs>
       <path id="DejaVuSerif-62" d="M 738 331 
L 738 4531 
L 184 4531 
L 184 4863 
L 1313 4863 
L 1313 2803 
Q 1481 3116 1742 3264 
Q 2003 3413 2388 3413 
Q 3000 3413 3387 2928 
Q 3775 2444 3775 1663 
Q 3775 881 3387 395 
Q 3000 -91 2388 -91 
Q 2003 -91 1742 57 
Q 1481 206 1313 519 
L 1313 0 
L 184 0 
L 184 331 
L 738 331 
z
M 1313 1497 
Q 1313 897 1542 583 
Q 1772 269 2209 269 
Q 2650 269 2876 622 
Q 3103 975 3103 1663 
Q 3103 2353 2876 2703 
Q 2650 3053 2209 3053 
Q 1772 3053 1542 2737 
Q 1313 2422 1313 1825 
L 1313 1497 
z
" transform="scale(0.015625)"/>
       <path id="DejaVuSerif-67" d="M 3359 2988 
L 3359 72 
Q 3359 -644 2965 -1033 
Q 2572 -1422 1844 -1422 
Q 1516 -1422 1216 -1362 
Q 916 -1303 641 -1184 
L 641 -488 
L 941 -488 
Q 997 -813 1206 -963 
Q 1416 -1113 1806 -1113 
Q 2313 -1113 2548 -827 
Q 2784 -541 2784 72 
L 2784 519 
Q 2616 206 2355 57 
Q 2094 -91 1709 -91 
Q 1097 -91 708 395 
Q 319 881 319 1663 
Q 319 2444 706 2928 
Q 1094 3413 1709 3413 
Q 2094 3413 2355 3264 
Q 2616 3116 2784 2803 
L 2784 3322 
L 3909 3322 
L 3909 2988 
L 3359 2988 
z
M 2784 1825 
Q 2784 2422 2554 2737 
Q 2325 3053 1888 3053 
Q 1444 3053 1217 2703 
Q 991 2353 991 1663 
Q 991 975 1217 622 
Q 1444 269 1888 269 
Q 2325 269 2554 583 
Q 2784 897 2784 1497 
L 2784 1825 
z
" transform="scale(0.015625)"/>
       <path id="DejaVuSerif-66" d="M 2753 4078 
L 2450 4078 
Q 2447 4313 2317 4434 
Q 2188 4556 1941 4556 
Q 1619 4556 1487 4379 
Q 1356 4203 1356 3750 
L 1356 3322 
L 2284 3322 
L 2284 2988 
L 1356 2988 
L 1356 331 
L 2094 331 
L 2094 0 
L 231 0 
L 231 331 
L 781 331 
L 781 2988 
L 231 2988 
L 231 3322 
L 781 3322 
L 781 3738 
Q 781 4294 1070 4578 
Q 1359 4863 1919 4863 
Q 2128 4863 2337 4825 
Q 2547 4788 2753 4709 
L 2753 4078 
z
" transform="scale(0.015625)"/>
      </defs>
      <use xlink:href="#DejaVuSerif-53"/>
      <use xlink:href="#DejaVuSerif-74" transform="translate(68.505859 0)"/>
      <use xlink:href="#DejaVuSerif-61" transform="translate(108.691406 0)"/>
      <use xlink:href="#DejaVuSerif-62" transform="translate(168.310547 0)"/>
      <use xlink:href="#DejaVuSerif-6c" transform="translate(232.324219 0)"/>
      <use xlink:href="#DejaVuSerif-65" transform="translate(264.306641 0)"/>
      <use xlink:href="#DejaVuSerif-20" transform="translate(323.486328 0)"/>
      <use xlink:href="#DejaVuSerif-53" transform="translate(355.273438 0)"/>
      <use xlink:href="#DejaVuSerif-69" transform="translate(423.779297 0)"/>
      <use xlink:href="#DejaVuSerif-67" transform="translate(455.761719 0)"/>
      <use xlink:href="#DejaVuSerif-6e" transform="translate(519.775391 0)"/>
      <use xlink:href="#DejaVuSerif-69" transform="translate(584.179688 0)"/>
      <use xlink:href="#DejaVuSerif-66" transform="translate(616.162109 0)"/>
      <use xlink:href="#DejaVuSerif-69" transform="translate(653.173828 0)"/>
      <use xlink:href="#DejaVuSerif-63" transform="translate(685.15625 0)"/>
      <use xlink:href="#DejaVuSerif-61" transform="translate(741.162109 0)"/>
      <use xlink:href="#DejaVuSerif-6e" transform="translate(800.78125 0)"/>
      <use xlink:href="#DejaVuSerif-74" transform="translate(865.185547 0)"/>
     </g>
    </g>
    <g id="patch_18">
     <path d="M 55.862344 50.293281 
L 71.862344 50.293281 
L 71.862344 44.693281 
L 55.862344 44.693281 
z
" style="fill: #90a4ae; stroke: #90a4ae; stroke-linejoin: miter"/>
    </g>
    <g id="text_30">
     <!-- Stable NS -->
     <g transform="translate(78.262344 50.293281) scale(0.08 -0.08)">
      <defs>
       <path id="DejaVuSerif-4e" d="M 313 0 
L 313 331 
L 941 331 
L 941 4331 
L 313 4331 
L 313 4666 
L 1509 4666 
L 4306 984 
L 4306 4331 
L 3681 4331 
L 3681 4666 
L 5319 4666 
L 5319 4331 
L 4691 4331 
L 4691 -91 
L 4313 -91 
L 1325 3841 
L 1325 331 
L 1953 331 
L 1953 0 
L 313 0 
z
" transform="scale(0.015625)"/>
      </defs>
      <use xlink:href="#DejaVuSerif-53"/>
      <use xlink:href="#DejaVuSerif-74" transform="translate(68.505859 0)"/>
      <use xlink:href="#DejaVuSerif-61" transform="translate(108.691406 0)"/>
      <use xlink:href="#DejaVuSerif-62" transform="translate(168.310547 0)"/>
      <use xlink:href="#DejaVuSerif-6c" transform="translate(232.324219 0)"/>
      <use xlink:href="#DejaVuSerif-65" transform="translate(264.306641 0)"/>
      <use xlink:href="#DejaVuSerif-20" transform="translate(323.486328 0)"/>
      <use xlink:href="#DejaVuSerif-4e" transform="translate(355.273438 0)"/>
      <use xlink:href="#DejaVuSerif-53" transform="translate(442.773438 0)"/>
     </g>
    </g>
    <g id="patch_19">
     <path d="M 55.862344 62.035781 
L 71.862344 62.035781 
L 71.862344 56.435781 
L 55.862344 56.435781 
z
" style="fill: #7b1fa2; stroke: #7b1fa2; stroke-linejoin: miter"/>
    </g>
    <g id="text_31">
     <!-- Direction Changed -->
     <g transform="translate(78.262344 62.035781) scale(0.08 -0.08)">
      <defs>
       <path id="DejaVuSerif-6f" d="M 1925 219 
Q 2388 219 2623 584 
Q 2859 950 2859 1663 
Q 2859 2375 2623 2739 
Q 2388 3103 1925 3103 
Q 1463 3103 1227 2739 
Q 991 2375 991 1663 
Q 991 950 1228 584 
Q 1466 219 1925 219 
z
M 1925 -91 
Q 1200 -91 759 389 
Q 319 869 319 1663 
Q 319 2456 758 2934 
Q 1197 3413 1925 3413 
Q 2653 3413 3092 2934 
Q 3531 2456 3531 1663 
Q 3531 869 3092 389 
Q 2653 -91 1925 -91 
z
" transform="scale(0.015625)"/>
       <path id="DejaVuSerif-43" d="M 4513 1234 
Q 4306 581 3820 245 
Q 3334 -91 2591 -91 
Q 2134 -91 1743 65 
Q 1353 222 1050 525 
Q 700 875 529 1320 
Q 359 1766 359 2328 
Q 359 3416 987 4083 
Q 1616 4750 2644 4750 
Q 3025 4750 3456 4650 
Q 3888 4550 4384 4347 
L 4384 3272 
L 4031 3272 
Q 3916 3859 3567 4137 
Q 3219 4416 2591 4416 
Q 1844 4416 1459 3886 
Q 1075 3356 1075 2328 
Q 1075 1303 1459 773 
Q 1844 244 2591 244 
Q 3113 244 3450 492 
Q 3788 741 3938 1234 
L 4513 1234 
z
" transform="scale(0.015625)"/>
       <path id="DejaVuSerif-68" d="M 263 0 
L 263 331 
L 781 331 
L 781 4531 
L 231 4531 
L 231 4863 
L 1356 4863 
L 1356 2731 
Q 1516 3069 1770 3241 
Q 2025 3413 2363 3413 
Q 2913 3413 3172 3097 
Q 3431 2781 3431 2113 
L 3431 331 
L 3944 331 
L 3944 0 
L 2356 0 
L 2356 331 
L 2853 331 
L 2853 1931 
Q 2853 2541 2704 2764 
Q 2556 2988 2175 2988 
Q 1775 2988 1565 2697 
Q 1356 2406 1356 1850 
L 1356 331 
L 1856 331 
L 1856 0 
L 263 0 
z
" transform="scale(0.015625)"/>
      </defs>
      <use xlink:href="#DejaVuSerif-44"/>
      <use xlink:href="#DejaVuSerif-69" transform="translate(80.175781 0)"/>
      <use xlink:href="#DejaVuSerif-72" transform="translate(112.158203 0)"/>
      <use xlink:href="#DejaVuSerif-65" transform="translate(159.960938 0)"/>
      <use xlink:href="#DejaVuSerif-63" transform="translate(219.140625 0)"/>
      <use xlink:href="#DejaVuSerif-74" transform="translate(275.146484 0)"/>
      <use xlink:href="#DejaVuSerif-69" transform="translate(315.332031 0)"/>
      <use xlink:href="#DejaVuSerif-6f" transform="translate(347.314453 0)"/>
      <use xlink:href="#DejaVuSerif-6e" transform="translate(407.519531 0)"/>
      <use xlink:href="#DejaVuSerif-20" transform="translate(471.923828 0)"/>
      <use xlink:href="#DejaVuSerif-43" transform="translate(503.710938 0)"/>
      <use xlink:href="#DejaVuSerif-68" transform="translate(580.224609 0)"/>
      <use xlink:href="#DejaVuSerif-61" transform="translate(644.628906 0)"/>
      <use xlink:href="#DejaVuSerif-6e" transform="translate(704.248047 0)"/>
      <use xlink:href="#DejaVuSerif-67" transform="translate(768.652344 0)"/>
      <use xlink:href="#DejaVuSerif-65" transform="translate(832.666016 0)"/>
      <use xlink:href="#DejaVuSerif-64" transform="translate(891.845703 0)"/>
     </g>
    </g>
    <g id="patch_20">
     <path d="M 55.862344 73.892031 
L 71.862344 73.892031 
L 71.862344 68.292031 
L 55.862344 68.292031 
z
" style="fill: #546e7a; stroke: #546e7a; stroke-linejoin: miter"/>
    </g>
    <g id="text_32">
     <!-- Weakened -->
     <g transform="translate(78.262344 73.892031) scale(0.08 -0.08)">
      <defs>
       <path id="DejaVuSerif-6b" d="M 1831 0 
L 219 0 
L 219 331 
L 738 331 
L 738 4531 
L 184 4531 
L 184 4863 
L 1313 4863 
L 1313 1697 
L 2713 2988 
L 2234 2988 
L 2234 3322 
L 3738 3322 
L 3738 2988 
L 3169 2988 
L 2181 2075 
L 3444 331 
L 3922 331 
L 3922 0 
L 2284 0 
L 2284 331 
L 2759 331 
L 1766 1697 
L 1313 1275 
L 1313 331 
L 1831 331 
L 1831 0 
z
" transform="scale(0.015625)"/>
      </defs>
      <use xlink:href="#DejaVuSerif-57"/>
      <use xlink:href="#DejaVuSerif-65" transform="translate(94.658203 0)"/>
      <use xlink:href="#DejaVuSerif-61" transform="translate(153.837891 0)"/>
      <use xlink:href="#DejaVuSerif-6b" transform="translate(213.457031 0)"/>
      <use xlink:href="#DejaVuSerif-65" transform="translate(274.052734 0)"/>
      <use xlink:href="#DejaVuSerif-6e" transform="translate(333.232422 0)"/>
      <use xlink:href="#DejaVuSerif-65" transform="translate(397.636719 0)"/>
      <use xlink:href="#DejaVuSerif-64" transform="translate(456.816406 0)"/>
     </g>
    </g>
   </g>
  </g>
 </g>
 <defs>
  <clipPath id="p9c50cbb779">
   <rect x="48.662344" y="25.158281" width="440.8" height="433"/>
  </clipPath>
 </defs>
</svg>
