<?xml version="1.0" encoding="utf-8" standalone="no"?>
<!DOCTYPE svg PUBLIC "-//W3C//DTD SVG 1.1//EN"
  "http://www.w3.org/Graphics/SVG/1.1/DTD/svg11.dtd">
<svg xmlns:xlink="http://www.w3.org/1999/xlink" width="643.096563pt" height="430.413178pt" viewBox="0 0 643.096563 430.413178" xmlns="http://www.w3.org/2000/svg" version="1.1">
 <metadata>
  <rdf:RDF xmlns:dc="http://purl.org/dc/elements/1.1/" xmlns:cc="http://creativecommons.org/ns#" xmlns:rdf="http://www.w3.org/1999/02/22-rdf-syntax-ns#">
   <cc:Work>
    <dc:type rdf:resource="http://purl.org/dc/dcmitype/StillImage"/>
    <dc:date>2026-05-29T04:42:55.399815</dc:date>
    <dc:format>image/svg+xml</dc:format>
    <dc:creator>
     <cc:Agent>
      <dc:title>Matplotlib v3.10.9, https://matplotlib.org/</dc:title>
     </cc:Agent>
    </dc:creator>
   </cc:Work>
  </rdf:RDF>
 </metadata>
 <defs>
  <style type="text/css">*{stroke-linejoin: round; stroke-linecap: butt}</style>
 </defs>
 <g id="figure_1">
  <g id="patch_1">
   <path d="M -0 430.413178 
L 643.096563 430.413178 
L 643.096563 0 
L -0 0 
z
" style="fill: #ffffff"/>
  </g>
  <g id="axes_1">
   <g id="patch_2">
    <path d="M 45.617813 375.961481 
L 632.296562 375.961481 
L 632.296562 25.158281 
L 45.617813 25.158281 
z
" style="fill: #ffffff"/>
   </g>
   <g id="patch_3">
    <path d="M 72.285028 375.961481 
L 110.381051 375.961481 
L 110.381051 350.90411 
L 72.285028 350.90411 
z
" clip-path="url(#p48f659dd8a)" style="fill: #6a1b9a; opacity: 0.8"/>
   </g>
   <g id="patch_4">
    <path d="M 262.765142 375.961481 
L 300.861165 375.961481 
L 300.861165 325.846738 
L 262.765142 325.846738 
z
" clip-path="url(#p48f659dd8a)" style="fill: #6a1b9a; opacity: 0.8"/>
   </g>
   <g id="patch_5">
    <path d="M 453.245256 375.961481 
L 491.341278 375.961481 
L 491.341278 300.789367 
L 453.245256 300.789367 
z
" clip-path="url(#p48f659dd8a)" style="fill: #6a1b9a; opacity: 0.8"/>
   </g>
   <g id="patch_6">
    <path d="M 110.381051 375.961481 
L 148.477074 375.961481 
L 148.477074 350.90411 
L 110.381051 350.90411 
z
" clip-path="url(#p48f659dd8a)" style="fill: #0277bd; opacity: 0.8"/>
   </g>
   <g id="patch_7">
    <path d="M 300.861165 375.961481 
L 338.957188 375.961481 
L 338.957188 375.961481 
L 300.861165 375.961481 
z
" clip-path="url(#p48f659dd8a)" style="fill: #0277bd; opacity: 0.8"/>
   </g>
   <g id="patch_8">
    <path d="M 491.341278 375.961481 
L 529.437301 375.961481 
L 529.437301 300.789367 
L 491.341278 300.789367 
z
" clip-path="url(#p48f659dd8a)" style="fill: #0277bd; opacity: 0.8"/>
   </g>
   <g id="patch_9">
    <path d="M 148.477074 375.961481 
L 186.573097 375.961481 
L 186.573097 350.90411 
L 148.477074 350.90411 
z
" clip-path="url(#p48f659dd8a)" style="fill: #00897b; opacity: 0.8"/>
   </g>
   <g id="patch_10">
    <path d="M 338.957188 375.961481 
L 377.05321 375.961481 
L 377.05321 375.961481 
L 338.957188 375.961481 
z
" clip-path="url(#p48f659dd8a)" style="fill: #00897b; opacity: 0.8"/>
   </g>
   <g id="patch_11">
    <path d="M 529.437301 375.961481 
L 567.533324 375.961481 
L 567.533324 325.846738 
L 529.437301 325.846738 
z
" clip-path="url(#p48f659dd8a)" style="fill: #00897b; opacity: 0.8"/>
   </g>
   <g id="patch_12">
    <path d="M 186.573097 375.961481 
L 224.669119 375.961481 
L 224.669119 350.90411 
L 186.573097 350.90411 
z
" clip-path="url(#p48f659dd8a)" style="fill: #e65100; opacity: 0.8"/>
   </g>
   <g id="patch_13">
    <path d="M 377.05321 375.961481 
L 415.149233 375.961481 
L 415.149233 300.789367 
L 377.05321 300.789367 
z
" clip-path="url(#p48f659dd8a)" style="fill: #e65100; opacity: 0.8"/>
   </g>
   <g id="patch_14">
    <path d="M 567.533324 375.961481 
L 605.629347 375.961481 
L 605.629347 300.789367 
L 567.533324 300.789367 
z
" clip-path="url(#p48f659dd8a)" style="fill: #e65100; opacity: 0.8"/>
   </g>
   <g id="matplotlib.axis_1">
    <g id="xtick_1">
     <g id="line2d_1">
      <path d="M 148.477074 375.961481 
L 148.477074 25.158281 
" clip-path="url(#p48f659dd8a)" style="fill: none; stroke-dasharray: 1.48,0.64; stroke-dashoffset: 0; stroke: #b0bec5; stroke-opacity: 0.4; stroke-width: 0.4"/>
     </g>
     <g id="line2d_2">
      <defs>
       <path id="m7b4dbb44f8" d="M 0 0 
L 0 3.5 
" style="stroke: #000000; stroke-width: 0.8"/>
      </defs>
      <g>
       <use xlink:href="#m7b4dbb44f8" x="148.477074" y="375.961481" style="stroke: #000000; stroke-width: 0.8"/>
      </g>
     </g>
     <g id="text_1">
      <!-- Annual -->
      <g transform="translate(130.62473 390.559919) scale(0.1 -0.1)">
       <defs>
        <path id="DejaVuSerif-41" d="M 1281 1691 
L 2994 1691 
L 2138 3909 
L 1281 1691 
z
M -38 0 
L -38 331 
L 372 331 
L 2034 4666 
L 2559 4666 
L 4225 331 
L 4684 331 
L 4684 0 
L 2988 0 
L 2988 331 
L 3506 331 
L 3116 1356 
L 1153 1356 
L 763 331 
L 1275 331 
L 1275 0 
L -38 0 
z
" transform="scale(0.015625)"/>
        <path id="DejaVuSerif-6e" d="M 263 0 
L 263 331 
L 781 331 
L 781 2988 
L 231 2988 
L 231 3322 
L 1356 3322 
L 1356 2731 
Q 1516 3069 1770 3241 
Q 2025 3413 2363 3413 
Q 2913 3413 3172 3097 
Q 3431 2781 3431 2113 
L 3431 331 
L 3944 331 
L 3944 0 
L 2356 0 
L 2356 331 
L 2853 331 
L 2853 1931 
Q 2853 2541 2703 2767 
Q 2553 2994 2175 2994 
Q 1775 2994 1565 2701 
Q 1356 2409 1356 1850 
L 1356 331 
L 1856 331 
L 1856 0 
L 263 0 
z
" transform="scale(0.015625)"/>
        <path id="DejaVuSerif-75" d="M 2266 3322 
L 3341 3322 
L 3341 331 
L 3884 331 
L 3884 0 
L 2766 0 
L 2766 588 
Q 2606 256 2353 82 
Q 2100 -91 1766 -91 
Q 1213 -91 952 223 
Q 691 538 691 1209 
L 691 2988 
L 172 2988 
L 172 3322 
L 1269 3322 
L 1269 1388 
Q 1269 781 1417 556 
Q 1566 331 1947 331 
Q 2347 331 2556 625 
Q 2766 919 2766 1478 
L 2766 2988 
L 2266 2988 
L 2266 3322 
z
" transform="scale(0.015625)"/>
        <path id="DejaVuSerif-61" d="M 2547 1044 
L 2547 1747 
L 1806 1747 
Q 1378 1747 1168 1562 
Q 959 1378 959 997 
Q 959 650 1171 447 
Q 1384 244 1747 244 
Q 2106 244 2326 466 
Q 2547 688 2547 1044 
z
M 3122 2075 
L 3122 331 
L 3634 331 
L 3634 0 
L 2547 0 
L 2547 359 
Q 2356 128 2106 18 
Q 1856 -91 1522 -91 
Q 969 -91 644 203 
Q 319 497 319 997 
Q 319 1513 691 1797 
Q 1063 2081 1741 2081 
L 2547 2081 
L 2547 2309 
Q 2547 2688 2317 2895 
Q 2088 3103 1672 3103 
Q 1328 3103 1125 2947 
Q 922 2791 872 2484 
L 575 2484 
L 575 3156 
Q 875 3284 1158 3348 
Q 1441 3413 1709 3413 
Q 2400 3413 2761 3070 
Q 3122 2728 3122 2075 
z
" transform="scale(0.015625)"/>
        <path id="DejaVuSerif-6c" d="M 1313 331 
L 1856 331 
L 1856 0 
L 184 0 
L 184 331 
L 738 331 
L 738 4531 
L 184 4531 
L 184 4863 
L 1313 4863 
L 1313 331 
z
" transform="scale(0.015625)"/>
       </defs>
       <use xlink:href="#DejaVuSerif-41"/>
       <use xlink:href="#DejaVuSerif-6e" transform="translate(72.216797 0)"/>
       <use xlink:href="#DejaVuSerif-6e" transform="translate(136.621094 0)"/>
       <use xlink:href="#DejaVuSerif-75" transform="translate(201.025391 0)"/>
       <use xlink:href="#DejaVuSerif-61" transform="translate(265.429688 0)"/>
       <use xlink:href="#DejaVuSerif-6c" transform="translate(325.048828 0)"/>
      </g>
     </g>
    </g>
    <g id="xtick_2">
     <g id="line2d_3">
      <path d="M 338.957188 375.961481 
L 338.957188 25.158281 
" clip-path="url(#p48f659dd8a)" style="fill: none; stroke-dasharray: 1.48,0.64; stroke-dashoffset: 0; stroke: #b0bec5; stroke-opacity: 0.4; stroke-width: 0.4"/>
     </g>
     <g id="line2d_4">
      <g>
       <use xlink:href="#m7b4dbb44f8" x="338.957188" y="375.961481" style="stroke: #000000; stroke-width: 0.8"/>
      </g>
     </g>
     <g id="text_2">
      <!-- Wet Season -->
      <g transform="translate(309.504844 390.559919) scale(0.1 -0.1)">
       <defs>
        <path id="DejaVuSerif-57" d="M 4878 0 
L 4366 0 
L 3297 3794 
L 2228 0 
L 1716 0 
L 494 4331 
L 31 4331 
L 31 4666 
L 1734 4666 
L 1734 4331 
L 1153 4331 
L 2125 884 
L 3188 4666 
L 3694 4666 
L 4775 844 
L 5753 4331 
L 5216 4331 
L 5216 4666 
L 6559 4666 
L 6559 4331 
L 6100 4331 
L 4878 0 
z
" transform="scale(0.015625)"/>
        <path id="DejaVuSerif-65" d="M 3469 1600 
L 991 1600 
L 991 1575 
Q 991 903 1244 561 
Q 1497 219 1991 219 
Q 2369 219 2611 417 
Q 2853 616 2950 1006 
L 3413 1006 
Q 3275 459 2904 184 
Q 2534 -91 1931 -91 
Q 1203 -91 761 389 
Q 319 869 319 1663 
Q 319 2450 753 2931 
Q 1188 3413 1894 3413 
Q 2647 3413 3050 2948 
Q 3453 2484 3469 1600 
z
M 2791 1931 
Q 2772 2513 2545 2808 
Q 2319 3103 1894 3103 
Q 1497 3103 1269 2806 
Q 1041 2509 991 1931 
L 2791 1931 
z
" transform="scale(0.015625)"/>
        <path id="DejaVuSerif-74" d="M 691 2988 
L 184 2988 
L 184 3322 
L 691 3322 
L 691 4353 
L 1269 4353 
L 1269 3322 
L 2350 3322 
L 2350 2988 
L 1269 2988 
L 1269 878 
Q 1269 456 1350 337 
Q 1431 219 1650 219 
Q 1875 219 1978 351 
Q 2081 484 2088 781 
L 2522 781 
Q 2497 328 2275 118 
Q 2053 -91 1600 -91 
Q 1103 -91 897 129 
Q 691 350 691 878 
L 691 2988 
z
" transform="scale(0.015625)"/>
        <path id="DejaVuSerif-20" transform="scale(0.015625)"/>
        <path id="DejaVuSerif-53" d="M 594 225 
L 594 1288 
L 953 1284 
Q 969 753 1261 498 
Q 1553 244 2150 244 
Q 2706 244 2998 464 
Q 3291 684 3291 1106 
Q 3291 1444 3114 1625 
Q 2938 1806 2369 1978 
L 1753 2163 
Q 1084 2366 811 2669 
Q 538 2972 538 3500 
Q 538 4094 959 4422 
Q 1381 4750 2144 4750 
Q 2469 4750 2856 4679 
Q 3244 4609 3681 4475 
L 3681 3481 
L 3328 3481 
Q 3275 3975 2998 4195 
Q 2722 4416 2156 4416 
Q 1663 4416 1405 4214 
Q 1147 4013 1147 3628 
Q 1147 3294 1340 3103 
Q 1534 2913 2163 2725 
L 2741 2553 
Q 3375 2363 3645 2067 
Q 3916 1772 3916 1275 
Q 3916 597 3481 253 
Q 3047 -91 2188 -91 
Q 1803 -91 1404 -12 
Q 1006 66 594 225 
z
" transform="scale(0.015625)"/>
        <path id="DejaVuSerif-73" d="M 359 184 
L 359 959 
L 691 959 
Q 703 588 923 403 
Q 1144 219 1575 219 
Q 1963 219 2166 364 
Q 2369 509 2369 788 
Q 2369 1006 2220 1140 
Q 2072 1275 1594 1428 
L 1178 1569 
Q 750 1706 558 1912 
Q 366 2119 366 2438 
Q 366 2894 700 3153 
Q 1034 3413 1625 3413 
Q 1888 3413 2178 3344 
Q 2469 3275 2778 3144 
L 2778 2419 
L 2447 2419 
Q 2434 2741 2221 2922 
Q 2009 3103 1644 3103 
Q 1281 3103 1095 2975 
Q 909 2847 909 2591 
Q 909 2381 1050 2254 
Q 1191 2128 1613 1997 
L 2069 1856 
Q 2541 1709 2748 1489 
Q 2956 1269 2956 922 
Q 2956 450 2595 179 
Q 2234 -91 1600 -91 
Q 1278 -91 972 -22 
Q 666 47 359 184 
z
" transform="scale(0.015625)"/>
        <path id="DejaVuSerif-6f" d="M 1925 219 
Q 2388 219 2623 584 
Q 2859 950 2859 1663 
Q 2859 2375 2623 2739 
Q 2388 3103 1925 3103 
Q 1463 3103 1227 2739 
Q 991 2375 991 1663 
Q 991 950 1228 584 
Q 1466 219 1925 219 
z
M 1925 -91 
Q 1200 -91 759 389 
Q 319 869 319 1663 
Q 319 2456 758 2934 
Q 1197 3413 1925 3413 
Q 2653 3413 3092 2934 
Q 3531 2456 3531 1663 
Q 3531 869 3092 389 
Q 2653 -91 1925 -91 
z
" transform="scale(0.015625)"/>
       </defs>
       <use xlink:href="#DejaVuSerif-57"/>
       <use xlink:href="#DejaVuSerif-65" transform="translate(94.658203 0)"/>
       <use xlink:href="#DejaVuSerif-74" transform="translate(153.837891 0)"/>
       <use xlink:href="#DejaVuSerif-20" transform="translate(194.023438 0)"/>
       <use xlink:href="#DejaVuSerif-53" transform="translate(225.810547 0)"/>
       <use xlink:href="#DejaVuSerif-65" transform="translate(294.316406 0)"/>
       <use xlink:href="#DejaVuSerif-61" transform="translate(353.496094 0)"/>
       <use xlink:href="#DejaVuSerif-73" transform="translate(413.115234 0)"/>
       <use xlink:href="#DejaVuSerif-6f" transform="translate(464.433594 0)"/>
       <use xlink:href="#DejaVuSerif-6e" transform="translate(524.638672 0)"/>
      </g>
     </g>
    </g>
    <g id="xtick_3">
     <g id="line2d_5">
      <path d="M 529.437301 375.961481 
L 529.437301 25.158281 
" clip-path="url(#p48f659dd8a)" style="fill: none; stroke-dasharray: 1.48,0.64; stroke-dashoffset: 0; stroke: #b0bec5; stroke-opacity: 0.4; stroke-width: 0.4"/>
     </g>
     <g id="line2d_6">
      <g>
       <use xlink:href="#m7b4dbb44f8" x="529.437301" y="375.961481" style="stroke: #000000; stroke-width: 0.8"/>
      </g>
     </g>
     <g id="text_3">
      <!-- Dry Season -->
      <g transform="translate(500.463082 390.417731) scale(0.1 -0.1)">
       <defs>
        <path id="DejaVuSerif-44" d="M 1581 331 
L 2163 331 
Q 3072 331 3558 850 
Q 4044 1369 4044 2338 
Q 4044 3306 3559 3818 
Q 3075 4331 2163 4331 
L 1581 4331 
L 1581 331 
z
M 353 0 
L 353 331 
L 947 331 
L 947 4331 
L 353 4331 
L 353 4666 
L 2209 4666 
Q 3416 4666 4089 4050 
Q 4763 3434 4763 2338 
Q 4763 1238 4088 619 
Q 3413 0 2209 0 
L 353 0 
z
" transform="scale(0.015625)"/>
        <path id="DejaVuSerif-72" d="M 3059 3328 
L 3059 2497 
L 2728 2497 
Q 2713 2744 2591 2866 
Q 2469 2988 2234 2988 
Q 1809 2988 1582 2694 
Q 1356 2400 1356 1850 
L 1356 331 
L 2022 331 
L 2022 0 
L 263 0 
L 263 331 
L 781 331 
L 781 2994 
L 231 2994 
L 231 3322 
L 1356 3322 
L 1356 2731 
Q 1525 3078 1790 3245 
Q 2056 3413 2438 3413 
Q 2578 3413 2733 3391 
Q 2888 3369 3059 3328 
z
" transform="scale(0.015625)"/>
        <path id="DejaVuSerif-79" d="M 1381 -609 
L 1600 -56 
L 359 2988 
L -19 2988 
L -19 3322 
L 1509 3322 
L 1509 2988 
L 978 2988 
L 1913 703 
L 2847 2988 
L 2350 2988 
L 2350 3322 
L 3597 3322 
L 3597 2988 
L 3225 2988 
L 1703 -750 
Q 1547 -1138 1356 -1280 
Q 1166 -1422 819 -1422 
Q 672 -1422 517 -1397 
Q 363 -1372 206 -1325 
L 206 -691 
L 500 -691 
Q 519 -903 608 -995 
Q 697 -1088 884 -1088 
Q 1056 -1088 1161 -992 
Q 1266 -897 1381 -609 
z
" transform="scale(0.015625)"/>
       </defs>
       <use xlink:href="#DejaVuSerif-44"/>
       <use xlink:href="#DejaVuSerif-72" transform="translate(80.175781 0)"/>
       <use xlink:href="#DejaVuSerif-79" transform="translate(127.978516 0)"/>
       <use xlink:href="#DejaVuSerif-20" transform="translate(184.472656 0)"/>
       <use xlink:href="#DejaVuSerif-53" transform="translate(216.259766 0)"/>
       <use xlink:href="#DejaVuSerif-65" transform="translate(284.765625 0)"/>
       <use xlink:href="#DejaVuSerif-61" transform="translate(343.945312 0)"/>
       <use xlink:href="#DejaVuSerif-73" transform="translate(403.564453 0)"/>
       <use xlink:href="#DejaVuSerif-6f" transform="translate(454.882812 0)"/>
       <use xlink:href="#DejaVuSerif-6e" transform="translate(515.087891 0)"/>
      </g>
     </g>
    </g>
   </g>
   <g id="matplotlib.axis_2">
    <g id="ytick_1">
     <g id="line2d_7">
      <path d="M 45.617813 375.961481 
L 632.296562 375.961481 
" clip-path="url(#p48f659dd8a)" style="fill: none; stroke-dasharray: 1.48,0.64; stroke-dashoffset: 0; stroke: #b0bec5; stroke-opacity: 0.4; stroke-width: 0.4"/>
     </g>
     <g id="line2d_8">
      <defs>
       <path id="ma35f6b2b2e" d="M 0 0 
L -3.5 0 
" style="stroke: #000000; stroke-width: 0.8"/>
      </defs>
      <g>
       <use xlink:href="#ma35f6b2b2e" x="45.617813" y="375.961481" style="stroke: #000000; stroke-width: 0.8"/>
      </g>
     </g>
     <g id="text_4">
      <!-- 0 -->
      <g transform="translate(31.619063 380.140622) scale(0.11 -0.11)">
       <defs>
        <path id="DejaVuSerif-30" d="M 2034 219 
Q 2513 219 2750 744 
Q 2988 1269 2988 2328 
Q 2988 3391 2750 3916 
Q 2513 4441 2034 4441 
Q 1556 4441 1318 3916 
Q 1081 3391 1081 2328 
Q 1081 1269 1318 744 
Q 1556 219 2034 219 
z
M 2034 -91 
Q 1275 -91 848 546 
Q 422 1184 422 2328 
Q 422 3475 848 4112 
Q 1275 4750 2034 4750 
Q 2797 4750 3222 4112 
Q 3647 3475 3647 2328 
Q 3647 1184 3222 546 
Q 2797 -91 2034 -91 
z
" transform="scale(0.015625)"/>
       </defs>
       <use xlink:href="#DejaVuSerif-30"/>
      </g>
     </g>
    </g>
    <g id="ytick_2">
     <g id="line2d_9">
      <path d="M 45.617813 325.846738 
L 632.296562 325.846738 
" clip-path="url(#p48f659dd8a)" style="fill: none; stroke-dasharray: 1.48,0.64; stroke-dashoffset: 0; stroke: #b0bec5; stroke-opacity: 0.4; stroke-width: 0.4"/>
     </g>
     <g id="line2d_10">
      <g>
       <use xlink:href="#ma35f6b2b2e" x="45.617813" y="325.846738" style="stroke: #000000; stroke-width: 0.8"/>
      </g>
     </g>
     <g id="text_5">
      <!-- 2 -->
      <g transform="translate(31.619063 330.025879) scale(0.11 -0.11)">
       <defs>
        <path id="DejaVuSerif-32" d="M 819 3553 
L 469 3553 
L 469 4384 
Q 803 4563 1142 4656 
Q 1481 4750 1806 4750 
Q 2534 4750 2956 4397 
Q 3378 4044 3378 3438 
Q 3378 2753 2422 1800 
Q 2347 1728 2309 1691 
L 1131 513 
L 3078 513 
L 3078 1088 
L 3444 1088 
L 3444 0 
L 434 0 
L 434 341 
L 1850 1753 
Q 2319 2222 2519 2614 
Q 2719 3006 2719 3438 
Q 2719 3909 2473 4175 
Q 2228 4441 1797 4441 
Q 1350 4441 1106 4219 
Q 863 3997 819 3553 
z
" transform="scale(0.015625)"/>
       </defs>
       <use xlink:href="#DejaVuSerif-32"/>
      </g>
     </g>
    </g>
    <g id="ytick_3">
     <g id="line2d_11">
      <path d="M 45.617813 275.731996 
L 632.296562 275.731996 
" clip-path="url(#p48f659dd8a)" style="fill: none; stroke-dasharray: 1.48,0.64; stroke-dashoffset: 0; stroke: #b0bec5; stroke-opacity: 0.4; stroke-width: 0.4"/>
     </g>
     <g id="line2d_12">
      <g>
       <use xlink:href="#ma35f6b2b2e" x="45.617813" y="275.731996" style="stroke: #000000; stroke-width: 0.8"/>
      </g>
     </g>
     <g id="text_6">
      <!-- 4 -->
      <g transform="translate(31.619063 279.911136) scale(0.11 -0.11)">
       <defs>
        <path id="DejaVuSerif-34" d="M 2234 1581 
L 2234 4063 
L 641 1581 
L 2234 1581 
z
M 3609 0 
L 1484 0 
L 1484 331 
L 2234 331 
L 2234 1247 
L 197 1247 
L 197 1588 
L 2241 4750 
L 2859 4750 
L 2859 1581 
L 3750 1581 
L 3750 1247 
L 2859 1247 
L 2859 331 
L 3609 331 
L 3609 0 
z
" transform="scale(0.015625)"/>
       </defs>
       <use xlink:href="#DejaVuSerif-34"/>
      </g>
     </g>
    </g>
    <g id="ytick_4">
     <g id="line2d_13">
      <path d="M 45.617813 225.617253 
L 632.296562 225.617253 
" clip-path="url(#p48f659dd8a)" style="fill: none; stroke-dasharray: 1.48,0.64; stroke-dashoffset: 0; stroke: #b0bec5; stroke-opacity: 0.4; stroke-width: 0.4"/>
     </g>
     <g id="line2d_14">
      <g>
       <use xlink:href="#ma35f6b2b2e" x="45.617813" y="225.617253" style="stroke: #000000; stroke-width: 0.8"/>
      </g>
     </g>
     <g id="text_7">
      <!-- 6 -->
      <g transform="translate(31.619063 229.796393) scale(0.11 -0.11)">
       <defs>
        <path id="DejaVuSerif-36" d="M 2094 219 
Q 2534 219 2771 542 
Q 3009 866 3009 1472 
Q 3009 2078 2771 2401 
Q 2534 2725 2094 2725 
Q 1647 2725 1412 2412 
Q 1178 2100 1178 1509 
Q 1178 888 1415 553 
Q 1653 219 2094 219 
z
M 1075 2569 
Q 1288 2803 1556 2918 
Q 1825 3034 2163 3034 
Q 2859 3034 3264 2615 
Q 3669 2197 3669 1472 
Q 3669 763 3233 336 
Q 2797 -91 2069 -91 
Q 1278 -91 853 498 
Q 428 1088 428 2181 
Q 428 3406 931 4078 
Q 1434 4750 2350 4750 
Q 2597 4750 2869 4703 
Q 3141 4656 3425 4563 
L 3425 3794 
L 3072 3794 
Q 3034 4109 2831 4275 
Q 2628 4441 2284 4441 
Q 1678 4441 1381 3981 
Q 1084 3522 1075 2569 
z
" transform="scale(0.015625)"/>
       </defs>
       <use xlink:href="#DejaVuSerif-36"/>
      </g>
     </g>
    </g>
    <g id="ytick_5">
     <g id="line2d_15">
      <path d="M 45.617813 175.50251 
L 632.296562 175.50251 
" clip-path="url(#p48f659dd8a)" style="fill: none; stroke-dasharray: 1.48,0.64; stroke-dashoffset: 0; stroke: #b0bec5; stroke-opacity: 0.4; stroke-width: 0.4"/>
     </g>
     <g id="line2d_16">
      <g>
       <use xlink:href="#ma35f6b2b2e" x="45.617813" y="175.50251" style="stroke: #000000; stroke-width: 0.8"/>
      </g>
     </g>
     <g id="text_8">
      <!-- 8 -->
      <g transform="translate(31.619063 179.68165) scale(0.11 -0.11)">
       <defs>
        <path id="DejaVuSerif-38" d="M 2981 1275 
Q 2981 1775 2732 2051 
Q 2484 2328 2034 2328 
Q 1584 2328 1336 2051 
Q 1088 1775 1088 1275 
Q 1088 772 1336 495 
Q 1584 219 2034 219 
Q 2484 219 2732 495 
Q 2981 772 2981 1275 
z
M 2853 3541 
Q 2853 3966 2637 4203 
Q 2422 4441 2034 4441 
Q 1650 4441 1433 4203 
Q 1216 3966 1216 3541 
Q 1216 3113 1433 2875 
Q 1650 2638 2034 2638 
Q 2422 2638 2637 2875 
Q 2853 3113 2853 3541 
z
M 2516 2484 
Q 3047 2413 3344 2092 
Q 3641 1772 3641 1275 
Q 3641 619 3225 264 
Q 2809 -91 2034 -91 
Q 1263 -91 845 264 
Q 428 619 428 1275 
Q 428 1772 725 2092 
Q 1022 2413 1556 2484 
Q 1084 2569 832 2842 
Q 581 3116 581 3541 
Q 581 4103 968 4426 
Q 1356 4750 2034 4750 
Q 2713 4750 3100 4426 
Q 3488 4103 3488 3541 
Q 3488 3116 3236 2842 
Q 2984 2569 2516 2484 
z
" transform="scale(0.015625)"/>
       </defs>
       <use xlink:href="#DejaVuSerif-38"/>
      </g>
     </g>
    </g>
    <g id="ytick_6">
     <g id="line2d_17">
      <path d="M 45.617813 125.387767 
L 632.296562 125.387767 
" clip-path="url(#p48f659dd8a)" style="fill: none; stroke-dasharray: 1.48,0.64; stroke-dashoffset: 0; stroke: #b0bec5; stroke-opacity: 0.4; stroke-width: 0.4"/>
     </g>
     <g id="line2d_18">
      <g>
       <use xlink:href="#ma35f6b2b2e" x="45.617813" y="125.387767" style="stroke: #000000; stroke-width: 0.8"/>
      </g>
     </g>
     <g id="text_9">
      <!-- 10 -->
      <g transform="translate(24.620313 129.566908) scale(0.11 -0.11)">
       <defs>
        <path id="DejaVuSerif-31" d="M 909 0 
L 909 331 
L 1722 331 
L 1722 4213 
L 781 3603 
L 781 4013 
L 1919 4750 
L 2350 4750 
L 2350 331 
L 3163 331 
L 3163 0 
L 909 0 
z
" transform="scale(0.015625)"/>
       </defs>
       <use xlink:href="#DejaVuSerif-31"/>
       <use xlink:href="#DejaVuSerif-30" transform="translate(63.623047 0)"/>
      </g>
     </g>
    </g>
    <g id="ytick_7">
     <g id="line2d_19">
      <path d="M 45.617813 75.273024 
L 632.296562 75.273024 
" clip-path="url(#p48f659dd8a)" style="fill: none; stroke-dasharray: 1.48,0.64; stroke-dashoffset: 0; stroke: #b0bec5; stroke-opacity: 0.4; stroke-width: 0.4"/>
     </g>
     <g id="line2d_20">
      <g>
       <use xlink:href="#ma35f6b2b2e" x="45.617813" y="75.273024" style="stroke: #000000; stroke-width: 0.8"/>
      </g>
     </g>
     <g id="text_10">
      <!-- 12 -->
      <g transform="translate(24.620313 79.452165) scale(0.11 -0.11)">
       <use xlink:href="#DejaVuSerif-31"/>
       <use xlink:href="#DejaVuSerif-32" transform="translate(63.623047 0)"/>
      </g>
     </g>
    </g>
    <g id="ytick_8">
     <g id="line2d_21">
      <path d="M 45.617813 25.158281 
L 632.296562 25.158281 
" clip-path="url(#p48f659dd8a)" style="fill: none; stroke-dasharray: 1.48,0.64; stroke-dashoffset: 0; stroke: #b0bec5; stroke-opacity: 0.4; stroke-width: 0.4"/>
     </g>
     <g id="line2d_22">
      <g>
       <use xlink:href="#ma35f6b2b2e" x="45.617813" y="25.158281" style="stroke: #000000; stroke-width: 0.8"/>
      </g>
     </g>
     <g id="text_11">
      <!-- 14 -->
      <g transform="translate(24.620313 29.337422) scale(0.11 -0.11)">
       <use xlink:href="#DejaVuSerif-31"/>
       <use xlink:href="#DejaVuSerif-34" transform="translate(63.623047 0)"/>
      </g>
     </g>
    </g>
    <g id="text_12">
     <!-- N Stations Significant (α = 0.05) -->
     <g transform="translate(18.398438 283.806756) rotate(-90) scale(0.1 -0.1)">
      <defs>
       <path id="DejaVuSerif-4e" d="M 313 0 
L 313 331 
L 941 331 
L 941 4331 
L 313 4331 
L 313 4666 
L 1509 4666 
L 4306 984 
L 4306 4331 
L 3681 4331 
L 3681 4666 
L 5319 4666 
L 5319 4331 
L 4691 4331 
L 4691 -91 
L 4313 -91 
L 1325 3841 
L 1325 331 
L 1953 331 
L 1953 0 
L 313 0 
z
" transform="scale(0.015625)"/>
       <path id="DejaVuSerif-69" d="M 622 4353 
Q 622 4497 726 4603 
Q 831 4709 978 4709 
Q 1122 4709 1226 4603 
Q 1331 4497 1331 4353 
Q 1331 4206 1228 4103 
Q 1125 4000 978 4000 
Q 831 4000 726 4103 
Q 622 4206 622 4353 
z
M 1356 331 
L 1900 331 
L 1900 0 
L 231 0 
L 231 331 
L 781 331 
L 781 2988 
L 231 2988 
L 231 3322 
L 1356 3322 
L 1356 331 
z
" transform="scale(0.015625)"/>
       <path id="DejaVuSerif-67" d="M 3359 2988 
L 3359 72 
Q 3359 -644 2965 -1033 
Q 2572 -1422 1844 -1422 
Q 1516 -1422 1216 -1362 
Q 916 -1303 641 -1184 
L 641 -488 
L 941 -488 
Q 997 -813 1206 -963 
Q 1416 -1113 1806 -1113 
Q 2313 -1113 2548 -827 
Q 2784 -541 2784 72 
L 2784 519 
Q 2616 206 2355 57 
Q 2094 -91 1709 -91 
Q 1097 -91 708 395 
Q 319 881 319 1663 
Q 319 2444 706 2928 
Q 1094 3413 1709 3413 
Q 2094 3413 2355 3264 
Q 2616 3116 2784 2803 
L 2784 3322 
L 3909 3322 
L 3909 2988 
L 3359 2988 
z
M 2784 1825 
Q 2784 2422 2554 2737 
Q 2325 3053 1888 3053 
Q 1444 3053 1217 2703 
Q 991 2353 991 1663 
Q 991 975 1217 622 
Q 1444 269 1888 269 
Q 2325 269 2554 583 
Q 2784 897 2784 1497 
L 2784 1825 
z
" transform="scale(0.015625)"/>
       <path id="DejaVuSerif-66" d="M 2753 4078 
L 2450 4078 
Q 2447 4313 2317 4434 
Q 2188 4556 1941 4556 
Q 1619 4556 1487 4379 
Q 1356 4203 1356 3750 
L 1356 3322 
L 2284 3322 
L 2284 2988 
L 1356 2988 
L 1356 331 
L 2094 331 
L 2094 0 
L 231 0 
L 231 331 
L 781 331 
L 781 2988 
L 231 2988 
L 231 3322 
L 781 3322 
L 781 3738 
Q 781 4294 1070 4578 
Q 1359 4863 1919 4863 
Q 2128 4863 2337 4825 
Q 2547 4788 2753 4709 
L 2753 4078 
z
" transform="scale(0.015625)"/>
       <path id="DejaVuSerif-63" d="M 3291 997 
Q 3169 466 2822 187 
Q 2475 -91 1925 -91 
Q 1200 -91 759 389 
Q 319 869 319 1663 
Q 319 2459 759 2936 
Q 1200 3413 1925 3413 
Q 2241 3413 2553 3339 
Q 2866 3266 3181 3116 
L 3181 2266 
L 2847 2266 
Q 2781 2703 2561 2903 
Q 2341 3103 1931 3103 
Q 1466 3103 1228 2742 
Q 991 2381 991 1663 
Q 991 944 1227 581 
Q 1463 219 1931 219 
Q 2303 219 2525 412 
Q 2747 606 2828 997 
L 3291 997 
z
" transform="scale(0.015625)"/>
       <path id="DejaVuSerif-28" d="M 2041 -997 
Q 1281 -656 893 83 
Q 506 822 506 1931 
Q 506 3044 893 3783 
Q 1281 4522 2041 4863 
L 2041 4556 
Q 1559 4225 1350 3623 
Q 1141 3022 1141 1931 
Q 1141 844 1350 242 
Q 1559 -359 2041 -691 
L 2041 -997 
z
" transform="scale(0.015625)"/>
       <path id="DejaVuSerif-3b1" d="M 2763 819 
L 2638 472 
Q 2541 203 2244 31 
Q 2050 -81 1706 -78 
Q 1091 -72 706 406 
Q 319 894 319 1675 
Q 319 2441 706 2941 
Q 1072 3413 1844 3409 
Q 2375 3409 2644 3200 
Q 2881 3016 2972 2613 
L 2997 2497 
L 3119 2844 
Q 3231 3172 3553 3334 
L 3869 3334 
L 3869 3150 
Q 3569 3056 3463 2763 
L 3138 1875 
L 3356 919 
Q 3469 428 3588 375 
Q 3759 297 4150 531 
L 4150 153 
Q 3516 -213 3069 169 
Q 2866 344 2809 597 
L 2763 819 
z
M 2628 1431 
L 2431 2350 
Q 2275 3081 1850 3084 
Q 1491 3088 1219 2703 
Q 991 2388 991 1663 
Q 991 975 1219 622 
Q 1463 238 1884 269 
Q 2244 297 2503 1063 
L 2628 1431 
z
" transform="scale(0.015625)"/>
       <path id="DejaVuSerif-3d" d="M 678 2894 
L 4684 2894 
L 4684 2394 
L 678 2394 
L 678 2894 
z
M 678 1619 
L 4684 1619 
L 4684 1119 
L 678 1119 
L 678 1619 
z
" transform="scale(0.015625)"/>
       <path id="DejaVuSerif-2e" d="M 603 325 
Q 603 500 722 622 
Q 841 744 1019 744 
Q 1191 744 1312 622 
Q 1434 500 1434 325 
Q 1434 153 1312 31 
Q 1191 -91 1019 -91 
Q 841 -91 722 29 
Q 603 150 603 325 
z
" transform="scale(0.015625)"/>
       <path id="DejaVuSerif-35" d="M 3219 4666 
L 3219 4153 
L 1081 4153 
L 1081 2816 
Q 1244 2928 1461 2984 
Q 1678 3041 1947 3041 
Q 2703 3041 3140 2622 
Q 3578 2203 3578 1478 
Q 3578 738 3136 323 
Q 2694 -91 1894 -91 
Q 1572 -91 1234 -12 
Q 897 66 544 225 
L 544 1131 
L 897 1131 
Q 925 688 1179 453 
Q 1434 219 1894 219 
Q 2388 219 2653 544 
Q 2919 869 2919 1478 
Q 2919 2084 2655 2407 
Q 2391 2731 1894 2731 
Q 1613 2731 1398 2631 
Q 1184 2531 1019 2322 
L 750 2322 
L 750 4666 
L 3219 4666 
z
" transform="scale(0.015625)"/>
       <path id="DejaVuSerif-29" d="M 453 -997 
L 453 -691 
Q 934 -359 1145 242 
Q 1356 844 1356 1931 
Q 1356 3022 1145 3623 
Q 934 4225 453 4556 
L 453 4863 
Q 1216 4522 1603 3783 
Q 1991 3044 1991 1931 
Q 1991 822 1603 83 
Q 1216 -656 453 -997 
z
" transform="scale(0.015625)"/>
      </defs>
      <use xlink:href="#DejaVuSerif-4e"/>
      <use xlink:href="#DejaVuSerif-20" transform="translate(87.5 0)"/>
      <use xlink:href="#DejaVuSerif-53" transform="translate(119.287109 0)"/>
      <use xlink:href="#DejaVuSerif-74" transform="translate(187.792969 0)"/>
      <use xlink:href="#DejaVuSerif-61" transform="translate(227.978516 0)"/>
      <use xlink:href="#DejaVuSerif-74" transform="translate(287.597656 0)"/>
      <use xlink:href="#DejaVuSerif-69" transform="translate(327.783203 0)"/>
      <use xlink:href="#DejaVuSerif-6f" transform="translate(359.765625 0)"/>
      <use xlink:href="#DejaVuSerif-6e" transform="translate(419.970703 0)"/>
      <use xlink:href="#DejaVuSerif-73" transform="translate(484.375 0)"/>
      <use xlink:href="#DejaVuSerif-20" transform="translate(535.693359 0)"/>
      <use xlink:href="#DejaVuSerif-53" transform="translate(567.480469 0)"/>
      <use xlink:href="#DejaVuSerif-69" transform="translate(635.986328 0)"/>
      <use xlink:href="#DejaVuSerif-67" transform="translate(667.96875 0)"/>
      <use xlink:href="#DejaVuSerif-6e" transform="translate(731.982422 0)"/>
      <use xlink:href="#DejaVuSerif-69" transform="translate(796.386719 0)"/>
      <use xlink:href="#DejaVuSerif-66" transform="translate(828.369141 0)"/>
      <use xlink:href="#DejaVuSerif-69" transform="translate(865.380859 0)"/>
      <use xlink:href="#DejaVuSerif-63" transform="translate(897.363281 0)"/>
      <use xlink:href="#DejaVuSerif-61" transform="translate(953.369141 0)"/>
      <use xlink:href="#DejaVuSerif-6e" transform="translate(1012.988281 0)"/>
      <use xlink:href="#DejaVuSerif-74" transform="translate(1077.392578 0)"/>
      <use xlink:href="#DejaVuSerif-20" transform="translate(1117.578125 0)"/>
      <use xlink:href="#DejaVuSerif-28" transform="translate(1149.365234 0)"/>
      <use xlink:href="#DejaVuSerif-3b1" transform="translate(1188.378906 0)"/>
      <use xlink:href="#DejaVuSerif-20" transform="translate(1255.908203 0)"/>
      <use xlink:href="#DejaVuSerif-3d" transform="translate(1287.695312 0)"/>
      <use xlink:href="#DejaVuSerif-20" transform="translate(1371.484375 0)"/>
      <use xlink:href="#DejaVuSerif-30" transform="translate(1403.271484 0)"/>
      <use xlink:href="#DejaVuSerif-2e" transform="translate(1466.894531 0)"/>
      <use xlink:href="#DejaVuSerif-30" transform="translate(1498.681641 0)"/>
      <use xlink:href="#DejaVuSerif-35" transform="translate(1562.304688 0)"/>
      <use xlink:href="#DejaVuSerif-29" transform="translate(1625.927734 0)"/>
     </g>
    </g>
   </g>
   <g id="patch_15">
    <path d="M 45.617813 375.961481 
L 45.617813 25.158281 
" style="fill: none; stroke: #000000; stroke-linejoin: miter; stroke-linecap: square"/>
   </g>
   <g id="patch_16">
    <path d="M 45.617812 375.961481 
L 632.296562 375.961481 
" style="fill: none; stroke: #000000; stroke-linejoin: miter; stroke-linecap: square"/>
   </g>
   <g id="text_13">
    <!-- W p=0.460 -->
    <g style="fill: #37474f" transform="translate(128.574105 384.731561) scale(0.07 -0.07)">
     <defs>
      <path id="DejaVuSerif-70" d="M 1313 1825 
L 1313 1497 
Q 1313 897 1542 583 
Q 1772 269 2209 269 
Q 2650 269 2876 622 
Q 3103 975 3103 1663 
Q 3103 2353 2876 2703 
Q 2650 3053 2209 3053 
Q 1772 3053 1542 2737 
Q 1313 2422 1313 1825 
z
M 738 2988 
L 184 2988 
L 184 3322 
L 1313 3322 
L 1313 2803 
Q 1481 3116 1742 3264 
Q 2003 3413 2388 3413 
Q 3000 3413 3387 2928 
Q 3775 2444 3775 1663 
Q 3775 881 3387 395 
Q 3000 -91 2388 -91 
Q 2003 -91 1742 57 
Q 1481 206 1313 519 
L 1313 -997 
L 1856 -997 
L 1856 -1331 
L 184 -1331 
L 184 -997 
L 738 -997 
L 738 2988 
z
" transform="scale(0.015625)"/>
     </defs>
     <use xlink:href="#DejaVuSerif-57"/>
     <use xlink:href="#DejaVuSerif-20" transform="translate(102.783203 0)"/>
     <use xlink:href="#DejaVuSerif-70" transform="translate(134.570312 0)"/>
     <use xlink:href="#DejaVuSerif-3d" transform="translate(198.583984 0)"/>
     <use xlink:href="#DejaVuSerif-30" transform="translate(282.373047 0)"/>
     <use xlink:href="#DejaVuSerif-2e" transform="translate(345.996094 0)"/>
     <use xlink:href="#DejaVuSerif-34" transform="translate(377.783203 0)"/>
     <use xlink:href="#DejaVuSerif-36" transform="translate(441.40625 0)"/>
     <use xlink:href="#DejaVuSerif-30" transform="translate(505.029297 0)"/>
    </g>
   </g>
   <g id="text_14">
    <!-- W p=0.118 -->
    <g style="fill: #37474f" transform="translate(319.054219 384.731561) scale(0.07 -0.07)">
     <use xlink:href="#DejaVuSerif-57"/>
     <use xlink:href="#DejaVuSerif-20" transform="translate(102.783203 0)"/>
     <use xlink:href="#DejaVuSerif-70" transform="translate(134.570312 0)"/>
     <use xlink:href="#DejaVuSerif-3d" transform="translate(198.583984 0)"/>
     <use xlink:href="#DejaVuSerif-30" transform="translate(282.373047 0)"/>
     <use xlink:href="#DejaVuSerif-2e" transform="translate(345.996094 0)"/>
     <use xlink:href="#DejaVuSerif-31" transform="translate(377.783203 0)"/>
     <use xlink:href="#DejaVuSerif-31" transform="translate(441.40625 0)"/>
     <use xlink:href="#DejaVuSerif-38" transform="translate(505.029297 0)"/>
    </g>
   </g>
   <g id="text_15">
    <!-- W p=0.020 -->
    <g style="fill: #37474f" transform="translate(509.534332 384.731561) scale(0.07 -0.07)">
     <use xlink:href="#DejaVuSerif-57"/>
     <use xlink:href="#DejaVuSerif-20" transform="translate(102.783203 0)"/>
     <use xlink:href="#DejaVuSerif-70" transform="translate(134.570312 0)"/>
     <use xlink:href="#DejaVuSerif-3d" transform="translate(198.583984 0)"/>
     <use xlink:href="#DejaVuSerif-30" transform="translate(282.373047 0)"/>
     <use xlink:href="#DejaVuSerif-2e" transform="translate(345.996094 0)"/>
     <use xlink:href="#DejaVuSerif-30" transform="translate(377.783203 0)"/>
     <use xlink:href="#DejaVuSerif-32" transform="translate(441.40625 0)"/>
     <use xlink:href="#DejaVuSerif-30" transform="translate(505.029297 0)"/>
    </g>
   </g>
   <g id="text_16">
    <!-- Values below bars: Walker field-significance p (MK only) -->
    <g style="fill: #546e7a" transform="translate(51.4846 418.057865) scale(0.07 -0.07)">
     <defs>
      <path id="DejaVuSerif-56" d="M 1119 4331 
L 2497 750 
L 3872 4331 
L 3347 4331 
L 3347 4666 
L 4716 4666 
L 4716 4331 
L 4263 4331 
L 2597 0 
L 2059 0 
L 403 4331 
L -63 4331 
L -63 4666 
L 1638 4666 
L 1638 4331 
L 1119 4331 
z
" transform="scale(0.015625)"/>
      <path id="DejaVuSerif-62" d="M 738 331 
L 738 4531 
L 184 4531 
L 184 4863 
L 1313 4863 
L 1313 2803 
Q 1481 3116 1742 3264 
Q 2003 3413 2388 3413 
Q 3000 3413 3387 2928 
Q 3775 2444 3775 1663 
Q 3775 881 3387 395 
Q 3000 -91 2388 -91 
Q 2003 -91 1742 57 
Q 1481 206 1313 519 
L 1313 0 
L 184 0 
L 184 331 
L 738 331 
z
M 1313 1497 
Q 1313 897 1542 583 
Q 1772 269 2209 269 
Q 2650 269 2876 622 
Q 3103 975 3103 1663 
Q 3103 2353 2876 2703 
Q 2650 3053 2209 3053 
Q 1772 3053 1542 2737 
Q 1313 2422 1313 1825 
L 1313 1497 
z
" transform="scale(0.015625)"/>
      <path id="DejaVuSerif-77" d="M 3072 3322 
L 3922 728 
L 4672 2988 
L 4191 2988 
L 4191 3322 
L 5394 3322 
L 5394 2988 
L 5025 2988 
L 4038 0 
L 3559 0 
L 2741 2484 
L 1919 0 
L 1459 0 
L 475 2988 
L 103 2988 
L 103 3322 
L 1606 3322 
L 1606 2988 
L 1069 2988 
L 1813 728 
L 2669 3322 
L 3072 3322 
z
" transform="scale(0.015625)"/>
      <path id="DejaVuSerif-3a" d="M 666 325 
Q 666 500 786 622 
Q 906 744 1081 744 
Q 1256 744 1376 622 
Q 1497 500 1497 325 
Q 1497 150 1378 29 
Q 1259 -91 1081 -91 
Q 903 -91 784 29 
Q 666 150 666 325 
z
M 666 2363 
Q 666 2538 786 2658 
Q 906 2778 1081 2778 
Q 1259 2778 1378 2659 
Q 1497 2541 1497 2363 
Q 1497 2184 1378 2065 
Q 1259 1947 1081 1947 
Q 906 1947 786 2067 
Q 666 2188 666 2363 
z
" transform="scale(0.015625)"/>
      <path id="DejaVuSerif-6b" d="M 1831 0 
L 219 0 
L 219 331 
L 738 331 
L 738 4531 
L 184 4531 
L 184 4863 
L 1313 4863 
L 1313 1697 
L 2713 2988 
L 2234 2988 
L 2234 3322 
L 3738 3322 
L 3738 2988 
L 3169 2988 
L 2181 2075 
L 3444 331 
L 3922 331 
L 3922 0 
L 2284 0 
L 2284 331 
L 2759 331 
L 1766 1697 
L 1313 1275 
L 1313 331 
L 1831 331 
L 1831 0 
z
" transform="scale(0.015625)"/>
      <path id="DejaVuSerif-64" d="M 3359 331 
L 3909 331 
L 3909 0 
L 2784 0 
L 2784 519 
Q 2616 206 2355 57 
Q 2094 -91 1709 -91 
Q 1097 -91 708 395 
Q 319 881 319 1663 
Q 319 2444 706 2928 
Q 1094 3413 1709 3413 
Q 2094 3413 2355 3264 
Q 2616 3116 2784 2803 
L 2784 4531 
L 2241 4531 
L 2241 4863 
L 3359 4863 
L 3359 331 
z
M 2784 1497 
L 2784 1825 
Q 2784 2422 2554 2737 
Q 2325 3053 1888 3053 
Q 1444 3053 1217 2703 
Q 991 2353 991 1663 
Q 991 975 1217 622 
Q 1444 269 1888 269 
Q 2325 269 2554 583 
Q 2784 897 2784 1497 
z
" transform="scale(0.015625)"/>
      <path id="DejaVuSerif-2d" d="M 281 1959 
L 1881 1959 
L 1881 1472 
L 281 1472 
L 281 1959 
z
" transform="scale(0.015625)"/>
      <path id="DejaVuSerif-4d" d="M 353 0 
L 353 331 
L 947 331 
L 947 4331 
L 319 4331 
L 319 4666 
L 1678 4666 
L 3316 1344 
L 4953 4666 
L 6228 4666 
L 6228 4331 
L 5606 4331 
L 5606 331 
L 6203 331 
L 6203 0 
L 4378 0 
L 4378 331 
L 4972 331 
L 4972 3938 
L 3372 684 
L 2931 684 
L 1331 3938 
L 1331 331 
L 1925 331 
L 1925 0 
L 353 0 
z
" transform="scale(0.015625)"/>
      <path id="DejaVuSerif-4b" d="M 353 0 
L 353 331 
L 947 331 
L 947 4331 
L 353 4331 
L 353 4666 
L 2175 4666 
L 2175 4331 
L 1581 4331 
L 1581 2566 
L 3591 4331 
L 3084 4331 
L 3084 4666 
L 4634 4666 
L 4634 4331 
L 4109 4331 
L 2106 2572 
L 4347 331 
L 4878 331 
L 4878 0 
L 3794 0 
L 1581 2216 
L 1581 331 
L 2175 331 
L 2175 0 
L 353 0 
z
" transform="scale(0.015625)"/>
     </defs>
     <use xlink:href="#DejaVuSerif-56"/>
     <use xlink:href="#DejaVuSerif-61" transform="translate(63.091797 0)"/>
     <use xlink:href="#DejaVuSerif-6c" transform="translate(122.710938 0)"/>
     <use xlink:href="#DejaVuSerif-75" transform="translate(154.693359 0)"/>
     <use xlink:href="#DejaVuSerif-65" transform="translate(219.097656 0)"/>
     <use xlink:href="#DejaVuSerif-73" transform="translate(278.277344 0)"/>
     <use xlink:href="#DejaVuSerif-20" transform="translate(329.595703 0)"/>
     <use xlink:href="#DejaVuSerif-62" transform="translate(361.382812 0)"/>
     <use xlink:href="#DejaVuSerif-65" transform="translate(425.396484 0)"/>
     <use xlink:href="#DejaVuSerif-6c" transform="translate(484.576172 0)"/>
     <use xlink:href="#DejaVuSerif-6f" transform="translate(516.558594 0)"/>
     <use xlink:href="#DejaVuSerif-77" transform="translate(576.763672 0)"/>
     <use xlink:href="#DejaVuSerif-20" transform="translate(662.359375 0)"/>
     <use xlink:href="#DejaVuSerif-62" transform="translate(694.146484 0)"/>
     <use xlink:href="#DejaVuSerif-61" transform="translate(758.160156 0)"/>
     <use xlink:href="#DejaVuSerif-72" transform="translate(817.779297 0)"/>
     <use xlink:href="#DejaVuSerif-73" transform="translate(865.582031 0)"/>
     <use xlink:href="#DejaVuSerif-3a" transform="translate(916.900391 0)"/>
     <use xlink:href="#DejaVuSerif-20" transform="translate(950.591797 0)"/>
     <use xlink:href="#DejaVuSerif-57" transform="translate(982.378906 0)"/>
     <use xlink:href="#DejaVuSerif-61" transform="translate(1076.412109 0)"/>
     <use xlink:href="#DejaVuSerif-6c" transform="translate(1136.03125 0)"/>
     <use xlink:href="#DejaVuSerif-6b" transform="translate(1168.013672 0)"/>
     <use xlink:href="#DejaVuSerif-65" transform="translate(1228.609375 0)"/>
     <use xlink:href="#DejaVuSerif-72" transform="translate(1287.789062 0)"/>
     <use xlink:href="#DejaVuSerif-20" transform="translate(1335.591797 0)"/>
     <use xlink:href="#DejaVuSerif-66" transform="translate(1367.378906 0)"/>
     <use xlink:href="#DejaVuSerif-69" transform="translate(1404.390625 0)"/>
     <use xlink:href="#DejaVuSerif-65" transform="translate(1436.373047 0)"/>
     <use xlink:href="#DejaVuSerif-6c" transform="translate(1495.552734 0)"/>
     <use xlink:href="#DejaVuSerif-64" transform="translate(1527.535156 0)"/>
     <use xlink:href="#DejaVuSerif-2d" transform="translate(1591.548828 0)"/>
     <use xlink:href="#DejaVuSerif-73" transform="translate(1625.337891 0)"/>
     <use xlink:href="#DejaVuSerif-69" transform="translate(1676.65625 0)"/>
     <use xlink:href="#DejaVuSerif-67" transform="translate(1708.638672 0)"/>
     <use xlink:href="#DejaVuSerif-6e" transform="translate(1772.652344 0)"/>
     <use xlink:href="#DejaVuSerif-69" transform="translate(1837.056641 0)"/>
     <use xlink:href="#DejaVuSerif-66" transform="translate(1869.039062 0)"/>
     <use xlink:href="#DejaVuSerif-69" transform="translate(1906.050781 0)"/>
     <use xlink:href="#DejaVuSerif-63" transform="translate(1938.033203 0)"/>
     <use xlink:href="#DejaVuSerif-61" transform="translate(1994.039062 0)"/>
     <use xlink:href="#DejaVuSerif-6e" transform="translate(2053.658203 0)"/>
     <use xlink:href="#DejaVuSerif-63" transform="translate(2118.0625 0)"/>
     <use xlink:href="#DejaVuSerif-65" transform="translate(2174.068359 0)"/>
     <use xlink:href="#DejaVuSerif-20" transform="translate(2233.248047 0)"/>
     <use xlink:href="#DejaVuSerif-70" transform="translate(2265.035156 0)"/>
     <use xlink:href="#DejaVuSerif-20" transform="translate(2329.048828 0)"/>
     <use xlink:href="#DejaVuSerif-28" transform="translate(2360.835938 0)"/>
     <use xlink:href="#DejaVuSerif-4d" transform="translate(2399.849609 0)"/>
     <use xlink:href="#DejaVuSerif-4b" transform="translate(2502.242188 0)"/>
     <use xlink:href="#DejaVuSerif-20" transform="translate(2576.949219 0)"/>
     <use xlink:href="#DejaVuSerif-6f" transform="translate(2608.736328 0)"/>
     <use xlink:href="#DejaVuSerif-6e" transform="translate(2668.941406 0)"/>
     <use xlink:href="#DejaVuSerif-6c" transform="translate(2733.345703 0)"/>
     <use xlink:href="#DejaVuSerif-79" transform="translate(2765.328125 0)"/>
     <use xlink:href="#DejaVuSerif-29" transform="translate(2821.822266 0)"/>
    </g>
   </g>
   <g id="text_17">
    <!-- Figure 8: Field Significance Comparison — N Significant Stations -->
    <g transform="translate(136.984297 19.158281) scale(0.11 -0.11)">
     <defs>
      <path id="DejaVuSerif-Bold-46" d="M 300 0 
L 300 378 
L 897 378 
L 897 4288 
L 300 4288 
L 300 4666 
L 4459 4666 
L 4459 3566 
L 4031 3566 
L 4031 4238 
L 2106 4238 
L 2106 2741 
L 3291 2741 
L 3291 3334 
L 3719 3334 
L 3719 1722 
L 3291 1722 
L 3291 2316 
L 2106 2316 
L 2106 378 
L 2841 378 
L 2841 0 
L 300 0 
z
" transform="scale(0.015625)"/>
      <path id="DejaVuSerif-Bold-69" d="M 588 4263 
Q 588 4516 763 4689 
Q 938 4863 1191 4863 
Q 1438 4863 1611 4689 
Q 1784 4516 1784 4263 
Q 1784 4016 1611 3842 
Q 1438 3669 1191 3669 
Q 938 3669 763 3841 
Q 588 4013 588 4263 
z
M 1797 378 
L 2272 378 
L 2272 0 
L 219 0 
L 219 378 
L 691 378 
L 691 2944 
L 219 2944 
L 219 3322 
L 1797 3322 
L 1797 378 
z
" transform="scale(0.015625)"/>
      <path id="DejaVuSerif-Bold-67" d="M 3853 2944 
L 3853 44 
Q 3853 -656 3354 -1039 
Q 2856 -1422 1947 -1422 
Q 1616 -1422 1275 -1370 
Q 934 -1319 575 -1216 
L 575 -422 
L 928 -422 
Q 975 -750 1192 -909 
Q 1409 -1069 1813 -1069 
Q 2325 -1069 2536 -823 
Q 2747 -578 2747 44 
L 2747 422 
Q 2606 163 2367 36 
Q 2128 -91 1778 -91 
Q 1072 -91 667 378 
Q 263 847 263 1663 
Q 263 2481 667 2947 
Q 1072 3413 1778 3413 
Q 2128 3413 2367 3286 
Q 2606 3159 2747 2900 
L 2747 3322 
L 4325 3322 
L 4325 2944 
L 3853 2944 
z
M 2747 1825 
Q 2747 2406 2597 2665 
Q 2447 2925 2119 2925 
Q 1775 2925 1636 2651 
Q 1497 2378 1497 1663 
Q 1497 947 1637 672 
Q 1778 397 2119 397 
Q 2447 397 2597 656 
Q 2747 916 2747 1497 
L 2747 1825 
z
" transform="scale(0.015625)"/>
      <path id="DejaVuSerif-Bold-75" d="M 3963 3322 
L 3963 378 
L 4434 378 
L 4434 0 
L 2853 0 
L 2853 469 
Q 2656 172 2400 40 
Q 2144 -91 1753 -91 
Q 1194 -91 908 239 
Q 622 569 622 1209 
L 622 2944 
L 147 2944 
L 147 3322 
L 1728 3322 
L 1728 1381 
Q 1728 763 1831 595 
Q 1934 428 2209 428 
Q 2544 428 2698 675 
Q 2853 922 2853 1459 
L 2853 2944 
L 2450 2944 
L 2450 3322 
L 3963 3322 
z
" transform="scale(0.015625)"/>
      <path id="DejaVuSerif-Bold-72" d="M 3438 3359 
L 3438 2369 
L 3084 2369 
Q 3066 2634 2941 2764 
Q 2816 2894 2578 2894 
Q 2216 2894 2006 2575 
Q 1797 2256 1797 1691 
L 1797 378 
L 2400 378 
L 2400 0 
L 219 0 
L 219 378 
L 691 378 
L 691 2944 
L 184 2944 
L 184 3322 
L 1797 3322 
L 1797 2731 
Q 1959 3078 2226 3245 
Q 2494 3413 2881 3413 
Q 2978 3413 3117 3398 
Q 3256 3384 3438 3359 
z
" transform="scale(0.015625)"/>
      <path id="DejaVuSerif-Bold-65" d="M 2566 1875 
Q 2566 2531 2444 2795 
Q 2322 3059 2028 3059 
Q 1744 3059 1620 2800 
Q 1497 2541 1497 1931 
L 1497 1875 
L 2566 1875 
z
M 3781 1503 
L 1497 1503 
L 1497 1478 
Q 1497 834 1690 548 
Q 1884 263 2316 263 
Q 2675 263 2897 453 
Q 3119 644 3181 1006 
L 3700 1006 
Q 3566 441 3166 175 
Q 2766 -91 2047 -91 
Q 1184 -91 723 364 
Q 263 819 263 1663 
Q 263 2488 734 2950 
Q 1206 3413 2047 3413 
Q 2872 3413 3312 2927 
Q 3753 2441 3781 1503 
z
" transform="scale(0.015625)"/>
      <path id="DejaVuSerif-Bold-20" transform="scale(0.015625)"/>
      <path id="DejaVuSerif-Bold-38" d="M 2975 2484 
Q 3531 2394 3820 2075 
Q 4109 1756 4109 1241 
Q 4109 597 3623 253 
Q 3138 -91 2222 -91 
Q 1306 -91 818 253 
Q 331 597 331 1241 
Q 331 1756 622 2075 
Q 913 2394 1466 2484 
Q 975 2597 731 2861 
Q 488 3125 488 3531 
Q 488 4125 931 4437 
Q 1375 4750 2222 4750 
Q 3066 4750 3511 4437 
Q 3956 4125 3956 3531 
Q 3956 3125 3711 2861 
Q 3466 2597 2975 2484 
z
M 2747 3519 
Q 2747 4013 2628 4198 
Q 2509 4384 2222 4384 
Q 1931 4384 1814 4198 
Q 1697 4013 1697 3519 
Q 1697 3028 1814 2845 
Q 1931 2663 2222 2663 
Q 2513 2663 2630 2845 
Q 2747 3028 2747 3519 
z
M 2869 1294 
Q 2869 1866 2723 2081 
Q 2578 2297 2222 2297 
Q 1863 2297 1719 2081 
Q 1575 1866 1575 1294 
Q 1575 716 1720 495 
Q 1866 275 2222 275 
Q 2575 275 2722 495 
Q 2869 716 2869 1294 
z
" transform="scale(0.015625)"/>
      <path id="DejaVuSerif-Bold-3a" d="M 588 2541 
Q 588 2788 761 2963 
Q 934 3138 1178 3138 
Q 1422 3138 1597 2961 
Q 1772 2784 1772 2541 
Q 1772 2297 1598 2125 
Q 1425 1953 1178 1953 
Q 931 1953 759 2125 
Q 588 2297 588 2541 
z
M 588 506 
Q 588 750 761 925 
Q 934 1100 1178 1100 
Q 1422 1100 1597 925 
Q 1772 750 1772 506 
Q 1772 259 1597 84 
Q 1422 -91 1178 -91 
Q 934 -91 761 84 
Q 588 259 588 506 
z
" transform="scale(0.015625)"/>
      <path id="DejaVuSerif-Bold-6c" d="M 1797 378 
L 2272 378 
L 2272 0 
L 219 0 
L 219 378 
L 691 378 
L 691 4488 
L 219 4488 
L 219 4863 
L 1797 4863 
L 1797 378 
z
" transform="scale(0.015625)"/>
      <path id="DejaVuSerif-Bold-64" d="M 2747 1497 
L 2747 1825 
Q 2747 2406 2597 2665 
Q 2447 2925 2119 2925 
Q 1775 2925 1636 2651 
Q 1497 2378 1497 1663 
Q 1497 947 1637 672 
Q 1778 397 2119 397 
Q 2447 397 2597 656 
Q 2747 916 2747 1497 
z
M 3853 378 
L 4325 378 
L 4325 0 
L 2747 0 
L 2747 422 
Q 2606 163 2367 36 
Q 2128 -91 1778 -91 
Q 1072 -91 667 378 
Q 263 847 263 1663 
Q 263 2481 667 2947 
Q 1072 3413 1778 3413 
Q 2128 3413 2367 3286 
Q 2606 3159 2747 2900 
L 2747 4488 
L 2272 4488 
L 2272 4863 
L 3853 4863 
L 3853 378 
z
" transform="scale(0.015625)"/>
      <path id="DejaVuSerif-Bold-53" d="M 494 225 
L 494 1331 
L 891 1331 
Q 981 806 1318 547 
Q 1656 288 2253 288 
Q 2738 288 2991 472 
Q 3244 656 3244 1013 
Q 3244 1294 3072 1450 
Q 2900 1606 2363 1741 
L 1663 1913 
Q 978 2088 700 2398 
Q 422 2709 422 3284 
Q 422 3978 883 4364 
Q 1344 4750 2175 4750 
Q 2584 4750 3026 4681 
Q 3469 4613 3944 4475 
L 3944 3444 
L 3547 3444 
Q 3456 3925 3150 4148 
Q 2844 4372 2278 4372 
Q 1816 4372 1580 4211 
Q 1344 4050 1344 3731 
Q 1344 3441 1506 3289 
Q 1669 3138 2303 2975 
L 3003 2803 
Q 3653 2641 3945 2297 
Q 4238 1953 4238 1350 
Q 4238 644 3750 276 
Q 3263 -91 2316 -91 
Q 1859 -91 1409 -12 
Q 959 66 494 225 
z
" transform="scale(0.015625)"/>
      <path id="DejaVuSerif-Bold-6e" d="M 219 0 
L 219 378 
L 691 378 
L 691 2944 
L 219 2944 
L 219 3322 
L 1797 3322 
L 1797 2853 
Q 1997 3150 2253 3281 
Q 2509 3413 2900 3413 
Q 3459 3413 3745 3083 
Q 4031 2753 4031 2113 
L 4031 378 
L 4506 378 
L 4506 0 
L 2522 0 
L 2522 378 
L 2925 378 
L 2925 2144 
Q 2925 2566 2817 2730 
Q 2709 2894 2444 2894 
Q 2109 2894 1953 2648 
Q 1797 2403 1797 1869 
L 1797 378 
L 2203 378 
L 2203 0 
L 219 0 
z
" transform="scale(0.015625)"/>
      <path id="DejaVuSerif-Bold-66" d="M 3097 4031 
L 2747 4031 
Q 2722 4275 2605 4394 
Q 2488 4513 2272 4513 
Q 2022 4513 1909 4333 
Q 1797 4153 1797 3750 
L 1797 3322 
L 2631 3322 
L 2631 2944 
L 1797 2944 
L 1797 378 
L 2438 378 
L 2438 0 
L 219 0 
L 219 378 
L 691 378 
L 691 2944 
L 197 2944 
L 197 3322 
L 691 3322 
L 691 3738 
Q 691 4291 1044 4577 
Q 1397 4863 2081 4863 
Q 2347 4863 2600 4833 
Q 2853 4803 3097 4744 
L 3097 4031 
z
" transform="scale(0.015625)"/>
      <path id="DejaVuSerif-Bold-63" d="M 3609 1038 
Q 3491 469 3123 189 
Q 2756 -91 2125 -91 
Q 1238 -91 750 368 
Q 263 828 263 1663 
Q 263 2488 744 2950 
Q 1225 3413 2081 3413 
Q 2428 3413 2781 3347 
Q 3134 3281 3500 3150 
L 3500 2228 
L 3150 2228 
Q 3100 2650 2903 2854 
Q 2706 3059 2350 3059 
Q 1888 3059 1692 2746 
Q 1497 2434 1497 1663 
Q 1497 909 1687 586 
Q 1878 263 2309 263 
Q 2644 263 2845 463 
Q 3047 663 3091 1038 
L 3609 1038 
z
" transform="scale(0.015625)"/>
      <path id="DejaVuSerif-Bold-61" d="M 3525 2041 
L 3525 378 
L 4000 378 
L 4000 0 
L 2419 0 
L 2419 422 
Q 2200 159 1931 34 
Q 1663 -91 1319 -91 
Q 809 -91 536 182 
Q 263 456 263 966 
Q 263 1525 655 1803 
Q 1047 2081 1838 2081 
L 2419 2081 
L 2419 2278 
Q 2419 2681 2228 2873 
Q 2038 3066 1638 3066 
Q 1306 3066 1126 2930 
Q 947 2794 872 2484 
L 519 2484 
L 519 3200 
Q 816 3306 1134 3359 
Q 1453 3413 1806 3413 
Q 2697 3413 3111 3081 
Q 3525 2750 3525 2041 
z
M 2419 1044 
L 2419 1709 
L 2003 1709 
Q 1694 1709 1528 1540 
Q 1363 1372 1363 1056 
Q 1363 741 1483 584 
Q 1603 428 1850 428 
Q 2106 428 2262 597 
Q 2419 766 2419 1044 
z
" transform="scale(0.015625)"/>
      <path id="DejaVuSerif-Bold-43" d="M 4769 1331 
Q 4584 609 4106 259 
Q 3628 -91 2822 -91 
Q 1641 -91 955 561 
Q 269 1213 269 2328 
Q 269 3447 955 4098 
Q 1641 4750 2822 4750 
Q 3238 4750 3688 4650 
Q 4138 4550 4641 4347 
L 4641 3200 
L 4244 3200 
Q 4122 3788 3800 4080 
Q 3478 4372 2950 4372 
Q 2269 4372 1937 3870 
Q 1606 3369 1606 2328 
Q 1606 1288 1937 788 
Q 2269 288 2956 288 
Q 3422 288 3717 547 
Q 4013 806 4147 1331 
L 4769 1331 
z
" transform="scale(0.015625)"/>
      <path id="DejaVuSerif-Bold-6f" d="M 2138 263 
Q 2488 263 2630 563 
Q 2772 863 2772 1663 
Q 2772 2463 2631 2761 
Q 2491 3059 2138 3059 
Q 1784 3059 1640 2757 
Q 1497 2456 1497 1663 
Q 1497 869 1640 566 
Q 1784 263 2138 263 
z
M 2138 -91 
Q 1259 -91 761 376 
Q 263 844 263 1663 
Q 263 2484 761 2948 
Q 1259 3413 2138 3413 
Q 3019 3413 3516 2948 
Q 4013 2484 4013 1663 
Q 4013 844 3514 376 
Q 3016 -91 2138 -91 
z
" transform="scale(0.015625)"/>
      <path id="DejaVuSerif-Bold-6d" d="M 3884 2778 
Q 4116 3109 4384 3261 
Q 4653 3413 5013 3413 
Q 5584 3413 5867 3089 
Q 6150 2766 6150 2113 
L 6150 378 
L 6625 378 
L 6625 0 
L 4647 0 
L 4647 378 
L 5044 378 
L 5044 1947 
Q 5044 2569 4948 2731 
Q 4853 2894 4594 2894 
Q 4300 2894 4137 2667 
Q 3975 2441 3975 2022 
L 3975 378 
L 4372 378 
L 4372 0 
L 2472 0 
L 2472 378 
L 2869 378 
L 2869 1947 
Q 2869 2569 2772 2731 
Q 2675 2894 2419 2894 
Q 2122 2894 1959 2667 
Q 1797 2441 1797 2022 
L 1797 378 
L 2194 378 
L 2194 0 
L 219 0 
L 219 378 
L 691 378 
L 691 2944 
L 219 2944 
L 219 3322 
L 1797 3322 
L 1797 2853 
Q 1991 3144 2241 3278 
Q 2491 3413 2834 3413 
Q 3241 3413 3494 3258 
Q 3747 3103 3884 2778 
z
" transform="scale(0.015625)"/>
      <path id="DejaVuSerif-Bold-70" d="M 1728 1825 
L 1728 1497 
Q 1728 916 1876 656 
Q 2025 397 2356 397 
Q 2697 397 2836 672 
Q 2975 947 2975 1663 
Q 2975 2378 2836 2651 
Q 2697 2925 2356 2925 
Q 2025 2925 1876 2665 
Q 1728 2406 1728 1825 
z
M 622 2944 
L 147 2944 
L 147 3322 
L 1728 3322 
L 1728 2900 
Q 1869 3159 2106 3286 
Q 2344 3413 2694 3413 
Q 3403 3413 3811 2945 
Q 4219 2478 4219 1663 
Q 4219 847 3811 378 
Q 3403 -91 2694 -91 
Q 2344 -91 2106 36 
Q 1869 163 1728 422 
L 1728 -953 
L 2241 -953 
L 2241 -1331 
L 147 -1331 
L 147 -953 
L 622 -953 
L 622 2944 
z
" transform="scale(0.015625)"/>
      <path id="DejaVuSerif-Bold-73" d="M 300 97 
L 300 1025 
L 653 1025 
Q 697 653 931 458 
Q 1166 263 1569 263 
Q 1906 263 2086 380 
Q 2266 497 2266 716 
Q 2266 916 2152 1025 
Q 2038 1134 1709 1216 
L 1253 1331 
Q 738 1459 506 1698 
Q 275 1938 275 2344 
Q 275 2884 650 3148 
Q 1025 3413 1806 3413 
Q 2100 3413 2433 3364 
Q 2766 3316 3169 3213 
L 3169 2375 
L 2816 2375 
Q 2788 2716 2573 2887 
Q 2359 3059 1959 3059 
Q 1622 3059 1448 2951 
Q 1275 2844 1275 2638 
Q 1275 2469 1375 2372 
Q 1475 2275 1734 2209 
L 2188 2094 
Q 2841 1928 3091 1684 
Q 3341 1441 3341 1006 
Q 3341 444 2939 176 
Q 2538 -91 1691 -91 
Q 1381 -91 1034 -44 
Q 688 3 300 97 
z
" transform="scale(0.015625)"/>
      <path id="DejaVuSerif-Bold-2014" d="M 344 2075 
L 6056 2075 
L 6056 1325 
L 344 1325 
L 344 2075 
z
" transform="scale(0.015625)"/>
      <path id="DejaVuSerif-Bold-4e" d="M 281 0 
L 281 378 
L 878 378 
L 878 4288 
L 281 4288 
L 281 4666 
L 1741 4666 
L 4556 1363 
L 4556 4288 
L 3963 4288 
L 3963 4666 
L 5594 4666 
L 5594 4288 
L 4997 4288 
L 4997 0 
L 4178 0 
L 1319 3372 
L 1319 378 
L 1913 378 
L 1913 0 
L 281 0 
z
" transform="scale(0.015625)"/>
      <path id="DejaVuSerif-Bold-74" d="M 634 2944 
L 153 2944 
L 153 3322 
L 634 3322 
L 634 4353 
L 1741 4353 
L 1741 3322 
L 2663 3322 
L 2663 2944 
L 1741 2944 
L 1741 909 
Q 1741 475 1809 369 
Q 1878 263 2059 263 
Q 2259 263 2356 397 
Q 2453 531 2459 813 
L 2925 813 
Q 2897 313 2651 111 
Q 2406 -91 1806 -91 
Q 1122 -91 878 123 
Q 634 338 634 909 
L 634 2944 
z
" transform="scale(0.015625)"/>
     </defs>
     <use xlink:href="#DejaVuSerif-Bold-46"/>
     <use xlink:href="#DejaVuSerif-Bold-69" transform="translate(70.996094 0)"/>
     <use xlink:href="#DejaVuSerif-Bold-67" transform="translate(108.984375 0)"/>
     <use xlink:href="#DejaVuSerif-Bold-75" transform="translate(178.90625 0)"/>
     <use xlink:href="#DejaVuSerif-Bold-72" transform="translate(251.611328 0)"/>
     <use xlink:href="#DejaVuSerif-Bold-65" transform="translate(304.296875 0)"/>
     <use xlink:href="#DejaVuSerif-Bold-20" transform="translate(367.919922 0)"/>
     <use xlink:href="#DejaVuSerif-Bold-38" transform="translate(402.734375 0)"/>
     <use xlink:href="#DejaVuSerif-Bold-3a" transform="translate(472.314453 0)"/>
     <use xlink:href="#DejaVuSerif-Bold-20" transform="translate(509.228516 0)"/>
     <use xlink:href="#DejaVuSerif-Bold-46" transform="translate(544.042969 0)"/>
     <use xlink:href="#DejaVuSerif-Bold-69" transform="translate(615.039062 0)"/>
     <use xlink:href="#DejaVuSerif-Bold-65" transform="translate(653.027344 0)"/>
     <use xlink:href="#DejaVuSerif-Bold-6c" transform="translate(716.650391 0)"/>
     <use xlink:href="#DejaVuSerif-Bold-64" transform="translate(754.638672 0)"/>
     <use xlink:href="#DejaVuSerif-Bold-20" transform="translate(824.560547 0)"/>
     <use xlink:href="#DejaVuSerif-Bold-53" transform="translate(859.375 0)"/>
     <use xlink:href="#DejaVuSerif-Bold-69" transform="translate(931.591797 0)"/>
     <use xlink:href="#DejaVuSerif-Bold-67" transform="translate(969.580078 0)"/>
     <use xlink:href="#DejaVuSerif-Bold-6e" transform="translate(1039.501953 0)"/>
     <use xlink:href="#DejaVuSerif-Bold-69" transform="translate(1112.207031 0)"/>
     <use xlink:href="#DejaVuSerif-Bold-66" transform="translate(1150.195312 0)"/>
     <use xlink:href="#DejaVuSerif-Bold-69" transform="translate(1193.212891 0)"/>
     <use xlink:href="#DejaVuSerif-Bold-63" transform="translate(1231.201172 0)"/>
     <use xlink:href="#DejaVuSerif-Bold-61" transform="translate(1292.089844 0)"/>
     <use xlink:href="#DejaVuSerif-Bold-6e" transform="translate(1356.884766 0)"/>
     <use xlink:href="#DejaVuSerif-Bold-63" transform="translate(1429.589844 0)"/>
     <use xlink:href="#DejaVuSerif-Bold-65" transform="translate(1490.478516 0)"/>
     <use xlink:href="#DejaVuSerif-Bold-20" transform="translate(1554.101562 0)"/>
     <use xlink:href="#DejaVuSerif-Bold-43" transform="translate(1588.916016 0)"/>
     <use xlink:href="#DejaVuSerif-Bold-6f" transform="translate(1668.505859 0)"/>
     <use xlink:href="#DejaVuSerif-Bold-6d" transform="translate(1735.205078 0)"/>
     <use xlink:href="#DejaVuSerif-Bold-70" transform="translate(1841.015625 0)"/>
     <use xlink:href="#DejaVuSerif-Bold-61" transform="translate(1910.9375 0)"/>
     <use xlink:href="#DejaVuSerif-Bold-72" transform="translate(1975.732422 0)"/>
     <use xlink:href="#DejaVuSerif-Bold-69" transform="translate(2028.417969 0)"/>
     <use xlink:href="#DejaVuSerif-Bold-73" transform="translate(2066.40625 0)"/>
     <use xlink:href="#DejaVuSerif-Bold-6f" transform="translate(2122.705078 0)"/>
     <use xlink:href="#DejaVuSerif-Bold-6e" transform="translate(2189.404297 0)"/>
     <use xlink:href="#DejaVuSerif-Bold-20" transform="translate(2262.109375 0)"/>
     <use xlink:href="#DejaVuSerif-Bold-2014" transform="translate(2296.923828 0)"/>
     <use xlink:href="#DejaVuSerif-Bold-20" transform="translate(2396.923828 0)"/>
     <use xlink:href="#DejaVuSerif-Bold-4e" transform="translate(2431.738281 0)"/>
     <use xlink:href="#DejaVuSerif-Bold-20" transform="translate(2523.144531 0)"/>
     <use xlink:href="#DejaVuSerif-Bold-53" transform="translate(2557.958984 0)"/>
     <use xlink:href="#DejaVuSerif-Bold-69" transform="translate(2630.175781 0)"/>
     <use xlink:href="#DejaVuSerif-Bold-67" transform="translate(2668.164062 0)"/>
     <use xlink:href="#DejaVuSerif-Bold-6e" transform="translate(2738.085938 0)"/>
     <use xlink:href="#DejaVuSerif-Bold-69" transform="translate(2810.791016 0)"/>
     <use xlink:href="#DejaVuSerif-Bold-66" transform="translate(2848.779297 0)"/>
     <use xlink:href="#DejaVuSerif-Bold-69" transform="translate(2891.796875 0)"/>
     <use xlink:href="#DejaVuSerif-Bold-63" transform="translate(2929.785156 0)"/>
     <use xlink:href="#DejaVuSerif-Bold-61" transform="translate(2990.673828 0)"/>
     <use xlink:href="#DejaVuSerif-Bold-6e" transform="translate(3055.46875 0)"/>
     <use xlink:href="#DejaVuSerif-Bold-74" transform="translate(3128.173828 0)"/>
     <use xlink:href="#DejaVuSerif-Bold-20" transform="translate(3174.365234 0)"/>
     <use xlink:href="#DejaVuSerif-Bold-53" transform="translate(3209.179688 0)"/>
     <use xlink:href="#DejaVuSerif-Bold-74" transform="translate(3281.396484 0)"/>
     <use xlink:href="#DejaVuSerif-Bold-61" transform="translate(3327.587891 0)"/>
     <use xlink:href="#DejaVuSerif-Bold-74" transform="translate(3392.382812 0)"/>
     <use xlink:href="#DejaVuSerif-Bold-69" transform="translate(3438.574219 0)"/>
     <use xlink:href="#DejaVuSerif-Bold-6f" transform="translate(3476.5625 0)"/>
     <use xlink:href="#DejaVuSerif-Bold-6e" transform="translate(3543.261719 0)"/>
     <use xlink:href="#DejaVuSerif-Bold-73" transform="translate(3615.966797 0)"/>
    </g>
   </g>
   <g id="legend_1">
    <g id="patch_17">
     <path d="M 493.854062 85.199531 
L 625.996562 85.199531 
Q 627.796562 85.199531 627.796562 83.399531 
L 627.796562 31.458281 
Q 627.796562 29.658281 625.996562 29.658281 
L 493.854062 29.658281 
Q 492.054062 29.658281 492.054062 31.458281 
L 492.054062 83.399531 
Q 492.054062 85.199531 493.854062 85.199531 
z
" style="fill: #ffffff; opacity: 0.9; stroke: #cccccc; stroke-linejoin: miter"/>
    </g>
    <g id="patch_18">
     <path d="M 495.654062 40.096875 
L 513.654063 40.096875 
L 513.654063 33.796875 
L 495.654062 33.796875 
z
" style="fill: #6a1b9a; opacity: 0.8"/>
    </g>
    <g id="text_18">
     <!-- Standard MK -->
     <g transform="translate(520.854062 40.096875) scale(0.09 -0.09)">
      <use xlink:href="#DejaVuSerif-53"/>
      <use xlink:href="#DejaVuSerif-74" transform="translate(68.505859 0)"/>
      <use xlink:href="#DejaVuSerif-61" transform="translate(108.691406 0)"/>
      <use xlink:href="#DejaVuSerif-6e" transform="translate(168.310547 0)"/>
      <use xlink:href="#DejaVuSerif-64" transform="translate(232.714844 0)"/>
      <use xlink:href="#DejaVuSerif-61" transform="translate(296.728516 0)"/>
      <use xlink:href="#DejaVuSerif-72" transform="translate(356.347656 0)"/>
      <use xlink:href="#DejaVuSerif-64" transform="translate(404.150391 0)"/>
      <use xlink:href="#DejaVuSerif-20" transform="translate(468.164062 0)"/>
      <use xlink:href="#DejaVuSerif-4d" transform="translate(499.951172 0)"/>
      <use xlink:href="#DejaVuSerif-4b" transform="translate(602.34375 0)"/>
     </g>
    </g>
    <g id="patch_19">
     <path d="M 495.654062 53.307187 
L 513.654063 53.307187 
L 513.654063 47.007188 
L 495.654062 47.007188 
z
" style="fill: #0277bd; opacity: 0.8"/>
    </g>
    <g id="text_19">
     <!-- Modified MK (H&amp;R98) -->
     <g transform="translate(520.854062 53.307187) scale(0.09 -0.09)">
      <defs>
       <path id="DejaVuSerif-48" d="M 353 0 
L 353 331 
L 947 331 
L 947 4331 
L 353 4331 
L 353 4666 
L 2175 4666 
L 2175 4331 
L 1581 4331 
L 1581 2719 
L 4000 2719 
L 4000 4331 
L 3406 4331 
L 3406 4666 
L 5228 4666 
L 5228 4331 
L 4634 4331 
L 4634 331 
L 5228 331 
L 5228 0 
L 3406 0 
L 3406 331 
L 4000 331 
L 4000 2338 
L 1581 2338 
L 1581 331 
L 2175 331 
L 2175 0 
L 353 0 
z
" transform="scale(0.015625)"/>
       <path id="DejaVuSerif-26" d="M 3456 722 
L 1638 2638 
Q 1366 2394 1230 2111 
Q 1094 1828 1094 1509 
Q 1094 991 1453 639 
Q 1813 288 2350 288 
Q 2669 288 2951 398 
Q 3234 509 3456 722 
z
M 5394 0 
L 4141 0 
L 3713 453 
Q 3384 178 3012 43 
Q 2641 -91 2209 -91 
Q 1403 -91 931 321 
Q 459 734 459 1441 
Q 459 1856 698 2217 
Q 938 2578 1422 2894 
Q 1263 3084 1188 3273 
Q 1113 3463 1113 3669 
Q 1113 4166 1470 4458 
Q 1828 4750 2444 4750 
Q 2653 4750 2933 4697 
Q 3213 4644 3572 4538 
L 3572 3731 
L 3219 3731 
Q 3175 4066 2975 4241 
Q 2775 4416 2431 4416 
Q 2109 4416 1909 4239 
Q 1709 4063 1709 3781 
Q 1709 3591 1815 3402 
Q 1922 3213 2259 2859 
L 3872 1159 
Q 4088 1409 4211 1698 
Q 4334 1988 4366 2316 
L 3803 2316 
L 3803 2650 
L 5281 2650 
L 5281 2316 
L 4744 2316 
Q 4691 1909 4536 1556 
Q 4381 1203 4122 903 
L 4659 331 
L 5394 331 
L 5394 0 
z
" transform="scale(0.015625)"/>
       <path id="DejaVuSerif-52" d="M 3066 2316 
Q 3284 2256 3442 2114 
Q 3600 1972 3725 1716 
L 4403 331 
L 4972 331 
L 4972 0 
L 3872 0 
L 3144 1484 
Q 2934 1916 2759 2042 
Q 2584 2169 2278 2169 
L 1581 2169 
L 1581 331 
L 2241 331 
L 2241 0 
L 353 0 
L 353 331 
L 947 331 
L 947 4331 
L 353 4331 
L 353 4666 
L 2719 4666 
Q 3400 4666 3770 4341 
Q 4141 4016 4141 3419 
Q 4141 2938 3870 2661 
Q 3600 2384 3066 2316 
z
M 1581 2503 
L 2503 2503 
Q 2975 2503 3200 2726 
Q 3425 2950 3425 3419 
Q 3425 3888 3200 4109 
Q 2975 4331 2503 4331 
L 1581 4331 
L 1581 2503 
z
" transform="scale(0.015625)"/>
       <path id="DejaVuSerif-39" d="M 2994 2091 
Q 2784 1856 2512 1740 
Q 2241 1625 1900 1625 
Q 1206 1625 804 2044 
Q 403 2463 403 3188 
Q 403 3897 839 4323 
Q 1275 4750 2003 4750 
Q 2794 4750 3217 4161 
Q 3641 3572 3641 2478 
Q 3641 1253 3137 581 
Q 2634 -91 1722 -91 
Q 1475 -91 1203 -44 
Q 931 3 647 97 
L 647 872 
L 997 872 
Q 1038 556 1241 387 
Q 1444 219 1784 219 
Q 2391 219 2687 676 
Q 2984 1134 2994 2091 
z
M 1978 4441 
Q 1534 4441 1298 4117 
Q 1063 3794 1063 3188 
Q 1063 2581 1298 2256 
Q 1534 1931 1978 1931 
Q 2422 1931 2658 2245 
Q 2894 2559 2894 3150 
Q 2894 3772 2656 4106 
Q 2419 4441 1978 4441 
z
" transform="scale(0.015625)"/>
      </defs>
      <use xlink:href="#DejaVuSerif-4d"/>
      <use xlink:href="#DejaVuSerif-6f" transform="translate(102.392578 0)"/>
      <use xlink:href="#DejaVuSerif-64" transform="translate(162.597656 0)"/>
      <use xlink:href="#DejaVuSerif-69" transform="translate(226.611328 0)"/>
      <use xlink:href="#DejaVuSerif-66" transform="translate(258.59375 0)"/>
      <use xlink:href="#DejaVuSerif-69" transform="translate(295.605469 0)"/>
      <use xlink:href="#DejaVuSerif-65" transform="translate(327.587891 0)"/>
      <use xlink:href="#DejaVuSerif-64" transform="translate(386.767578 0)"/>
      <use xlink:href="#DejaVuSerif-20" transform="translate(450.78125 0)"/>
      <use xlink:href="#DejaVuSerif-4d" transform="translate(482.568359 0)"/>
      <use xlink:href="#DejaVuSerif-4b" transform="translate(584.960938 0)"/>
      <use xlink:href="#DejaVuSerif-20" transform="translate(659.667969 0)"/>
      <use xlink:href="#DejaVuSerif-28" transform="translate(691.455078 0)"/>
      <use xlink:href="#DejaVuSerif-48" transform="translate(730.46875 0)"/>
      <use xlink:href="#DejaVuSerif-26" transform="translate(817.675781 0)"/>
      <use xlink:href="#DejaVuSerif-52" transform="translate(906.689453 0)"/>
      <use xlink:href="#DejaVuSerif-39" transform="translate(981.982422 0)"/>
      <use xlink:href="#DejaVuSerif-38" transform="translate(1045.605469 0)"/>
      <use xlink:href="#DejaVuSerif-29" transform="translate(1109.228516 0)"/>
     </g>
    </g>
    <g id="patch_20">
     <path d="M 495.654062 66.5175 
L 513.654063 66.5175 
L 513.654063 60.2175 
L 495.654062 60.2175 
z
" style="fill: #00897b; opacity: 0.8"/>
    </g>
    <g id="text_20">
     <!-- PW-MK -->
     <g transform="translate(520.854062 66.5175) scale(0.09 -0.09)">
      <defs>
       <path id="DejaVuSerif-50" d="M 1581 2375 
L 2406 2375 
Q 2872 2375 3115 2626 
Q 3359 2878 3359 3353 
Q 3359 3831 3115 4081 
Q 2872 4331 2406 4331 
L 1581 4331 
L 1581 2375 
z
M 353 0 
L 353 331 
L 947 331 
L 947 4331 
L 353 4331 
L 353 4666 
L 2559 4666 
Q 3259 4666 3668 4311 
Q 4078 3956 4078 3353 
Q 4078 2753 3668 2397 
Q 3259 2041 2559 2041 
L 1581 2041 
L 1581 331 
L 2303 331 
L 2303 0 
L 353 0 
z
" transform="scale(0.015625)"/>
      </defs>
      <use xlink:href="#DejaVuSerif-50"/>
      <use xlink:href="#DejaVuSerif-57" transform="translate(67.285156 0)"/>
      <use xlink:href="#DejaVuSerif-2d" transform="translate(162.818359 0)"/>
      <use xlink:href="#DejaVuSerif-4d" transform="translate(196.607422 0)"/>
      <use xlink:href="#DejaVuSerif-4b" transform="translate(299 0)"/>
     </g>
    </g>
    <g id="patch_21">
     <path d="M 495.654062 79.727813 
L 513.654063 79.727813 
L 513.654063 73.427813 
L 495.654062 73.427813 
z
" style="fill: #e65100; opacity: 0.8"/>
    </g>
    <g id="text_21">
     <!-- TFPW-MK -->
     <g transform="translate(520.854062 79.727813) scale(0.09 -0.09)">
      <defs>
       <path id="DejaVuSerif-54" d="M 1222 0 
L 1222 331 
L 1819 331 
L 1819 4294 
L 447 4294 
L 447 3566 
L 63 3566 
L 63 4666 
L 4206 4666 
L 4206 3566 
L 3822 3566 
L 3822 4294 
L 2450 4294 
L 2450 331 
L 3047 331 
L 3047 0 
L 1222 0 
z
" transform="scale(0.015625)"/>
       <path id="DejaVuSerif-46" d="M 353 0 
L 353 331 
L 947 331 
L 947 4331 
L 353 4331 
L 353 4666 
L 4172 4666 
L 4172 3628 
L 3788 3628 
L 3788 4281 
L 1581 4281 
L 1581 2719 
L 3175 2719 
L 3175 3303 
L 3559 3303 
L 3559 1753 
L 3175 1753 
L 3175 2338 
L 1581 2338 
L 1581 331 
L 2328 331 
L 2328 0 
L 353 0 
z
" transform="scale(0.015625)"/>
      </defs>
      <use xlink:href="#DejaVuSerif-54"/>
      <use xlink:href="#DejaVuSerif-46" transform="translate(66.699219 0)"/>
      <use xlink:href="#DejaVuSerif-50" transform="translate(136.083984 0)"/>
      <use xlink:href="#DejaVuSerif-57" transform="translate(203.369141 0)"/>
      <use xlink:href="#DejaVuSerif-2d" transform="translate(298.902344 0)"/>
      <use xlink:href="#DejaVuSerif-4d" transform="translate(332.691406 0)"/>
      <use xlink:href="#DejaVuSerif-4b" transform="translate(435.083984 0)"/>
     </g>
    </g>
   </g>
  </g>
 </g>
 <defs>
  <clipPath id="p48f659dd8a">
   <rect x="45.617813" y="25.158281" width="586.67875" height="350.8032"/>
  </clipPath>
 </defs>
</svg>
